<svg width="44" height="77" viewBox="0 0 44 77" xmlns="http://www.w3.org/2000/svg" xmlns:sketch="http://www.bohemiancoding.com/sketch/ns"><title>0</title><desc>Created with Sketch.</desc><g id="0" transform="translate(-511 -59) translate(511 59)" sketch:type="MSShapeGroup" fill="none" fill-rule="evenodd"><path d="M0 0h44v77h-44v-77z" id="Fill-6" fill="#fff"/><path d="M8.139 27.979c0-2.286.313-4.43.939-6.437.627-2.005 1.566-3.757 2.818-5.255 1.252-1.497 2.767-2.678 4.545-3.542 1.778-.863 3.845-1.295 6.199-1.295 2.303 0 4.357.432 6.16 1.295 1.804.864 3.305 2.045 4.508 3.542 1.202 1.498 2.128 3.25 2.78 5.255.652 2.007.977 4.151.977 6.437v2.894c0 1.017.011 2.312.038 3.885.025 1.574.038 3.554.038 5.94v8.989c-.05 2.285-.389 4.417-1.014 6.398-.627 1.979-1.555 3.72-2.781 5.217-1.227 1.499-2.741 2.679-4.545 3.542-1.803.863-3.857 1.295-6.16 1.295-2.354 0-4.421-.432-6.199-1.295-1.778-.863-3.293-2.043-4.545-3.542-1.252-1.497-2.191-3.249-2.818-5.255-.626-2.006-.939-4.151-.939-6.437v-21.631zm25.912 0c-.05-4.062-1.02-7.261-2.909-9.597-1.89-2.336-4.698-3.504-8.427-3.504-3.729 0-6.575 1.168-8.541 3.504-1.965 2.336-2.946 5.535-2.946 9.597v21.631c0 4.114.981 7.325 2.946 9.635 1.966 2.312 4.811 3.466 8.541 3.466 3.729 0 6.537-1.143 8.427-3.428 1.89-2.285 2.859-5.483 2.909-9.596v-21.708z" id="Fill-21" fill="#1A5284"/></g></svg>