<svg width="44" height="77" viewBox="0 0 44 77" xmlns="http://www.w3.org/2000/svg" xmlns:sketch="http://www.bohemiancoding.com/sketch/ns"><title>1</title><desc>Created with Sketch.</desc><g id="1" transform="translate(-37 -59) translate(37 59)" sketch:type="MSShapeGroup" fill="none" fill-rule="evenodd"><path d="M0 0h44v77h-44v-77z" id="Fill-2" fill="#fff"/><path d="M13.603 33.996c-.559-.305-.914-.559-1.066-.762-.153-.202-.483-.482-.991-.838-.152-.152-.178-.33-.076-.533l11.502-20.032c.101-.102.202-.152.304-.152h2.902c.198 0 .298.127.298.381v53.012c0 .255-.1.381-.298.381h-2.528c-.199 0-.297-.126-.297-.381v-47.071c-.61 1.016-1.309 2.208-2.095 3.579-.788 1.371-1.6 2.794-2.437 4.266-.838 1.473-1.676 2.907-2.514 4.303-.838 1.398-1.588 2.655-2.247 3.771l-.457.076" id="Fill-12" fill="#1A5284"/></g></svg>