<svg width="45" height="77" viewBox="0 0 45 77" xmlns="http://www.w3.org/2000/svg" xmlns:sketch="http://www.bohemiancoding.com/sketch/ns"><title>2</title><desc>Created with Sketch.</desc><g id="2" transform="translate(-89 -59) translate(90 59)" sketch:type="MSShapeGroup" fill="none" fill-rule="evenodd"><path d="M-.006 0h44v77h-44v-77z" id="Fill-2" fill="#fff"/><path d="M8.363 65.453c-.356 0-.584-.254-.685-.762l-.153-1.295v-.38c0-.153.05-.279.153-.381l22.469-25.44c.914-1.117 1.777-2.437 2.59-3.961.811-1.523 1.219-3.275 1.219-5.255-.052-4.062-1.042-7.223-2.971-9.483-1.93-2.26-4.749-3.39-8.455-3.39-3.351 0-6.017.902-7.997 2.704-1.981 1.803-3.123 4.456-3.428 7.959-.102.56-.331.838-.686.838h-1.828c-.559 0-.787-.329-.685-.99.202-1.98.659-3.833 1.371-5.56.71-1.726 1.676-3.224 2.894-4.494 1.219-1.268 2.691-2.272 4.418-3.008 1.726-.736 3.681-1.105 5.865-1.105 2.335 0 4.418.432 6.246 1.295 1.828.864 3.351 2.045 4.57 3.542 1.219 1.498 2.158 3.25 2.818 5.255.66 2.007.99 4.151.99 6.437 0 2.031-.266 3.834-.8 5.408-.533 1.574-1.307 2.869-2.322 3.884l-22.165 25.059h23.992c.457 0 .686.305.686.914v1.295c0 .609-.229.914-.686.914h-27.42" id="Fill-13" fill="#1A5284"/></g></svg>