<svg width="44" height="77" viewBox="0 0 44 77" xmlns="http://www.w3.org/2000/svg" xmlns:sketch="http://www.bohemiancoding.com/sketch/ns"><title>3</title><desc>Created with Sketch.</desc><g id="3" transform="translate(-142 -59) translate(142 59)" sketch:type="MSShapeGroup" fill="none" fill-rule="evenodd"><path d="M0 0h44v77h-44v-77z" id="Fill-3" fill="#fff"/><path d="M12.127 37.119c0-.609.253-.914.761-.914h9.978c2.895-.457 5.23-1.726 7.008-3.809 1.776-2.082 2.691-4.595 2.742-7.54 0-3.402-1.067-5.814-3.199-7.236-2.133-1.422-4.926-2.133-8.379-2.133h-11.425c-.457 0-.685-.278-.685-.838v-1.599c0-.61.228-.914.685-.914h11.501c4.925 0 8.607 1.131 11.045 3.389 2.437 2.26 3.656 5.345 3.656 9.254 0 2.641-.699 5.18-2.095 7.617-1.397 2.438-3.466 4.266-6.207 5.484 1.268.457 2.423 1.118 3.465 1.98 1.04.865 1.929 1.88 2.666 3.047.735 1.169 1.307 2.45 1.714 3.847.406 1.397.609 2.831.609 4.304 0 2.082-.336 3.999-1.006 5.75-.671 1.752-1.648 3.275-2.932 4.57-1.285 1.295-2.854 2.299-4.707 3.009-1.854.712-3.949 1.066-6.284 1.066h-12.186c-.457 0-.686-.305-.686-.914v-1.6c0-.557.229-.837.686-.837l12.11.076c3.656 0 6.499-.991 8.531-2.971 2.03-1.98 3.047-4.671 3.047-8.073-.052-1.421-.343-2.844-.876-4.266-.534-1.421-1.245-2.69-2.133-3.808-.889-1.117-1.942-2.019-3.161-2.704-1.219-.686-2.514-1.029-3.885-1.029h-9.597c-.508 0-.761-.304-.761-.914v-1.294" id="Fill-14" fill="#1A5284"/></g></svg>