<svg width="45" height="77" viewBox="0 0 45 77" xmlns="http://www.w3.org/2000/svg" xmlns:sketch="http://www.bohemiancoding.com/sketch/ns"><title>4</title><desc>Created with Sketch.</desc><g id="4" transform="translate(-194 -59) translate(195 59)" sketch:type="MSShapeGroup" fill="none" fill-rule="evenodd"><path d="M-.006 0h44v77h-44v-77z" id="Fill-3" fill="#fff"/><path d="M5.859 48.163l23.231-36.789c.051-.101.115-.152.191-.152s.164-.026.266-.077c.101 0 .178-.025.229-.076l3.207-.076c.248 0 .373.127.373.381v36.332h7.083c.254 0 .381.127.381.381v2.133c0 .255-.127.381-.381.381h-7.083v14.471c0 .255-.125.381-.373.381h-2.682c-.249 0-.373-.126-.373-.381v-14.471h-23.688c-.255 0-.381-.126-.381-.381v-2.057zm24.069-.457v-32.066c-3.453 5.535-6.792 10.879-10.016 16.033-3.225 5.154-6.563 10.499-10.016 16.033h20.032z" id="Fill-15" fill="#1A5284"/></g></svg>