<svg width="44" height="77" viewBox="0 0 44 77" xmlns="http://www.w3.org/2000/svg" xmlns:sketch="http://www.bohemiancoding.com/sketch/ns"><title>5</title><desc>Created with Sketch.</desc><g id="5" transform="translate(-248 -59) translate(248 59)" sketch:type="MSShapeGroup" fill="none" fill-rule="evenodd"><path d="M0 0h44v77h-44v-77z" id="Fill-3" fill="#fff"/><path d="M34.726 50.067c0-1.98-.293-3.782-.876-5.408-.584-1.624-1.397-3.009-2.437-4.151-1.042-1.143-2.273-2.031-3.695-2.666-1.422-.634-2.97-.951-4.646-.951h-14.32c-.254 0-.38-.127-.38-.381v-23.993c0-.254.126-.381.38-.381h25.974c.152 0 .229.127.229.381v2.132c0 .203-.077.305-.229.305h-23.079v19.042h11.501c2.387 0 4.494.42 6.322 1.26 1.828.841 3.363 1.998 4.609 3.475 1.243 1.475 2.182 3.206 2.818 5.191.634 1.984.952 4.097.952 6.337 0 2.088-.318 4.047-.952 5.879-.636 1.833-1.55 3.437-2.742 4.81-1.194 1.375-2.679 2.47-4.456 3.284-1.778.814-3.835 1.221-6.17 1.221h-13.558c-.254 0-.381-.126-.381-.381v-2.361c0-.253.127-.381.381-.381l13.482.152c1.828 0 3.428-.329 4.798-.99 1.372-.659 2.539-1.561 3.504-2.704.964-1.143 1.701-2.462 2.209-3.96.507-1.498.762-3.085.762-4.761" id="Fill-16" fill="#1A5284"/></g></svg>