<svg width="45" height="77" viewBox="0 0 45 77" xmlns="http://www.w3.org/2000/svg" xmlns:sketch="http://www.bohemiancoding.com/sketch/ns"><title>6</title><desc>Created with Sketch.</desc><g id="6" transform="translate(-300 -59) translate(301 59)" sketch:type="MSShapeGroup" fill="none" fill-rule="evenodd"><path d="M-.006 0h44v77h-44v-77z" id="Fill-3" fill="#fff"/><path d="M11.512 39.556c1.323-2.261 2.978-3.868 4.965-4.819 1.985-.951 4.201-1.427 6.645-1.427 2.342 0 4.418.421 6.226 1.26 1.807.841 3.323 1.999 4.545 3.475s2.152 3.206 2.789 5.191c.636 1.985.98 4.096 1.031 6.336 0 2.29-.317 4.441-.952 6.45-.636 2.012-1.562 3.767-2.78 5.269-1.219 1.502-2.742 2.686-4.57 3.551-1.828.863-3.936 1.297-6.322 1.297-2.388 0-4.483-.432-6.284-1.295-1.803-.863-3.326-2.031-4.57-3.504-1.245-1.472-2.184-3.186-2.818-5.141-.636-1.955-.978-4.049-1.028-6.284v-21.936c0-2.286.309-4.43.929-6.437.619-2.005 1.559-3.757 2.818-5.255 1.26-1.497 2.79-2.678 4.592-3.542 1.802-.863 3.897-1.295 6.285-1.295 1.116 0 2.209.127 3.275.381 1.066.255 2.057.584 2.971.99.457.255.557.686.305 1.295l-.762 1.371c-.204.407-.484.533-.838.381-.712-.254-1.447-.444-2.209-.571-.762-.126-1.65-.191-2.666-.191-3.759 0-6.627 1.13-8.608 3.39-1.979 2.26-2.969 5.421-2.969 9.483v11.577zm0 10.359c.049 4.012 1.068 7.109 3.055 9.292 1.988 2.185 4.841 3.275 8.56 3.275 3.77 0 6.623-1.128 8.56-3.389 1.934-2.259 2.903-5.471 2.903-9.635-.102-3.91-1.121-6.97-3.057-9.179-1.936-2.209-4.738-3.312-8.406-3.312-3.771 0-6.648 1.13-8.636 3.389-1.987 2.26-2.979 5.446-2.979 9.559z" id="Fill-17" fill="#1A5284"/></g></svg>