<svg width="44" height="77" viewBox="0 0 44 77" xmlns="http://www.w3.org/2000/svg" xmlns:sketch="http://www.bohemiancoding.com/sketch/ns"><title>7</title><desc>Created with Sketch.</desc><g id="7" transform="translate(-353 -59) translate(353 59)" sketch:type="MSShapeGroup" fill="none" fill-rule="evenodd"><path d="M0 0h44v77h-44v-77z" id="Fill-4" fill="#fff"/><path d="M14.674 64.996c0 .305-.152.457-.457.457h-1.676c-.255 0-.445-.14-.571-.418-.128-.278-.141-.57-.038-.874l23.154-49.055h-25.668c-.457 0-.686-.312-.686-.936v-1.25c0-.624.229-.937.686-.937h27.191c1.269 0 1.905.584 1.905 1.752.05.56-.103 1.219-.457 1.981-.356.761-.686 1.472-.991 2.133l-22.392 47.147" id="Fill-18" fill="#1A5284"/></g></svg>