<svg width="45" height="77" viewBox="0 0 45 77" xmlns="http://www.w3.org/2000/svg" xmlns:sketch="http://www.bohemiancoding.com/sketch/ns"><title>8</title><desc>Created with Sketch.</desc><g id="8" transform="translate(-405 -59) translate(406 59)" sketch:type="MSShapeGroup" fill="none" fill-rule="evenodd"><path d="M-.006 0h44v77h-44v-77z" id="Fill-4" fill="#fff"/><path d="M37.874 26.709c-.102 1.476-.331 2.772-.687 3.892-.358 1.118-.854 2.123-1.49 3.013-.637.89-1.4 1.702-2.291 2.441-.889.738-1.895 1.487-3.015 2.251 1.323.861 2.443 1.799 3.359 2.813.917 1.014 1.68 2.066 2.291 3.155.611 1.091 1.056 2.195 1.337 3.309.279 1.115.445 2.154.496 3.118 0 2.231-.306 4.297-.916 6.197-.612 1.903-1.54 3.537-2.787 4.907-1.248 1.368-2.814 2.433-4.696 3.193-1.884.76-4.074 1.141-6.568 1.141-2.494 0-4.658-.394-6.491-1.179-1.832-.785-3.36-1.863-4.582-3.231-1.222-1.37-2.125-3.018-2.711-4.945-.585-1.927-.878-4.031-.878-6.313.05-2.029.622-4.068 1.717-6.122 1.096-2.053 2.89-4.018 5.385-5.895-2.088-1.169-3.731-2.656-4.926-4.462-1.196-1.805-1.921-4.107-2.176-6.904.05-2.288.394-4.387 1.03-6.293.636-1.906 1.566-3.56 2.787-4.958 1.222-1.399 2.737-2.48 4.544-3.242 1.807-.763 3.908-1.145 6.301-1.145 2.494 0 4.684.369 6.568 1.107 1.882.738 3.448 1.78 4.696 3.128 1.247 1.348 2.175 2.963 2.787 4.844.61 1.882.916 3.943.916 6.18zm-14.814 10.258c1.366 0 2.706-.229 4.022-.689 1.316-.458 2.505-1.133 3.568-2.025 1.063-.892 1.937-1.961 2.62-3.21.683-1.248 1.075-2.662 1.176-4.242-.05-4.28-1.012-7.324-2.884-9.134-1.873-1.809-4.758-2.713-8.655-2.713-3.797 0-6.58 1.058-8.351 3.172-1.771 2.114-2.733 5.159-2.883 9.134.15 1.478.568 2.815 1.252 4.012.682 1.198 1.543 2.218 2.581 3.058 1.038.841 2.214 1.49 3.53 1.948 1.316.46 2.657.689 4.024.689zm-.228 3.122c-1.621 0-2.936.242-3.948.723-1.012.484-2.075 1.131-3.188 1.943-1.164.864-2.113 1.98-2.846 3.351-.735 1.371-1.127 2.819-1.177 4.342 0 4.266.885 7.376 2.656 9.33 1.771 1.956 4.631 2.933 8.578 2.933 3.897 0 6.77-1.053 8.616-3.161 1.848-2.107 2.796-5.242 2.847-9.406-.101-1.574-.507-2.983-1.215-4.228-.709-1.243-1.644-2.297-2.808-3.161-1.063-.812-2.126-1.459-3.189-1.943-1.062-.481-2.404-.723-4.022-.723l-.229-.076-.075.076z" id="Fill-19" fill="#1A5284"/></g></svg>