<svg width="44" height="77" viewBox="0 0 44 77" xmlns="http://www.w3.org/2000/svg" xmlns:sketch="http://www.bohemiancoding.com/sketch/ns"><title>9</title><desc>Created with Sketch.</desc><g id="9" transform="translate(-459 -59) translate(459 59)" sketch:type="MSShapeGroup" fill="none" fill-rule="evenodd"><path d="M0 0h44v77h-44v-77zM0 0h44v77h-44v-77z" id="Fill-5" fill="#fff"/><path d="M33.961 38.718c-1.625 1.93-3.541 3.301-5.75 4.113-2.209.813-4.279 1.219-6.208 1.219-2.388 0-4.482-.444-6.284-1.333-1.803-.888-3.314-2.081-4.531-3.58-1.219-1.497-2.147-3.249-2.781-5.255-.635-2.006-.952-4.125-.952-6.361 0-2.182.329-4.252.99-6.208.659-1.954 1.6-3.655 2.819-5.102 1.217-1.447 2.728-2.602 4.531-3.466 1.802-.863 3.872-1.295 6.208-1.295 2.335 0 4.404.432 6.208 1.295 1.802.864 3.325 2.019 4.569 3.466 1.244 1.447 2.197 3.148 2.857 5.102.659 1.956 1.015 4.026 1.066 6.208v22.166c0 2.235-.331 4.354-.99 6.36-.66 2.006-1.612 3.758-2.857 5.255-1.244 1.499-2.779 2.679-4.607 3.542-1.828.863-3.911 1.295-6.246 1.295-3.454 0-6.627-1.067-9.522-3.2-.558-.506-1.091-1.104-1.598-1.79-.509-.685-.952-1.395-1.333-2.132-.381-.736-.686-1.448-.914-2.133-.229-.685-.343-1.256-.343-1.713 0-.457.202-.686.609-.686h1.828c.305 0 .507.28.61.838.253.813.595 1.625 1.027 2.437.432.813 1.029 1.575 1.79 2.285 2.285 2.133 4.875 3.199 7.77 3.199 3.808 0 6.741-1.171 8.797-3.515 2.056-2.341 3.11-5.678 3.161-10.008l.076-11.003zm-.076-11.273c0-1.624-.254-3.223-.762-4.799-.508-1.573-1.257-2.97-2.247-4.188-.989-1.219-2.234-2.209-3.731-2.971-1.499-.761-3.238-1.142-5.218-1.142-3.809 0-6.703 1.142-8.684 3.427-1.979 2.285-2.996 5.51-3.046 9.673 0 4.368 1.002 7.706 3.008 10.017 2.006 2.311 4.913 3.465 8.722 3.465 3.808 0 6.779-1.154 8.911-3.465 2.133-2.311 3.148-5.649 3.047-10.017z" id="Fill-20" fill="#1A5284"/></g></svg>