<svg width="38" height="38" viewBox="0 0 38 38" xmlns="http://www.w3.org/2000/svg" xmlns:sketch="http://www.bohemiancoding.com/sketch/ns"><title>best</title><g sketch:type="MSLayerGroup" fill="none" fill-rule="evenodd"><path d="M25.697 13.319c-.456-.456-1.195-.456-1.652 0l-6.67 8.115-3.928-3.882c-.455-.454-1.195-.454-1.65.001-.455.457-.455 1.195 0 1.648l4.772 4.715c.022.025.03.058.055.082.231.231.535.342.838.338.303.004.607-.107.838-.338.051-.051.075-.116.115-.174l7.28-8.855c.456-.457.456-1.194.002-1.65" fill="#46A83E" sketch:type="MSShapeGroup"/><path d="M18.748 31.336c-6.932 0-12.57-5.639-12.57-12.568 0-6.932 5.638-12.571 12.57-12.571 6.93 0 12.568 5.639 12.568 12.571 0 6.929-5.638 12.568-12.568 12.568zm0-23.139c-5.829 0-10.57 4.743-10.57 10.571 0 5.827 4.741 10.568 10.57 10.568 5.827 0 10.568-4.741 10.568-10.568 0-5.828-4.741-10.571-10.568-10.571z" fill="#1A213E" sketch:type="MSShapeGroup"/><path d="M34.837 22.996c.587-2.21 2.334-2.098 2.334-4.338 0-2.222-1.737-2.129-2.334-4.34-.595-2.211.967-2.993-.143-4.925-1.079-1.873-2.518-.989-4.152-2.633-1.645-1.635-.761-3.065-2.631-4.145-1.861-1.08-2.673.391-4.904-.205-2.24-.607-2.199-2.284-4.357-2.284-2.159 0-2.108 1.677-4.348 2.284-2.241.596-3.043-.875-4.914.205-1.87 1.08-.986 2.51-2.631 4.145-1.634 1.644-3.063.76-4.142 2.633-1.08 1.871.39 2.672-.206 4.904-.606 2.252-2.282 2.201-2.282 4.361 0 2.159 1.676 2.108 2.271 4.361.607 2.231-.863 3.043.217 4.904 1.11 1.922 2.559.977 4.183 2.593 1.624 1.612.648 3.073 2.59 4.194 1.871 1.08 2.673-.4 4.903.206 2.251.596 2.2 2.272 4.359 2.272 2.22 0 2.127-1.727 4.337-2.334 2.219-.595 2.991.978 4.924-.144 1.941-1.121.966-2.582 2.59-4.194 1.623-1.616 3.073-.66 4.193-2.593 1.11-1.923-.442-2.715.143-4.927zm-16.089 10.454c-8.111 0-14.685-6.573-14.685-14.682 0-8.11 6.574-14.685 14.685-14.685 8.109 0 14.683 6.575 14.683 14.685 0 8.109-6.574 14.682-14.683 14.682z" fill="#1A213E" sketch:type="MSShapeGroup"/></g></svg>