<svg width="40" height="36" viewBox="0 0 40 36" xmlns="http://www.w3.org/2000/svg" xmlns:sketch="http://www.bohemiancoding.com/sketch/ns"><title>chart</title><desc>Created with Sketch.</desc><g id="chart" sketch:type="MSLayerGroup" transform="translate(-374 -66) translate(374 67)" fill="#42A84D" fill-rule="evenodd"><path d="M30.53-.091l-3.666-.387c-.512-.054-.975.321-1.029.833-.054.511.321.974.832 1.028l1.421.15s-3.996 4.657-11.461 10.664c-8.342 6.712-14.765 10.436-14.765 10.436-.4.324-.462.916-.138 1.315.323.401.916.463 1.316.14 0 0 5.163-2.712 14.489-10.216 9.031-7.265 11.736-10.885 11.736-10.885l-.15 1.42c-.054.512.32.976.832 1.03.512.054.974-.321 1.028-.833l.387-3.666c.001-.008.002-.015.003-.024.009-.109-.003-.218-.031-.322-.019-.069-.047-.137-.082-.2-.058-.103-.134-.198-.226-.272-.053-.046-.113-.084-.175-.117-.101-.05-.21-.082-.321-.094" id="Fill-1" sketch:type="MSShapeGroup"/><path d="M24.931 12.197h4.935v18.093h-4.935v-18.093z" id="Fill-2" sketch:type="MSShapeGroup"/><path d="M32.333 3.973h4.934v26.317h-4.934v-26.317z" id="Fill-3" sketch:type="MSShapeGroup"/><path d="M10.127 23.711h4.935v6.579h-4.935v-6.579z" id="Fill-4" sketch:type="MSShapeGroup"/><path d="M17.529 18.776h4.935v11.514h-4.935v-11.514z" id="Fill-5" sketch:type="MSShapeGroup"/><path d="M.259 31.935h39.476v2.467h-39.476v-2.467z" id="Fill-6" sketch:type="MSShapeGroup"/><path d="M2.726 27.001h4.935v3.289h-4.935v-3.289z" id="Fill-7" sketch:type="MSShapeGroup"/></g></svg>