<svg width="26" height="26" viewBox="0 0 26 26" xmlns="http://www.w3.org/2000/svg" xmlns:sketch="http://www.bohemiancoding.com/sketch/ns"><title>done.svg</title><desc>Created with Sketch.</desc><g id="done.svg" sketch:type="MSLayerGroup" fill="none" fill-rule="evenodd"><path d="M13.26.359c-6.93 0-12.57 5.641-12.57 12.57 0 6.93 5.64 12.57 12.57 12.57 6.93 0 12.57-5.64 12.57-12.57 0-6.929-5.64-12.57-12.57-12.57" id="Fill-1" fill="#46A83E" sketch:type="MSShapeGroup"/><path d="M20.21 7.481c-.456-.456-1.194-.456-1.651 0l-6.67 8.114-3.928-3.881c-.456-.454-1.195-.454-1.651.001-.454.456-.454 1.195 0 1.649l4.773 4.715c.022.024.03.057.055.082.231.231.535.341.838.338.303.003.607-.109.838-.338.05-.052.075-.117.115-.174l7.28-8.856c.456-.457.456-1.194.001-1.65" id="Fill-2" fill="#fff" sketch:type="MSShapeGroup"/></g></svg>