<svg width="58" height="42" viewBox="0 0 58 42" xmlns="http://www.w3.org/2000/svg" xmlns:sketch="http://www.bohemiancoding.com/sketch/ns"><title>effective</title><desc>Created with Sketch.</desc><g id="effective" sketch:type="MSLayerGroup" transform="translate(-83 -598) translate(83 598)" fill="none" fill-rule="evenodd"><path d="M55.912 38.247h-.667v-34.558h.667c1.014 0 1.832-.824 1.832-1.835 0-1.015-.818-1.835-1.832-1.835h-53.879c-1.013 0-1.833.82-1.833 1.835 0 1.011.82 1.835 1.833 1.835h.666v34.558h-.666c-1.013 0-1.833.818-1.833 1.832 0 1.017.82 1.835 1.833 1.835h53.879c1.014 0 1.832-.818 1.832-1.835 0-1.014-.818-1.832-1.832-1.832zm-50.705-34.558h47.531v34.558h-47.531v-34.558z" id="Fill-1" fill="#0E1729" sketch:type="MSShapeGroup"/><path d="M10.999 35.185c.551.52 1.292.84 2.11.84.841 0 1.608-.345 2.164-.896l.003-.006c.558-.554.899-1.322.899-2.169 0-.587-.164-1.139-.452-1.609l7.467-8.896c.451.259.967.403 1.521.403.846 0 1.612-.341 2.166-.897l.003-.004.003.004c.17-.171.319-.363.445-.566l5.109 1.194c.068.735.393 1.397.887 1.894.557.556 1.324.897 2.171.897.849 0 1.614-.347 2.171-.897.02-.026.039-.044.061-.068.521-.551.838-1.295.838-2.106 0-.681-.222-1.31-.602-1.822l5.91-8.359c.278.077.569.117.868.117 1.479 0 2.716-1.01 3.069-2.375l.006-.021.006-.021.001-.026.006-.008v-.01l.007-.022.004-.024.003-.021.006-.022.006-.024.003-.02.003-.012v-.011l.004-.021.006-.023.001-.023.006-.025.001-.022.006-.021v-.021l.006-.027v-.02l.005-.022v-.025l.002-.023c.009-.089.012-.184.012-.277 0-1.747-1.418-3.166-3.169-3.166-1.748 0-3.167 1.419-3.167 3.166 0 .748.261 1.435.695 1.975l-5.88 8.321c-.283-.086-.582-.132-.894-.132-.844 0-1.612.342-2.164.9l-.003.003-.004-.003c-.17.17-.318.36-.443.565l-5.109-1.196c-.069-.733-.396-1.394-.889-1.89l-.006-.001c-.554-.556-1.32-.897-2.166-.897-.845 0-1.611.344-2.167.897h-.005c-.552.554-.896 1.322-.896 2.17 0 .428.089.839.251 1.21l-7.653 9.11c-.349-.14-.732-.215-1.132-.215-.845 0-1.612.342-2.169.899h-.004c-.555.554-.901 1.322-.901 2.166 0 .85.346 1.618.901 2.175.019.019.043.039.063.056zm23.691-13.685c.204-.205.49-.332.805-.332.298 0 .567.114.769.299l.036.036c.203.206.331.489.331.8 0 .299-.111.566-.292.767l-.039.036c-.206.208-.49.335-.805.335-.312 0-.597-.127-.802-.335-.208-.2-.335-.49-.335-.803 0-.311.127-.594.335-.8l-.003-.003zm-10.782-2.519v-.003c.201-.204.489-.33.803-.33.315 0 .601.126.805.33.203.206.332.489.332.806 0 .316-.129.598-.332.803l.003.002c-.207.201-.491.33-.808.33-.314 0-.599-.129-.803-.332v.002c-.206-.207-.33-.489-.33-.805 0-.312.125-.6.33-.803zm-11.605 13.168c.205-.2.489-.328.806-.328.312 0 .595.128.799.334.206.203.333.49.333.799 0 .318-.127.599-.327.805l-.006.006c-.204.2-.487.325-.799.325-.298 0-.565-.109-.769-.292l-.035-.039c-.206-.206-.331-.487-.331-.805 0-.309.125-.596.331-.799l-.002-.006z" id="Fill-2" fill="#43A84E" sketch:type="MSShapeGroup"/></g></svg>