<svg width="50" height="61" viewBox="0 0 50 61" xmlns="http://www.w3.org/2000/svg" xmlns:sketch="http://www.bohemiancoding.com/sketch/ns"><title>freedom</title><desc>Created with Sketch.</desc><g sketch:type="MSLayerGroup" fill="none" fill-rule="evenodd"><path d="M5.822 57.313c-.751 1.054-1.578 1.305-2.246 1.508-.569.176-.976.298-1.416.91-.254.36-.747.441-1.102.19-.355-.253-.439-.746-.182-1.103.654-.92 1.369-1.23 1.982-1.427.09-.029.178-.056.26-.081.569-.173.982-.298 1.417-.911.44-.615.422-1.047.4-1.642-.002-.087-.007-.176-.011-.268-.011-.646.045-1.423.702-2.344.654-.922 1.369-1.231 1.985-1.428.089-.028.175-.056.257-.081.57-.173.981-.298 1.417-.91.437-.614.422-1.045.399-1.641-.004-.083-.008-.172-.011-.267-.007-.312.008-.657.096-1.033l.424.304.287.203.773.551c.003.058.005.12.008.183.028.697.06 1.563-.689 2.616-.751 1.051-1.578 1.302-2.246 1.506-.566.169-.977.294-1.414.91-.437.615-.422 1.044-.401 1.64.028.696.061 1.562-.689 2.615" fill="#3292B0" sketch:type="MSShapeGroup"/><path d="M12.745 10.154c-3.954 5.556-5.224 11.249-5.182 16.35.009.797.049 1.576.118 2.339.547 6.379 2.961 11.552 4.246 13.91-.12.028-.233.093-.31.201-.013.017-.014.036-.024.053-.062.111-.084.231-.059.345.025.123.09.237.2.317-.854.123-1.949.526-2.787 1.704l1.656 1.178.67.479.069.047.588.418.887.632c.861-1.208.903-2.345.743-3.168.109.061.229.083.343.061.124-.025.237-.092.318-.201.003-.003.006-.003.007-.005.062-.087.084-.187.087-.287 4.912 1.03 20.3 2.86 30.537-11.521 7.151-10.046 5.762-23.308-3.103-29.619-.576-.41-1.173-.78-1.779-1.112-1.488-.81-3.059-1.389-4.678-1.744-7.927-1.744-16.994 1.823-22.547 9.623zm26.629 22.058c-.678 1.136-1.754 1.746-2.4 1.359-.648-.385-.624-1.621.054-2.757.679-1.135 1.753-1.743 2.4-1.358.649.387.624 1.621-.054 2.756zm5.819-15.603c.776 7.741-4.28 12.018-4.899 10.839-.731-.926 1.63-5.242.959-10.441-.239-3.259-1.566-5.946-2.402-7.762-.504-1.096-.831-1.877-.63-2.274.101-.355.624-.366 1.343-.032 1.868.87 5.055 4.079 5.629 9.67z" fill="#0E1729" sketch:type="MSShapeGroup"/></g></svg>