<svg width="48" height="50" viewBox="0 0 48 50" xmlns="http://www.w3.org/2000/svg" xmlns:sketch="http://www.bohemiancoding.com/sketch/ns"><title>home</title><desc>Created with Sketch.</desc><g sketch:type="MSLayerGroup" fill="#020202" fill-rule="evenodd"><path d="M11.014 49.809c-2.848 0-4.99-2.316-4.99-5.164-.006-4.585-.017-12.64-.025-15.417l-.329-.001c-2.822 0-5.119-2.296-5.119-5.119 0-1.494.653-2.91 1.79-3.885l18.209-18.387c.966-.967 2.26-1.499 3.644-1.499 1.384 0 2.057.532 3.023 1.499l18.441 18.439c1.081.923 1.732 2.339 1.732 3.833 0 2.823-2.295 5.119-5.117 5.119h-.341v15.418c0 2.848-2.317 5.164-5.165 5.164h-25.753zm10.95-46.559l-18.44 18.439c-.75.647-1.147 1.51-1.147 2.419 0 1.72 1.398 3.118 3.118 3.118l1.328.004c.994 0 .997.866 1 1.702l.026 15.712c0 1.746 1.445 3.369 3.19 3.369h25.607c1.746 0 3.366-1.623 3.366-3.368v-16.411c0-.552.448-1.008 1-1.008h1.341c1.719 0 3.117-1.398 3.117-3.118 0-.909-.397-1.772-1.09-2.367l-18.497-18.491c-.589-.589-.839-.913-1.689-.913-.849 0-1.641.324-2.23.913z" sketch:type="MSShapeGroup"/><path d="M28.944 40h-9.887c-2.237 0-4.056-1.819-4.056-4.056v-9.887c0-2.236 1.819-4.056 4.056-4.056h9.887c2.237 0 4.056 1.82 4.056 4.056v9.887c0 2.237-1.819 4.056-4.056 4.056zm-9.887-15.972c-1.119 0-2.028.91-2.028 2.028v9.887c0 1.119.91 2.028 2.028 2.028h9.887c1.119 0 2.028-.91 2.028-2.028v-9.887c0-1.119-.91-2.028-2.028-2.028h-9.887z" sketch:type="MSShapeGroup"/></g></svg>