<svg width="62" height="61" viewBox="0 0 62 61" xmlns="http://www.w3.org/2000/svg" xmlns:sketch="http://www.bohemiancoding.com/sketch/ns"><title>in</title><path d="M30.395.116c-16.593 0-30.044 13.432-30.044 30 0 16.569 13.451 30 30.044 30 16.591 0 30.043-13.431 30.043-30 0-16.568-13.452-30-30.043-30zm-14.456 23.71h6.799v20.427h-6.799v-20.427zm3.399-2.788h-.044c-2.281 0-3.758-1.569-3.758-3.531 0-2.003 1.522-3.528 3.847-3.528s3.758 1.525 3.802 3.528c0 1.962-1.477 3.531-3.847 3.531zm27.918 23.215h-6.799v-10.928c0-2.745-.984-4.618-3.445-4.618-1.879 0-2.996 1.263-3.489 2.482-.179.437-.224 1.046-.224 1.657v11.408h-6.798s.089-18.51 0-20.427h6.798v2.893c.902-1.391 2.519-3.373 6.129-3.373 4.474 0 7.828 2.92 7.828 9.194v11.712z" id="in" sketch:type="MSShapeGroup" fill="#007CB6" fill-rule="evenodd"/></svg>