<svg width="61" height="61" viewBox="0 0 61 61" xmlns="http://www.w3.org/2000/svg" xmlns:sketch="http://www.bohemiancoding.com/sketch/ns"><title>insta</title><g sketch:type="MSShapeGroup" fill="#4F7FA3" fill-rule="evenodd"><path d="M41.21 17.339c-.961-.001-1.924-.001-2.887 0-.689.001-1.238.552-1.238 1.242 0 .955-.004 1.91.004 2.865 0 .143.027.291.072.426.174.508.641.82 1.211.823.465.001.928-.001 1.393-.001.502-.005 1.008.004 1.509-.007.647-.017 1.174-.57 1.174-1.217v-2.89c0-.691-.547-1.241-1.238-1.241"/><path d="M39.909 31.247c-.162 1.363-.601 2.632-1.318 3.803-.717 1.173-1.647 2.144-2.783 2.917-2.95 2.006-6.832 2.182-9.961.429-1.582-.886-2.824-2.121-3.69-3.712-1.291-2.374-1.498-4.867-.74-7.453-.969.001-1.932.001-2.908.001v13.628c0 .649.564 1.208 1.215 1.208h21.507c.659 0 1.217-.558 1.217-1.212.002-4.51 0-9.019 0-13.529v-.094h-2.916c.412 1.315.539 2.652.377 4.014"/><path d="M30.339 36.295c3.459.075 6.256-2.686 6.33-6.042.074-3.462-2.723-6.321-6.189-6.319-3.389-.002-6.143 2.72-6.19 6.089-.049 3.459 2.723 6.201 6.049 6.272"/><path d="M30.48.116c-16.592 0-30.043 13.432-30.043 30 0 16.569 13.451 30 30.043 30 16.593 0 30.044-13.431 30.044-30 0-16.568-13.451-30-30.044-30zm15.277 42.206c-.022.136-.041.274-.069.409-.242 1.253-1.261 2.293-2.509 2.557-.158.034-.317.056-.475.084h-24.447c-.065-.011-.131-.024-.195-.032-1.344-.172-2.475-1.196-2.774-2.518-.035-.155-.057-.311-.084-.466v-24.478c.01-.057.022-.114.029-.171.194-1.369 1.194-2.458 2.547-2.766.147-.033.295-.053.444-.08h24.513c.057.011.114.023.17.031 1.387.189 2.516 1.25 2.783 2.618.028.133.045.267.067.401v24.411z"/></g></svg>