<svg width="252" height="82" viewBox="0 0 252 82" xmlns="http://www.w3.org/2000/svg" xmlns:sketch="http://www.bohemiancoding.com/sketch/ns"><title>key</title><g id="key" sketch:type="MSLayerGroup" fill="#fff" fill-rule="evenodd"><path d="M248.217 47.678h-166.921v-2h166.921c.847 0 1.537-.69 1.537-1.537v-6.262c0-.848-.69-1.537-1.537-1.537h-166.921v-2h166.921c1.95 0 3.537 1.587 3.537 3.537v6.262c0 1.95-1.587 3.537-3.537 3.537" id="Fill-1" sketch:type="MSShapeGroup"/><path d="M237.939 70.338h-8.293c-.552 0-.999-.447-.999-1v-12.164c0-1.405-1.144-2.549-2.549-2.549h-.259c-1.405 0-2.549 1.144-2.549 2.549v12.164c0 .553-.447 1-1 1h-11.35c-.553 0-1-.447-1-1v-12.164c0-1.405-1.144-2.549-2.549-2.549h-.259c-1.406 0-2.55 1.144-2.55 2.549v12.164c0 .553-.447 1-1 1h-8.751c-2.509 0-4.55-2.041-4.55-4.55v-19.851h2v19.851c0 1.406 1.144 2.55 2.55 2.55h7.751v-11.164c0-2.508 2.041-4.549 4.55-4.549h.259c2.508 0 4.548 2.041 4.548 4.549v11.164h9.351v-11.164c0-2.508 2.041-4.549 4.549-4.549h.259c2.508 0 4.549 2.041 4.549 4.549v11.164h7.292c1.406 0 2.549-1.144 2.549-2.55v-19.851h2v19.851c0 2.509-2.041 4.55-4.549 4.55" id="Fill-2" sketch:type="MSShapeGroup"/><path d="M41.354 73.363c-10.679 0-19.367-8.687-19.367-19.365 0-4.846 1.769-9.42 5.001-12.988-3.232-3.567-5.001-8.141-5.001-12.987 0-10.677 8.688-19.365 19.367-19.365 10.678 0 19.366 8.688 19.366 19.365 0 4.847-1.769 9.421-5 12.987 3.231 3.567 5 8.142 5 12.988 0 10.678-8.688 19.365-19.366 19.365zm0-62.705c-9.577 0-17.367 7.79-17.367 17.365 0 4.639 1.807 8.999 5.088 12.28.391.39.391 1.023 0 1.414-3.281 3.282-5.088 7.643-5.088 12.281 0 9.575 7.79 17.365 17.367 17.365 9.576 0 17.366-7.79 17.366-17.365 0-4.639-1.807-9-5.088-12.281-.188-.188-.293-.443-.293-.707 0-.266.105-.52.293-.707 3.281-3.28 5.088-7.64 5.088-12.28 0-9.575-7.79-17.365-17.366-17.365z" id="Fill-3" sketch:type="MSShapeGroup"/><path d="M79.762 45.692c-2.321 19.138-18.655 34.018-38.408 34.018-21.34 0-38.701-17.36-38.701-38.7 0-21.34 17.361-38.7 38.701-38.7 19.757 0 36.094 14.885 38.409 34.029h2.015c-2.325-20.249-19.562-36.029-40.424-36.029-22.443 0-40.701 18.257-40.701 40.7 0 22.442 18.258 40.7 40.701 40.7 20.858 0 38.092-15.775 40.423-36.018h-2.015" id="Fill-4" sketch:type="MSShapeGroup"/></g></svg>