<svg width="258" height="84" viewBox="0 0 258 84" xmlns="http://www.w3.org/2000/svg" xmlns:sketch="http://www.bohemiancoding.com/sketch/ns"><title>key</title><desc>Created with Sketch.</desc><g id="key" sketch:type="MSLayerGroup" transform="translate(-158 -302) translate(159 302)" fill="#fff" fill-rule="evenodd"><path d="M234.015 72.03c-.565 0-1.024-.458-1.024-1.024v-12.461c0-1.44-1.17-2.611-2.61-2.611h-.692c-1.439 0-2.61 1.171-2.61 2.611v12.461c0 .566-.458 1.024-1.024 1.024h-10.967c-.566 0-1.024-.458-1.024-1.024v-12.461c0-1.44-1.17-2.611-2.61-2.611h-.823c-1.44 0-2.611 1.171-2.611 2.611v12.461c0 .566-.458 1.024-1.024 1.024h-8.4c-2.569 0-4.658-2.091-4.658-4.661l.028-20.133h2.048l-.028 20.133c0 1.44 1.171 2.612 2.611 2.612h7.377v-11.436c0-2.569 2.09-4.66 4.658-4.66h.823c2.568 0 4.657 2.091 4.657 4.66v11.436h8.919v-11.436c0-2.569 2.09-4.66 4.657-4.66h.692c2.568 0 4.657 2.091 4.657 4.66v11.436h7.352c1.441 0 2.611-1.172 2.611-2.612l.028-20.133h2.048l-.028 20.133c0 2.57-2.09 4.661-4.658 4.661h-8.376z" id="Fill-1" sketch:type="MSShapeGroup"/><path d="M80.816 46.985c-2.376 19.605-19.099 34.848-39.324 34.848-21.848 0-39.621-17.784-39.621-39.644s17.773-39.645 39.621-39.645c20.228 0 36.954 15.249 39.324 34.86h2.064c-2.38-20.743-20.028-36.909-41.387-36.909-22.976 0-41.669 18.703-41.669 41.694 0 22.989 18.693 41.693 41.669 41.693 21.356 0 39-16.16 41.386-36.896h-2.063" id="Fill-2" sketch:type="MSShapeGroup"/><path d="M82.016 35.014v2.049h170.895c.867 0 1.574.706 1.574 1.574l.371 6.759c0 .868-.706 1.574-1.574 1.574h-170.699v2.049h170.699c1.996 0 3.621-1.626 3.621-3.623l-.371-6.759c0-1.998-1.625-3.623-3.621-3.623h-170.895z" id="Fill-3" sketch:type="MSShapeGroup"/><path d="M40.969 75.809c-11.173 0-20.263-9.095-20.263-20.274 0-4.94 1.778-9.643 5.027-13.347-3.249-3.705-5.027-8.407-5.027-13.348 0-11.179 9.09-20.274 20.263-20.274 11.173 0 20.263 9.095 20.263 20.274 0 4.941-1.779 9.643-5.028 13.348 3.249 3.704 5.028 8.407 5.028 13.347 0 11.179-9.09 20.274-20.263 20.274zm0-65.193c-10.045 0-18.216 8.177-18.216 18.225 0 4.73 1.813 9.216 5.107 12.636l.685.712-.685.711c-3.294 3.419-5.107 7.907-5.107 12.636 0 10.049 8.171 18.225 18.216 18.225 10.044 0 18.216-8.176 18.216-18.225 0-4.729-1.814-9.216-5.108-12.636l-.685-.711.685-.712c3.294-3.419 5.108-7.906 5.108-12.636 0-10.048-8.172-18.225-18.216-18.225z" id="Fill-4" sketch:type="MSShapeGroup"/></g></svg>