<svg width="466" height="851" viewBox="0 0 466 851" xmlns="http://www.w3.org/2000/svg" xmlns:sketch="http://www.bohemiancoding.com/sketch/ns"><title>leader-programm</title><desc>Created with Sketch.</desc><g id="leader-programm" sketch:type="MSLayerGroup" transform="translate(0 1)" fill="none" fill-rule="evenodd"><path d="M206.756 850v-206.198c0-14.359-11.64-26-26-26h-25.308v232.198h51.308" id="Fill-1" fill="#863F87" sketch:type="MSShapeGroup"/><path d="M180.756 9.454h-25.308v243.311h25.308c14.36 0 26.001-11.641 26.001-26v-191.311c0-14.359-11.641-26-26.001-26" id="Fill-2" fill="#AB7DAB" sketch:type="MSShapeGroup"/><path d="M180.756 252.765h-25.308v364.966h25.308c14.36 0 26.001-11.641 26.001-26.001v-312.965c0-14.359-11.641-26-26.001-26" id="Fill-3" fill="#975E97" sketch:type="MSShapeGroup"/><path d="M155.448 9.454v840.546m-19.049-840.546h38.548m-38.548 121.655h38.548m-38.548 121.656h38.548m-38.548 121.655h38.548m-38.548 121.655h38.548m-38.548 121.656h38.548m-38.548 121.655h38.548" id="Stroke-4" stroke="#000206" stroke-width="8" sketch:type="MSShapeGroup"/><path d="M75.746 19.917c-.212 0-.394-.087-.548-.259-.155-.174-.231-.405-.231-.694l-.058-12.501-5.804 9.556v-.028c-.172.288-.403.433-.692.433-.289 0-.511-.145-.665-.433l-5.716-9.557v12.53c0 .289-.072.52-.217.694-.144.172-.341.259-.591.259h-1.704c-.27 0-.467-.087-.592-.259-.125-.174-.187-.405-.187-.694v-18.304c0-.289.062-.52.187-.694.125-.173.322-.259.592-.259h1.848c.154 0 .303.058.447.173.145.116.236.212.275.288l6.294 10.626 6.178-10.626c.039-.057.13-.138.275-.244.144-.106.264-.169.361-.188.057 0 .163-.005.317-.015.154-.01.336-.014.549-.014h1.299c.269 0 .467.086.592.259.125.174.188.405.188.694v18.304c0 .289-.063.52-.188.694-.125.172-.323.259-.592.259h-1.617" id="Fill-5" fill="#1A1918" sketch:type="MSShapeGroup"/><path d="M81.203 19.917c-.327 0-.563-.12-.707-.361-.145-.241-.169-.524-.073-.852l6.092-18.362v.029c.039-.192.145-.351.317-.476.174-.125.337-.188.492-.188h1.819c.153 0 .312.063.476.188.163.125.274.284.332.476l6.092 18.333c.096.328.067.611-.087.852s-.385.361-.693.361h-1.905c-.154 0-.313-.063-.477-.188-.163-.125-.274-.293-.332-.505v.029l-1.126-3.551h-6.582l-1.126 3.551v-.029c-.058.212-.169.38-.332.505-.164.125-.323.188-.477.188h-1.703zm4.59-7.333h4.678c-.212-.674-.414-1.319-.607-1.935l-.548-1.876c-.173-.636-.357-1.28-.549-1.935-.192-.654-.394-1.347-.606-2.079l-2.368 7.825z" id="Fill-6" fill="#1A1918" sketch:type="MSShapeGroup"/><path d="M104.949-.293c1.075 0 2.011.212 2.809.635.796.424 1.459.967 1.988 1.631.527.664.926 1.401 1.195 2.209s.404 1.588.404 2.339c0 .77-.13 1.564-.389 2.382-.259.818-.653 1.569-1.181 2.252-.527.683-1.194 1.241-2 1.674-.806.433-1.747.65-2.821.65l-3.628.029v5.514c0 .231-.077.438-.231.621-.154.183-.327.274-.519.274h-1.848c-.193 0-.366-.091-.52-.274-.154-.183-.231-.39-.231-.621v-18.42c0-.212.077-.414.23-.606.154-.193.327-.289.519-.289h6.223zm-3.623 3.407v6.987h3.263c.538 0 1.019-.101 1.443-.304.424-.202.779-.471 1.069-.808.288-.337.509-.712.664-1.126.153-.414.231-.842.231-1.285 0-.423-.078-.841-.231-1.256-.155-.413-.376-.784-.664-1.112-.29-.326-.645-.591-1.069-.793-.424-.203-.905-.303-1.443-.303h-3.263z" id="Fill-7" fill="#1A1918" sketch:type="MSShapeGroup"/><path d="M119.594 19.917c-.267 0-.472-.087-.615-.26-.144-.173-.215-.405-.215-.695v-15.878h-4.764c-.25 0-.452-.085-.606-.257-.154-.171-.231-.401-.231-.687v-1.488c0-.287.077-.515.231-.688.154-.171.356-.257.606-.257h12.791c.25 0 .447.086.591.257.145.173.217.401.217.688v1.488c0 .286-.072.516-.217.687-.144.172-.341.257-.591.257h-4.678v15.878c0 .29-.081.522-.243.695-.162.173-.358.26-.587.26h-1.689" id="Fill-8" fill="#1A1918" sketch:type="MSShapeGroup"/><path d="M32.41 138.896c-.328 0-.563-.12-.707-.361-.145-.241-.169-.524-.073-.852l6.092-18.362v.029c.039-.192.145-.351.318-.476.173-.125.337-.188.491-.188h1.819c.154 0 .312.063.476.188.163.125.274.284.332.476l6.092 18.333c.096.328.067.611-.087.852s-.385.361-.693.361h-1.905c-.154 0-.313-.062-.477-.188-.163-.125-.274-.293-.332-.505v.029l-1.126-3.551h-6.582l-1.126 3.551v-.029c-.058.212-.169.38-.332.505-.164.126-.323.188-.477.188h-1.703zm4.591-7.333h4.677c-.212-.674-.414-1.319-.607-1.935l-.548-1.876c-.173-.636-.357-1.28-.549-1.935-.192-.654-.394-1.347-.606-2.079l-2.367 7.825z" id="Fill-9" fill="#1A1918" sketch:type="MSShapeGroup"/><path d="M60.35 138.896c-.267 0-.472-.086-.615-.259-.144-.173-.215-.403-.215-.692v-15.881h-6.496v15.881c0 .289-.072.519-.216.692-.145.173-.343.259-.592.259h-1.704c-.27 0-.476-.087-.62-.26-.145-.173-.217-.404-.217-.693v-18.304c0-.289.072-.52.216-.694.144-.173.351-.259.619-.259h11.524c.23 0 .427.086.591.259.163.174.244.405.244.694v18.304c0 .289-.081.52-.244.693-.162.173-.357.26-.586.26h-1.689" id="Fill-10" fill="#1A1918" sketch:type="MSShapeGroup"/><path d="M72.988 118.686c1.075 0 2.012.212 2.809.635.796.424 1.459.967 1.988 1.631.527.664.926 1.401 1.195 2.209s.404 1.588.404 2.339c0 .77-.13 1.564-.389 2.382-.259.818-.653 1.569-1.181 2.252-.527.683-1.194 1.241-2 1.674-.806.433-1.747.65-2.821.65l-3.628.029v5.514c0 .231-.077.438-.231.621-.154.183-.327.274-.519.274h-1.848c-.193 0-.366-.091-.52-.274-.154-.183-.231-.39-.231-.621v-18.42c0-.212.077-.414.231-.606.153-.193.326-.289.518-.289h6.223zm-3.623 3.407v6.987h3.263c.538 0 1.019-.101 1.443-.304.424-.202.779-.471 1.069-.808.288-.337.509-.712.664-1.126.153-.413.231-.842.231-1.285 0-.423-.078-.842-.231-1.256-.155-.413-.376-.784-.664-1.111-.29-.327-.645-.592-1.069-.794-.424-.203-.905-.303-1.443-.303h-3.263z" id="Fill-11" fill="#1A1918" sketch:type="MSShapeGroup"/><path d="M81.924 119.639c0-.289.072-.52.217-.694.144-.173.341-.259.591-.259h10.741c.25 0 .447.086.592.259.144.174.216.405.216.694v1.472c0 .289-.072.519-.216.693-.145.173-.342.26-.592.26h-8.2v5.024h7.449c.269 0 .476.086.621.259.144.174.216.405.216.693v1.473c0 .288-.072.519-.216.693-.145.173-.352.259-.621.259h-7.449v5.053h8.142c.25 0 .447.086.592.257.144.173.217.402.217.688v1.488c0 .287-.073.516-.217.688-.145.171-.342.257-.592.257h-10.683c-.25 0-.447-.087-.591-.26-.145-.173-.217-.404-.217-.693v-18.304" id="Fill-12" fill="#1A1918" sketch:type="MSShapeGroup"/><path d="M99.738 124.605c.192-.789.462-1.54.808-2.252.347-.712.761-1.343 1.242-1.892.481-.548 1.039-.981 1.674-1.299.636-.317 1.348-.476 2.137-.476h4.092c.253 0 .456.086.612.259.155.174.233.405.233.694v18.304c0 .289-.078.52-.233.693-.156.173-.359.26-.612.26h-1.66c-.272 0-.481-.087-.626-.26-.146-.173-.218-.404-.218-.693v-15.966h-1.184c-1.463 0-2.512 1.194-3.147 3.58l-3.118 12.444.029-.029c-.077.308-.173.54-.289.693-.115.154-.337.231-.664.231h-1.646c-.308 0-.543-.125-.707-.375-.164-.25-.197-.539-.101-.866v.028l3.378-13.078" id="Fill-13" fill="#1A1918" sketch:type="MSShapeGroup"/><path d="M117.494 126.423h3.426c1.056 0 1.996.155 2.821.463.825.308 1.521.736 2.088 1.284.566.549.997 1.203 1.295 1.964.297.76.446 1.602.446 2.526-.019.808-.168 1.588-.447 2.338-.278.751-.686 1.415-1.224 1.992-.538.578-1.21 1.04-2.017 1.386-.806.347-1.747.52-2.823.52h-6.137c-.211 0-.393-.091-.547-.274-.153-.183-.23-.39-.23-.621v-18.42c0-.212.077-.414.231-.606.154-.193.336-.289.548-.289h1.762c.25 0 .447.086.591.259.145.174.217.405.217.694v6.784zm0 3.465v5.572h3.262c1.078 0 1.925-.255 2.541-.765.616-.51.924-1.179.924-2.006 0-.886-.274-1.574-.823-2.065-.548-.49-1.371-.736-2.468-.736h-3.436z" id="Fill-14" fill="#1A1918" sketch:type="MSShapeGroup"/><path d="M235.196 118.685h-11.524c-.269 0-.476.087-.619.261-.145.172-.216.404-.216.692v18.305c0 .29.072.52.216.693.145.174.351.26.621.26h1.703c.25 0 .447-.086.593-.26.143-.171.215-.402.215-.691v-15.881h6.496v15.881c0 .289.072.52.215.691.143.174.349.26.615.26h1.69c.229 0 .425-.086.586-.26.163-.173.244-.403.244-.693v-18.305c0-.288-.082-.52-.244-.692-.164-.174-.361-.261-.591-.261" id="Fill-15" fill="#AB7DAB" sketch:type="MSShapeGroup"/><path d="M245.241 135.662c-.52 0-.963-.087-1.329-.26-.365-.173-.663-.406-.895-.695-.23-.29-.398-.618-.505-.985-.106-.366-.158-.744-.158-1.129v-2.81c0-.406.047-.787.144-1.145.096-.357.26-.671.491-.94.231-.271.534-.489.909-.653.376-.164.842-.246 1.4-.246.52 0 .963.087 1.328.261.366.173.664.405.895.694.232.29.399.619.506.986.106.367.159.743.159 1.129v2.724c0 .385-.058.763-.174 1.129-.115.367-.293.695-.534.985-.24.289-.548.522-.924.695-.375.173-.813.26-1.313.26m.057-12.241c-.577 0-1.111.068-1.601.201-.491.136-.969.329-1.429.579-.097-.155-.213-.289-.347-.405-.135-.116-.261-.174-.376-.174h-1.617c-.231 0-.419.107-.563.319-.144.211-.216.414-.216.606v19.373c0 .211.072.414.216.606.144.192.332.289.563.289h1.617c.173 0 .351-.097.534-.289.183-.192.275-.395.275-.606v-5.544c.846.443 1.809.664 2.887.664 1.096 0 2.044-.191 2.843-.577.799-.384 1.449-.881 1.95-1.487.499-.607.875-1.289 1.126-2.049.249-.761.375-1.525.375-2.296v-2.945c0-.751-.126-1.502-.375-2.252-.251-.751-.627-1.42-1.126-2.007-.501-.587-1.146-1.068-1.934-1.443-.79-.376-1.724-.563-2.802-.563" id="Fill-16" fill="#AB7DAB" sketch:type="MSShapeGroup"/><path d="M266.548 123.622h-1.587c-.252 0-.444.078-.579.232-.135.154-.201.366-.201.635v.924l-6.237 7.102v-8.026c0-.269-.063-.481-.187-.635-.127-.154-.314-.232-.564-.232h-1.616c-.213 0-.386.078-.521.232-.134.154-.202.366-.202.635v13.483c0 .212.068.419.202.622.135.201.308.302.521.302h1.616c.25 0 .437-.077.564-.23.124-.154.187-.366.187-.636v-1.039l6.237-6.988v8.027c0 .27.066.482.201.636.135.153.327.23.579.23h1.587c.23 0 .413-.077.548-.23.135-.154.203-.366.203-.636v-13.541c0-.269-.068-.481-.203-.635-.135-.154-.318-.232-.548-.232" id="Fill-17" fill="#AB7DAB" sketch:type="MSShapeGroup"/><path d="M273.766 129.744c0-.424.062-.833.187-1.227.125-.395.312-.746.564-1.054.249-.308.567-.553.951-.736.386-.183.838-.274 1.357-.274.54 0 1.006.096 1.402.288.394.193.711.447.951.765.242.318.424.674.55 1.068.125.395.187.786.187 1.17h-6.149m3.176-6.294c-1.078 0-2.026.187-2.845.564-.818.374-1.497.856-2.035 1.442-.538.587-.948 1.256-1.227 2.007-.28.751-.428 1.501-.448 2.251v2.917c0 .771.135 1.535.404 2.296.27.76.67 1.442 1.199 2.049.528.606 1.193 1.103 1.992 1.487.798.386 1.728.577 2.786.577 1.02 0 1.915-.163 2.685-.491.77-.326 1.404-.682 1.905-1.068.154-.134.256-.317.304-.548.047-.231.024-.443-.072-.636l-.723-1.24c-.154-.154-.345-.256-.577-.304-.06-.013-.118-.019-.173-.019-.155 0-.29.05-.404.149-.328.25-.751.476-1.27.679-.52.201-1.031.302-1.53.302-.559 0-1.035-.101-1.429-.302-.396-.203-.722-.462-.983-.78-.259-.318-.452-.674-.577-1.069-.125-.393-.187-.793-.187-1.198v-.115h8.805c.193 0 .37-.091.534-.274.164-.183.246-.399.246-.649v-1.704c-.02-.751-.168-1.501-.447-2.252-.28-.751-.684-1.429-1.213-2.036-.53-.606-1.189-1.097-1.978-1.471-.79-.377-1.703-.564-2.742-.564m-2.599-5.428c-.481 0-.885.178-1.213.534-.327.357-.491.765-.491 1.227 0 .482.164.891.491 1.226.328.337.732.507 1.213.507.501 0 .919-.17 1.256-.507.337-.335.505-.744.505-1.226 0-.462-.168-.87-.505-1.227-.337-.356-.755-.534-1.256-.534m5.167 0c-.499 0-.919.178-1.256.534-.335.357-.505.765-.505 1.227 0 .482.17.891.505 1.226.337.337.757.507 1.256.507.462 0 .858-.17 1.185-.507.327-.335.491-.744.491-1.226 0-.462-.164-.87-.491-1.227-.327-.356-.723-.534-1.185-.534" id="Fill-18" fill="#AB7DAB" sketch:type="MSShapeGroup"/><path d="M301.713 123.622h-1.415c-.23 0-.423.083-.577.246-.154.163-.24.274-.26.333-.809 1.251-1.641 2.593-2.497 4.028-.856 1.433-1.679 2.776-2.469 4.026l-4.821-8.083c-.115-.154-.222-.284-.318-.391-.096-.104-.25-.159-.462-.159h-1.646c-.212 0-.38.078-.505.232-.125.154-.187.366-.187.635v13.541c0 .27.062.482.187.636.125.153.293.23.505.23h1.704c.231 0 .419-.077.563-.23.145-.154.217-.366.217-.636v-8.056l4.042 6.873v-.029c.134.23.355.356.663.374.026.001.051.002.076.002.27 0 .475-.096.618-.29l4.186-6.901v8.027c0 .27.072.482.216.636.145.153.322.23.535.23h1.645c.232 0 .409-.077.534-.23.125-.154.188-.366.188-.636v-13.541c0-.269-.063-.481-.188-.635-.125-.154-.302-.232-.534-.232" id="Fill-19" fill="#AB7DAB" sketch:type="MSShapeGroup"/><path d="M318.255 123.45c-1.385 0-2.574.298-3.564.895-.992.597-1.642 1.357-1.95 2.281-.134.289-.173.538-.115.751.076.23.279.394.606.489l1.155.406c.112.04.216.059.311.059.135 0 .252-.039.353-.117.174-.135.308-.318.404-.549.154-.327.507-.625 1.055-.895.548-.269 1.169-.405 1.862-.405.404 0 .779.049 1.125.145.347.097.645.222.895.376.251.154.443.323.579.505.134.183.201.36.201.534 0 .173-.039.351-.116.534-.077.183-.187.356-.331.52-.144.163-.328.303-.548.418-.222.116-.487.183-.795.202h-2.656c-.23 0-.419.087-.563.26-.145.173-.217.404-.217.692v.926c0 .25.072.472.217.663.144.193.333.289.563.289h2.859c.518 0 .971.14 1.356.419.385.279.578.668.578 1.169 0 .231-.082.472-.246.722-.164.249-.386.481-.663.692-.281.213-.612.386-.996.52-.386.135-.79.202-1.213.202-.423 0-.815-.057-1.17-.172-.356-.117-.664-.261-.924-.434-.259-.173-.462-.361-.606-.562-.145-.203-.217-.381-.217-.535 0-.212-.101-.423-.302-.635-.203-.212-.382-.318-.534-.318h-1.387c-.269 0-.471.096-.606.289-.134.193-.203.423-.203.692 0 .559.135 1.111.404 1.661.271.548.655 1.035 1.156 1.458.5.423 1.116.77 1.848 1.039.73.269 1.568.404 2.512.404.942 0 1.805-.13 2.583-.39.78-.259 1.445-.62 1.993-1.082.548-.462.977-.99 1.285-1.587.308-.597.462-1.232.462-1.907 0-.692-.193-1.351-.578-1.977-.385-.626-.914-1.072-1.588-1.343.558-.269.996-.669 1.314-1.197.317-.531.477-1.074.477-1.632 0-.636-.14-1.223-.419-1.761-.28-.538-.678-1.011-1.199-1.415-.519-.404-1.154-.722-1.905-.953-.751-.231-1.598-.346-2.542-.346" id="Fill-20" fill="#AB7DAB" sketch:type="MSShapeGroup"/><path d="M333.153 135.951c-.942 0-1.679-.202-2.208-.605-.53-.406-.795-.964-.795-1.675 0-.694.265-1.262.795-1.705.529-.442 1.266-.662 2.208-.662.924 0 1.655.22 2.195.662.538.443.809 1.011.809 1.705 0 .711-.271 1.269-.809 1.675-.54.403-1.271.605-2.195.605m.173-12.53c-1.039 0-1.963.158-2.77.476-.809.318-1.474.698-1.993 1.14-.386.348-.433.722-.144 1.127v-.029l.721 1.127c.154.191.328.298.521.316.028.003.055.004.082.004.159 0 .305-.049.437-.148.327-.289.765-.548 1.314-.78.548-.231 1.15-.346 1.803-.346.983 0 1.724.269 2.225.808.499.539.75 1.175.75 1.906v.029c-1.059-.481-2.137-.722-3.234-.722-1.078 0-2.007.14-2.786.419-.78.278-1.425.66-1.934 1.14-.511.482-.891 1.049-1.141 1.704s-.375 1.367-.375 2.137.125 1.476.375 2.121.63 1.203 1.141 1.675c.509.472 1.154.842 1.934 1.111.779.269 1.708.404 2.786.404.52 0 1.039-.082 1.559-.245.519-.164 1.03-.379 1.531-.65.018.193.101.367.244.521.146.153.304.23.477.23h1.704c.211 0 .39-.091.533-.275.144-.181.218-.379.218-.591v-9.325c0-.732-.121-1.42-.361-2.065-.241-.645-.612-1.203-1.113-1.675-.501-.471-1.125-.846-1.876-1.125-.75-.279-1.627-.419-2.628-.419" id="Fill-21" fill="#AB7DAB" sketch:type="MSShapeGroup"/><path d="M347.936 130.177c-.866 0-1.516-.155-1.948-.463-.435-.306-.661-.808-.679-1.5.018-.559.269-.991.751-1.299.48-.308 1.144-.462 1.991-.462h2.483v3.724h-2.598m4.85-6.555h-4.966c-1.867 0-3.273.429-4.215 1.286-.943.856-1.435 1.978-1.472 3.364 0 .403.076.797.23 1.183.154.386.357.736.607 1.054.249.317.538.592.865.822.308.213.636.356.983.434-.212.058-.415.154-.607.289-.192.154-.376.336-.549.548-.173.213-.327.439-.461.678-.136.241-.231.467-.288.679l-1.127 3.812v-.03c-.097.269-.072.529.072.78.145.25.361.375.65.375h1.473c.307 0 .49-.062.548-.187.057-.125.125-.314.201-.564v.029l1.041-3.378c.172-.578.451-1.024.837-1.342.384-.318.788-.477 1.212-.477l2.714-.028v5.081c0 .27.067.482.203.636.133.153.307.23.519.23h1.53c.174 0 .332-.086.476-.26.145-.173.217-.366.217-.577v-13.599c0-.211-.072-.404-.217-.577-.144-.173-.302-.261-.476-.261" id="Fill-22" fill="#AB7DAB" sketch:type="MSShapeGroup"/><path d="M359.946 135.923v-3.609h3.377c.944 0 1.569.168 1.877.505.309.337.472.784.492 1.343-.02.462-.222.871-.607 1.226-.385.357-1.01.535-1.877.535h-3.262m0-6.267v-3.174h3.291c.809 0 1.367.148 1.675.446.308.299.472.699.491 1.2-.019.442-.203.807-.549 1.095-.346.29-.915.433-1.703.433h-3.205m3.205-6.034h-5.486c-.173 0-.332.088-.476.261-.144.173-.216.366-.216.577v13.599c0 .211.072.404.216.577.144.174.303.26.476.26h5.572c1.02 0 1.887-.12 2.599-.361.712-.24 1.295-.573 1.747-.996.452-.423.784-.914.996-1.472.211-.558.326-1.145.346-1.761 0-.366-.067-.727-.203-1.084-.135-.355-.316-.682-.548-.98-.23-.299-.495-.558-.794-.78-.298-.221-.602-.39-.91-.505.271-.116.53-.28.78-.492.251-.21.477-.446.678-.707.203-.26.367-.535.492-.823.124-.289.187-.568.187-.837 0-.654-.1-1.256-.303-1.805-.202-.548-.524-1.02-.967-1.414-.442-.394-1.01-.702-1.704-.924-.692-.22-1.52-.333-2.482-.333" id="Fill-23" fill="#AB7DAB" sketch:type="MSShapeGroup"/><path d="M377.47 135.662c-.519 0-.971-.085-1.357-.258-.384-.172-.702-.403-.952-.691-.251-.288-.438-.618-.563-.993-.125-.374-.187-.753-.187-1.137v-2.791c0-.384.066-.753.201-1.108.135-.355.327-.672.579-.95.249-.278.562-.499.938-.662.374-.162.822-.244 1.341-.244.539 0 1.012.087 1.416.259.403.172.735.402.996.691.259.287.452.613.577.978.125.365.187.739.187 1.123v2.733c0 .384-.066.757-.201 1.122-.136.365-.333.691-.592.979-.26.288-.587.519-.981.691-.396.173-.863.258-1.402.258m.145-12.212c-1.079 0-2.026.187-2.843.564-.819.374-1.498.856-2.036 1.442-.54.587-.949 1.256-1.228 2.007-.279.751-.429 1.501-.447 2.251v2.917c0 .771.135 1.535.404 2.296.269.76.669 1.442 1.199 2.049.529.606 1.193 1.103 1.992 1.487.798.386 1.728.577 2.787.577 1.096 0 2.053-.191 2.872-.577.817-.384 1.501-.881 2.049-1.487.55-.607.957-1.289 1.228-2.049.269-.761.404-1.525.404-2.296v-2.801c0-.751-.135-1.506-.404-2.266-.271-.76-.674-1.444-1.213-2.05-.539-.606-1.203-1.102-1.992-1.487-.79-.384-1.714-.577-2.772-.577" id="Fill-24" fill="#AB7DAB" sketch:type="MSShapeGroup"/><path d="M398.258 123.622h-1.56c-.269 0-.46.073-.577.218-.115.144-.212.341-.288.591l-1.098 3.435c-.154.559-.37 1.002-.649 1.329-.279.328-.611.491-.996.491h-2.685v-5.197c0-.269-.057-.481-.174-.635-.115-.154-.308-.232-.577-.232h-1.616c-.213 0-.386.078-.519.232-.136.154-.203.366-.203.635v13.541c0 .27.067.482.203.636.133.153.306.23.519.23h1.616c.269 0 .462-.077.577-.23.117-.154.174-.366.174-.636v-5.342h2.772c.404 0 .769.15 1.098.448.326.299.566.727.721 1.285l1.242 3.695c.096.271.182.468.259.593.077.125.25.187.519.187h1.589c.289 0 .509-.125.663-.375.154-.251.183-.511.088-.78l-1.416-4.244c-.154-.501-.438-.982-.852-1.443-.413-.462-.89-.79-1.429-.982.462-.212.881-.539 1.256-.982.376-.442.64-.933.795-1.473l1.213-3.868c.095-.27.076-.525-.058-.765-.135-.241-.338-.362-.607-.362" id="Fill-25" fill="#AB7DAB" sketch:type="MSShapeGroup"/><path d="M233.346 748.582c-.251 0-.448-.087-.592-.259-.145-.174-.216-.405-.216-.694v-7.882h-6.728v7.882c0 .289-.071.52-.214.694-.144.172-.339.259-.587.259h-1.746c-.248 0-.444-.087-.587-.259-.144-.174-.215-.405-.215-.694v-18.304c0-.289.071-.52.215-.693.143-.173.339-.26.587-.26h1.746c.248 0 .443.087.587.259.143.172.214.403.214.69v7.048h6.728v-7.048c0-.287.071-.518.216-.69.144-.172.341-.259.592-.259h1.703c.269 0 .476.087.621.26.144.173.217.404.217.693v18.304c0 .289-.073.52-.217.694-.145.172-.352.259-.621.259h-1.703" id="Fill-26" fill="#863F87" sketch:type="MSShapeGroup"/><path d="M248.503 748.582c-.173 0-.332-.076-.476-.231-.144-.154-.226-.327-.245-.52-.501.27-1.011.486-1.531.65-.519.163-1.039.245-1.559.245-1.078 0-2.006-.134-2.786-.403-.78-.27-1.425-.64-1.934-1.112-.511-.471-.891-1.03-1.14-1.675-.251-.645-.376-1.352-.376-2.122 0-.77.125-1.482.376-2.136.249-.655.629-1.223 1.14-1.704.509-.481 1.154-.861 1.934-1.14.78-.279 1.708-.419 2.786-.419 1.098 0 2.175.241 3.234.722v-.029c0-.731-.25-1.366-.751-1.906-.501-.538-1.241-.808-2.223-.808-.655 0-1.256.116-1.805.346-.548.231-.986.491-1.313.78-.154.116-.328.164-.52.144-.192-.019-.366-.124-.52-.317l-.721-1.126v.029c-.289-.405-.241-.78.144-1.126.52-.443 1.184-.823 1.992-1.141.809-.317 1.733-.477 2.772-.477 1 0 1.877.141 2.627.419.751.28 1.376.655 1.877 1.126.5.472.871 1.03 1.112 1.675.24.645.361 1.333.361 2.064v9.326c0 .212-.073.409-.217.592-.144.183-.323.274-.534.274h-1.704zm-3.695-7.593c-.943 0-1.68.221-2.209.664-.53.443-.794 1.01-.794 1.703 0 .713.264 1.271.794 1.675.529.404 1.266.606 2.209.606.924 0 1.655-.202 2.194-.606.539-.404.809-.962.809-1.675 0-.693-.27-1.26-.809-1.703-.539-.443-1.27-.664-2.194-.664z" id="Fill-27" fill="#863F87" sketch:type="MSShapeGroup"/><path d="M255.836 733.309c.173 0 .337.087.491.26.154.173.231.366.231.577v4.302c.019.578.207 1.006.563 1.285.356.279.938.419 1.747.419h3.204v-6.006c0-.211.077-.404.231-.577.154-.173.318-.26.491-.26h1.646c.192 0 .351.087.477.26.124.173.187.366.187.577v13.599c0 .212-.063.404-.187.578-.126.172-.285.259-.477.259h-1.646c-.173 0-.337-.087-.491-.259-.154-.174-.231-.366-.231-.578v-4.475h-2.858c-1.963 0-3.397-.462-4.302-1.386-.905-.924-1.357-2.175-1.357-3.754v-3.984c0-.211.072-.404.217-.577.144-.173.293-.26.447-.26h1.617" id="Fill-28" fill="#863F87" sketch:type="MSShapeGroup"/><path d="M277.836 748.582c-.173 0-.332-.076-.476-.231-.144-.154-.226-.327-.245-.52-.501.27-1.011.486-1.531.65-.519.163-1.039.245-1.559.245-1.078 0-2.006-.134-2.786-.403-.779-.27-1.424-.64-1.934-1.112-.511-.471-.891-1.03-1.141-1.675s-.375-1.352-.375-2.122c0-.77.125-1.482.375-2.136.25-.655.63-1.223 1.141-1.704.51-.481 1.155-.861 1.934-1.14.78-.279 1.708-.419 2.786-.419 1.097 0 2.175.241 3.234.722v-.029c0-.731-.25-1.366-.751-1.906-.501-.538-1.241-.808-2.223-.808-.655 0-1.256.116-1.804.346-.549.231-.987.491-1.314.78-.154.116-.328.164-.52.144-.192-.019-.366-.124-.52-.317l-.721-1.126v.029c-.289-.405-.241-.78.144-1.126.52-.443 1.184-.823 1.992-1.141.809-.317 1.733-.477 2.772-.477 1 0 1.877.141 2.627.419.751.28 1.376.655 1.877 1.126.5.472.87 1.03 1.112 1.675.24.645.36 1.333.36 2.064v9.326c0 .212-.072.409-.216.592-.144.183-.323.274-.534.274h-1.704zm-3.695-7.593c-.943 0-1.68.221-2.209.664-.53.443-.794 1.01-.794 1.703 0 .713.264 1.271.794 1.675.529.404 1.266.606 2.209.606.924 0 1.655-.202 2.194-.606.539-.404.809-.962.809-1.675 0-.693-.27-1.26-.809-1.703-.539-.443-1.27-.664-2.194-.664z" id="Fill-29" fill="#863F87" sketch:type="MSShapeGroup"/><path d="M294.956 747.716c0 .269-.077.481-.23.635-.155.155-.337.231-.549.231h-1.616c-.213 0-.386-.076-.52-.231-.135-.154-.203-.366-.203-.635l.029-11.289h-1.01c-.597 0-1.102.212-1.516.635-.414.424-.698.915-.852 1.473l-2.685 9.21h.029c-.096.385-.236.621-.419.707-.183.087-.38.13-.591.13h-1.357c-.482 0-.746-.13-.794-.389-.048-.261-.015-.564.101-.91v.029c.462-1.617.933-3.229 1.415-4.836.48-1.607.942-3.22 1.385-4.836.174-.578.424-1.126.751-1.646.327-.519.707-.977 1.14-1.371.433-.395.91-.712 1.43-.953.519-.241 1.058-.361 1.616-.361h3.725c.211 0 .39.077.534.231.145.154.216.366.216.635l-.029 13.541" id="Fill-30" fill="#863F87" sketch:type="MSShapeGroup"/><path d="M310.72 742.317c0 .77-.135 1.535-.404 2.295-.27.761-.678 1.444-1.227 2.05-.548.606-1.232 1.102-2.05 1.487-.818.385-1.775.577-2.872.577-1.059 0-1.988-.192-2.787-.577-.799-.385-1.462-.881-1.992-1.487-.529-.606-.929-1.289-1.198-2.05-.27-.76-.404-1.525-.404-2.295v-2.916c.019-.751.168-1.502.447-2.252.279-.751.688-1.419 1.227-2.007.539-.587 1.218-1.068 2.036-1.443.818-.376 1.766-.563 2.844-.563 1.058 0 1.982.192 2.771.577.789.385 1.453.881 1.992 1.487.539.606.943 1.29 1.213 2.05.269.76.404 1.516.404 2.266v2.801zm-6.525 3.031c.539 0 1.006-.086 1.401-.258.394-.173.721-.403.981-.691.26-.288.457-.614.592-.978.135-.365.202-.739.202-1.123v-2.734c0-.383-.062-.758-.187-1.122-.126-.365-.318-.691-.578-.979-.26-.287-.592-.518-.996-.691-.404-.172-.876-.258-1.415-.258-.519 0-.967.081-1.342.244-.375.164-.688.384-.939.662-.25.278-.442.595-.577.95-.135.355-.202.724-.202 1.108v2.791c0 .384.062.763.188 1.137.125.374.312.705.563.993.25.288.567.518.952.691.385.172.838.258 1.357.258z" id="Fill-31" fill="#863F87" sketch:type="MSShapeGroup"/><path d="M330.612 748.582c-.231 0-.414-.081-.548-.245-.135-.164-.202-.361-.202-.592l.029-11.376h-5.573v11.376c0 .231-.067.428-.202.592-.134.164-.327.245-.577.245h-1.617c-.212 0-.385-.081-.52-.245-.134-.164-.202-.361-.202-.592v-13.57c0-.269.068-.481.202-.635.135-.154.308-.231.52-.231h10.336c.212 0 .39.077.534.231.144.154.217.366.217.635l.029 13.57c0 .231-.082.428-.246.592-.164.164-.351.245-.563.245h-1.617" id="Fill-32" fill="#863F87" sketch:type="MSShapeGroup"/><path d="M336.877 754.501c-.23 0-.418-.096-.563-.289-.144-.193-.216-.394-.216-.606v-19.373c0-.192.072-.394.216-.606.145-.212.333-.318.563-.318h1.618c.115 0 .24.058.375.173.134.116.25.251.346.404.462-.249.938-.442 1.43-.577.49-.135 1.024-.203 1.601-.203 1.079 0 2.012.189 2.801.564.789.375 1.434.857 1.935 1.444.5.587.875 1.255 1.126 2.006.249.751.375 1.501.375 2.252v2.945c0 .77-.126 1.535-.375 2.295-.251.761-.626 1.444-1.126 2.05-.501.606-1.15 1.102-1.949 1.487-.799.385-1.747.577-2.844.577-1.078 0-2.041-.22-2.887-.664v5.544c0 .212-.092.413-.275.606-.183.193-.361.289-.533.289h-1.618zm5.313-9.153c.5 0 .938-.086 1.313-.26.376-.174.683-.406.925-.695.24-.29.418-.618.533-.985.116-.367.174-.744.174-1.13v-2.723c0-.386-.053-.762-.159-1.13-.106-.366-.274-.695-.505-.985-.231-.289-.53-.52-.895-.694-.366-.174-.808-.261-1.329-.261-.558 0-1.024.082-1.399.246-.376.164-.679.382-.91.652-.231.27-.395.584-.491.941-.096.357-.144.739-.144 1.144v2.81c0 .386.052.763.158 1.13.106.367.275.695.506.985.231.289.529.521.895.695.365.174.808.26 1.328.26z" id="Fill-33" fill="#863F87" sketch:type="MSShapeGroup"/><path d="M364.074 742.317c0 .77-.134 1.535-.404 2.295-.27.761-.678 1.444-1.227 2.05-.548.606-1.232 1.102-2.05 1.487-.818.385-1.775.577-2.872.577-1.059 0-1.988-.192-2.787-.577-.798-.385-1.463-.881-1.992-1.487-.529-.606-.928-1.289-1.198-2.05-.27-.76-.404-1.525-.404-2.295v-2.916c.019-.751.168-1.502.447-2.252.279-.751.688-1.419 1.227-2.007.539-.587 1.218-1.068 2.036-1.443.818-.376 1.766-.563 2.844-.563 1.058 0 1.982.192 2.771.577.789.385 1.453.881 1.993 1.487.538.606.942 1.29 1.212 2.05.27.76.404 1.516.404 2.266v2.801zm-6.525 3.031c.539 0 1.006-.086 1.401-.258.394-.173.721-.403.981-.691.26-.288.457-.614.592-.978.135-.365.202-.739.202-1.123v-2.734c0-.383-.062-.758-.187-1.122-.126-.365-.318-.691-.578-.979-.26-.287-.592-.518-.996-.691-.404-.172-.876-.258-1.415-.258-.519 0-.967.081-1.342.244-.375.164-.688.384-.938.662-.251.278-.443.595-.578.95-.135.355-.202.724-.202 1.108v2.791c0 .384.062.763.188 1.137.125.374.312.705.563.993.25.288.567.518.952.691.385.172.838.258 1.357.258z" id="Fill-34" fill="#863F87" sketch:type="MSShapeGroup"/><path d="M366.99 734.175c0-.269.067-.481.202-.635.135-.154.318-.231.549-.231h8.806c.231 0 .418.077.563.231.144.154.216.366.216.635v1.386c0 .27-.072.477-.216.621-.145.144-.332.216-.563.216h-6.41v11.347c0 .231-.057.428-.173.592-.115.164-.308.245-.577.245h-1.646c-.231 0-.414-.081-.549-.245-.135-.164-.202-.361-.202-.592v-13.57" id="Fill-35" fill="#863F87" sketch:type="MSShapeGroup"/><path d="M380.848 754.501c-.231 0-.418-.096-.563-.289-.144-.193-.216-.394-.216-.606v-19.373c0-.192.072-.394.216-.606.145-.212.332-.318.563-.318h1.617c.116 0 .241.058.375.173.135.116.25.251.347.404.462-.249.938-.442 1.429-.577.491-.135 1.025-.203 1.602-.203 1.078 0 2.012.189 2.801.564.789.375 1.434.857 1.935 1.444.5.587.875 1.255 1.126 2.006.249.751.375 1.501.375 2.252v2.945c0 .77-.126 1.535-.375 2.295-.251.761-.626 1.444-1.126 2.05-.501.606-1.151 1.102-1.95 1.487-.798.385-1.746.577-2.843.577-1.079 0-2.041-.22-2.888-.664v5.544c0 .212-.091.413-.274.606-.183.193-.361.289-.534.289h-1.617zm5.313-9.153c.5 0 .938-.086 1.313-.26.376-.174.683-.406.924-.695.241-.29.419-.618.534-.985.116-.367.174-.744.174-1.13v-2.723c0-.386-.054-.762-.159-1.13-.106-.366-.275-.695-.506-.985-.231-.289-.529-.52-.895-.694-.365-.174-.808-.261-1.328-.261-.558 0-1.025.082-1.4.246-.375.164-.678.382-.909.652-.231.27-.395.584-.491.941-.097.357-.145.739-.145 1.144v2.81c0 .386.053.763.159 1.13.106.367.275.695.506.985.23.289.529.521.895.695.365.174.808.26 1.328.26z" id="Fill-36" fill="#863F87" sketch:type="MSShapeGroup"/><path d="M404.812 748.582c-.174 0-.333-.076-.477-.231-.144-.154-.226-.327-.245-.52-.501.27-1.011.486-1.53.65-.52.163-1.04.245-1.559.245-1.079 0-2.007-.134-2.787-.403-.779-.27-1.425-.64-1.934-1.112-.51-.471-.891-1.03-1.14-1.675-.251-.645-.376-1.352-.376-2.122 0-.77.125-1.482.376-2.136.249-.655.63-1.223 1.14-1.704.509-.481 1.155-.861 1.934-1.14.78-.279 1.708-.419 2.787-.419 1.097 0 2.174.241 3.233.722v-.029c0-.731-.25-1.366-.751-1.906-.501-.538-1.241-.808-2.223-.808-.655 0-1.256.116-1.804.346-.549.231-.987.491-1.314.78-.154.116-.328.164-.519.144-.193-.019-.367-.124-.52-.317l-.722-1.126v.029c-.289-.405-.241-.78.144-1.126.52-.443 1.184-.823 1.993-1.141.808-.317 1.732-.477 2.771-.477 1.001 0 1.877.141 2.628.419.75.28 1.376.655 1.876 1.126.5.472.871 1.03 1.112 1.675.24.645.361 1.333.361 2.064v9.326c0 .212-.073.409-.217.592-.144.183-.322.274-.534.274h-1.703zm-3.696-7.593c-.943 0-1.679.221-2.209.664-.53.443-.794 1.01-.794 1.703 0 .713.264 1.271.794 1.675.53.404 1.266.606 2.209.606.924 0 1.655-.202 2.194-.606.539-.404.809-.962.809-1.675 0-.693-.27-1.26-.809-1.703-.539-.443-1.27-.664-2.194-.664z" id="Fill-37" fill="#863F87" sketch:type="MSShapeGroup"/><path d="M423.981 748.582c-.211 0-.389-.076-.533-.231-.145-.154-.217-.366-.217-.635v-8.026l-4.187 6.9c-.154.212-.385.308-.692.289-.309-.019-.53-.145-.664-.376v.029l-4.042-6.871v8.055c0 .269-.073.481-.217.635-.144.155-.332.231-.563.231h-1.703c-.212 0-.381-.076-.506-.231-.125-.154-.187-.366-.187-.635v-13.541c0-.269.062-.481.187-.635.125-.154.294-.231.506-.231h1.645c.212 0 .366.053.463.159.095.106.201.236.317.39l4.822 8.083c.788-1.25 1.611-2.593 2.468-4.027.856-1.434 1.689-2.776 2.497-4.028.02-.057.106-.168.26-.331.154-.164.346-.246.577-.246h1.416c.23 0 .408.077.534.231.125.154.187.366.187.635v13.541c0 .269-.062.481-.187.635-.126.155-.304.231-.534.231h-1.647" id="Fill-38" fill="#863F87" sketch:type="MSShapeGroup"/><path d="M443.209 748.582c-.211 0-.389-.076-.533-.231-.145-.154-.217-.366-.217-.635v-8.026l-4.187 6.9c-.154.212-.385.308-.692.289-.309-.019-.53-.145-.664-.376v.029l-4.042-6.871v8.055c0 .269-.073.481-.217.635-.144.155-.332.231-.563.231h-1.703c-.212 0-.381-.076-.506-.231-.125-.154-.187-.366-.187-.635v-13.541c0-.269.062-.481.187-.635.125-.154.294-.231.506-.231h1.645c.212 0 .366.053.463.159.095.106.201.236.317.39l4.822 8.083c.788-1.25 1.611-2.593 2.468-4.027.856-1.434 1.689-2.776 2.498-4.028.019-.057.105-.168.259-.331.154-.164.346-.246.577-.246h1.415c.231 0 .409.077.535.231.125.154.187.366.187.635v13.541c0 .269-.062.481-.187.635-.126.155-.304.231-.535.231h-1.646" id="Fill-39" fill="#863F87" sketch:type="MSShapeGroup"/><path d="M451.987 738.679h2.078c1.098 0 2.031.12 2.801.361s1.4.577 1.891 1.01c.491.434.852.958 1.083 1.574.231.616.346 1.29.346 2.021-.038 1.521-.534 2.724-1.487 3.609-.952.885-2.449 1.328-4.489 1.328h-4.562c-.192 0-.361-.087-.505-.259-.144-.174-.217-.366-.217-.578v-13.599c0-.211.073-.404.217-.577.144-.173.313-.26.505-.26h1.588c.231 0 .414.077.549.231.134.154.202.366.202.635v4.504zm0 2.916v4.1h1.992c.866 0 1.592-.197 2.18-.592.587-.394.89-.87.909-1.429-.019-.635-.294-1.141-.823-1.516-.529-.375-1.256-.563-2.18-.563h-2.078zm10.711 6.987c-.193 0-.366-.091-.52-.274-.154-.183-.231-.38-.231-.592v-13.541c0-.211.077-.409.231-.592.154-.182.327-.274.52-.274h1.53c.192 0 .371.092.534.274.164.183.246.381.246.592v13.541c0 .212-.082.409-.246.592-.163.183-.342.274-.534.274h-1.53z" id="Fill-40" fill="#863F87" sketch:type="MSShapeGroup"/><path d="M228.899 386.567c-1.096 0-1.934-.299-2.511-.895-.578-.597-.866-1.415-.866-2.454v-6.872c.019-1 .312-1.8.881-2.396.567-.597 1.4-.895 2.496-.895 1.059 0 1.873.298 2.441.895.567.596.86 1.405.879 2.425v6.9c-.019 1.021-.312 1.825-.879 2.412-.568.587-1.382.88-2.441.88m-.028-17.063c-1.097 0-2.06.178-2.887.534-.828.356-1.526.837-2.094 1.444-.568.606-.996 1.314-1.285 2.122-.288.808-.433 1.665-.433 2.568v7.277c0 .924.145 1.79.433 2.599.289.807.717 1.515 1.285 2.121.568.607 1.266 1.083 2.094 1.429.827.347 1.79.521 2.887.521 1.057 0 2.001-.174 2.829-.521.827-.346 1.525-.822 2.094-1.429.566-.606 1.001-1.309 1.299-2.107.298-.798.456-1.65.476-2.555l-.029-7.335c0-.903-.149-1.76-.447-2.568-.298-.808-.733-1.516-1.299-2.122-.569-.607-1.267-1.088-2.094-1.444-.828-.356-1.772-.534-2.829-.534" id="Fill-41" fill="#975E97" sketch:type="MSShapeGroup"/><path d="M249.34 374.642h-10.884c-.212 0-.39.078-.534.232-.146.154-.216.367-.216.636v1.501c0 .23.07.429.216.591.144.165.322.245.534.245h3.955v11.233c0 .23.068.428.202.591.135.163.308.245.519.245h1.589c.23 0 .413-.082.548-.245.135-.163.203-.361.203-.591v-11.233h3.868c.25 0 .442-.08.577-.245.135-.162.203-.361.203-.591v-1.501c0-.269-.068-.482-.203-.636-.135-.154-.327-.232-.577-.232" id="Fill-42" fill="#975E97" sketch:type="MSShapeGroup"/><path d="M259.503 386.884c-.539 0-1.011-.09-1.415-.274-.404-.182-.741-.428-1.01-.736-.27-.308-.472-.655-.606-1.039-.136-.386-.203-.78-.203-1.184v-2.484c0-.364.078-.725.231-1.081.155-.357.37-.674.65-.954.279-.279.621-.505 1.024-.678.405-.174.867-.259 1.386-.259.558 0 1.049.085 1.472.259.424.173.776.403 1.055.694.279.288.486.62.62.996.135.374.203.764.203 1.168v2.368c0 .404-.072.798-.217 1.184-.144.384-.36.727-.649 1.024-.289.3-.645.54-1.068.722-.424.184-.915.274-1.473.274m4.879-18.304l-5.196.866c-2.118.347-3.667 1.15-4.648 2.41-.983 1.261-1.474 2.884-1.474 4.866v6.929c0 .751.135 1.511.405 2.281.269.77.673 1.463 1.211 2.079.54.616 1.209 1.116 2.008 1.501.798.385 1.728.578 2.786.578 1.098 0 2.054-.193 2.873-.578.818-.385 1.501-.885 2.049-1.501.549-.616.963-1.309 1.242-2.079.279-.77.419-1.53.419-2.281v-2.425c0-.751-.135-1.506-.404-2.267-.271-.761-.674-1.438-1.213-2.036-.539-.596-1.203-1.082-1.992-1.456-.79-.376-1.714-.564-2.771-.564-.598 0-1.209.115-1.834.346-.626.231-1.219.645-1.775 1.241.037-1.115.35-1.976.938-2.583.587-.607 1.4-1.006 2.439-1.199l5.14-.895c.154-.037.288-.139.403-.303.116-.163.174-.331.174-.505.019-.269.039-.553.058-.851.018-.299.029-.545.029-.737 0-.192-.097-.38-.29-.563-.191-.182-.384-.274-.577-.274" id="Fill-43" fill="#975E97" sketch:type="MSShapeGroup"/><path d="M275.353 386.682c-.519 0-.973-.086-1.357-.258-.386-.172-.702-.403-.953-.691-.25-.288-.437-.619-.562-.993-.126-.374-.187-.753-.187-1.137v-2.79c0-.385.066-.754.201-1.109.134-.355.327-.672.577-.951.25-.277.563-.497.939-.661.375-.163.823-.245 1.342-.245.539 0 1.01.088 1.415.26.404.172.736.403.997.691.259.287.451.614.577.978.125.365.187.739.187 1.122v2.734c0 .384-.068.757-.202 1.122-.135.366-.332.691-.592.979-.26.288-.588.519-.982.691-.394.172-.861.258-1.4.258m.144-12.212c-1.078 0-2.025.187-2.843.563-.818.375-1.497.857-2.036 1.444-.539.587-.948 1.255-1.227 2.006-.279.75-.429 1.501-.447 2.252v2.916c0 .771.135 1.535.404 2.295.269.761.669 1.443 1.197 2.05.53.606 1.194 1.103 1.993 1.487.799.386 1.727.577 2.786.577 1.098 0 2.055-.191 2.872-.577.819-.384 1.503-.881 2.051-1.487.548-.607.957-1.289 1.226-2.05.27-.76.405-1.524.405-2.295v-2.801c0-.751-.135-1.505-.405-2.266-.269-.76-.673-1.444-1.212-2.051-.539-.605-1.203-1.101-1.991-1.486-.79-.385-1.714-.577-2.773-.577" id="Fill-44" fill="#975E97" sketch:type="MSShapeGroup"/><path d="M290.886 386.682c-.52 0-.963-.086-1.329-.261-.365-.172-.663-.405-.895-.694-.23-.29-.399-.617-.505-.985-.105-.366-.158-.744-.158-1.13v-2.809c0-.405.047-.788.144-1.145.096-.357.26-.672.491-.941.231-.27.535-.488.909-.652.375-.163.842-.245 1.4-.245.521 0 .963.085 1.328.259.366.175.665.407.895.695.232.29.4.619.506.985.106.368.159.744.159 1.13v2.723c0 .386-.059.764-.174 1.13-.115.368-.294.695-.534.985-.24.289-.548.522-.924.694-.375.175-.813.261-1.313.261m.057-12.241c-.577 0-1.111.068-1.602.201-.491.136-.968.329-1.429.579-.096-.154-.211-.289-.346-.406-.136-.114-.261-.173-.376-.173h-1.616c-.232 0-.419.107-.564.318-.144.212-.216.415-.216.608v19.372c0 .211.072.414.216.606.145.192.332.289.564.289h1.616c.173 0 .351-.097.534-.289.183-.192.275-.395.275-.606v-5.544c.846.443 1.809.664 2.887.664 1.097 0 2.044-.191 2.843-.577.8-.384 1.449-.881 1.95-1.487.499-.607.875-1.289 1.125-2.05.25-.76.376-1.524.376-2.295v-2.945c0-.751-.126-1.502-.376-2.252-.25-.751-.626-1.419-1.125-2.006-.501-.587-1.146-1.069-1.934-1.444-.79-.376-1.724-.563-2.802-.563" id="Fill-45" fill="#975E97" sketch:type="MSShapeGroup"/><path d="M224.498 404.243c-.848 0-1.517.238-2.004.708-.488.473-.732 1.102-.732 1.885 0 .336.063.656.191.96.129.305.312.573.552.804.24.232.529.417.865.552.335.137.711.205 1.128.205.399 0 .767-.072 1.104-.217.336-.144.615-.332.84-.565.223-.23.399-.499.528-.803.128-.304.192-.616.192-.936 0-.783-.24-1.412-.72-1.885-.48-.47-1.128-.708-1.944-.708" id="Fill-46" fill="#975E97" sketch:type="MSShapeGroup"/><path d="M250.707 401.221h-9.05c-.176 0-.323.063-.444.191-.119.129-.179.304-.179.528v1.247c0 .194.06.357.179.493.121.136.268.204.444.204h3.289v9.335c0 .193.055.357.167.493.113.136.257.204.433.204h1.32c.192 0 .344-.068.456-.204.111-.136.168-.3.168-.493v-9.335h3.217c.206 0 .367-.068.48-.204.111-.136.168-.299.168-.493v-1.247c0-.224-.057-.399-.168-.528-.113-.128-.274-.191-.48-.191" id="Fill-47" fill="#975E97" sketch:type="MSShapeGroup"/><path d="M256.322 406.308c0-.352.051-.692.155-1.02.104-.328.26-.62.468-.875.208-.257.472-.461.792-.613.321-.152.697-.228 1.128-.228.448 0 .836.08 1.164.24.328.161.591.372.793.635.199.266.351.561.455.889.104.328.157.651.157.972h-5.112m2.639-5.232c-.895 0-1.683.157-2.363.468-.681.312-1.245.713-1.693 1.2-.448.488-.788 1.044-1.02 1.669-.231.623-.356 1.247-.371 1.871v2.425c0 .639.11 1.274.335 1.907.224.632.557 1.201.997 1.705.439.503.992.915 1.655 1.234.665.32 1.436.482 2.317.482.848 0 1.592-.136 2.231-.409.64-.271 1.168-.568 1.585-.889.127-.111.211-.263.251-.454.04-.194.021-.368-.06-.529l-.599-1.031c-.129-.128-.289-.213-.48-.253-.051-.01-.1-.016-.146-.016-.129 0-.24.042-.334.124-.272.208-.625.396-1.056.564-.433.168-.856.252-1.273.252-.464 0-.86-.084-1.187-.252-.329-.168-.601-.384-.816-.648-.217-.264-.376-.559-.48-.889-.104-.327-.157-.66-.157-.996v-.095h7.32c.16 0 .309-.075.445-.228.135-.151.203-.331.203-.54v-1.416c-.015-.623-.14-1.248-.371-1.872-.233-.624-.569-1.188-1.009-1.691-.44-.505-.988-.913-1.644-1.225-.657-.311-1.416-.468-2.28-.468" id="Fill-48" fill="#975E97" sketch:type="MSShapeGroup"/><path d="M272.185 401.076c-.928 0-1.735.157-2.424.468-.688.312-1.257.713-1.703 1.2-.449.488-.784 1.044-1.009 1.669-.224.623-.336 1.247-.336 1.871v2.425c0 .639.117 1.274.348 1.907.232.632.572 1.201 1.02 1.705.448.503 1.003.915 1.668 1.234.665.32 1.436.482 2.317.482.846 0 1.587-.133 2.219-.397.632-.264 1.149-.555 1.548-.875.368-.417.448-.769.24-1.057-.095-.191-.22-.412-.372-.66-.152-.249-.267-.421-.348-.516-.159-.145-.323-.224-.491-.24-.023-.002-.046-.003-.068-.003-.14 0-.266.041-.378.123-.287.209-.631.396-1.03.564-.401.168-.809.252-1.224.252-.465 0-.862-.072-1.189-.215-.328-.143-.596-.335-.804-.574-.208-.24-.363-.51-.467-.813-.104-.304-.157-.622-.157-.958v-2.296c0-.319.053-.626.157-.921.104-.295.259-.558.467-.79.208-.23.472-.419.793-.562.319-.143.695-.215 1.128-.215.463 0 .895.081 1.296.24.399.16.735.345 1.007.552.127.103.256.155.387.155.051 0 .102-.007.153-.023.184-.055.333-.172.445-.348l.695-1.06c.096-.178.121-.359.072-.544-.048-.186-.127-.344-.24-.473-.431-.339-.945-.641-1.536-.908-.592-.266-1.319-.399-2.184-.399" id="Fill-49" fill="#975E97" sketch:type="MSShapeGroup"/><path d="M287.497 401.221h-9.048c-.176 0-.324.063-.444.191-.12.129-.181.304-.181.528v1.247c0 .194.061.357.181.493s.268.204.444.204h3.288v9.335c0 .193.056.357.168.493.111.136.255.204.431.204h1.321c.192 0 .343-.068.456-.204.112-.136.167-.3.167-.493v-9.335h3.217c.208 0 .367-.068.48-.204.111-.136.168-.299.168-.493v-1.247c0-.224-.057-.399-.168-.528-.113-.128-.272-.191-.48-.191" id="Fill-50" fill="#975E97" sketch:type="MSShapeGroup"/><path d="M300.385 401.221h-1.32c-.209 0-.368.063-.481.191-.111.129-.168.304-.168.528v.767l-5.183 5.904v-6.671c0-.224-.052-.399-.156-.528-.104-.128-.261-.191-.469-.191h-1.343c-.176 0-.32.063-.431.191-.113.129-.17.304-.17.528v11.208c0 .177.057.349.17.517.111.168.255.251.431.251h1.343c.208 0 .365-.064.469-.191.104-.128.156-.304.156-.529v-.863l5.183-5.808v6.671c0 .225.057.401.168.529.113.127.272.191.481.191h1.32c.192 0 .344-.064.455-.191.113-.128.168-.304.168-.529v-11.256c0-.224-.055-.399-.168-.528-.111-.128-.263-.191-.455-.191" id="Fill-51" fill="#975E97" sketch:type="MSShapeGroup"/><path d="M308.688 411.228c-.431 0-.8-.072-1.103-.216-.305-.145-.554-.339-.745-.579-.191-.24-.332-.513-.419-.818-.089-.306-.132-.618-.132-.939v-2.336c0-.337.039-.655.12-.952.079-.296.216-.556.408-.781.191-.225.443-.405.756-.542.312-.136.699-.204 1.164-.204.431 0 .799.072 1.103.216.304.145.552.337.745.578.191.241.332.514.419.818.089.305.132.618.132.939v2.264c0 .321-.047.633-.143.939-.096.305-.244.578-.444.818-.201.24-.457.434-.769.579-.312.144-.675.216-1.092.216m.049-10.176c-.48 0-.924.056-1.332.169-.408.112-.805.271-1.189.479-.079-.127-.177-.24-.288-.335-.112-.096-.216-.144-.312-.144h-1.343c-.193 0-.348.088-.469.263-.119.176-.179.344-.179.503v16.105c0 .175.06.343.179.504.121.16.276.24.469.24h1.343c.145 0 .292-.08.444-.24.153-.161.229-.329.229-.504v-4.607c.704.367 1.503.552 2.399.552.913 0 1.7-.162 2.365-.482.663-.319 1.204-.731 1.619-1.234.416-.504.728-1.073.936-1.705.209-.633.312-1.268.312-1.907v-2.449c0-.625-.103-1.248-.312-1.872-.208-.624-.52-1.179-.936-1.668-.415-.488-.952-.888-1.607-1.2-.656-.313-1.433-.468-2.328-.468" id="Fill-52" fill="#975E97" sketch:type="MSShapeGroup"/><path d="M321.456 411.228c-.431 0-.807-.072-1.128-.215-.32-.143-.584-.335-.791-.574-.208-.24-.365-.515-.469-.825-.104-.312-.155-.627-.155-.946v-2.32c0-.318.055-.625.168-.921.111-.296.272-.558.48-.79.208-.231.467-.414.78-.55.312-.135.684-.203 1.115-.203.448 0 .841.072 1.177.215.336.143.612.335.828.574.215.239.375.511.479.814.104.302.157.614.157.932v2.273c0 .319-.056.63-.168.934-.113.303-.276.573-.493.813-.215.239-.488.431-.816.574-.327.143-.716.215-1.164.215m.121-10.152c-.896 0-1.685.157-2.364.468-.68.312-1.245.713-1.692 1.2-.449.488-.788 1.044-1.021 1.669-.232.623-.355 1.247-.372 1.871v2.425c0 .639.112 1.274.336 1.907.225.632.556 1.201.996 1.705.44.503.992.915 1.657 1.234.663.32 1.436.482 2.316.482.911 0 1.708-.162 2.388-.482.679-.319 1.247-.731 1.703-1.234.457-.504.797-1.073 1.02-1.705.225-.633.336-1.268.336-1.907v-2.328c0-.625-.111-1.252-.336-1.885-.223-.631-.559-1.2-1.007-1.704-.448-.503-1.001-.915-1.657-1.236-.656-.32-1.423-.48-2.303-.48" id="Fill-53" fill="#975E97" sketch:type="MSShapeGroup"/><path d="M331.968 411.444v-3h2.808c.784 0 1.305.14 1.56.42.255.28.393.652.408 1.116-.015.384-.183.724-.504 1.021-.32.295-.841.443-1.559.443h-2.713m0-5.208v-2.641h2.736c.672 0 1.135.125 1.392.372.257.249.391.58.408.997-.017.368-.168.671-.455.913-.289.238-.761.359-1.417.359h-2.664m2.664-5.015h-4.559c-.145 0-.277.071-.397.216-.119.144-.18.303-.18.48v11.302c0 .176.061.336.18.48.12.145.252.217.397.217h4.631c.848 0 1.568-.1 2.161-.3.591-.199 1.075-.476 1.451-.828.376-.351.652-.759.828-1.224.176-.463.272-.952.288-1.464 0-.304-.056-.603-.168-.9-.113-.296-.264-.568-.455-.816-.193-.247-.413-.464-.661-.648-.248-.183-.499-.323-.756-.42.225-.096.44-.232.648-.409.208-.174.397-.371.564-.586.168-.217.304-.444.408-.686.105-.238.156-.47.156-.695 0-.544-.083-1.043-.253-1.5-.168-.456-.435-.847-.803-1.176-.368-.328-.84-.583-1.415-.768-.577-.184-1.264-.275-2.065-.275" id="Fill-54" fill="#975E97" sketch:type="MSShapeGroup"/><path d="M346.2 411.468c-.784 0-1.396-.167-1.836-.503-.441-.338-.66-.801-.66-1.394 0-.575.219-1.047.66-1.415.44-.367 1.052-.552 1.836-.552.767 0 1.376.185 1.823.552.448.368.673.84.673 1.415 0 .593-.225 1.056-.673 1.394-.447.336-1.056.503-1.823.503m.144-10.416c-.864 0-1.632.132-2.305.396-.671.265-1.223.579-1.655.949-.32.287-.361.599-.121.935v-.024l.601.935c.128.161.272.249.432.265.022.002.043.004.065.004.134 0 .256-.042.366-.124.272-.241.637-.455 1.092-.648.457-.192.956-.289 1.502-.289.815 0 1.43.225 1.846.673.416.449.625.976.625 1.585v.024c-.88-.401-1.776-.602-2.688-.602-.896 0-1.669.117-2.316.349-.648.232-1.185.548-1.608.947-.424.401-.741.873-.949 1.417-.208.544-.312 1.137-.312 1.776 0 .64.104 1.228.312 1.764.208.537.525 1 .949 1.392.423.392.96.7 1.608.923.647.226 1.42.338 2.316.338.432 0 .863-.07 1.296-.204.431-.136.855-.317 1.272-.541.016.16.084.305.203.433.121.127.252.191.397.191h1.415c.176 0 .325-.075.445-.228.12-.152.179-.316.179-.492v-7.752c0-.608-.099-1.18-.299-1.715-.2-.537-.508-1.001-.924-1.393-.417-.392-.936-.704-1.56-.935-.624-.232-1.353-.349-2.184-.349" id="Fill-55" fill="#975E97" sketch:type="MSShapeGroup"/><path d="M363.336 401.221h-1.392c-.176 0-.325.063-.444.191-.121.129-.18.304-.18.528v4.248h-4.944v-4.248c0-.224-.057-.399-.168-.528-.112-.128-.257-.191-.432-.191h-1.416c-.176 0-.321.063-.432.191-.112.129-.168.304-.168.528v11.279c0 .193.056.357.168.493.111.136.256.204.432.204h1.416c.175 0 .32-.068.432-.204.111-.136.168-.3.168-.493v-4.414h4.944v4.414c0 .193.059.357.18.493.119.136.268.204.444.204h1.392c.176 0 .32-.068.431-.204.113-.136.168-.3.168-.493v-11.279c0-.224-.055-.399-.168-.528-.111-.128-.255-.191-.431-.191" id="Fill-56" fill="#975E97" sketch:type="MSShapeGroup"/><path d="M376.703 401.221h-1.32c-.208 0-.367.063-.48.191-.112.129-.167.304-.167.528v.767l-5.184 5.904v-6.671c0-.224-.053-.399-.157-.528-.104-.128-.26-.191-.468-.191h-1.344c-.176 0-.319.063-.432.191-.112.129-.168.304-.168.528v11.208c0 .177.056.349.168.517.113.168.256.251.432.251h1.344c.208 0 .364-.064.468-.191.104-.128.157-.304.157-.529v-.863l5.184-5.808v6.671c0 .225.055.401.167.529.113.127.272.191.48.191h1.32c.193 0 .344-.064.457-.191.111-.128.167-.304.167-.529v-11.256c0-.224-.056-.399-.167-.528-.113-.128-.264-.191-.457-.191" id="Fill-57" fill="#975E97" sketch:type="MSShapeGroup"/><path d="M382.703 406.308c0-.352.052-.692.156-1.02.105-.328.26-.62.468-.875.208-.257.472-.461.792-.613.32-.152.697-.228 1.128-.228.449 0 .836.08 1.164.24.328.161.592.372.793.635.2.266.351.561.455.889.104.328.157.651.157.972h-5.113m2.64-5.232c-.896 0-1.684.157-2.363.468-.681.312-1.245.713-1.693 1.2-.448.488-.788 1.044-1.019 1.669-.232.623-.357 1.247-.372 1.871v2.425c0 .639.111 1.274.336 1.907.223.632.554 1.201.996 1.705.44.503.992.915 1.655 1.234.663.32 1.436.482 2.316.482.849 0 1.593-.136 2.232-.409.64-.271 1.169-.568 1.583-.889.129-.111.213-.263.253-.454.04-.194.021-.368-.06-.529l-.599-1.031c-.129-.128-.289-.213-.48-.253-.051-.01-.1-.016-.146-.016-.129 0-.24.042-.334.124-.274.208-.625.396-1.056.564-.433.168-.856.252-1.273.252-.464 0-.86-.084-1.187-.252-.329-.168-.601-.384-.816-.648-.216-.264-.377-.559-.48-.889-.106-.327-.157-.66-.157-.996v-.095h7.321c.159 0 .308-.075.444-.228.136-.151.204-.331.204-.54v-1.416c-.017-.623-.141-1.248-.372-1.872-.233-.624-.569-1.188-1.009-1.691-.44-.505-.988-.913-1.644-1.225-.657-.311-1.416-.468-2.28-.468" id="Fill-58" fill="#975E97" sketch:type="MSShapeGroup"/><path d="M394.992 411.228h-1.297c-.128 0-.249.048-.36.145-.112.095-.184.183-.216.263l-1.656 3.744c-.08.128-.1.276-.061.444.038.153.144.229.319.229.017 0 .035 0 .053-.002h1.345c.095 0 .2-.034.312-.106.112-.073.2-.173.264-.3l1.703-3.673c.081-.176.081-.344 0-.504-.079-.159-.215-.24-.406-.24m-.985-10.007c-.417 0-.761.131-1.033.394-.272.266-.407.581-.407.95 0 .367.135.684.407.947.272.264.616.396 1.033.396.384 0 .711-.132.985-.396.27-.263.406-.58.406-.947 0-.369-.136-.684-.406-.95-.274-.263-.601-.394-.985-.394" id="Fill-59" fill="#975E97" sketch:type="MSShapeGroup"/><path d="M224.498 428.243c-.848 0-1.517.238-2.004.709-.488.472-.732 1.101-.732 1.885 0 .335.063.656.191.959.129.305.312.572.552.804.24.232.529.416.865.552.335.136.711.205 1.128.205.399 0 .767-.072 1.104-.217.336-.144.615-.332.84-.565.223-.23.399-.499.528-.803.128-.304.192-.616.192-.935 0-.784-.24-1.413-.72-1.885-.48-.471-1.128-.709-1.944-.709" id="Fill-60" fill="#975E97" sketch:type="MSShapeGroup"/><path d="M251.474 425.22h-1.32c-.208 0-.369.064-.48.193-.112.128-.168.303-.168.527v.769l-5.185 5.902v-6.671c0-.224-.051-.399-.155-.527-.104-.129-.26-.193-.468-.193h-1.344c-.177 0-.321.064-.432.193-.112.128-.168.303-.168.527v11.208c0 .177.056.349.168.517.111.168.255.251.432.251h1.344c.208 0 .364-.064.468-.191.104-.128.155-.304.155-.53v-.862l5.185-5.808v6.67c0 .226.056.402.168.53.111.127.272.191.48.191h1.32c.191 0 .344-.064.455-.191.112-.128.169-.304.169-.53v-11.255c0-.224-.057-.399-.169-.527-.111-.129-.264-.193-.455-.193" id="Fill-61" fill="#975E97" sketch:type="MSShapeGroup"/><path d="M264.289 425.22h-1.392c-.176 0-.324.064-.444.193-.119.128-.18.303-.18.527v4.248h-4.944v-4.248c0-.224-.057-.399-.168-.527-.112-.129-.256-.193-.431-.193h-1.417c-.176 0-.32.064-.431.193-.113.128-.168.303-.168.527v11.279c0 .193.055.357.168.493.111.136.255.204.431.204h1.417c.175 0 .319-.068.431-.204.111-.136.168-.3.168-.493v-4.414h4.944v4.414c0 .193.061.357.18.493.12.136.268.204.444.204h1.392c.176 0 .32-.068.432-.204.112-.136.169-.3.169-.493v-11.279c0-.224-.057-.399-.169-.527-.112-.129-.256-.193-.432-.193" id="Fill-62" fill="#975E97" sketch:type="MSShapeGroup"/><path d="M276.889 425.22h-9.048c-.176 0-.323.064-.444.193-.119.128-.18.303-.18.527v1.247c0 .194.061.357.18.493.121.136.268.204.444.204h3.288v9.335c0 .193.056.357.168.493.113.136.256.204.432.204h1.321c.191 0 .343-.068.455-.204.112-.136.168-.3.168-.493v-9.335h3.216c.208 0 .368-.068.48-.204.113-.136.168-.299.168-.493v-1.247c0-.224-.055-.399-.168-.527-.112-.129-.272-.193-.48-.193" id="Fill-63" fill="#975E97" sketch:type="MSShapeGroup"/><path d="M282.504 430.308c0-.352.053-.692.157-1.02.104-.327.26-.62.468-.875.208-.257.471-.461.792-.613.319-.152.697-.228 1.128-.228.448 0 .835.08 1.164.24.328.161.591.372.792.635.2.266.352.561.456.889.104.328.156.651.156.972h-5.113m2.641-5.232c-.897 0-1.685.157-2.363.469-.681.311-1.245.712-1.693 1.198-.448.489-.788 1.045-1.02 1.67-.231.623-.356 1.247-.372 1.872v2.424c0 .639.112 1.274.336 1.907.224.632.555 1.201.996 1.704.44.504.992.916 1.656 1.236.663.319 1.436.481 2.315.481.85 0 1.593-.136 2.233-.409.64-.271 1.168-.568 1.585-.889.127-.111.21-.263.251-.454.04-.193.021-.368-.06-.529l-.599-1.031c-.129-.128-.289-.213-.48-.253-.051-.01-.1-.016-.146-.016-.129 0-.241.042-.335.124-.273.208-.624.396-1.055.564-.433.169-.857.252-1.273.252-.465 0-.86-.083-1.187-.252-.329-.168-.601-.383-.816-.648-.217-.264-.378-.56-.48-.889-.106-.327-.157-.659-.157-.996v-.095h7.32c.16 0 .308-.075.444-.228.136-.151.204-.332.204-.54v-1.416c-.016-.623-.14-1.248-.372-1.872-.233-.624-.568-1.188-1.008-1.691-.44-.505-.988-.913-1.645-1.224-.656-.312-1.415-.469-2.279-.469" id="Fill-64" fill="#975E97" sketch:type="MSShapeGroup"/><path d="M297.985 435.228c-.432 0-.801-.072-1.105-.216-.303-.145-.552-.338-.743-.579-.192-.24-.332-.513-.421-.818-.087-.306-.131-.618-.131-.938v-2.337c0-.337.04-.655.12-.952.079-.296.215-.556.408-.781.192-.225.444-.405.755-.542.312-.136.701-.204 1.164-.204.433 0 .801.072 1.105.216.303.145.552.337.743.577.193.242.333.515.421.819.087.305.132.618.132.939v2.265c0 .32-.048.632-.143.938-.097.305-.245.578-.446.818-.2.241-.455.434-.767.579-.312.144-.676.216-1.092.216m.047-10.176c-.479 0-.923.056-1.332.168-.406.112-.803.272-1.188.48-.079-.127-.176-.24-.287-.335-.112-.096-.216-.145-.312-.145h-1.344c-.192 0-.349.089-.468.264-.119.176-.181.344-.181.503v16.105c0 .175.062.344.181.504.119.16.276.24.468.24h1.344c.144 0 .291-.08.444-.24.151-.16.228-.329.228-.504v-4.607c.703.367 1.504.552 2.4.552.911 0 1.7-.162 2.364-.481.663-.32 1.203-.732 1.62-1.236.416-.503.728-1.072.936-1.704.208-.633.312-1.268.312-1.907v-2.449c0-.624-.104-1.248-.312-1.872-.208-.624-.52-1.18-.936-1.668-.417-.488-.952-.888-1.609-1.2-.656-.313-1.432-.468-2.328-.468" id="Fill-65" fill="#975E97" sketch:type="MSShapeGroup"/><path d="M308.329 435.445v-3.001h2.807c.784 0 1.304.14 1.561.42.255.28.391.652.408 1.117-.017.383-.185.723-.504 1.02-.32.295-.841.444-1.561.444h-2.711m0-5.209v-2.641h2.736c.672 0 1.135.125 1.392.372.255.25.391.582.408.997-.017.368-.168.672-.457.913-.287.238-.76.359-1.415.359h-2.664m2.664-5.016h-4.561c-.143 0-.276.072-.395.217-.121.144-.181.303-.181.48v11.302c0 .176.06.337.181.48.119.145.252.217.395.217h4.633c.846 0 1.568-.1 2.159-.3.593-.2 1.077-.476 1.453-.828.376-.351.651-.759.827-1.224.176-.463.272-.952.288-1.464 0-.304-.055-.603-.168-.9-.112-.296-.263-.568-.456-.816-.192-.247-.412-.464-.659-.648-.249-.183-.501-.323-.756-.42.223-.096.439-.232.648-.409.208-.174.395-.371.563-.586.168-.217.304-.444.408-.685.104-.239.157-.471.157-.696 0-.544-.085-1.043-.253-1.5-.168-.456-.436-.847-.803-1.176-.369-.328-.841-.583-1.417-.768-.576-.184-1.264-.276-2.063-.276" id="Fill-66" fill="#975E97" sketch:type="MSShapeGroup"/><path d="M320.713 435.492v-3.408h1.92c.767 0 1.372.155 1.812.468.44.312.667.733.684 1.26-.017.464-.269.861-.756 1.189-.489.327-1.092.491-1.812.491h-1.848m-.625-10.272h-1.367c-.161 0-.301.072-.42.217-.121.144-.18.303-.18.48v11.302c0 .176.059.337.18.48.119.145.259.217.42.217h4.031c1.68 0 2.921-.376 3.72-1.128.801-.752 1.209-1.76 1.224-3.023 0-.608-.092-1.169-.276-1.681-.183-.512-.479-.952-.887-1.32-.408-.368-.932-.656-1.572-.864-.641-.208-1.417-.312-2.328-.312h-1.92v-3.648c0-.224-.057-.399-.169-.527-.112-.129-.263-.193-.456-.193" id="Fill-67" fill="#975E97" sketch:type="MSShapeGroup"/><path d="M340.177 435.301c-.432 0-.78-.077-1.044-.23-.265-.151-.473-.355-.624-.611-.153-.256-.253-.544-.3-.864-.049-.32-.072-.648-.072-.985v-2.207c0-.319.028-.636.083-.948.056-.312.157-.588.3-.829.144-.239.348-.435.613-.586.264-.153.612-.229 1.044-.229.448 0 .807.076 1.08.229.271.151.483.355.636.61.151.257.251.545.3.865.048.32.072.648.072.984v2.136c0 .336-.029.663-.085.984-.055.321-.155.604-.3.852-.144.248-.352.448-.623.599-.273.153-.632.23-1.08.23m.095-10.225c-.896 0-1.644.152-2.243.456-.6.304-1.085.697-1.452 1.177-.369.478-.637 1.023-.804 1.632-.168.608-.261 1.215-.277 1.823h-2.687v-4.224c0-.176-.064-.34-.192-.493-.129-.15-.273-.227-.432-.227h-1.369c-.159 0-.299.077-.42.227-.119.153-.179.317-.179.493v11.255c0 .177.06.341.179.493.121.153.261.228.42.228h1.369c.159 0 .303-.075.432-.228.128-.152.192-.316.192-.493v-4.39h2.687c0 .622.081 1.246.241 1.871.159.625.42 1.185.779 1.68.361.496.833.9 1.417 1.211.584.313 1.315.47 2.195.47.928 0 1.701-.162 2.317-.481.616-.32 1.103-.732 1.464-1.236.359-.503.616-1.072.767-1.704.153-.633.229-1.259.229-1.884v-2.375c0-.625-.072-1.253-.216-1.885-.145-.632-.397-1.2-.756-1.703-.36-.505-.837-.913-1.428-1.224-.593-.312-1.336-.469-2.233-.469" id="Fill-68" fill="#975E97" sketch:type="MSShapeGroup"/><path d="M349.152 435.228h-1.296c-.129 0-.248.048-.36.145-.111.095-.183.183-.215.263l-1.657 3.744c-.079.128-.1.276-.06.444.037.153.143.229.318.229.018 0 .035 0 .054-.002h1.345c.095 0 .2-.034.312-.106.111-.073.2-.173.263-.3l1.704-3.673c.079-.176.079-.344 0-.504-.08-.159-.216-.24-.408-.24m-.985-10.008c-.415 0-.759.132-1.031.395-.272.266-.408.581-.408.95 0 .367.136.684.408.947.272.264.616.396 1.031.396.385 0 .713-.132.985-.396.272-.263.408-.58.408-.947 0-.369-.136-.684-.408-.95-.272-.263-.6-.395-.985-.395" id="Fill-69" fill="#975E97" sketch:type="MSShapeGroup"/><path d="M224.498 452.243c-.848 0-1.517.238-2.004.709-.488.472-.732 1.101-.732 1.885 0 .335.063.656.191.959.129.305.312.572.552.804.24.232.529.416.865.552.335.136.711.204 1.128.204.399 0 .767-.071 1.104-.216.336-.144.615-.332.84-.565.223-.23.399-.499.528-.803.128-.304.192-.616.192-.935 0-.784-.24-1.413-.72-1.885-.48-.471-1.128-.709-1.944-.709" id="Fill-70" fill="#975E97" sketch:type="MSShapeGroup"/><path d="M248.833 459.42v-7.656h.096c.448 0 .837.084 1.164.252.328.168.601.384.816.648.217.263.373.569.469.911.096.345.144.685.144 1.02v1.946c0 .335-.052.675-.156 1.019-.104.345-.261.656-.468.937-.208.279-.477.504-.805.671-.327.169-.716.252-1.164.252h-.096m-2.496-.024c-.463 0-.86-.087-1.187-.264-.328-.176-.6-.4-.816-.672-.217-.272-.372-.583-.468-.936-.096-.351-.144-.696-.144-1.032v-1.944c0-.336.051-.671.155-1.007.104-.336.261-.637.469-.901.208-.263.476-.48.804-.648.327-.167.724-.252 1.187-.252h.072v7.656h-.072m1.873-14.737h-1.2c-.176 0-.32.082-.433.242-.111.159-.168.327-.168.504v3.815c-.815 0-1.551.136-2.207.408-.656.272-1.209.644-1.657 1.115-.448.474-.791 1.033-1.031 1.681-.24.648-.36 1.349-.36 2.101v2.016c0 .751.123 1.455.371 2.111.249.657.597 1.228 1.045 1.715.447.488.988.873 1.619 1.153.633.28 1.341.421 2.125.421h.095v3.79c0 .193.057.366.168.517.113.152.257.229.433.229h1.2c.16 0 .304-.077.432-.229.128-.151.191-.324.191-.517v-3.79c.816 0 1.549-.144 2.197-.433.648-.289 1.2-.676 1.657-1.164.455-.487.803-1.056 1.043-1.704.24-.648.359-1.348.359-2.099v-2.016c0-.737-.123-1.43-.371-2.078-.249-.647-.6-1.211-1.056-1.691-.456-.48-1.001-.856-1.632-1.128-.633-.272-1.34-.408-2.124-.408h-.073v-3.815c0-.177-.063-.345-.191-.504-.128-.16-.272-.242-.432-.242" id="Fill-71" fill="#975E97" sketch:type="MSShapeGroup"/><path d="M267.025 449.22h-1.319c-.208 0-.368.064-.48.193-.113.128-.168.303-.168.527v.769l-5.184 5.903v-6.672c0-.224-.053-.399-.157-.527-.104-.129-.259-.193-.468-.193h-1.343c-.177 0-.32.064-.433.193-.112.128-.167.303-.167.527v11.208c0 .177.055.349.167.517.113.168.256.251.433.251h1.343c.209 0 .364-.064.468-.191.104-.128.157-.304.157-.53v-.862l5.184-5.808v6.67c0 .226.055.402.168.53.112.127.272.191.48.191h1.319c.193 0 .344-.064.457-.191.111-.128.168-.304.168-.53v-11.255c0-.224-.057-.399-.168-.527-.113-.129-.264-.193-.457-.193" id="Fill-72" fill="#975E97" sketch:type="MSShapeGroup"/><path d="M279.84 449.22h-1.391c-.176 0-.324.064-.444.193-.12.128-.179.303-.179.527v4.248h-4.946v-4.248c0-.224-.055-.399-.167-.527-.111-.129-.256-.193-.432-.193h-1.415c-.176 0-.321.064-.433.193-.112.128-.168.303-.168.527v11.279c0 .193.056.357.168.492.112.137.257.205.433.205h1.415c.176 0 .321-.068.432-.205.112-.135.167-.299.167-.492v-4.414h4.946v4.414c0 .193.059.357.179.492.12.137.268.205.444.205h1.391c.177 0 .321-.068.433-.205.111-.135.168-.299.168-.492v-11.279c0-.224-.057-.399-.168-.527-.112-.129-.256-.193-.433-.193" id="Fill-73" fill="#975E97" sketch:type="MSShapeGroup"/><path d="M287.93 459.468c-.784 0-1.396-.167-1.836-.503-.441-.337-.66-.801-.66-1.394 0-.575.219-1.047.66-1.415.44-.368 1.052-.552 1.836-.552.767 0 1.375.184 1.823.552.448.368.673.84.673 1.415 0 .593-.225 1.057-.673 1.394-.448.336-1.056.503-1.823.503m.144-10.416c-.865 0-1.633.132-2.305.395-.671.266-1.224.58-1.655.95-.321.287-.361.599-.121.935v-.024l.6.935c.129.161.273.249.433.265.021.002.043.003.064.003.134 0 .257-.041.367-.123.272-.241.637-.455 1.092-.648.456-.192.956-.288 1.5-.288.816 0 1.432.224 1.848.672.416.449.625.977.625 1.585v.023c-.88-.4-1.777-.601-2.69-.601-.895 0-1.667.117-2.315.349-.648.233-1.184.549-1.608.947-.424.401-.74.873-.948 1.417-.208.544-.312 1.136-.312 1.776 0 .641.104 1.228.312 1.764.208.537.524 1 .948 1.393.424.391.96.699 1.608.922.648.225 1.42.337 2.315.337.433 0 .865-.068 1.298-.203.431-.137.854-.317 1.271-.54.016.159.084.304.204.432.12.127.252.191.397.191h1.415c.176 0 .324-.075.444-.228.121-.151.18-.316.18-.493v-7.751c0-.608-.1-1.18-.3-1.715-.199-.537-.509-1.001-.924-1.393-.416-.392-.936-.704-1.559-.935-.625-.232-1.353-.349-2.184-.349" id="Fill-74" fill="#975E97" sketch:type="MSShapeGroup"/><path d="M304.633 449.22h-3.096c-.465 0-.913.1-1.344.3-.432.201-.829.465-1.188.792-.361.329-.676.708-.948 1.14-.272.432-.48.889-.624 1.369-.368 1.343-.752 2.683-1.152 4.019-.401 1.337-.792 2.677-1.177 4.02v-.024c-.095.289-.123.54-.083.756.039.217.26.324.659.324h1.128c.177 0 .34-.036.493-.107.151-.074.268-.269.348-.59h-.025l2.233-7.655c.127-.463.363-.872.707-1.223.344-.353.765-.529 1.26-.529h.841l-.025 9.383c0 .226.057.402.168.53.112.127.257.191.433.191h1.343c.176 0 .329-.064.456-.191.128-.128.193-.304.193-.53l.024-11.255c0-.224-.06-.399-.18-.527-.12-.129-.268-.193-.444-.193" id="Fill-75" fill="#975E97" sketch:type="MSShapeGroup"/><path d="M310.728 459.492v-3.408h1.92c.769 0 1.373.155 1.812.467.44.313.669.734.684 1.262-.015.463-.267.86-.756 1.188-.488.327-1.092.491-1.812.491h-1.848m-.623-10.272h-1.368c-.16 0-.3.072-.421.216-.119.145-.179.304-.179.481v11.302c0 .178.06.337.179.48.121.145.261.217.421.217h4.032c1.68 0 2.919-.376 3.72-1.128.799-.752 1.207-1.76 1.224-3.023 0-.608-.092-1.169-.276-1.681-.185-.512-.481-.952-.888-1.319-.408-.368-.933-.657-1.573-.865-.639-.208-1.415-.312-2.328-.312h-1.92v-3.648c0-.224-.056-.399-.168-.527-.111-.129-.264-.193-.455-.193" id="Fill-76" fill="#975E97" sketch:type="MSShapeGroup"/><path d="M329.688 449.22h-1.391c-.177 0-.325.064-.444.193-.12.128-.181.303-.181.527v4.248h-4.943v-4.248c0-.224-.056-.399-.168-.527-.113-.129-.256-.193-.432-.193h-1.416c-.177 0-.321.064-.432.193-.112.128-.168.303-.168.527v11.279c0 .193.056.357.168.492.111.137.255.205.432.205h1.416c.176 0 .319-.068.432-.205.112-.135.168-.299.168-.492v-4.414h4.943v4.414c0 .193.061.357.181.492.119.137.267.205.444.205h1.391c.177 0 .321-.068.433-.205.111-.135.168-.299.168-.492v-11.279c0-.224-.057-.399-.168-.527-.112-.129-.256-.193-.433-.193" id="Fill-77" fill="#975E97" sketch:type="MSShapeGroup"/><path d="M335.784 459.517v-3.41h1.729c.767 0 1.372.158 1.812.468.44.312.667.733.684 1.262-.017.463-.268.86-.757 1.187-.488.328-1.092.493-1.812.493h-1.656m-.623-10.297h-1.321c-.16 0-.3.072-.419.216-.121.145-.181.304-.181.481v11.302c0 .178.06.337.181.48.119.145.259.217.419.217h3.792c1.697 0 2.94-.368 3.732-1.103.793-.737 1.203-1.736 1.237-3 0-.609-.096-1.168-.289-1.681-.192-.511-.491-.947-.901-1.307-.406-.361-.931-.64-1.57-.84-.641-.2-1.417-.301-2.328-.301h-1.729v-3.744c0-.224-.056-.399-.168-.527-.111-.129-.264-.193-.455-.193m10.8 0h-1.272c-.161 0-.304.076-.433.227-.128.153-.191.317-.191.493v11.255c0 .177.063.342.191.493.129.153.272.228.433.228h1.272c.16 0 .307-.075.443-.228.136-.151.204-.316.204-.493v-11.255c0-.176-.068-.34-.204-.493-.136-.151-.283-.227-.443-.227" id="Fill-78" fill="#975E97" sketch:type="MSShapeGroup"/><path d="M359.161 449.22h-1.321c-.207 0-.368.064-.479.193-.112.128-.169.303-.169.527v.769l-5.184 5.903v-6.672c0-.224-.051-.399-.155-.527-.105-.129-.261-.193-.468-.193h-1.345c-.176 0-.32.064-.431.193-.112.128-.168.303-.168.527v11.208c0 .177.056.349.168.517.111.168.255.251.431.251h1.345c.207 0 .363-.064.468-.191.104-.128.155-.304.155-.53v-.862l5.184-5.808v6.67c0 .226.057.402.169.53.111.127.272.191.479.191h1.321c.191 0 .344-.064.455-.191.112-.128.168-.304.168-.53v-11.255c0-.224-.056-.399-.168-.527-.111-.129-.264-.193-.455-.193m-1.128-4.967h-1.009c-.176 0-.332.064-.468.191-.136.128-.204.297-.204.504.016.367-.14.676-.467.924-.329.248-.741.372-1.237.372-.448 0-.84-.124-1.176-.372-.336-.248-.495-.557-.48-.924 0-.207-.068-.376-.203-.504-.137-.127-.293-.191-.469-.191h-1.031c-.257 0-.449.076-.577.227-.128.153-.192.34-.192.564 0 .608.124 1.127.372 1.561.249.431.568.78.961 1.043.391.265.827.456 1.307.576.48.121.953.18 1.416.18.529 0 1.044-.064 1.549-.191.503-.129.952-.329 1.343-.601.393-.272.712-.619.96-1.044.248-.424.372-.932.372-1.524 0-.224-.06-.411-.18-.564-.12-.151-.315-.227-.587-.227" id="Fill-79" fill="#975E97" sketch:type="MSShapeGroup"/><path d="M252.721 473.22h-1.368c-.176 0-.32.068-.431.204-.113.136-.168.301-.168.492v9.431h-4.464l.024-9.431c0-.191-.057-.356-.168-.492-.113-.136-.257-.204-.432-.204h-1.393c-.159 0-.295.068-.408.204-.111.136-.168.301-.168.492l-.023 11.279c0 .225.055.402.168.53.112.127.255.191.431.191h8.256v3.169c0 .174.057.351.169.527.111.176.272.264.479.264h1.272c.192 0 .344-.088.457-.264.111-.176.168-.353.168-.527v-4.993c0-.496-.208-.745-.625-.745h-1.151v-9.431c0-.191-.06-.356-.181-.492-.119-.136-.268-.204-.444-.204" id="Fill-80" fill="#975E97" sketch:type="MSShapeGroup"/><path d="M260.737 478.308c0-.351.053-.691.157-1.02.104-.327.259-.62.467-.875.208-.257.472-.461.793-.612.319-.153.696-.229 1.128-.229.446 0 .835.08 1.164.24.327.161.591.372.791.635.201.265.352.561.456.89.104.327.157.65.157.971h-5.113m2.64-5.233c-.896 0-1.684.158-2.364.47-.68.312-1.245.712-1.691 1.198-.448.489-.788 1.045-1.02 1.67-.233.624-.357 1.247-.372 1.872v2.423c0 .64.111 1.275.336 1.908.223.633.555 1.201.995 1.704.44.504.992.916 1.656 1.236.664.321 1.436.48 2.316.48.848 0 1.592-.135 2.233-.408.639-.271 1.168-.568 1.583-.887.129-.113.212-.264.252-.457.041-.192.02-.368-.059-.527l-.6-1.032c-.129-.128-.288-.213-.48-.253-.05-.01-.097-.015-.143-.015-.13 0-.242.041-.337.123-.273.208-.624.397-1.057.565-.432.168-.855.251-1.271.251-.465 0-.86-.083-1.188-.251-.329-.168-.601-.384-.816-.648-.216-.266-.377-.561-.48-.89-.105-.327-.157-.659-.157-.995v-.095h7.321c.159 0 .308-.076.444-.229.136-.151.204-.332.204-.54v-1.415c-.017-.624-.142-1.249-.372-1.873-.233-.623-.569-1.188-1.009-1.692-.439-.504-.987-.911-1.644-1.223-.656-.312-1.415-.47-2.28-.47" id="Fill-81" fill="#975E97" sketch:type="MSShapeGroup"/><path d="M280.728 473.22h-1.39c-.178 0-.325.064-.445.193-.12.127-.179.304-.179.527v4.248h-4.945v-4.248c0-.223-.056-.4-.168-.527-.111-.129-.256-.193-.432-.193h-1.415c-.176 0-.321.064-.433.193-.112.127-.168.304-.168.527v11.281c0 .191.056.355.168.49.112.137.257.205.433.205h1.415c.176 0 .321-.068.432-.205.112-.135.168-.299.168-.49v-4.417h4.945v4.417c0 .191.059.355.179.49.12.137.267.205.445.205h1.39c.178 0 .321-.068.433-.205.113-.135.168-.299.168-.49v-11.281c0-.223-.055-.4-.168-.527-.112-.129-.255-.193-.433-.193" id="Fill-82" fill="#975E97" sketch:type="MSShapeGroup"/><path d="M293.33 473.22h-9.05c-.176 0-.323.064-.444.193-.119.127-.179.304-.179.527v1.248c0 .192.06.356.179.492.121.136.268.204.444.204h3.289v9.337c0 .191.055.355.168.49.112.137.255.205.433.205h1.319c.192 0 .343-.068.455-.205.113-.135.168-.299.168-.49v-9.337h3.218c.207 0 .366-.068.479-.204.112-.136.167-.3.167-.492v-1.248c0-.223-.055-.4-.167-.527-.113-.129-.272-.193-.479-.193" id="Fill-83" fill="#975E97" sketch:type="MSShapeGroup"/><path d="M301.248 483.228c-.431 0-.799-.072-1.103-.217-.304-.144-.552-.337-.743-.578-.193-.24-.333-.513-.421-.818-.087-.306-.132-.618-.132-.938v-2.337c0-.337.039-.654.12-.951.08-.297.216-.557.408-.783.192-.224.444-.404.756-.542.312-.135.699-.203 1.164-.203.431 0 .799.071 1.104.216.304.144.553.337.744.577.192.241.332.514.421.82.087.304.131.617.131.938v2.265c0 .32-.048.632-.144.938-.096.305-.244.578-.444.818-.2.241-.456.434-.769.578-.312.145-.675.217-1.092.217m.049-10.176c-.48 0-.924.056-1.332.168-.408.112-.803.272-1.188.48-.08-.127-.176-.24-.288-.336-.111-.096-.215-.144-.313-.144h-1.343c-.191 0-.348.089-.469.264-.119.176-.179.345-.179.504v16.104c0 .176.06.344.179.504.121.161.278.24.469.24h1.343c.145 0 .293-.079.446-.24.151-.16.227-.328.227-.504v-4.608c.704.368 1.503.552 2.399.552.913 0 1.7-.159 2.365-.48.664-.32 1.204-.732 1.62-1.236.417-.503.727-1.071.935-1.704.209-.633.313-1.268.313-1.908v-2.448c0-.624-.104-1.248-.313-1.873-.208-.623-.518-1.179-.935-1.667-.416-.487-.953-.888-1.608-1.2-.656-.311-1.432-.468-2.328-.468" id="Fill-84" fill="#975E97" sketch:type="MSShapeGroup"/><path d="M320.016 483.228c-.431 0-.808-.072-1.127-.215-.32-.143-.585-.334-.792-.574-.208-.239-.365-.514-.469-.826-.104-.311-.155-.626-.155-.945v-2.32c0-.319.055-.626.167-.921.113-.295.272-.558.481-.79.208-.23.467-.415.779-.55.313-.135.685-.203 1.116-.203.448 0 .841.072 1.177.215.335.144.611.336.828.574.216.24.376.511.48.814.104.303.155.614.155.933v2.273c0 .318-.055.63-.167.933-.113.302-.277.574-.493.813-.215.24-.487.431-.816.574-.327.143-.716.215-1.164.215m.121-10.153c-.897 0-1.685.158-2.365.47-.68.312-1.244.712-1.691 1.198-.448.489-.788 1.045-1.02 1.67-.233.624-.357 1.247-.373 1.872v2.423c0 .64.112 1.275.337 1.908.223.633.555 1.201.995 1.704.441.504.993.916 1.657 1.236.663.321 1.436.48 2.315.48.913 0 1.708-.159 2.388-.48.68-.32 1.249-.732 1.704-1.236.457-.503.797-1.071 1.02-1.704.225-.633.336-1.268.336-1.908v-2.328c0-.624-.111-1.251-.336-1.884-.223-.632-.559-1.2-1.007-1.704-.449-.504-1.001-.916-1.657-1.236-.656-.319-1.424-.481-2.303-.481" id="Fill-85" fill="#975E97" sketch:type="MSShapeGroup"/><path d="M337.128 473.22h-9.048c-.176 0-.323.064-.444.193-.12.127-.18.304-.18.527v1.248c0 .192.06.356.18.492.121.136.268.204.444.204h3.289v9.337c0 .191.055.355.167.49.111.137.256.205.432.205h1.32c.192 0 .344-.068.456-.205.112-.135.168-.299.168-.49v-9.337h3.216c.208 0 .368-.068.48-.204.111-.136.168-.3.168-.492v-1.248c0-.223-.057-.4-.168-.527-.112-.129-.272-.193-.48-.193" id="Fill-86" fill="#975E97" sketch:type="MSShapeGroup"/><path d="M345.575 483.396c-.448 0-.839-.075-1.175-.228-.335-.152-.616-.356-.841-.612-.223-.256-.391-.544-.503-.864-.113-.319-.168-.648-.168-.984v-2.064c0-.304.064-.604.191-.901.128-.294.308-.559.54-.791.233-.232.516-.42.853-.565.336-.144.721-.215 1.152-.215.463 0 .871.071 1.224.215.352.145.644.338.875.577.232.241.404.516.517.828.112.312.167.635.167.973v1.967c0 .335-.059.665-.179.983-.12.321-.301.605-.539.852-.242.249-.537.449-.89.601-.351.153-.759.228-1.224.228m4.058-15.216l-4.321.721c-1.76.287-3.049.955-3.865 2.003-.815 1.048-1.223 2.396-1.223 4.043v5.761c0 .625.112 1.256.336 1.896.224.641.56 1.216 1.008 1.729.447.511 1.003.928 1.668 1.247.663.321 1.436.48 2.316.48.911 0 1.708-.159 2.388-.48.68-.319 1.249-.736 1.704-1.247.456-.513.8-1.088 1.032-1.729.232-.64.348-1.271.348-1.896v-2.016c0-.624-.112-1.251-.335-1.884-.225-.632-.561-1.196-1.009-1.693-.448-.495-1.001-.899-1.656-1.211-.656-.313-1.425-.468-2.304-.468-.497 0-1.005.096-1.524.289-.52.191-1.013.535-1.476 1.031.032-.927.291-1.645.78-2.148.488-.504 1.164-.835 2.028-.997l4.272-.743c.128-.032.24-.116.336-.253.096-.135.143-.275.143-.419.017-.224.032-.46.049-.709.016-.247.025-.451.025-.611 0-.16-.081-.315-.242-.468-.159-.151-.319-.228-.478-.228" id="Fill-87" fill="#975E97" sketch:type="MSShapeGroup"/><path d="M358.751 483.228c-.431 0-.807-.072-1.126-.215-.321-.143-.586-.334-.793-.574-.208-.239-.365-.514-.469-.826-.104-.311-.155-.626-.155-.945v-2.32c0-.319.055-.626.168-.921.112-.295.272-.558.48-.79.208-.23.467-.415.78-.55.312-.135.684-.203 1.115-.203.449 0 .841.072 1.177.215.336.144.612.336.828.574.217.24.376.511.48.814.104.303.156.614.156.933v2.273c0 .318-.056.63-.168.933-.113.302-.276.574-.493.813-.215.24-.487.431-.816.574-.327.143-.715.215-1.164.215m.121-10.153c-.896 0-1.685.158-2.364.47-.68.312-1.245.712-1.692 1.198-.448.489-.788 1.045-1.02 1.67-.233.624-.356 1.247-.373 1.872v2.423c0 .64.113 1.275.337 1.908.224.633.555 1.201.995 1.704.441.504.994.916 1.657 1.236.663.321 1.436.48 2.316.48.913 0 1.708-.159 2.388-.48.68-.32 1.248-.732 1.703-1.236.457-.503.797-1.071 1.02-1.704.225-.633.336-1.268.336-1.908v-2.328c0-.624-.111-1.251-.336-1.884-.223-.632-.559-1.2-1.007-1.704-.448-.504-1-.916-1.657-1.236-.656-.319-1.423-.481-2.303-.481" id="Fill-88" fill="#975E97" sketch:type="MSShapeGroup"/><path d="M371.664 483.228c-.432 0-.801-.072-1.105-.217-.304-.144-.552-.337-.744-.578-.191-.24-.331-.513-.42-.818-.088-.306-.132-.618-.132-.938v-2.337c0-.337.04-.654.121-.951.079-.297.216-.557.408-.783.191-.224.444-.404.756-.542.311-.135.699-.203 1.164-.203.432 0 .799.071 1.103.216.304.144.552.337.744.577.193.241.333.514.42.82.088.304.132.617.132.938v2.265c0 .32-.047.632-.143.938-.097.305-.244.578-.445.818-.2.241-.455.434-.767.578-.313.145-.676.217-1.092.217m.048-10.176c-.48 0-.924.056-1.332.168-.408.112-.805.272-1.189.48-.079-.127-.176-.24-.287-.336-.113-.096-.217-.144-.313-.144h-1.344c-.191 0-.348.089-.468.264-.119.176-.18.345-.18.504v16.104c0 .176.061.344.18.504.12.161.277.24.468.24h1.344c.145 0 .292-.079.445-.24.151-.16.227-.328.227-.504v-4.608c.704.368 1.504.552 2.401.552.911 0 1.699-.159 2.364-.48.663-.32 1.203-.732 1.619-1.236.416-.503.728-1.071.937-1.704.208-.633.312-1.268.312-1.908v-2.448c0-.624-.104-1.248-.312-1.873-.209-.623-.521-1.179-.937-1.667-.416-.487-.952-.888-1.608-1.2-.656-.311-1.432-.468-2.327-.468" id="Fill-89" fill="#975E97" sketch:type="MSShapeGroup"/><path d="M384.096 483.468c-.786 0-1.396-.168-1.837-.503-.44-.337-.659-.801-.659-1.394 0-.574.219-1.047.659-1.415.441-.368 1.051-.552 1.837-.552.767 0 1.375.184 1.823.552.448.368.673.841.673 1.415 0 .593-.225 1.057-.673 1.394-.448.335-1.056.503-1.823.503m.143-10.416c-.863 0-1.632.132-2.304.395-.671.266-1.224.58-1.656.95-.319.287-.36.599-.12.935v-.024l.6.935c.129.161.272.25.433.265.022.002.044.003.066.003.133 0 .255-.04.365-.124.272-.24.636-.455 1.092-.648.457-.191.956-.287 1.5-.287.816 0 1.432.224 1.848.672.416.448.625.977.625 1.585v.023c-.881-.4-1.776-.6-2.69-.6-.894 0-1.667.116-2.315.348-.648.233-1.184.549-1.608.947-.423.401-.74.873-.948 1.417-.208.544-.312 1.136-.312 1.776 0 .641.104 1.228.312 1.764.208.537.525 1 .948 1.393.424.391.96.699 1.608.922.648.225 1.421.337 2.315.337.434 0 .865-.068 1.298-.204.431-.136.855-.316 1.271-.539.017.159.084.304.204.432.121.127.252.191.397.191h1.415c.176 0 .325-.076.444-.228.121-.151.18-.316.18-.493v-7.751c0-.608-.1-1.18-.299-1.715-.202-.537-.51-1.001-.924-1.393-.417-.392-.937-.704-1.56-.936-.624-.231-1.353-.348-2.185-.348" id="Fill-90" fill="#975E97" sketch:type="MSShapeGroup"/><path d="M392.543 483.252c-.416 0-.76.132-1.032.396s-.408.58-.408.948c0 .369.136.684.408.948.272.265.616.397 1.032.397.384 0 .712-.132.984-.397.272-.264.408-.579.408-.948 0-.368-.136-.684-.408-.948-.272-.264-.6-.396-.984-.396" id="Fill-91" fill="#975E97" sketch:type="MSShapeGroup"/><path d="M90.731 261.334c-.213 0-.395-.087-.549-.26-.154-.173-.231-.404-.231-.694l-.058-12.501-5.803 9.557v-.029c-.173.288-.404.433-.693.433-.289 0-.51-.145-.664-.433l-5.716-9.557v12.53c0 .29-.073.521-.217.694-.144.173-.342.26-.592.26h-1.703c-.27 0-.467-.087-.592-.26-.125-.173-.188-.404-.188-.694v-18.304c0-.289.063-.52.188-.693.125-.173.322-.26.592-.26h1.848c.153 0 .303.058.447.174.144.115.236.212.274.288l6.294 10.625 6.179-10.625c.038-.058.13-.139.274-.245.144-.106.265-.168.361-.188.058 0 .163-.004.317-.014s.337-.015.549-.015h1.299c.27 0 .467.087.593.26.124.173.187.404.187.693v18.304c0 .29-.063.521-.187.694-.126.173-.323.26-.593.26h-1.616" id="Fill-92" fill="#1A1918" sketch:type="MSShapeGroup"/><path d="M96.187 261.334c-.327 0-.563-.121-.707-.361-.144-.241-.169-.525-.072-.852l6.091-18.363v.029c.039-.192.145-.351.318-.476.173-.125.337-.188.491-.188h1.819c.154 0 .312.063.476.188.164.125.274.284.332.476l6.092 18.334c.097.327.067.611-.087.852-.154.24-.385.361-.692.361h-1.906c-.154 0-.313-.063-.476-.188-.164-.125-.275-.293-.332-.505v.029l-1.126-3.552h-6.583l-1.126 3.552v-.029c-.058.212-.169.38-.332.505-.164.125-.323.188-.476.188h-1.704zm4.591-7.334h4.677c-.212-.673-.414-1.318-.606-1.934l-.549-1.877c-.173-.635-.356-1.28-.549-1.935-.192-.653-.394-1.346-.606-2.078l-2.367 7.824z" id="Fill-93" fill="#1A1918" sketch:type="MSShapeGroup"/><path d="M114.174 261.334c-.25 0-.447-.111-.592-.332-.144-.222-.216-.448-.216-.679v-18.247c0-.289.072-.52.216-.693.145-.173.342-.26.592-.26h1.732c.25 0 .448.087.592.26.145.173.217.404.217.693v11.318l7.015-9.961v-1.357c0-.289.073-.52.217-.693.144-.173.342-.26.592-.26h1.733c.249 0 .447.087.591.26.144.173.217.404.217.693v18.304c0 .29-.073.521-.217.694-.144.173-.342.26-.591.26h-1.733c-.25 0-.448-.087-.592-.26-.144-.173-.217-.404-.217-.694l.058-11.519-.086.173-6.987 9.961v1.385c0 .29-.072.521-.217.694-.144.173-.342.26-.592.26h-1.732zm6.034-20.99c-.597 0-1.193-.072-1.79-.217-.597-.144-1.14-.385-1.631-.722-.491-.336-.891-.769-1.198-1.299-.308-.529-.462-1.179-.462-1.949 0-.269.077-.5.231-.693.154-.192.394-.288.722-.288h1.299c.211 0 .404.082.577.245.173.164.26.371.26.621-.019.443.183.823.606 1.14.424.318.914.477 1.473.477.616 0 1.13-.159 1.544-.477.414-.317.611-.697.592-1.14 0-.25.087-.457.26-.621.173-.163.366-.245.578-.245h1.27c.327 0 .567.096.722.288.154.193.231.424.231.693 0 .751-.155 1.391-.462 1.92-.308.53-.713.963-1.213 1.3-.501.337-1.064.582-1.689.736-.626.154-1.266.231-1.92.231z" id="Fill-94" fill="#1A1918" sketch:type="MSShapeGroup"/><path d="M57.614 381.917c-.25 0-.447-.111-.591-.332-.145-.222-.217-.448-.217-.679v-18.247c0-.289.072-.519.217-.693.144-.173.341-.26.591-.26h1.733c.25 0 .447.087.591.26.145.174.217.404.217.693v11.318l7.016-9.961v-1.357c0-.289.072-.519.217-.693.144-.173.341-.26.592-.26h1.732c.249 0 .447.087.592.26.144.174.216.404.216.693v18.305c0 .289-.072.519-.216.693-.145.173-.343.26-.592.26h-1.732c-.251 0-.448-.087-.592-.26-.145-.174-.217-.404-.217-.693l.058-11.52-.087.173-6.987 9.961v1.386c0 .289-.072.519-.217.693-.144.173-.341.26-.591.26h-1.733" id="Fill-95" fill="#1A1918" sketch:type="MSShapeGroup"/><path d="M80.856 373.428h-3.436v7.536c0 .289-.077.519-.23.693-.155.173-.347.26-.578.26h-1.588c-.25 0-.452-.087-.606-.26-.154-.174-.231-.404-.231-.693v-18.334c0-.288.077-.52.231-.693.154-.172.356-.26.606-.26h1.588c.231 0 .423.088.578.259.153.173.23.404.23.691v7.424h3.436v-1.267c0-1.055.144-2.028.433-2.921.289-.892.712-1.663 1.271-2.315.558-.653 1.231-1.156 2.021-1.511.789-.355 1.693-.533 2.713-.533 1.001 0 1.892.178 2.671.534.78.357 1.444.862 1.993 1.516.548.655.971 1.429 1.27 2.324.298.895.457 1.872.476 2.931v6.034c-.019 1.078-.173 2.064-.462 2.959-.288.896-.703 1.661-1.242 2.296-.539.634-1.203 1.131-1.992 1.487-.789.355-1.694.534-2.714.534-1.058 0-1.992-.179-2.8-.534-.809-.356-1.482-.853-2.021-1.487-.539-.635-.943-1.4-1.213-2.296-.269-.895-.404-1.891-.404-2.988v-1.386zm9.585-4.446c-.019-1.213-.284-2.189-.793-2.931-.511-.74-1.285-1.111-2.325-1.111-1.078 0-1.872.371-2.382 1.111-.51.742-.775 1.718-.794 2.931v5.572c0 2.753 1.059 4.129 3.176 4.129 1.04 0 1.809-.328 2.31-.981.5-.655.77-1.675.808-3.061v-5.659z" id="Fill-96" fill="#1A1918" sketch:type="MSShapeGroup"/><path d="M107.995 381.917c-.25 0-.447-.087-.592-.26-.144-.174-.216-.404-.216-.693v-7.882h-6.728v7.882c0 .289-.071.519-.214.693-.143.173-.339.26-.587.26h-1.746c-.248 0-.444-.087-.587-.26-.143-.174-.215-.404-.215-.693v-18.305c0-.289.072-.519.215-.693.143-.173.339-.26.587-.26h1.746c.248 0 .444.087.587.26.143.172.214.402.214.69v7.048h6.728v-7.048c0-.288.072-.518.216-.69.145-.173.342-.26.592-.26h1.704c.269 0 .476.087.62.26.145.174.217.404.217.693v18.305c0 .289-.072.519-.217.693-.144.173-.351.26-.62.26h-1.704" id="Fill-97" fill="#1A1918" sketch:type="MSShapeGroup"/><path d="M117.494 369.444h3.426c1.056 0 1.996.154 2.821.462.825.308 1.521.736 2.088 1.285.566.549.997 1.203 1.295 1.963.297.761.446 1.602.446 2.526-.019.808-.168 1.588-.447 2.339-.278.751-.686 1.415-1.224 1.992-.538.578-1.21 1.039-2.017 1.386-.806.347-1.747.52-2.823.52h-6.137c-.211 0-.393-.091-.547-.275-.153-.182-.23-.389-.23-.62v-18.421c0-.211.077-.413.231-.606.154-.192.336-.289.548-.289h1.762c.25 0 .447.087.591.26.145.174.217.404.217.693v6.785zm0 3.465v5.572h3.262c1.078 0 1.925-.255 2.541-.765.616-.51.924-1.179.924-2.007 0-.885-.274-1.574-.823-2.064-.548-.491-1.371-.736-2.468-.736h-3.436z" id="Fill-98" fill="#1A1918" sketch:type="MSShapeGroup"/><path d="M57.354 504.583c-.249 0-.447-.111-.591-.332-.144-.221-.217-.448-.217-.678v-18.247c0-.289.073-.52.217-.694.144-.172.342-.259.591-.259h1.733c.25 0 .448.087.592.259.144.174.216.405.216.694v11.317l7.016-9.96v-1.357c0-.289.072-.52.217-.694.144-.172.341-.259.592-.259h1.732c.25 0 .447.087.592.259.144.174.216.405.216.694v18.304c0 .289-.072.52-.216.694-.145.172-.342.259-.592.259h-1.732c-.251 0-.448-.087-.592-.259-.145-.174-.217-.405-.217-.694l.058-11.52-.087.174-6.987 9.96v1.386c0 .289-.072.52-.216.694-.144.172-.342.259-.592.259h-1.733" id="Fill-99" fill="#1A1918" sketch:type="MSShapeGroup"/><path d="M80.596 496.095h-3.435v7.535c0 .289-.077.52-.231.694-.155.172-.347.259-.578.259h-1.588c-.25 0-.452-.087-.606-.259-.154-.174-.231-.405-.231-.694v-18.333c0-.289.077-.52.231-.693.154-.173.356-.26.606-.26h1.588c.231 0 .423.087.578.259.154.173.231.403.231.691v7.423h3.435v-1.267c0-1.054.145-2.028.433-2.92.289-.892.712-1.664 1.271-2.316.558-.652 1.231-1.156 2.021-1.511.789-.355 1.693-.532 2.714-.532 1 0 1.891.178 2.671.534.779.356 1.443.862 1.992 1.516.548.654.972 1.429 1.27 2.324.298.895.457 1.872.476 2.93v6.034c-.019 1.078-.173 2.065-.462 2.96-.288.895-.703 1.66-1.241 2.296-.539.634-1.203 1.13-1.992 1.486-.79.356-1.694.534-2.714.534-1.059 0-1.992-.178-2.801-.534-.808-.356-1.482-.852-2.021-1.486-.539-.636-.943-1.401-1.213-2.296-.269-.895-.404-1.891-.404-2.988v-1.386zm9.586-4.446c-.019-1.213-.285-2.19-.794-2.931-.511-.741-1.285-1.111-2.324-1.111-1.079 0-1.873.37-2.382 1.111-.511.741-.775 1.718-.794 2.931v5.572c0 2.752 1.058 4.128 3.176 4.128 1.039 0 1.809-.327 2.31-.981.499-.655.769-1.675.808-3.061v-5.658z" id="Fill-100" fill="#1A1918" sketch:type="MSShapeGroup"/><path d="M99.738 490.292c.192-.789.462-1.54.808-2.252.347-.712.761-1.343 1.242-1.891.481-.549 1.039-.982 1.674-1.3.636-.317 1.348-.476 2.137-.476h4.092c.253 0 .456.087.612.259.155.174.233.405.233.694v18.304c0 .289-.078.52-.233.694-.156.172-.359.259-.612.259h-1.66c-.272 0-.481-.087-.626-.259-.146-.174-.218-.405-.218-.694v-15.966h-1.184c-1.463 0-2.512 1.194-3.147 3.581l-3.118 12.443.029-.029c-.077.308-.173.539-.289.693-.115.154-.337.231-.664.231h-1.646c-.308 0-.543-.125-.707-.375-.164-.251-.197-.539-.101-.866v.028l3.378-13.078" id="Fill-101" fill="#1A1918" sketch:type="MSShapeGroup"/><path d="M117.494 492.11h3.426c1.056 0 1.996.155 2.821.462.825.308 1.521.737 2.088 1.285.566.549.997 1.203 1.295 1.963.297.761.446 1.603.446 2.527-.019.808-.168 1.588-.447 2.338-.278.751-.686 1.415-1.224 1.992-.538.578-1.21 1.04-2.017 1.386-.806.347-1.747.52-2.823.52h-6.137c-.211 0-.393-.091-.547-.274-.153-.183-.23-.39-.23-.621v-18.42c0-.211.077-.414.231-.606.154-.193.336-.289.548-.289h1.762c.25 0 .447.087.591.259.145.174.217.405.217.694v6.784zm0 3.465v5.572h3.262c1.078 0 1.925-.255 2.541-.765.616-.51.924-1.179.924-2.006 0-.885-.274-1.574-.823-2.065-.548-.491-1.371-.736-2.468-.736h-3.436z" id="Fill-102" fill="#1A1918" sketch:type="MSShapeGroup"/><path d="M32.727 625.916c-.327 0-.563-.12-.706-.361-.145-.24-.169-.524-.073-.852l6.092-18.362v.029c.039-.192.145-.351.317-.476.174-.125.337-.188.492-.188h1.819c.153 0 .312.063.476.188.163.125.274.284.331.476l6.093 18.333c.096.328.067.612-.087.852-.154.241-.385.361-.693.361h-1.905c-.154 0-.313-.062-.477-.188-.163-.125-.274-.293-.332-.505v.029l-1.126-3.551h-6.582l-1.126 3.551v-.029c-.058.212-.169.38-.332.505-.164.126-.323.188-.477.188h-1.704zm4.591-7.333h4.678c-.212-.674-.414-1.319-.607-1.935l-.548-1.876c-.173-.636-.357-1.28-.549-1.935-.192-.654-.395-1.347-.606-2.079l-2.368 7.825z" id="Fill-103" fill="#1A1918" sketch:type="MSShapeGroup"/><path d="M56.604 605.706c1.078 0 2.017.164 2.815.491.799.327 1.463.765 1.993 1.313.528.549.928 1.175 1.198 1.877.269.703.404 1.439.404 2.209.019.905-.221 1.723-.722 2.454-.5.731-1.145 1.299-1.934 1.703.365.173.711.414 1.039.722.327.308.611.659.852 1.054.24.395.433.808.577 1.241.145.433.217.871.217 1.314-.02.77-.164 1.506-.433 2.208-.27.703-.67 1.324-1.198 1.863-.53.539-1.194.967-1.993 1.285-.798.317-1.737.476-2.815.476h-5.947c-.212 0-.395-.091-.549-.274-.154-.183-.231-.39-.231-.621v-18.42c0-.212.077-.414.231-.606.154-.193.337-.289.549-.289h5.947zm-3.377 3.291v5.255h3.118c1.039 0 1.852-.24 2.439-.722.587-.481.89-1.097.91-1.848-.02-.808-.289-1.457-.809-1.948-.519-.491-1.328-.737-2.425-.737h-3.233zm0 8.373v5.255h3.118c1.039 0 1.852-.241 2.439-.722s.89-1.097.91-1.848c-.02-.808-.289-1.458-.809-1.949-.519-.491-1.328-.736-2.425-.736h-3.233z" id="Fill-104" fill="#1A1918" sketch:type="MSShapeGroup"/><path d="M66.391 606.659c0-.289.071-.52.215-.694.143-.173.348-.259.615-.259h10.199c.25 0 .448.086.592.259.145.174.217.405.217.694v1.241c0 .289-.072.52-.217.693-.144.173-.342.259-.592.259h-7.68v16.111c0 .289-.072.52-.214.693-.144.173-.339.26-.587.26h-1.718c-.267 0-.472-.087-.615-.26-.144-.173-.215-.404-.215-.693v-18.304" id="Fill-105" fill="#1A1918" sketch:type="MSShapeGroup"/><path d="M80.625 606.89c-.039-.289.024-.558.188-.809.163-.25.379-.375.649-.375h1.531c.326 0 .543.077.649.231.106.154.197.385.275.693l1.183 6.265c.096.346.255.698.477 1.054.22.356.552.534.996.534h3.84l1.53-7.824c.057-.327.139-.568.245-.722.105-.154.322-.231.65-.231h1.53c.289 0 .51.125.664.375.154.251.212.511.173.779l-2.8 14.956c-.097.559-.289 1.083-.578 1.574-.288.491-.645.924-1.068 1.299-.424.375-.9.669-1.429.881-.53.211-1.093.317-1.689.317h-2.858c-.231 0-.424-.076-.578-.231-.154-.154-.241-.365-.26-.635l-.173-1.328c0-.327.082-.582.246-.765.163-.183.361-.275.591-.275h2.888c.462 0 .856-.187 1.183-.563.327-.375.539-.784.635-1.227l.607-3.435h-3.754c-.558 0-1.064-.092-1.515-.274-.453-.183-.857-.438-1.213-.765-.356-.328-.654-.712-.895-1.155-.241-.443-.419-.924-.534-1.444l-1.386-6.9" id="Fill-106" fill="#1A1918" sketch:type="MSShapeGroup"/><path d="M97.688 612.173c0-.904.149-1.761.448-2.569.298-.809.731-1.517 1.299-2.123.567-.606 1.271-1.087 2.108-1.443.837-.356 1.794-.534 2.872-.534 1.059 0 1.993.164 2.801.491.808.327 1.496.779 2.064 1.357.568.577 1.006 1.251 1.314 2.021.307.77.481 1.597.52 2.483 0 .269-.073.495-.217.678-.144.183-.352.274-.621.274h-1.703c-.212 0-.4-.091-.563-.274-.164-.183-.245-.39-.245-.621-.039-.943-.344-1.669-.914-2.179-.57-.51-1.377-.766-2.421-.766-1.102 0-1.943.275-2.523.823-.58.549-.869 1.343-.869 2.382v7.334c.018 1.02.314 1.799.883 2.338.571.539 1.407.808 2.509.808 1.044 0 1.851-.249 2.421-.75.57-.501.875-1.222.914-2.166 0-.211.081-.413.245-.606.163-.192.351-.289.563-.289h1.703c.269 0 .477.097.621.289.144.193.217.424.217.693-.039.866-.213 1.68-.52 2.44-.308.761-.746 1.429-1.314 2.006-.568.578-1.256 1.03-2.064 1.357-.808.327-1.742.491-2.801.491-1.078 0-2.035-.173-2.872-.52-.837-.346-1.541-.823-2.108-1.429-.568-.606-1.001-1.314-1.299-2.122-.299-.808-.448-1.674-.448-2.598v-7.276" id="Fill-107" fill="#1A1918" sketch:type="MSShapeGroup"/><path d="M119.594 625.916c-.267 0-.472-.087-.615-.26-.144-.173-.215-.405-.215-.694v-15.878h-4.764c-.25 0-.452-.086-.606-.258-.154-.171-.231-.401-.231-.686v-1.489c0-.287.077-.515.231-.687.154-.172.356-.258.606-.258h12.791c.25 0 .447.086.591.258.145.172.217.4.217.687v1.489c0 .285-.072.515-.217.686-.144.172-.341.258-.591.258h-4.678v15.878c0 .289-.081.521-.243.694-.162.173-.358.26-.587.26h-1.689" id="Fill-108" fill="#1A1918" sketch:type="MSShapeGroup"/><path d="M.189 734.839c0-.904.149-1.761.448-2.569.298-.808.731-1.516 1.299-2.122.567-.606 1.27-1.087 2.107-1.444.838-.356 1.795-.534 2.873-.534 1.059 0 1.993.164 2.801.491.808.327 1.496.78 2.064 1.357.568.577 1.006 1.252 1.314 2.021.307.77.481 1.598.52 2.483 0 .27-.073.496-.217.678-.144.184-.352.275-.621.275h-1.703c-.212 0-.4-.091-.563-.275-.164-.182-.245-.389-.245-.62-.04-.943-.344-1.67-.914-2.18-.57-.51-1.377-.765-2.421-.765-1.102 0-1.943.274-2.523.823-.58.549-.869 1.343-.869 2.381v7.334c.018 1.02.314 1.8.883 2.339.571.539 1.407.808 2.509.808 1.044 0 1.851-.25 2.421-.75.57-.501.874-1.223.914-2.166 0-.211.081-.413.245-.607.163-.191.351-.288.563-.288h1.703c.269 0 .477.097.621.288.144.194.217.424.217.693-.039.867-.213 1.68-.52 2.44-.308.761-.746 1.429-1.314 2.007-.568.577-1.256 1.03-2.064 1.356-.808.328-1.742.492-2.801.492-1.078 0-2.035-.173-2.873-.52-.837-.347-1.54-.823-2.107-1.429-.568-.606-1.001-1.314-1.299-2.122-.299-.809-.448-1.675-.448-2.599v-7.276" id="Fill-109" fill="#1A1918" sketch:type="MSShapeGroup"/><path d="M16.386 729.325c0-.289.072-.52.216-.693.145-.173.342-.26.592-.26h10.74c.251 0 .448.087.592.26.145.173.217.404.217.693v1.472c0 .289-.072.52-.217.694-.144.173-.341.259-.592.259h-8.199v5.024h7.449c.269 0 .476.087.621.26.144.173.216.404.216.693v1.472c0 .289-.072.52-.216.693-.145.173-.352.26-.621.26h-7.449v5.053h8.142c.25 0 .447.086.592.257.144.172.217.401.217.687v1.489c0 .287-.073.515-.217.687-.145.172-.342.258-.592.258h-10.683c-.25 0-.447-.087-.592-.26-.144-.173-.216-.405-.216-.693v-18.305" id="Fill-110" fill="#1A1918" sketch:type="MSShapeGroup"/><path d="M42.197 748.583c-.25 0-.447-.087-.591-.26-.145-.173-.217-.405-.217-.693v-7.882h-6.727v7.882c0 .288-.072.52-.215.693-.143.173-.339.26-.587.26h-1.746c-.248 0-.444-.087-.587-.26-.143-.173-.215-.405-.215-.693v-18.305c0-.289.072-.52.215-.693.143-.173.339-.26.587-.26h1.746c.248 0 .444.087.587.26.143.172.215.402.215.689v7.049h6.727v-7.049c0-.287.072-.517.217-.689.144-.173.341-.26.591-.26h1.704c.269 0 .476.087.62.26.145.173.217.404.217.693v18.305c0 .288-.072.52-.217.693-.144.173-.351.26-.62.26h-1.704" id="Fill-111" fill="#1A1918" sketch:type="MSShapeGroup"/><path d="M53.796 748.583c-.267 0-.472-.087-.615-.26-.143-.174-.215-.405-.215-.695v-15.878h-4.763c-.251 0-.453-.085-.607-.257-.154-.172-.231-.401-.231-.687v-1.489c0-.286.077-.515.231-.687.154-.171.356-.258.607-.258h12.79c.25 0 .447.087.591.258.145.172.217.401.217.687v1.489c0 .286-.072.515-.217.687-.144.172-.341.257-.591.257h-4.678v15.878c0 .29-.081.521-.243.695-.162.173-.358.26-.587.26h-1.689" id="Fill-112" fill="#1A1918" sketch:type="MSShapeGroup"/><path d="M76.988 728.372c.211 0 .394.097.548.289.154.193.231.395.231.606v18.421c0 .23-.077.438-.231.62-.154.183-.337.275-.548.275h-1.733c-.192 0-.366-.092-.52-.275-.154-.182-.231-.39-.231-.62v-7.334h-2.87c-.562 0-1.069.202-1.523.607-.455.403-.788.942-1.001 1.616l-1.505 5.082c-.078.308-.193.539-.347.693-.155.154-.404.231-.751.231h-1.588c-.27 0-.462-.126-.577-.376-.116-.25-.135-.538-.058-.866l1.703-5.746c.154-.5.395-.981.722-1.443.327-.462.77-.789 1.328-.981-.381-.116-.777-.304-1.188-.563-.41-.26-.783-.587-1.117-.982-.334-.395-.611-.861-.83-1.401-.22-.538-.329-1.155-.329-1.847 0-.77.125-1.516.375-2.238s.64-1.361 1.169-1.92c.529-.557 1.208-1.006 2.036-1.342.827-.337 1.828-.506 3.002-.506h5.833zm-5.586 3.263c-1.102 0-1.958.25-2.567.75-.608.502-.913 1.165-.913 1.993 0 .847.294 1.525.884 2.035.589.51 1.436.765 2.538.765h3.16v-5.543h-3.102z" id="Fill-113" fill="#1A1918" sketch:type="MSShapeGroup"/><path d="M84.898 731.664v4.561h3.513c2.149 0 3.829.554 5.038 1.66 1.209 1.108 1.814 2.614 1.814 4.519-.019.886-.178 1.709-.475 2.469-.298.76-.73 1.414-1.297 1.963-.566.549-1.263.977-2.089 1.285-.825.308-1.777.462-2.852.462h-6.223c-.211 0-.394-.092-.547-.275-.154-.182-.231-.39-.231-.62v-18.421c0-.211.077-.413.231-.606.154-.192.337-.289.549-.289h10.249c.25 0 .447.087.592.26.145.173.217.404.217.693v1.386c0 .289-.072.519-.217.693-.145.173-.342.26-.592.26h-7.68zm0 7.94v5.601h3.465c1.077 0 1.939-.235 2.584-.704.644-.469.967-1.163.967-2.082 0-.919-.289-1.618-.866-2.098-.577-.478-1.415-.717-2.512-.717h-3.638z" id="Fill-114" fill="#1A1918" sketch:type="MSShapeGroup"/><path d="M104.949 728.372c1.075 0 2.011.213 2.808.636.797.423 1.46.967 1.988 1.631s.927 1.4 1.196 2.208c.268.809.403 1.588.403 2.339 0 .77-.13 1.564-.389 2.382-.259.818-.652 1.569-1.18 2.252-.527.684-1.195 1.242-2.001 1.675-.806.432-1.746.649-2.821.649l-3.627.029v5.515c0 .23-.078.438-.231.62-.155.183-.328.275-.52.275h-1.848c-.192 0-.366-.092-.52-.275-.154-.182-.23-.39-.23-.62v-18.421c0-.211.076-.413.23-.606.153-.192.326-.289.519-.289h6.223zm-3.623 3.407v6.987h3.262c.539 0 1.02-.101 1.444-.303.423-.202.779-.472 1.068-.808.289-.337.51-.712.664-1.127.154-.413.231-.841.231-1.284 0-.423-.077-.842-.231-1.256-.154-.414-.375-.784-.664-1.112-.289-.326-.645-.592-1.068-.794-.424-.202-.905-.303-1.444-.303h-3.262z" id="Fill-115" fill="#1A1918" sketch:type="MSShapeGroup"/><path d="M117.494 736.11h3.426c1.056 0 1.996.154 2.821.462.825.308 1.521.736 2.088 1.285.566.549.997 1.203 1.295 1.963.297.761.446 1.602.446 2.526-.019.809-.168 1.588-.447 2.339-.278.751-.686 1.415-1.224 1.992-.538.578-1.21 1.039-2.017 1.386-.806.346-1.747.52-2.823.52h-6.137c-.211 0-.393-.092-.547-.275-.153-.182-.23-.39-.23-.62v-18.421c0-.211.077-.413.231-.606.154-.192.336-.289.548-.289h1.762c.25 0 .447.087.591.26.145.173.217.404.217.693v6.785zm0 3.464v5.573h3.262c1.078 0 1.925-.255 2.541-.765.616-.51.924-1.179.924-2.007 0-.885-.274-1.574-.823-2.064-.548-.491-1.371-.737-2.468-.737h-3.436z" id="Fill-116" fill="#1A1918" sketch:type="MSShapeGroup"/></g></svg>