<svg width="56" height="53" viewBox="0 0 56 53" xmlns="http://www.w3.org/2000/svg" xmlns:sketch="http://www.bohemiancoding.com/sketch/ns"><title>leader</title><desc>Created with Sketch.</desc><g id="leader" sketch:type="MSLayerGroup" stroke="#fff" fill="none" fill-rule="evenodd"><path d="M28.478 30.336l-.685.731 8.248 8.801.728-.684-8.291-8.848" id="Fill-1" sketch:type="MSShapeGroup"/><path d="M6.6 1.302l.687 7.883 13.836 14.764.686-.731-13.554-14.464-.547-6.276 6.099.913 13.299 14.179.687-.731-13.495-14.386-7.698-1.151" id="Fill-2" sketch:type="MSShapeGroup"/><path d="M34.463 23.949l-.685.731 8.634 9.204.728-.684-8.677-9.251" id="Fill-3" sketch:type="MSShapeGroup"/><path d="M46.77 29.79l-10.001 9.394-.728.684-3.575 3.359.684.728 4.598-4.318-.332-.354.364-.343-.364.343-.342-.365 4.917-4.622.677.72 4.787-4.496-.685-.73" id="Fill-4" sketch:type="MSShapeGroup"/><path d="M38.488 38.963l3.46-3.252 11.237 11.962-3.461 3.251-11.236-11.961m3.503-4.667l-4.917 4.622.342.365.364-.343-.364.343.332.354 11.931 12.702 4.919-4.621-12.607-13.422" id="Fill-5" sketch:type="MSShapeGroup"/><path d="M48.983 1.302l-7.697 1.153-13.493 14.384-.687.731-14.661 15.63.728.684 28.605-30.493 6.1-.913-.547 6.275-28.515 30.432.729.685 28.752-30.685.686-7.883" id="Fill-6" sketch:type="MSShapeGroup"/><path d="M8.815 29.79l-.685.73 4.621 4.34.656-.698 4.555 4.278.365.343-.656.698 4.763 4.474.685-.728-3.574-3.357-.729-.685-10.001-9.395" id="Fill-7" sketch:type="MSShapeGroup"/><path d="M5.677 50.789l-3.463-3.251 11.238-11.962 3.46 3.251-11.235 11.962m7.73-16.627l-12.607 13.421 4.92 4.619 12.607-13.419-.365-.343-4.555-4.278" id="Fill-8" sketch:type="MSShapeGroup"/></g></svg>