<svg width="267" height="24" viewBox="0 0 267 24" xmlns="http://www.w3.org/2000/svg" xmlns:sketch="http://www.bohemiancoding.com/sketch/ns"><title>logo</title><g sketch:type="MSLayerGroup" fill="#000206" fill-rule="evenodd"><path d="M159.788 21.89v-1.165c2.007-.027 3.705-.728 3.705-2.734v-13.197c0-1.483-1.245-1.714-3.48-1.742v-1.162h11.017l5.338 13.544h.075l5.378-13.544h11.092v1.162c-2.764 0-3.673.464-3.673 1.915v13.838c0 1.455.909 1.92 3.673 1.92v1.165h-13.138v-1.165c2.499 0 3.407-.465 3.407-1.92v-14.767h-.075l-7.23 17.852h-3.259l-6.926-17.852h-.075v13.953c0 2.006 1.702 2.707 3.975 2.734v1.165h-9.804" sketch:type="MSShapeGroup"/><path d="M191.844 21.89v-1.165c2.839-.409 3.746-1.28 5.071-3.691l8.405-15.495h2.007l9.693 17.237c.795 1.397 1.628 1.831 3.596 1.949v1.165h-13.666v-1.165h1.513c1.969 0 2.272-.349 2.272-.959 0-.378-.189-.756-.416-1.163l-1.856-3.344h-8.33l-1.209 2.299c-.192.374-.455 1.016-.455 1.83 0 .814.683 1.337 2.157 1.337h1.857v1.165h-10.639zm12.341-14.275l-3.216 6.132h6.664l-3.448-6.132z" sketch:type="MSShapeGroup"/><path d="M245.738 17.467c0 2.88-1.632 4.77-5.805 4.77-4.053 0-5.645-1.571-5.922-5.001-.279-3.548-.44-4.506-4.732-4.944v6.107c0 1.657.518 2.326 3.818 2.326v1.165h-14.072v-1.165c2.941 0 3.896-.465 3.896-1.92v-13.838c0-1.451-.955-1.915-3.896-1.915v-1.162h13.913c6.757 0 10.173 1.973 10.173 5.347 0 3.806-5.166 4.768-9.618 4.827v.054c4.85.467 5.966 2.355 6.879 4.361 1.231 2.821 1.473 3.143 2.423 3.143.995 0 1.234-1.165 1.351-2.155h1.592zm-16.459-6.22c4.335-.144 6.996-.639 6.996-3.98 0-2.414-1.67-4.041-4.414-4.041-1.388 0-2.582.406-2.582 1.741v6.28z" sketch:type="MSShapeGroup"/><path d="M246.112 14.211h1.666c1.022 3.171 3.558 6.687 8.366 6.687 2.615 0 4.846-.928 4.846-3.371 0-4.215-14.649-2.763-14.649-9.421 0-4.183 4.049-6.567 8.819-6.567 4.126 0 5.489 1.541 6.51 1.541.76 0 1.06-.672 1.477-1.19h1.591v6.916h-1.515c-1.097-3.168-3.52-5.929-7.494-5.929-2.388 0-4.393 1.017-4.393 2.936 0 4.534 14.88 2.293 14.88 9.825 0 4.332-5.113 6.599-9.313 6.599-4.658 0-6.437-1.512-7.646-1.512-.76 0-1.329.786-1.632 1.165h-1.513v-7.679" sketch:type="MSShapeGroup"/><path d="M9.894 17.51c-.079 0-.142-.065-.142-.157l-.032-8.205-3.784 6.059c-.064.109-.192.109-.255 0l-3.72-6.076v8.222c0 .092-.064.157-.161.157h-.985c-.095 0-.142-.065-.142-.157v-10.813c0-.098.047-.16.142-.16h.748c.048 0 .11.047.127.08l4.103 6.647 4.182-6.63c.015-.035.11-.097.142-.097h.7c.095 0 .143.062.143.16v10.813c0 .092-.048.157-.143.157h-.923" sketch:type="MSShapeGroup"/><path d="M12.564 17.51c-.111 0-.176-.095-.144-.205l3.481-11.004c.017-.064.097-.111.162-.111h1.159c.064 0 .145.047.161.111l3.466 11.004c.031.11-.033.205-.143.205h-1.098c-.064 0-.144-.048-.159-.111l-.859-2.766h-3.99l-.875 2.766c-.016.063-.097.111-.159.111h-1.002zm2.401-4.023h3.242l-1.604-5.517-1.638 5.517z" sketch:type="MSShapeGroup"/><path d="M23.438 11.944c1.4-1.747 3.069-3.782 4.47-5.502.014-.031.077-.062.11-.062h1.175c.144 0 .225.143.128.255l-3.927 4.866c.716.906 1.431 1.876 2.147 2.829.747.986 1.495 1.972 2.226 2.927.08.11.016.253-.126.253h-1.336c-.034 0-.113-.031-.129-.065l-3.687-4.832c-.367.447-.684.874-1.051 1.32v3.42c0 .092-.063.157-.158.157h-.987c-.096 0-.159-.065-.159-.157v-10.813c0-.098.063-.16.159-.16h.987c.095 0 .158.062.158.16v5.404" sketch:type="MSShapeGroup"/><path d="M31.197 6.54c0-.098.062-.16.158-.16h6.203c.094 0 .157.062.157.16v.89c0 .095-.063.158-.157.158h-5.058v3.752h4.626c.096 0 .161.066.161.161v.873c0 .096-.065.161-.161.161h-4.626v3.767h5.026c.093 0 .157.064.157.16v.891c0 .092-.064.157-.157.157h-6.171c-.096 0-.158-.065-.158-.157v-10.813" sketch:type="MSShapeGroup"/><path d="M43.455 17.51c-.097 0-.161-.065-.161-.157v-10.813c0-.098.064-.16.161-.16h.985c.095 0 .159.062.159.16v10.813c0 .092-.064.157-.159.157h-.985" sketch:type="MSShapeGroup"/><path d="M49.83 17.51c-.095 0-.159-.065-.159-.157v-9.716h-3.069c-.097 0-.161-.064-.161-.158v-.939c0-.098.064-.16.161-.16h7.41c.094 0 .158.062.158.16v.939c0 .094-.064.158-.158.158h-3.036v9.716c0 .092-.066.157-.161.157h-.985" sketch:type="MSShapeGroup"/><path d="M68.686 17.51c-.08 0-.142-.065-.142-.157l-.032-8.205-3.785 6.059c-.063.109-.192.109-.255 0l-3.721-6.076v8.222c0 .092-.064.157-.158.157h-.986c-.096 0-.144-.065-.144-.157v-10.813c0-.098.048-.16.144-.16h.747c.048 0 .11.047.126.08l4.103 6.647 4.183-6.63c.016-.035.109-.097.142-.097h.699c.096 0 .144.062.144.16v10.813c0 .092-.048.157-.144.157h-.921" sketch:type="MSShapeGroup"/><path d="M71.831 6.54c0-.098.064-.16.159-.16h6.201c.097 0 .161.062.161.16v.89c0 .095-.064.158-.161.158h-5.057v3.752h4.629c.096 0 .157.066.157.161v.873c0 .096-.061.161-.157.161h-4.629v3.767h5.025c.096 0 .16.064.16.16v.891c0 .092-.064.157-.16.157h-6.169c-.095 0-.159-.065-.159-.157v-10.813" sketch:type="MSShapeGroup"/><path d="M79.303 17.51c-.11 0-.174-.095-.142-.205l3.482-11.004c.015-.064.095-.111.158-.111h1.161c.065 0 .143.047.159.111l3.467 11.004c.03.11-.031.205-.144.205h-1.098c-.062 0-.142-.048-.158-.111l-.859-2.766h-3.991l-.873 2.766c-.016.063-.096.111-.161.111h-1.001zm2.402-4.023h3.243l-1.607-5.517-1.636 5.517z" sketch:type="MSShapeGroup"/><path d="M95.059 17.51c-.031 0-.111-.048-.126-.078l-4.77-8.301v8.222c0 .092-.064.157-.161.157h-.985c-.094 0-.143-.065-.143-.157v-10.813c0-.098.049-.16.143-.16h1.002c.047 0 .127.047.144.08l4.721 8.283v-8.203c0-.098.064-.16.144-.16h1.002c.094 0 .142.062.142.16v10.813c0 .092-.048.157-.142.157h-.971" sketch:type="MSShapeGroup"/><path d="M111.21 17.51c-.078 0-.141-.065-.141-.157l-.033-8.205-3.784 6.059c-.064.109-.19.109-.255 0l-3.719-6.076v8.222c0 .092-.064.157-.16.157h-.986c-.094 0-.142-.065-.142-.157v-10.813c0-.098.048-.16.142-.16h.747c.048 0 .112.047.128.08l4.103 6.647 4.181-6.63c.016-.035.112-.097.144-.097h.698c.096 0 .142.062.142.16v10.813c0 .092-.046.157-.142.157h-.923" sketch:type="MSShapeGroup"/><path d="M114.39 9.8c0-1.925 1.255-3.547 3.561-3.547 2.275 0 3.513 1.622 3.547 3.547l.015 4.308c-.049 1.926-1.287 3.53-3.562 3.53-2.306 0-3.561-1.604-3.561-3.547v-4.291zm3.577-2.241c-1.448 0-2.26.92-2.276 2.337v4.051c0 1.464.812 2.387 2.276 2.387 1.43 0 2.211-.891 2.242-2.321v-4.117c-.031-1.417-.812-2.337-2.242-2.337z" sketch:type="MSShapeGroup"/><path d="M130.495 9.625c.015 1.46-.828 3.068-2.529 3.594.129.221.287.461.445.683.732 1.129 1.509 2.322 2.227 3.418.062.095 0 .19-.113.19h-1.336c-.032 0-.094-.031-.109-.065l-2.641-4.099h-1.78v4.039c0 .06-.063.125-.111.125h-1.049c-.064 0-.129-.065-.129-.125v-10.877c0-.066.065-.128.129-.128h3.593c2.274 0 3.385 1.638 3.403 3.245zm-5.836-2.019v4.546h2.433c1.431 0 2.097-1.321 2.115-2.495-.018-1.194-.668-2.051-2.131-2.051h-2.417z" sketch:type="MSShapeGroup"/><path d="M132.194 6.54c0-.098.062-.16.158-.16h6.203c.095 0 .158.062.158.16v.89c0 .095-.063.158-.158.158h-5.056v3.752h4.626c.096 0 .159.066.159.161v.873c0 .096-.063.161-.159.161h-4.626v3.767h5.024c.095 0 .159.064.159.16v.891c0 .092-.064.157-.159.157h-6.171c-.096 0-.158-.065-.158-.157v-10.813" sketch:type="MSShapeGroup"/><path d="M148.136.526h1.5v22.65h-1.5v-22.65z" sketch:type="MSShapeGroup"/></g></svg>