<svg width="208" height="61" viewBox="0 0 208 61" xmlns="http://www.w3.org/2000/svg" xmlns:sketch="http://www.bohemiancoding.com/sketch/ns"><title>Shape</title><desc>Created with Sketch.</desc><path d="M30.053 60c-16.593 0-30.044-13.431-30.044-30 0-16.568 13.451-30 30.044-30h146.824c16.592 0 30.043 13.432 30.043 30 0 16.569-13.451 30-30.043 30h-146.824zm47.6-20.25h-12.87v-1.166h1.513c1.969 0 2.272-.348 2.272-.958 0-.378-.189-.756-.416-1.164l-1.856-3.343h-8.33l-1.209 2.298c-.192.375-.455 1.017-.455 1.831 0 .814.683 1.336 2.157 1.336h1.857v1.166h-22.709v-1.166c2.499 0 3.407-.464 3.407-1.919v-14.767h-.075l-7.23 17.852h-3.259l-6.926-17.852h-.075v13.953c0 2.006 1.702 2.707 3.975 2.733v1.166h-9.804v-1.166c2.007-.026 3.705-.727 3.705-2.733v-13.197c0-1.484-1.245-1.714-3.48-1.742v-1.163h11.017l5.338 13.545h.075l5.378-13.545h11.092v1.163c-2.764 0-3.673.463-3.673 1.915v13.838c0 1.279.702 1.792 2.748 1.898 2.726-.417 3.624-1.299 4.927-3.669l8.405-15.495h2.007l9.694 17.237c.735 1.293 1.503 1.761 3.174 1.916 2.031-.126 2.726-.646 2.726-1.887v-13.838c0-1.452-.955-1.915-3.896-1.915v-1.163h13.913c6.757 0 10.173 1.974 10.173 5.348 0 3.806-5.166 4.768-9.618 4.826v.055c4.85.467 5.966 2.354 6.879 4.36 1.231 2.822 1.473 3.144 2.423 3.144.995 0 1.234-1.165 1.351-2.155h1.592c0 2.879-1.632 4.77-5.805 4.77-4.053 0-5.645-1.571-5.922-5.001-.279-3.548-.44-4.506-4.732-4.944v6.107c0 1.657.518 2.325 3.818 2.325v1.166h-13.277.001zm26.292-7.679h1.666c1.022 3.171 3.558 6.687 8.366 6.687 2.615 0 4.846-.928 4.846-3.371 0-4.215-14.649-2.764-14.649-9.421 0-4.183 4.049-6.567 8.819-6.567 4.126 0 5.489 1.541 6.51 1.541.76 0 1.06-.672 1.478-1.191h1.59v6.917h-1.515c-1.097-3.168-3.52-5.929-7.493-5.929-2.389 0-4.394 1.016-4.394 2.936 0 4.534 14.88 2.293 14.88 9.825 0 4.332-5.112 6.599-9.313 6.599-4.658 0-6.437-1.513-7.646-1.513-.76 0-1.329.787-1.632 1.166h-1.513v-7.679zm27.285 5.72c0-1.274-1.034-2.307-2.307-2.307-1.274 0-2.307 1.033-2.307 2.307s1.033 2.306 2.307 2.306c1.273 0 2.307-1.032 2.307-2.306zm3.845-6.425c0-.758.135-1.517.404-2.275s.679-1.442 1.227-2.051c.549-.609 1.247-1.103 2.096-1.482.848-.379 1.841-.569 2.979-.569 1.078 0 1.986.165 2.724.494.738.329 1.367.704 1.886 1.123.12.12.15.249.09.389l-.958 1.467c-.04.08-.1.13-.18.15-.08.02-.16 0-.24-.06-.399-.339-.908-.634-1.527-.883-.619-.249-1.267-.374-1.946-.374s-1.272.115-1.781.344c-.509.23-.933.539-1.272.928-.339.389-.594.833-.763 1.332-.17.499-.254 1.018-.254 1.557v3.143c0 .539.085 1.068.254 1.587.17.519.424.973.763 1.362.339.389.773.704 1.302.943.529.24 1.153.359 1.871.359.599 0 1.202-.13 1.811-.389s1.123-.549 1.542-.868c.14-.1.309-.05.509.15.08.1.215.299.404.599.19.299.344.579.464.838.06.1.01.249-.15.449-.479.399-1.118.758-1.916 1.078-.798.319-1.736.479-2.814.479s-2.021-.195-2.829-.584c-.808-.389-1.487-.893-2.036-1.512-.549-.619-.963-1.312-1.242-2.081-.279-.768-.419-1.542-.419-2.32v-3.323h.001zm26.704 3.323c0 .778-.14 1.552-.419 2.32-.279.768-.699 1.462-1.257 2.081-.559.619-1.257 1.123-2.096 1.512-.838.389-1.816.584-2.934.584-1.078 0-2.026-.195-2.844-.584-.818-.389-1.497-.893-2.036-1.512-.539-.619-.948-1.312-1.227-2.081-.279-.768-.419-1.542-.419-2.32v-3.323c.02-.758.17-1.517.449-2.275s.699-1.442 1.257-2.051c.559-.609 1.252-1.103 2.081-1.482.828-.379 1.801-.569 2.919-.569 1.078 0 2.026.195 2.844.584.818.389 1.497.893 2.036 1.512.539.619.948 1.312 1.227 2.081.279.768.419 1.542.419 2.32v3.203zm24.19 6.347c-.16 0-.24-.08-.24-.24v-9.071c0-.539-.075-1.073-.225-1.602-.15-.529-.384-.998-.704-1.407-.319-.409-.723-.743-1.212-1.003-.489-.259-1.073-.389-1.751-.389-.699 0-1.297.125-1.796.374-.499.249-.913.584-1.242 1.003-.329.419-.569.893-.719 1.422-.15.529-.225 1.063-.225 1.602v9.071c0 .16-.08.24-.24.24h-1.916c-.16 0-.24-.08-.24-.24v-9.071c0-.539-.075-1.073-.225-1.602-.15-.529-.384-.998-.704-1.407-.319-.409-.723-.743-1.212-1.003-.489-.259-1.073-.389-1.751-.389-.699 0-1.297.125-1.796.374-.499.249-.913.584-1.242 1.003-.329.419-.569.893-.719 1.422-.15.529-.225 1.063-.225 1.602v9.071c0 .16-.08.24-.24.24h-1.916c-.14 0-.21-.08-.21-.24v-15.358c0-.16.07-.24.21-.24h1.916c.16 0 .24.08.24.24v1.257c.559-.519 1.173-.933 1.841-1.242.669-.309 1.392-.464 2.17-.464 1.257 0 2.315.259 3.173.778.858.519 1.537 1.168 2.036 1.946.499-.758 1.183-1.402 2.051-1.931.868-.529 1.871-.793 3.009-.793 1.078 0 2.006.19 2.784.569.778.379 1.422.873 1.931 1.482.509.609.888 1.292 1.138 2.051.249.758.384 1.517.404 2.275v9.43c0 .16-.08.24-.24.24h-1.916.003zm-123.95-15.561l-3.217 6.132h6.664l-3.447-6.132zm25.093 3.632c4.335-.145 6.996-.639 6.996-3.98 0-2.415-1.67-4.042-4.414-4.042-1.388 0-2.582.407-2.582 1.742v6.28zm67.991 9.774c.699 0 1.312-.12 1.841-.359.529-.24.973-.554 1.332-.943.359-.389.629-.838.808-1.347.18-.509.269-1.033.269-1.572v-3.084c0-.539-.09-1.068-.269-1.587-.18-.519-.444-.973-.793-1.362-.349-.389-.788-.704-1.317-.943-.529-.24-1.153-.359-1.871-.359-.679 0-1.272.115-1.781.344-.509.23-.933.539-1.272.928-.339.389-.599.828-.778 1.317-.18.489-.269 1.003-.269 1.542v3.173c0 .539.085 1.068.254 1.587.17.519.429.973.778 1.362.349.389.778.704 1.287.943.509.24 1.103.359 1.781.359v.001z" sketch:type="MSShapeGroup" fill="#395B97" fill-rule="evenodd"/></svg>