<svg width="45" height="23" viewBox="0 0 45 23" xmlns="http://www.w3.org/2000/svg" xmlns:sketch="http://www.bohemiancoding.com/sketch/ns"><title>money</title><desc>Created with Sketch.</desc><g id="money" sketch:type="MSLayerGroup" transform="translate(-382 -111) translate(383 112)" fill="#42A84D" fill-rule="evenodd"><path d="M24.198 10.855c-.333-.306-.878-.641-1.631-1.004-1.43-.687-2.148-1.352-2.151-1.996-.003-.378.123-.692.374-.941s.606-.375 1.066-.378c.586-.004 1.151.136 1.695.416l.178.093c.19.125.413.038.494-.196.081-.231.214-.62.298-.86.082-.24.004-.536-.173-.658 0 0 0 0-.2-.089-.317-.142-.697-.246-1.141-.313l-.14-.022c-.166-.016-.3-.163-.301-.325.001-.161 0-.455-.001-.656.001-.198-.19-.359-.424-.358-.234.002-.629.004-.878.006s-.451.156-.45.343c.001.188.002.501.004.694.001.194-.177.404-.394.468 0 0 0 0-.181.078-.47.203-.861.496-1.175.882-.433.534-.648 1.148-.644 1.844.004.471.086.895.25 1.279.163.382.396.71.699.983.304.275.875.618 1.713 1.033.836.414 1.408.796 1.708 1.149.301.354.454.733.455 1.137.005.807-.577 1.214-1.747 1.221-.559.004-1.128-.142-1.703-.436l-.207-.106c-.229-.15-.5-.068-.6.18-.101.25-.264.653-.363.896-.097.243.027.563.282.71 0 0 0 0 .242.104.389.169.798.288 1.226.355l.168.027c.19.016.345.141.346.275.001.136.002.378.003.539.001.162.003.417.004.567.001.15.184.273.405.271.222-.002.617-.003.878-.005.26-.002.474-.117.473-.255-.001-.138-.003-.422-.004-.63-.001-.207-.003-.49-.004-.629 0-.138.157-.297.351-.351 0 0 0 0 .164-.061.574-.217 1.037-.534 1.393-.952.455-.536.682-1.163.678-1.879-.002-.505-.093-.963-.269-1.374-.176-.409-.432-.769-.766-1.076" id="Fill-1" sketch:type="MSShapeGroup"/><path d="M41.309-.29l-39.096.243c-.604.004-1.174.245-1.602.678-.429.435-.663 1.006-.659 1.613l.108 17.416c.007 1.256 1.035 2.27 2.291 2.263l30.835-.192c1.267-.007 2.699-.654 3.684-1.606l5.76-5.831c.553-.635 1.035-1.68 1.028-2.693l-.059-9.628c-.008-1.255-1.036-2.27-2.29-2.263zm-37.203 20.163c-1.083.007-1.971-.818-1.978-1.84l-.087-14.187c-.003-.493.199-.958.568-1.312.372-.354.864-.551 1.386-.553l13.329-.083c-2.492 1.848-4.156 5.178-4.132 8.972.023 3.795 1.728 7.103 4.243 8.921l-13.329.082zm17.776-.627c-3.645.023-6.632-3.74-6.661-8.389-.029-4.648 2.912-8.448 6.556-8.47 3.645-.023 6.633 3.741 6.662 8.388.028 4.648-2.912 8.449-6.557 8.471zm19.697-7.89c.004.749-.6 1.36-1.349 1.365l-3.657.022c-1.054.007-1.91.875-1.903 1.926l.022 3.659c.005.748-.598 1.36-1.347 1.364l-7.011.044c2.493-1.849 4.156-5.178 4.132-8.973-.023-3.795-1.727-7.103-4.243-8.92l13.329-.083c1.084-.006 1.972.819 1.978 1.842l.049 7.754z" id="Fill-2" sketch:type="MSShapeGroup"/></g></svg>