<svg width="72" height="44" viewBox="0 0 72 44" xmlns="http://www.w3.org/2000/svg" xmlns:sketch="http://www.bohemiancoding.com/sketch/ns"><title>moto</title><desc>Created with Sketch.</desc><path d="M51.543 19.284c.546-.35 1.137-.678 1.78-.986l2.348 4.486.414-.153c1.133-.422 2.346-.662 3.617-.662 2.868 0 5.467 1.166 7.355 3.052 1.885 1.886 3.051 4.485 3.051 7.355s-1.166 5.469-3.051 7.354c-1.888 1.886-4.487 3.052-7.355 3.052-2.872 0-5.471-1.166-7.357-3.052-1.885-1.885-3.051-4.484-3.052-7.354.001-3.431 1.675-6.469 4.246-8.367l.344-.255-.198-.38-2.142-4.09m2.226-2.29l-.429.194c-1.01.454-1.917.959-2.732 1.514l-.368.252 2.364 4.513c-2.619 2.088-4.311 5.3-4.311 8.909.002 6.291 5.116 11.405 11.409 11.405 6.29 0 11.405-5.114 11.405-11.405 0-6.291-5.115-11.405-11.405-11.407-1.242 0-2.433.209-3.549.577l-2.384-4.552m-13.7-13.253c-.369 0-.666-.296-.667-.664.001-.372.296-.668.667-.671l3.081-.01.149-.184c.086-.105.189-.194.314-.258l.003-.002c.15-.078.31-.115.471-.115.366 0 .719.198.902.545l.008.016 4.166 6.63c.294.473.776 1.021 1.281 1.657.501.63 1.019 1.335 1.349 2.029l.196.414.43-.161c2.286-.854 4.741-1.319 7.283-1.319 2.282 0 4.527.37 6.667 1.098.424.143.691.539.691.964 0 .106-.017.217-.055.33l.002-.003c-.143.422-.539.69-.963.69-.109 0-.218-.018-.325-.054-1.929-.656-3.949-.99-6.002-.99h-.015c-5.124-.001-9.879 2.072-13.321 5.573l-.008.008c-2.093 2.226-3.472 4.843-4.581 7.697-.883 2.262-2.121 3.74-3.614 4.674-1.492.933-3.266 1.328-5.239 1.328h-7.359c.001-.078.001-.164.001-.255 0-.521-.021-1.235-.111-1.956l-.069-.548-3.302.745.045.439c.033.325.051.656.051.988-.002 2.87-1.167 5.469-3.053 7.354-1.887 1.886-4.485 3.052-7.356 3.052-2.869 0-5.466-1.166-7.353-3.052-1.886-1.885-3.052-4.484-3.053-7.354.001-2.87 1.167-5.469 3.053-7.355 1.887-1.886 4.484-3.052 7.353-3.052 4.394 0 8.155 2.741 9.679 6.604l.157.398 3.29-.741-.159-.516c-.733-2.344-3.015-5.736-6.676-7.483l-11.3-5.377.956-2.011-.455-.214c-1.382-.646-2.73-1.336-3.71-1.957-.428-.272-.784-.532-1.036-.756h5.404c1.295.044 2.742.052 4.23.276 4.331.654 9.883 1.843 16.136 1.843 4.496 0 9.36-.617 14.396-2.491.381-.143.941-.334 1.405-.49.334-.112.617-.205.748-.249l-.011-.034-.037-.081-.111.022-.097-.489v-.002l-.096-.49.537-.106-1.607-3.894-3.358.01h-.002m4.018-2.905c-.316 0-.64.074-.937.232l.003-.002c-.174.091-.328.203-.462.332l-2.627.009c-.921.005-1.662.751-1.662 1.672.003.92.748 1.662 1.667 1.662h.003l2.688-.009 1.348 3.266c-.501.167-1.259.422-1.759.609-4.905 1.825-9.641 2.428-14.047 2.428-6.13 0-11.609-1.169-15.988-1.831-1.577-.239-3.071-.244-4.343-.288h-6.847v.5c0 .238.084.442.192.619.192.311.478.582.837.867.985.771 2.568 1.616 4.247 2.419l-.955 2.006 12.202 5.806c3.078 1.449 5.168 4.31 5.971 6.363l-1.388.313c-1.764-4.021-5.776-6.838-10.444-6.84-6.288.002-11.404 5.116-11.405 11.407.001 6.291 5.117 11.405 11.405 11.405 6.292 0 11.407-5.114 11.409-11.405 0-.216-.008-.431-.02-.645l1.358-.306c.037.474.049.927.049 1.283 0 .222-.005.406-.009.533-.003.128-.008.195-.008.195l-.028.528h8.402c2.103 0 4.077-.424 5.77-1.481 1.692-1.056 3.074-2.739 4.015-5.16 1.083-2.783 2.402-5.269 4.37-7.367h.001c3.258-3.312 7.754-5.273 12.607-5.273 1.949 0 3.865.315 5.692.935.214.074.433.109.65.109.841 0 1.624-.531 1.91-1.37v-.003c.071-.212.107-.429.105-.644.002-.842-.528-1.625-1.367-1.911-2.244-.764-4.6-1.15-6.99-1.15-2.511 0-4.942.432-7.217 1.23-.367-.661-.828-1.274-1.259-1.817-.518-.65-1.003-1.213-1.21-1.557l-.46.282.456-.287-4.144-6.592c-.361-.681-1.06-1.072-1.781-1.072" id="Fill-1" sketch:type="MSShapeGroup" stroke="#fff" fill="none" fill-rule="evenodd"/></svg>