<svg width="18" height="19" viewBox="0 0 18 19" xmlns="http://www.w3.org/2000/svg" xmlns:sketch="http://www.bohemiancoding.com/sketch/ns"><title>question-1</title><g sketch:type="MSLayerGroup" fill="#fff" fill-rule="evenodd"><path d="M17.145 5.867c-.903-1.959-2.491-3.535-4.46-4.423-1.123-.506-2.367-.789-3.678-.789-1.312 0-2.556.283-3.679.789-1.932.871-3.5 2.404-4.409 4.313-.555 1.163-.866 2.465-.866 3.839 0 1.375.311 2.677.866 3.84.882 1.852 2.383 3.352 4.238 4.234 1.166.556 2.471.868 3.85.868s2.683-.312 3.849-.868c1.891-.9 3.413-2.442 4.289-4.345.523-1.135.816-2.397.816-3.729 0-1.331-.293-2.593-.816-3.729zm-4.534 6.712c-.17.341-.397.621-.688.845-.338.268-.713.457-1.123.571-.408.115-.924.171-1.554.171h-3.626v-9.06h3.201c.665 0 1.169.024 1.512.077.344.048.665.155.964.317.325.175.567.409.726.7.16.292.242.629.242 1.011 0 .443-.111.836-.333 1.18-.219.346-.525.599-.913.762v.048c.559.119 1.007.358 1.342.721.337.365.506.854.506 1.469 0 .45-.085.848-.256 1.188z" sketch:type="MSShapeGroup"/><path d="M8.989 8.672c.156-.009.318-.05.484-.126.18-.087.308-.204.375-.354.07-.151.105-.326.105-.523 0-.148-.037-.298-.113-.45-.074-.155-.189-.266-.351-.336-.148-.067-.325-.102-.531-.107-.205-.006-.51-.009-.916-.009h-.159v1.918h.288c.387 0 .663-.005.818-.013" sketch:type="MSShapeGroup"/><path d="M9.843 10.334c-.138-.055-.327-.083-.57-.089-.24-.007-.564-.01-.969-.01h-.421v2.269h.124c.592 0 1-.003 1.227-.012.227-.008.46-.062.695-.163.207-.09.356-.222.453-.394.095-.172.141-.368.141-.586 0-.281-.055-.498-.169-.657-.114-.159-.285-.278-.511-.358" sketch:type="MSShapeGroup"/></g></svg>