<svg width="421" height="227" viewBox="0 0 421 227" xmlns="http://www.w3.org/2000/svg" xmlns:sketch="http://www.bohemiancoding.com/sketch/ns"><title>scheme</title><desc>Created with Sketch.</desc><g sketch:type="MSLayerGroup" fill="none" fill-rule="evenodd"><path d="M130.557 2.602c-18.211-4.879-37.044 5.994-41.924 24.205-4.879 18.211 5.994 37.043 24.205 41.923 18.211 4.88 37.044-5.994 41.924-24.204 4.879-18.212-5.994-37.044-24.205-41.924zm20.681 40.98c-4.36 16.269-21.186 25.984-37.456 21.624-16.27-4.359-25.984-21.185-21.625-37.456 4.36-16.269 21.186-25.984 37.456-21.624 16.27 4.359 25.984 21.185 21.625 37.456z" fill="#1A213E" sketch:type="MSShapeGroup"/><path d="M130.557 2.602c-18.211-4.879-37.044 5.994-41.924 24.205-4.879 18.211 5.994 37.043 24.205 41.923 18.211 4.88 37.044-5.994 41.924-24.204 4.879-18.212-5.994-37.044-24.205-41.924zm20.681 40.98c-4.36 16.269-21.186 25.984-37.456 21.624-16.27-4.359-25.984-21.185-21.625-37.456 4.36-16.269 21.186-25.984 37.456-21.624 16.27 4.359 25.984 21.185 21.625 37.456z" stroke="#fff" stroke-width="1.5" sketch:type="MSShapeGroup"/><path d="M139.827 34.788h-.308v-14.193h.308c.468 0 .846-.379.846-.847 0-.468-.378-.845-.846-.845h-10.555v-1.513c0-.468-.378-.847-.846-.847-.468 0-.845.379-.845.847v1.513h-10.552c-.468 0-.85.377-.85.845 0 .468.382.847.85.847h.305v4.25c.377.382.76.756 1.159 1.119v-5.369h19.871v14.193h-19.871v-3.504c-.22-.069-.429-.179-.617-.328-.179-.14-.363-.279-.542-.418v4.25h-.305c-.468 0-.85.378-.85.846 0 .468.382.845.85.845h10.552v10.153l-8.023 8.664c-.264.284-.249.727.035.991.284.263.731.249.994-.036l6.994-7.554v3.662c0 .469.377.847.845.847.468 0 .846-.378.846-.847v-3.662l6.997 7.554c.264.285.707.299.99.036.284-.264.304-.707.04-.991l-8.027-8.664v-10.153h10.555c.468 0 .846-.377.846-.845 0-.468-.378-.846-.846-.846zm-15.651-10.312c-1.597 1.165-2.966 2.145-4.882 3.115-1.165-.95-2.269-2.01-3.274-3.105-.374-.407-.454-1.015-.941-1.224-1.08-.473-1.822-.613-2.991-.941-.204 1.07-.628 2.956-1.05 4.095l-.07-2.606-.388-.259-.383.259-.07 2.606c-.413-1.024-.975-3.005-1.239-4.055-.911.259-1.234.413-2.14.662-.512.144-.578.135-.831.383-2.001 1.986-3.777 3.951-5.305 5.947-.472.617-.433 1.428.104 1.991 1.429 1.478 3.738 3.314 5.41 4.564.015.194-.015 1.841 0 2.463l.368-.006c.269 5.5.493 12.512.617 17.702.005.224.195.409.418.409h1.827c.224 0 .412-.185.417-.409l.424-16.05c.005-.253.184-.382.364-.382.178 0 .357.129.362.382l.418 16.05c.01.224.195.409.423.409h1.821c.23 0 .414-.185.419-.409.124-5.21.348-12.237.622-17.741l.582-.005c-.06-2.648-.08-5.912-.049-8.56.02-.493-.045-1.269.044-1.946.945.921 2.075 1.787 3.106 2.583.482.378 1.124.363 1.627.065 2.354-1.399 3.488-2.394 5.653-4.047 1.468-1.119.055-3.06-1.413-1.94zm-20.578 5.758c.806-1.03 1.662-2.011 2.543-2.946v2.314c.015 1.115.02 1.951.029 3.031-.9-.881-1.776-1.479-2.572-2.399zm6.982-15.378c-1.423 0-2.578 1.115-2.578 2.494 0 1.329.961 4.2 2.578 4.2 1.622 0 2.583-2.871 2.583-4.2 0-1.379-1.155-2.494-2.583-2.494z" fill="#1A213E" sketch:type="MSShapeGroup"/><path d="M134.263 27.731h2.588v6.534h-2.588v-6.534z" fill="#E86035" sketch:type="MSShapeGroup"/><path d="M130.75 23.053h2.587v11.212h-2.587v-11.212z" fill="#E86035" sketch:type="MSShapeGroup"/><path d="M127.241 25.268h2.583v8.998h-2.583v-8.998z" fill="#E86035" sketch:type="MSShapeGroup"/><path d="M123.728 30.811h2.588v3.454h-2.588v-3.454z" fill="#E86035" sketch:type="MSShapeGroup"/><path d="M226.356 5.626c-16.328-9.426-37.334-3.798-46.76 12.529-9.427 16.328-3.799 37.333 12.529 46.76s37.332 3.798 46.76-12.529c9.426-16.328 3.798-37.333-12.529-46.76zm9.369 44.936c-8.422 14.587-27.188 19.616-41.776 11.193-14.587-8.421-19.616-27.188-11.194-41.776 8.422-14.586 27.189-19.615 41.776-11.193 14.588 8.422 19.616 27.188 11.194 41.776z" fill="#1A213E" sketch:type="MSShapeGroup"/><path d="M226.356 5.626c-16.328-9.426-37.334-3.798-46.76 12.529-9.427 16.328-3.799 37.333 12.529 46.76s37.332 3.798 46.76-12.529c9.426-16.328 3.798-37.333-12.529-46.76zm9.369 44.936c-8.422 14.587-27.188 19.616-41.776 11.193-14.587-8.421-19.616-27.188-11.194-41.776 8.422-14.586 27.189-19.615 41.776-11.193 14.588 8.422 19.616 27.188 11.194 41.776z" stroke="#fff" stroke-width="1.5" sketch:type="MSShapeGroup"/><path d="M223.356 23.133c-.949-.365-3.246-.914-3.866-1.461-.518-.465-.42-1.382.145-1.751.694-.453 3.275-.266 3.791.434.229.311.34.746.334 1.312l3.361.221c.034-1.314-.341-2.366-1.125-3.153-.786-.789-1.692-1.233-3.18-1.371l.08-1.218-2-.131-.081 1.237c-1.572-.07-2.609.254-3.584.945-.974.691-1.502 1.651-1.583 2.879-.073 1.108.255 2.021.987 2.74 1.855 1.829 5.233 1.819 6.484 2.999.525.504.441 1.472-.192 1.853-.703.424-3.357.419-3.96-.442-.234-.334-.338-.871-.329-1.604l-3.537-.233c-.082 1.439.299 2.595 1.146 3.47s1.857 1.382 3.501 1.553l-.109 1.631 1.932.127.106-1.611c1.757.013 2.861-.328 3.777-.988.918-.664 1.421-1.673 1.512-3.029.076-1.169-.247-2.121-.97-2.86-.556-.567-1.436-1.083-2.64-1.549" fill="#46A83E" sketch:type="MSShapeGroup"/><path d="M204.604 19.299c1.794 0 2.775-3.179 2.738-4.652-.038-1.523-1.347-2.757-2.925-2.757-1.576 0-2.824 1.234-2.785 2.757.037 1.473 1.178 4.652 2.972 4.652" fill="#1A213E" sketch:type="MSShapeGroup"/><path d="M219.961 35.023c-2.372-1.383-3.516-2.62-5.61-4.369-1.255-2.48-2.249-5.334-3.066-8.041-.137-.453-.405-.549-.471-.833-.024-.103.008-.143-.109-.199-.137-.065-.479-.153-1.358-.396-1.114-.305-1.562-.583-2.685-.898-.289 1.283-.791 3.37-1.355 4.556l-.154-2.68-.481-.313-.465.313-.019 2.68c-.625-1.186-1.231-3.273-1.585-4.556l-3.894 1.25c-.239.066-.145.268-.297.49-1.509 2.17-2.621 4.43-3.586 6.904-.116.298-.208.829-.084 1.434.435 2.113 1.878 5.724 2.346 7.385.381 1.351 1.882 1.291 2.363.41.008.215.033 1.074.044 1.291h.62c.476 6.269 1.303 12.675 1.601 18.741.014.254.228.459.482.459h2.046c.254 0 .46-.205.46-.458l.019-18.015c.001-.575.788-.575.818 0l.925 18.015c.012.253.228.458.48.458h2.048c.254 0 .459-.205.458-.459-.006-6.066.5-12.472.661-18.741h.62c-.014-3.313-.257-6.564-.462-10.219.431 1.063.901 2.107 1.428 3.118.561 1.079 5.883 4.115 7.251 4.894 1.398.795 2.782-1.187 1.011-2.221zm-20.554 1.564c-.598-2.327-1.403-4.888-1.701-6.756.485-1.195 1.08-2.339 1.736-3.444.024 3.488-.101 6.758-.035 10.2z" fill="#1A213E" sketch:type="MSShapeGroup"/><path d="M329.684 182.326c-4.88-18.211-23.712-29.084-41.923-24.204-18.212 4.879-29.085 23.712-24.205 41.923 4.879 18.211 23.713 29.084 41.923 24.204 18.211-4.879 29.084-23.712 24.205-41.923zm-25.149 38.4c-16.27 4.359-33.096-5.355-37.455-21.625-4.36-16.27 5.355-33.096 21.625-37.456 16.27-4.359 33.095 5.355 37.455 21.625 4.359 16.271-5.355 33.096-21.625 37.456z" fill="#1A213E" sketch:type="MSShapeGroup"/><path d="M329.684 182.326c-4.88-18.211-23.712-29.084-41.923-24.204-18.212 4.879-29.085 23.712-24.205 41.923 4.879 18.211 23.713 29.084 41.923 24.204 18.211-4.879 29.084-23.712 24.205-41.923zm-25.149 38.4c-16.27 4.359-33.096-5.355-37.455-21.625-4.36-16.27 5.355-33.096 21.625-37.456 16.27-4.359 33.095 5.355 37.455 21.625 4.359 16.271-5.355 33.096-21.625 37.456z" stroke="#fff" stroke-width="1.5" sketch:type="MSShapeGroup"/><path d="M286.323 172.86c.848.536 1.734 1.002 2.648 1.397.402-.58 1.072-.96 1.831-.96.176 0 .348.02.512.059.986-1.65 2.21-3.165 3.644-4.491-3.326.365-6.326 1.819-8.635 3.995zm4.479 4.89c.846 0 1.581-.472 1.957-1.167 1.087.209 2.191.329 3.303.359v.293c.182-.027.369-.041.558-.041.189 0 .377.014.559.041v-.295c1.677-.049 3.336-.306 4.942-.761.951 2.206 1.488 4.594 1.559 7.047h-3.771c-.148.389-.332.767-.547 1.119h4.318c-.028.945-.124 1.88-.286 2.799.296.465.576.944.838 1.431.334-1.377.527-2.793.566-4.23h1.805c.248.959 1.12 1.667 2.156 1.667s1.907-.708 2.156-1.667h.708c-.132 3.607-1.537 6.891-3.781 9.412-.553-.366-1.123-.706-1.706-1.016.128.428.165.899.12 1.343.271.159.537.322.801.493-.352.341-.721.664-1.105.969-.158.604-.346 1.207-.53 1.787l-.081.259c1.023-.648 1.971-1.408 2.824-2.261 2.955-2.955 4.782-7.037 4.782-11.546 0-4.508-1.827-8.59-4.782-11.544-2.954-2.954-7.036-4.783-11.545-4.783s-8.59 1.829-11.545 4.783c-2.954 2.954-4.782 7.036-4.782 11.544 0 2.081.389 4.07 1.099 5.9-.51.407-.836 1.035-.836 1.738 0 1.23.997 2.227 2.227 2.227.256 0 .503-.045.732-.124.476.639.997 1.242 1.56 1.805.853.853 1.801 1.613 2.825 2.261l-.083-.259c-.182-.58-.37-1.182-.529-1.787-.393-.312-.769-.643-1.128-.992.27-.175.544-.342.821-.502-.039-.448.001-.92.135-1.347-.592.311-1.167.651-1.728 1.022l-.012.008c-.28-.318-.548-.649-.803-.988.274-.372.434-.829.434-1.324 0-1.23-.996-2.226-2.224-2.226-.057 0-.114.002-.169.006-.586-1.516-.933-3.151-.995-4.858h6.822c.04 1.437.232 2.853.568 4.23.262-.488.541-.966.838-1.431-.163-.919-.259-1.854-.287-2.799h4.318c-.215-.352-.397-.73-.547-1.119h-3.771c.055-1.888.386-3.737.968-5.493.091.011.182.017.274.017zm2.226-2.251c-.008-.643-.286-1.22-.727-1.621 1.007-1.673 2.27-3.198 3.761-4.511v6.457c-1.023-.029-2.038-.137-3.034-.325zm-4.441-.195c-.008.072-.011.146-.011.22 0 .738.361 1.393.915 1.799-.634 1.886-.993 3.875-1.05 5.903h-6.822c.133-3.676 1.59-7.014 3.907-9.554.975.633 1.999 1.178 3.061 1.632zm22.328 7.922c-.249-.958-1.12-1.666-2.156-1.666s-1.908.708-2.156 1.666h-1.805c-.071-2.563-.626-5.062-1.608-7.38 1.578-.542 3.092-1.278 4.502-2.198 2.331 2.544 3.796 5.892 3.931 9.578h-.708zm-12.632-14.361c1.851 1.713 3.349 3.74 4.442 5.964 1.457-.492 2.857-1.158 4.168-1.991-2.306-2.164-5.295-3.609-8.61-3.973zm-1.104.502v6.455c1.519-.046 3.017-.27 4.467-.665-1.095-2.176-2.602-4.147-4.467-5.79z" fill="#972F84" sketch:type="MSShapeGroup"/><path d="M291.924 199.934c.018-2.867.19-5.592.244-8.499-.571.92-.835 1.809-1.16 2.87.209 1.557.467 3.692.916 5.629zm8.605-13.1c-.921-.255-1.42-.486-2.349-.749-.268 1.07-.599 3.219-1.094 4.207l-.071-2.644-.395-.26-.394.26-.072 2.644c-.495-.988-.827-3.137-1.094-4.207l-3.403 1.04c-.201.056-.124.226-.258.41-1.301 1.808-2.097 3.959-2.773 6.02-.083.255-.191.692-.099 1.195.316 1.761 1.085 4.77 1.441 6.154.289 1.126 1.542 1.075 1.96.341.003.179.005.896.009 1.076h.518c.265 5.223.82 10.562.943 15.617.004.213.179.383.391.383h1.705c.212 0 .386-.17.392-.381l.394-15.012c.011-.479.669-.479.681 0l.393 15.012c.005.211.181.381.392.381h1.706c.212 0 .385-.17.391-.383.121-5.055.677-10.394.942-15.617h.517c.004-.18.007-.897.009-1.076.42.734 1.672.785 1.961-.341.355-1.384 1.124-4.393 1.441-6.154.091-.503-.016-.94-.1-1.195-.675-2.061-1.47-4.212-2.772-6.02-.328-.456.377-.233-1.312-.701zm.786 13.1c-.018-2.867-.19-5.592-.243-8.499.571.92.856 1.836 1.16 2.87-.209 1.557-.467 3.692-.917 5.629zm-4.695-14.64c-1.565 0-2.491-2.773-2.491-4.057 0-1.329 1.117-2.405 2.491-2.406 1.376.001 2.489 1.077 2.489 2.406 0 1.284-.924 4.057-2.489 4.057z" fill="#1A213E" sketch:type="MSShapeGroup"/><path d="M241.672 182.582c-4.88-18.211-23.711-29.084-41.923-24.205-18.211 4.88-29.084 23.713-24.204 41.924 4.879 18.211 23.712 29.084 41.923 24.204 18.211-4.879 29.084-23.712 24.204-41.923zm-25.148 38.4c-16.27 4.359-33.096-5.355-37.456-21.625-4.359-16.27 5.355-33.096 21.626-37.456 16.269-4.36 33.095 5.355 37.455 21.625 4.359 16.27-5.355 33.096-21.625 37.456z" fill="#1A213E" sketch:type="MSShapeGroup"/><path d="M241.672 182.582c-4.88-18.211-23.711-29.084-41.923-24.205-18.211 4.88-29.084 23.713-24.204 41.924 4.879 18.211 23.712 29.084 41.923 24.204 18.211-4.879 29.084-23.712 24.204-41.923zm-25.148 38.4c-16.27 4.359-33.096-5.355-37.456-21.625-4.359-16.27 5.355-33.096 21.626-37.456 16.269-4.36 33.095 5.355 37.455 21.625 4.359 16.27-5.355 33.096-21.625 37.456z" stroke="#fff" stroke-width="1.5" sketch:type="MSShapeGroup"/><path d="M200.37 173.658c1.79 0 2.769-3.174 2.733-4.643-.039-1.521-1.345-2.753-2.92-2.753-1.574 0-2.819 1.232-2.78 2.753.037 1.469 1.176 4.643 2.967 4.643" fill="#1A213E" sketch:type="MSShapeGroup"/><path d="M215.699 189.354c-2.368-1.382-3.511-2.616-5.601-4.362-1.252-2.475-2.244-5.324-3.06-8.026-.137-.453-.403-.548-.47-.832-.024-.103.009-.142-.109-.198-.136-.066-.478-.153-1.356-.395-1.111-.306-1.559-.582-2.68-.897-.288 1.281-.789 3.364-1.352 4.548l-.153-2.675-.48-.313-.464.313-.02 2.675c-.624-1.184-1.228-3.267-1.581-4.548l-3.888 1.248c-.238.067-.144.268-.297.489-1.506 2.167-2.615 4.422-3.579 6.891-.116.297-.208.828-.084 1.431.435 2.11 1.875 5.714 2.342 7.372.38 1.348 1.878 1.289 2.36.409.007.215.032 1.072.043 1.288h.619c.475 6.258 1.3 12.653 1.598 18.708.012.253.227.458.481.458h2.043c.253 0 .457-.205.457-.457l.02-17.982c.001-.573.787-.573.817 0l.923 17.982c.012.252.227.457.479.457h2.045c.254 0 .458-.205.456-.458-.005-6.055.499-12.45.661-18.708h.618c-.014-3.306-.256-6.551-.46-10.199.429 1.061.898 2.102 1.424 3.113.56 1.076 5.873 4.106 7.238 4.884 1.396.795 2.778-1.185 1.01-2.216zm-20.516 1.56c-.598-2.323-1.401-4.879-1.7-6.743.485-1.193 1.079-2.336 1.734-3.438.024 3.482-.101 6.746-.034 10.181z" fill="#1A213E" sketch:type="MSShapeGroup"/><path d="M216.4 200.848l-4.995-1.634-2.334 3.857 2.226.728c.023.006.046.013.068.022l2.701.884 2.334-3.857zm.272 1.629l-1.905 3.148c-.137.225-.409.315-.646.228l-2.418-.79v5.851l4.969 1.626v-10.063zm-6.046 2.234l-2.531-.828c-.282-.092-.437-.395-.346-.677.014-.04.031-.079.052-.112l2.659-4.398-3.153-2.513c-.233-.184-.271-.523-.086-.755.078-.099.184-.163.298-.189l8.398-1.977c.174-.04.347.008.472.116l3.205 2.555 2.783-1.835c.142-.092.311-.109.46-.061l.001-.001 6.045 1.976c.282.092.436.395.344.677-.042.134-.133.238-.246.303l-2.455 1.616 3.425 2.684c.234.183.275.52.093.754-.08.1-.186.164-.301.192v.002l-3.597.846v8.218c0 .266-.192.485-.443.529l-8.341 1.964c-.049.014-.099.022-.152.022-.071 0-.138-.013-.2-.039l-6.012-1.966c-.227-.073-.37-.284-.37-.51h-.002v-6.593zm.669-6.723l7.068-1.663-2.454-1.956-7.067 1.663 2.453 1.956zm9.493-1.558l4.742 1.55 1.962-1.293-4.743-1.55-1.961 1.293zm4.693 2.722l-7.06 1.662 2.928 2.295 4.107-.967c.019-.004.037-.009.058-.013l2.896-.681-2.929-2.296zm-.412 4.186l-3.724.877c-.178.041-.356-.011-.482-.125l-3.115-2.439v10.951l7.321-1.725v-7.539z" fill="#E86035" sketch:type="MSShapeGroup"/><path d="M220.644 206.536v2.993c-.306.073-.608.148-.911.222v-2.984c-.258.066-.516.132-.774.197.416-.703.834-1.408 1.254-2.116.42.49.842.982 1.266 1.475-.28.071-.558.142-.835.213zm2.817-.717v3.02c-.311.077-.619.153-.928.227v-3.011c-.265.068-.527.135-.789.201.423-.712.85-1.425 1.277-2.139.427.493.857.989 1.288 1.486-.285.072-.566.144-.848.216zm-3.728 5.304c.613-.147 1.232-.296 1.851-.444.622-.15 1.25-.3 1.877-.452v-.848c-.627.153-1.255.305-1.877.456-.619.15-1.238.3-1.851.45v.838z" fill="#E86035" sketch:type="MSShapeGroup"/><path d="M36.319 156.956c-18.854 0-34.231 15.377-34.231 34.23 0 18.853 15.377 34.23 34.231 34.23 18.853 0 34.23-15.377 34.23-34.23 0-18.853-15.377-34.23-34.23-34.23zm0 64.812c-16.844 0-30.583-13.738-30.583-30.582s13.739-30.583 30.583-30.583c16.844 0 30.582 13.739 30.582 30.583 0 16.844-13.738 30.582-30.582 30.582z" fill="#1A213E" sketch:type="MSShapeGroup"/><path d="M36.319 156.956c-18.854 0-34.231 15.377-34.231 34.23 0 18.853 15.377 34.23 34.231 34.23 18.853 0 34.23-15.377 34.23-34.23 0-18.853-15.377-34.23-34.23-34.23zm0 64.812c-16.844 0-30.583-13.738-30.583-30.582s13.739-30.583 30.583-30.583c16.844 0 30.582 13.739 30.582 30.583 0 16.844-13.738 30.582-30.582 30.582z" stroke="#fff" stroke-width="1.5" sketch:type="MSShapeGroup"/><path d="M22.446 201.695c.12-2.102.236-3.945.154-6.048-.038-.955-.109-1.952-.201-2.952-.343.563-.662 1.157-.942 1.834-.038 2.345-.097 3.823.201 6.088.217 1.646-1.945 1.935-2.161.286-.163-1.229-.837-6.208-.466-7.119.794-1.955 1.811-3.889 2.938-5.694.06-.211.173-.406.332-.526.32-.238 1.111-.564 1.626-.696-.097.223 1.18.772 2.11-.003.913.167 2.082.359 2.494 1.142.921 1.752 1.82 3.892 2.868 5.572 1.041.668 5.151 2.619 5.984 3.427.878.853-.138 1.922-1.082 1.455-.678.315-1.639.001-1.724-.54-1.673-.663-3.1-1.287-4.594-2.318-.507-.331-.781-.701-1.014-1.118-.318-.578-.72-1.223-.717-1.128.017.656.73 2.342.799 3.941.279 6.445.317 11.533-.116 18.32-.025.276-.247.468-.499.468l-1.673-.001c-.208 0-.359-.145-.355-.351.094-4.43.135-7.161-.158-11.387-.002-.017-.156-.035-.158.005-.311 4.045-.299 7.431-.802 11.382-.026.206-.214.351-.421.351l-1.673.001c-.252 0-.425-.191-.411-.468.262-5.274.404-8.492.3-13.906l-.639-.017zm14.363-5.744c1.419-.785 2.631-1.441 4.099-2.454 1.041-1.638 1.897-3.56 2.568-5.411-.019-.081-.023-.155.04-.221.393-.412 1.01-.723 1.731-1.013-.368.767-.66 2.302-.697 3.467.207-.652.779-2.224 1.11-2.802l.42.01c-.345.972-.612 2.308-.629 3.382.613-1.643 1.338-3.168 2.063-4.11.514.131 1.99.527 2.309.765.208.157.226.288.295.445l.018.009c.833 1.077 3.42 4.563 3.575 5.78.127.992-1.798 5.613-2.268 6.757-.386.943-1.294.995-1.793.541.008.198.018.397.029.599l-.473-.013.002.03c-.343 4.122-.056 9.614-.103 13.906-.004.277-.172.468-.424.468l-1.673-.001c-.207 0-.391-.145-.412-.351-.266-2.724-.516-6.191-.7-9.494-.005-.068-.068.027-.074.068-.451 3.108-.785 6.277-1.043 9.426-.016.205-.162.351-.37.351l-1.671.001c-.253 0-.467-.192-.481-.468l.81-13.902c-.132-.007-.457-.014-.594-.021.034-.977.079-3.686.24-6.504-.086.091-.189.184-.322.282-1.55 1.134-2.458 1.564-4.129 2.255-.006-.891-.749-1.398-1.453-1.777zm12.813 3.285c.011-2.178.156-4.261.104-6.541l.051-.499.374.409c.343.455.673.933.978 1.47-.491 1.995-.806 3.36-1.507 5.161zm-2.778-19.105c-1.264-.069-2.343.864-2.409 2.085-.065 1.181.301 3.758 1.737 3.836 1.44.078 2.777-2.405 2.841-3.586.066-1.22-.903-2.266-2.169-2.335zm-22.54 0c1.263-.069 2.343.864 2.409 2.085.065 1.18-.3 3.758-1.738 3.836-1.438.078-2.775-2.406-2.839-3.586-.067-1.22.904-2.266 2.168-2.335z" fill="#1A213E" sketch:type="MSShapeGroup"/><path d="M36.099 186.641c1.093-1.016 2.005-2.193 2.711-3.479-.885-.218-1.794-.348-2.711-.388v3.867zm-1.142-3.868c-.92.037-1.829.165-2.715.38.704 1.289 1.618 2.47 2.715 3.488v-3.868zm1.142-16.37v3.867c.919-.039 1.827-.169 2.709-.384-.706-1.29-1.617-2.468-2.709-3.483zm0 5.011v4.537h4.396c-.073-1.751-.477-3.453-1.172-5.023-1.053.278-2.134.443-3.224.486zm0 5.68v4.539c1.093.042 2.174.205 3.226.483.695-1.568 1.097-3.269 1.17-5.022h-4.396zm-1.142 4.536v-4.536h-4.396c.072 1.75.474 3.448 1.166 5.013 1.051-.276 2.135-.436 3.23-.477zm0-5.679v-4.535c-1.093-.042-2.177-.203-3.23-.478-.692 1.565-1.094 3.265-1.166 5.013h4.396zm0-5.679v-3.869c-1.097 1.018-2.011 2.199-2.717 3.49.887.215 1.796.342 2.717.379zm2.491 16.643c1.851-.339 3.535-1.163 4.915-2.333-.779-.445-1.595-.81-2.437-1.094-.658 1.247-1.489 2.403-2.478 3.427zm-.002-20.786c.992 1.027 1.826 2.182 2.482 3.43.842-.284 1.658-.651 2.435-1.095-1.38-1.17-3.064-1.994-4.917-2.335zm2.976 4.463c.725 1.679 1.144 3.495 1.215 5.359h4.442c-.138-2.576-1.198-4.909-2.856-6.671-.889.535-1.828.975-2.801 1.312zm1.215 6.502c-.071 1.863-.491 3.677-1.217 5.357.934.324 1.837.742 2.694 1.248.083.671.246 1.368.512 1.997-2.158 1.906-4.993 3.062-8.099 3.062-2.953 0-5.661-1.046-7.777-2.788.287-.792.425-1.668.458-2.448.776-.433 1.587-.795 2.42-1.084-.722-1.676-1.139-3.487-1.211-5.344h-4.441c.041.766.163 1.51.358 2.224-.381-.1-.784-.143-1.195-.119-.183.009-.363.032-.539.067-.203-.882-.309-1.801-.309-2.744 0-3.379 1.369-6.438 3.585-8.651 2.214-2.215 5.272-3.586 8.651-3.586 3.379 0 6.439 1.371 8.652 3.586 2.214 2.213 3.585 5.272 3.585 8.651 0 .735-.065 1.456-.19 2.155-.147-.026-.3-.043-.453-.052-.436-.024-.863.026-1.264.139.116-.542.192-1.101.222-1.67h-4.442zm-10.514 6.382c-.846.282-1.666.648-2.447 1.092 1.382 1.178 3.071 2.006 4.931 2.347-.991-1.027-1.826-2.189-2.484-3.439zm-1.706-7.525c.072-1.859.49-3.669 1.212-5.346-.976-.335-1.919-.774-2.811-1.31-1.651 1.762-2.705 4.088-2.842 6.656h4.441zm1.706-6.381c.656-1.251 1.493-2.412 2.486-3.441-1.86.341-3.551 1.17-4.933 2.349.78.444 1.601.81 2.447 1.092z" fill="#46A83E" sketch:type="MSShapeGroup"/><path d="M304.479 2.542c-18.21-4.88-37.044 5.993-41.923 24.204-4.88 18.211 5.993 37.044 24.205 41.923 18.211 4.88 37.043-5.993 41.923-24.204 4.879-18.211-5.994-37.044-24.205-41.923zm20.682 40.979c-4.361 16.27-21.186 25.984-37.456 21.624-16.271-4.359-25.985-21.185-21.626-37.455 4.36-16.27 21.186-25.984 37.457-21.625 16.269 4.36 25.983 21.186 21.625 37.456z" fill="#1A213E" sketch:type="MSShapeGroup"/><path d="M304.479 2.542c-18.21-4.88-37.044 5.993-41.923 24.204-4.88 18.211 5.993 37.044 24.205 41.923 18.211 4.88 37.043-5.993 41.923-24.204 4.879-18.211-5.994-37.044-24.205-41.923zm20.682 40.979c-4.361 16.27-21.186 25.984-37.456 21.624-16.271-4.359-25.985-21.185-21.626-37.455 4.36-16.27 21.186-25.984 37.457-21.625 16.269 4.36 25.983 21.186 21.625 37.456z" stroke="#fff" stroke-width="1.5" sketch:type="MSShapeGroup"/><path d="M299.495 17.291c.187-.034.361-.002.417.202.083.299.065.574-.025.831-.085.238-.426.454-.609.657-.077.088-.243.127-.359.118-.656 1.663-1.797 3.151-3.244 3.151-1.444 0-2.586-1.488-3.241-3.151-.116.009-.284-.03-.36-.118-.182-.203-.525-.419-.607-.657-.091-.257-.111-.532-.027-.831.056-.204.229-.235.415-.202-.166-.731-.252-1.633-.093-2.366.387-1.795 2.224-2.778 3.913-2.778 1.499 0 2.36.358 2.67 1.102 1.395.654 1.587 2.144 1.15 4.042zm-3.82 6.864l-.642.427.18.71-.525 3.304c-.808-1.611-1.62-3.705-2.057-5.447-1.301.504-3.25.66-3.898 1.971-.668 1.346-.976 4.329-1.084 6.718-.008.185.053.349.182.484.126.134.288.202.473.202h14.743c.187 0 .347-.068.475-.202.127-.135.188-.299.18-.484-.107-2.389-.414-5.372-1.082-6.718-.65-1.311-2.596-1.467-3.898-1.971-.437 1.742-1.25 3.836-2.057 5.447l-.526-3.304.18-.71-.644-.427zm2.681 5.238h2.239v.695h-2.239v-.695zm8.438 8.877c.659 1.637 1.789 3.084 3.215 3.084 1.415 0 2.54-1.427 3.2-3.049.158.048.334.064.444-.078.165-.212.298-.438.374-.687.079-.259.096-.534.024-.833-.026-.104-.105-.179-.201-.203.555-1.273.469-2.617-.437-3.731-.896-1.104-2.323-1.635-3.705-1.573l-.076.003c.075-.221.101-.453.06-.784-.011-.096-.893.847-.944.714-.048-.122-.511-1.083-.553-.699-.067.607-.278 1.033-.394 1.271l-.038.02c-.299-.207-1.348-.624-1.131-.323.268.368.376.631.422.814-.31.268-.579.59-.794.965-.614 1.069-.691 2.397-.113 3.352-.064.035-.113.097-.132.174-.073.299-.055.574.024.833.076.249.209.475.374.687.101.13.239.112.381.043zm6.357 3.983c1.302.506 2.505.66 3.154 1.973.667 1.344.976 4.329 1.084 6.718.009.185-.052.348-.181.483-.128.133-.288.202-.473.202h-13.518c-.187 0-.346-.069-.475-.202-.128-.135-.189-.298-.182-.483.109-2.389.417-5.374 1.084-6.718.648-1.313 1.852-1.467 3.155-1.973l3.176 2.624 3.176-2.624zm-39.188 8.704c.054-2.258.376-4.516 1.076-6.773.323-1.041 2.095-1.561 3.733-1.897.668 1.639 1.385 2.542 2.106 2.707l.026.579c.018.428.033.788.047 1.096.001.023.021.046.051.061.03.015.071.025.117.025.045 0 .087-.01.116-.025.031-.015.05-.038.051-.061.013-.308.03-.668.048-1.096l.026-.579c.721-.163 1.438-1.067 2.107-2.707 1.636.336 3.408.856 3.731 1.897.7 2.257 1.023 4.515 1.078 6.773.004.184-.059.343-.187.474-.127.132-.286.198-.469.198h-13.002c-.184 0-.341-.066-.469-.198-.129-.131-.192-.29-.186-.474zm5.013-10.795c-.972-.067-2.364-.246-3.153-.558.715-.716 1.15-1.496 1.18-2.659.012-.419-.001-.952-.001-1.443 0-2.277 1.66-4.138 3.911-4.244.139-.007.272-.007.412 0 2.251.106 3.912 1.966 3.912 4.244 0 .578-.033 1.131.012 1.688.083 1.029.502 1.75 1.166 2.414-.79.314-2.181.491-3.154.558-.592.723-1.318 1.208-2.142 1.208-.825 0-1.55-.485-2.143-1.208z" fill="#1A213E" sketch:type="MSShapeGroup"/><path d="M301.074 45.078c.463 0 .838.377.838.839 0 .463-.375.838-.838.838h-7.332v2.31l-4.302-3.148 4.302-3.149v2.31h7.332zm-19.557-16.497c0 .46-.375.836-.837.836-.46 0-.834-.376-.834-.836l-.002-4.915h-.003v-.003c0-.849.346-1.619.904-2.178.558-.558 1.329-.904 2.182-.905v-.003h2.223v-2.31l4.301 3.148-4.301 3.151v-2.311h-2.223v-.004c-.389 0-.741.16-.995.415-.255.253-.413.607-.413.997v.003h-.004l.002 4.915zm27.87-3.409l.001-1.709h-.004v-.002c0-.391-.158-.745-.412-1.001-.255-.253-.607-.411-.996-.411v.002h-4.325c-.463 0-.838-.376-.838-.839 0-.463.375-.837.838-.837h4.325v.001c.853.002 1.625.347 2.182.906.557.559.904 1.329.904 2.179v.002h-.005v1.709h2.314l-3.148 4.304-3.15-4.304h2.314z" fill="#E86035" sketch:type="MSShapeGroup"/><path d="M394.256 2.602c-18.211-4.879-37.044 5.994-41.924 24.205-4.879 18.211 5.994 37.044 24.205 41.923 18.211 4.88 37.044-5.993 41.923-24.204 4.88-18.211-5.993-37.044-24.204-41.924zm20.681 40.98c-4.36 16.27-21.186 25.984-37.456 21.625-16.27-4.36-25.984-21.186-21.625-37.456 4.36-16.27 21.186-25.984 37.456-21.625 16.269 4.36 25.984 21.186 21.625 37.456z" fill="#1A213E" sketch:type="MSShapeGroup"/><path d="M394.256 2.602c-18.211-4.879-37.044 5.994-41.924 24.205-4.879 18.211 5.994 37.044 24.205 41.923 18.211 4.88 37.044-5.993 41.923-24.204 4.88-18.211-5.993-37.044-24.204-41.924zm20.681 40.98c-4.36 16.27-21.186 25.984-37.456 21.625-16.27-4.36-25.984-21.186-21.625-37.456 4.36-16.27 21.186-25.984 37.456-21.625 16.269 4.36 25.984 21.186 21.625 37.456z" stroke="#fff" stroke-width="1.5" sketch:type="MSShapeGroup"/><path d="M401.787 32.39l-.008-.04-.036-.116-.058-.105-.074-.09-.092-.076-.104-.055-.115-.037-.041-.009c-.046-.001-.309-.267-.583-.589l-2.945-3.447c-.275-.323-.725-.323-1.001 0l-.35.409c-.275.322-.725.848-1 1.17l-1.594 1.868c-.276.322-.726.322-1 0l-2.945-3.447c-.275-.323-.726-.323-1.001 0l-2.944 3.447c-.274.322-.725.322-1 0l-.849-.993c-.274-.322-.724-.849-.999-1.17l-1.097-1.284c-.275-.323-.724-.323-1.001 0l-2.944 3.447c-.274.322-.725.322-.999 0l-2.945-3.447c-.275-.323-.726-.323-1.001 0l-2.945 3.447c-.274.322-.538.588-.584.589l-.04.009-.115.037-.105.055-.091.076-.075.09-.057.105-.036.116-.008.04c-.003.047-.004.43-.004.855v18.781c0 .423.001.807.004.852l.008.041.036.116.057.104.075.091.091.075.105.057.115.037.04.008c.046.001.43.004.855.004h30.018c.424 0 .808-.003.854-.004l.041-.008.115-.037.104-.057.092-.075.074-.091.058-.104.036-.116.008-.041c.002-.045.005-.429.005-.852v-18.781c0-.425-.003-.808-.005-.855zm-28.865 10.302h2.728v2.728h-2.728v-2.728zm0-3.793h2.728v2.728h-2.728v-2.728zm0-3.792h2.728v2.728h-2.728v-2.728zm3.792 7.585h2.728v2.728h-2.728v-2.728zm0-3.793h2.728v2.728h-2.728v-2.728zm0-3.792h2.728v2.728h-2.728v-2.728zm3.794 7.585h2.727v2.728h-2.727v-2.728zm0-3.793h2.727v2.728h-2.727v-2.728zm0-3.792h2.727v2.728h-2.727v-2.728zm3.791 7.585h2.729v2.728h-2.729v-2.728zm0-3.793h2.729v2.728h-2.729v-2.728zm0-3.792h2.729v2.728h-2.729v-2.728zm3.793 7.585h2.729v2.728h-2.729v-2.728zm0-3.793h2.729v2.728h-2.729v-2.728zm0-3.792h2.729v2.728h-2.729v-2.728z" fill="#2895D2" sketch:type="MSShapeGroup"/><path d="M388.84 26.286c.275-.322.726-.322 1.001 0l2.945 3.447c.274.323.724.323 1 0l1.594-1.866c.275-.323.417-.922.315-1.333 0 0-1.997-8.03-2.236-12.736-.007-.312-.192-.567-.421-.567h-6.435c-.229 0-.415.255-.42.567-.257 5.017-2.444 13.611-2.444 13.611-.107.411.034 1.009.308 1.331l.849.993c.275.323.726.323 1 0l2.944-3.447" fill="#1A213E" sketch:type="MSShapeGroup"/><path d="M394.256 157.839c-18.211-4.879-37.044 5.994-41.924 24.205-4.879 18.211 5.994 37.043 24.205 41.923 18.211 4.88 37.044-5.993 41.923-24.204 4.88-18.211-5.993-37.044-24.204-41.924zm20.681 40.98c-4.36 16.27-21.186 25.984-37.456 21.625-16.27-4.36-25.984-21.186-21.625-37.456 4.36-16.27 21.186-25.985 37.456-21.625 16.269 4.36 25.984 21.186 21.625 37.456z" fill="#1A213E" sketch:type="MSShapeGroup"/><path d="M394.256 157.839c-18.211-4.879-37.044 5.994-41.924 24.205-4.879 18.211 5.994 37.043 24.205 41.923 18.211 4.88 37.044-5.993 41.923-24.204 4.88-18.211-5.993-37.044-24.204-41.924zm20.681 40.98c-4.36 16.27-21.186 25.984-37.456 21.625-16.27-4.36-25.984-21.186-21.625-37.456 4.36-16.27 21.186-25.985 37.456-21.625 16.269 4.36 25.984 21.186 21.625 37.456z" stroke="#fff" stroke-width="1.5" sketch:type="MSShapeGroup"/><path d="M366.333 198.661c-.535 0-.97.435-.97.97 0 1.378-.311 3.065.97 3.065.726 0 1.598.168 1.545-.421-.323-3.688 2.029-3.614-1.545-3.614" fill="#1A213E" sketch:type="MSShapeGroup"/><path d="M374.637 196.8c-2.671 0-4.848 2.176-4.848 4.847 0 4.297 5.219 6.473 8.266 3.431 3.065-3.058.878-8.278-3.418-8.278zm1.352 6.202c-1.205 1.202-3.263.342-3.263-1.354 0-1.054.858-1.913 1.911-1.913 1.695 0 2.56 2.06 1.352 3.267z" fill="#1A213E" sketch:type="MSShapeGroup"/><path d="M390.14 195.752v-19.473c0-.535-.434-.969-.969-.969h-21.789c-.537 0-.971.434-.971.969v19.473c0 1.288 1.708.97 3.12.97 1.063 0 1.806-1.861 5.106-1.861 3.361 0 4.035 1.861 5.113 1.861h9.421c.535 0 .969-.434.969-.97" fill="#46A83E" sketch:type="MSShapeGroup"/><path d="M407.677 195.752l-.004-4.855c.002-2.011-4.369-.179-4.714-2.213l-1.112-6.583h1.949c1.278 0 1.278-1.94 0-1.94h-10.742c-.536 0-.971.435-.971.969v14.622c0 .536.435.97.971.97 1.267 0 1.808-1.861 5.187-1.861 3.363 0 4.034 1.861 5.113 1.861h3.353c.536 0 .97-.434.97-.97zm-7.318-6.476l-5.814-.595c-.297-.031-.52-.279-.52-.578v-6.002h5.855l1.114 6.498c.063.38-.251.717-.635.677z" fill="#46A83E" sketch:type="MSShapeGroup"/><path d="M404.913 198.661c-.275 0-.461.274-.361.529.815 2.081.241 3.04.552 3.381.142.154 2.413.52 2.413-.844 0-3.229.297-3.066-2.604-3.066" fill="#1A213E" sketch:type="MSShapeGroup"/><path d="M391.553 198.661h-10.243c-.275 0-.461.274-.362.53.919 2.342.026 3.505.839 3.505h9.307l.387-.421c-.207-2.322 1.027-3.614.072-3.614" fill="#1A213E" sketch:type="MSShapeGroup"/><path d="M398.241 196.8c-2.672 0-4.848 2.176-4.848 4.847 0 4.297 5.217 6.473 8.265 3.431 3.065-3.058.878-8.278-3.417-8.278zm1.351 6.202c-1.204 1.202-3.262.342-3.262-1.354 0-1.054.857-1.913 1.911-1.913 1.697 0 2.56 2.06 1.351 3.267z" fill="#1A213E" sketch:type="MSShapeGroup"/><path d="M131.415 157.849c-18.21-4.879-37.043 5.994-41.923 24.205-4.88 18.211 5.993 37.043 24.205 41.923 18.211 4.88 37.043-5.994 41.923-24.204 4.88-18.212-5.994-37.044-24.205-41.924zm20.681 40.98c-4.36 16.27-21.185 25.984-37.455 21.625-16.27-4.36-25.985-21.186-21.625-37.457 4.359-16.269 21.185-25.984 37.455-21.624 16.27 4.359 25.985 21.186 21.625 37.456z" fill="#1A213E" sketch:type="MSShapeGroup"/><path d="M131.415 157.849c-18.21-4.879-37.043 5.994-41.923 24.205-4.88 18.211 5.993 37.043 24.205 41.923 18.211 4.88 37.043-5.994 41.923-24.204 4.88-18.212-5.994-37.044-24.205-41.924zm20.681 40.98c-4.36 16.27-21.185 25.984-37.455 21.625-16.27-4.36-25.985-21.186-21.625-37.457 4.359-16.269 21.185-25.984 37.455-21.624 16.27 4.359 25.985 21.186 21.625 37.456z" stroke="#fff" stroke-width="1.5" sketch:type="MSShapeGroup"/><path d="M118.552 197.275c-2.091.811-7.184.996-8.085 3.16-.31.751-.51 1.324-.664 1.88h27.1c-.207-.556-.453-1.129-.761-1.88-.902-2.164-5.996-2.349-8.086-3.16-1.344 1.446-2.939 2.703-4.751 3.797-1.697-1.099-3.295-2.345-4.753-3.797zm4.753-17.639c3.415 0 6.187 2.884 6.187 6.444 0 3.595-2.465 9.754-6.187 9.754-3.724 0-6.19-6.159-6.19-9.754 0-3.56 2.771-6.444 6.19-6.444z" fill="#2895D2" sketch:type="MSShapeGroup"/><path d="M106.903 172.658h32.804c2.211 0 4.022 1.809 4.022 4.023v26.453c0 2.209-1.815 4.022-4.022 4.022h-32.804c-2.219 0-4.025-1.805-4.025-4.022v-26.453c0-2.216 1.806-4.023 4.025-4.023zm26.887 39.256c.425 0 .914-.379.787-.783l-.685-2.167c-.125-.405-.357-.784-.784-.784h-19.61c-.422 0-.657.381-.784.784l-.681 2.167c-.127.404.361.783.784.783h20.973zm-28.014-8.78c0 .617.508 1.128 1.127 1.128h32.804c.628 0 1.127-.504 1.127-1.128v-26.453c0-.637-.499-1.127-1.127-1.127h-32.804c-.619 0-1.127.509-1.127 1.127v26.453z" fill="#1A213E" sketch:type="MSShapeGroup"/><path d="M115.279 189.015c.216.023.43.01.646-.036.375-.082.6-.463.495-.831-.83-2.884-.16-5.868 2.285-7.796 2.679-2.119 6.458-2.119 9.138 0 2.444 1.928 3.115 4.912 2.284 7.796-.093.324.07.653.362.788-.121.875-.297 1.724-.538 2.543-.162.548-.355 1.081-.581 1.594-.108-.026-.222-.04-.339-.04-.761 0-1.377.615-1.377 1.375s.616 1.377 1.377 1.377 1.377-.617 1.377-1.377c0-.429-.197-.809-.503-1.061.241-.551.45-1.118.618-1.697.254-.845.435-1.725.558-2.625.062-.001.127-.005.187-.01h1.45c.747 0 1.363-.611 1.363-1.351v-2.499c0-.74-.616-1.35-1.363-1.35h-1.557c-2.336-7.938-13.437-7.938-15.774 0h-1.497c-.748 0-1.361.61-1.361 1.35v2.499c0 .74.613 1.351 1.361 1.351h1.389" fill="#2895D2" sketch:type="MSShapeGroup"/><path d="M35.1 157.609v-6.566c0-4.418 3.581-8 8-8h337.052c4.418 0 8 3.582 8 8v6.066m-266.455.572v-6.631c0-4.462 3.617-8.079 8.079-8.079m166.83 14.71v-6.631c0-4.462-3.617-8.079-8.079-8.079m8.079-74.651v6.631c0 4.462-3.616 8.079-8.079 8.079" stroke="#1A213E" stroke-width="2" sketch:type="MSShapeGroup"/><path d="M35.099 1.436c-18.853 0-34.229 15.377-34.229 34.23 0 18.853 15.376 34.23 34.229 34.23 18.854 0 34.23-15.377 34.23-34.23 0-18.853-15.376-34.23-34.23-34.23zm0 64.813c-16.844 0-30.582-13.739-30.582-30.583 0-16.844 13.738-30.582 30.582-30.582s30.583 13.738 30.583 30.582-13.739 30.583-30.583 30.583z" fill="#1A213E" sketch:type="MSShapeGroup"/><path d="M35.099 1.436c-18.853 0-34.229 15.377-34.229 34.23 0 18.853 15.376 34.23 34.229 34.23 18.854 0 34.23-15.377 34.23-34.23 0-18.853-15.376-34.23-34.23-34.23zm0 64.813c-16.844 0-30.582-13.739-30.582-30.583 0-16.844 13.738-30.582 30.582-30.582s30.583 13.738 30.583 30.582-13.739 30.583-30.583 30.583z" stroke="#fff" stroke-width="1.5" sketch:type="MSShapeGroup"/><path d="M50.196 23.48c-.046-.475-.432-.847-.925-.847h-21.843c-.194 0-.373.057-.522.148l-2.877 1.072-2.889-1.132c-.09-.045-.179-.059-.269-.074-.507-.074-.982.268-1.058.788l-4.082 27.91c-.016.059-.03.119-.03.179 0 .521.418.938.938.938h36.73c.045 0 .089 0 .134-.014.521-.074.865-.537.79-1.058l-4.097-27.91zm-28.698 1.372l1.832.715-2.13 21.785-3.384 2.532 3.682-25.032zm-2.593 25.748l2.861-2.146 2.652 2.146h-5.513zm6.734-.566l-3.219-2.622 2.132-21.77 1.892-.7-.805 25.092zm1.848.566l.834-26.105h20.146l3.829 26.105h-24.809z" fill="#1A213E" sketch:type="MSShapeGroup"/><path d="M45.469 21.244c.038.332-.205.63-.539.667-.337.036-.638-.203-.676-.535-.448-4.013-1.865-6.633-3.587-7.876-.755-.545-1.568-.819-2.378-.819-.811 0-1.625.274-2.379.819-.381.273-.746.616-1.089 1.024 1.276 1.549 2.42 3.754 3.232 6.622.092.324-.099.662-.424.753-.326.092-.663-.099-.755-.424-.722-2.546-1.701-4.516-2.785-5.917-.851 1.417-1.491 3.355-1.765 5.818-.038.332-.341.571-.675.535-.335-.037-.578-.335-.542-.667.316-2.822 1.099-5.034 2.146-6.634-.43-.424-.871-.766-1.312-1.027-.775-.455-1.549-.646-2.264-.57-.699.074-1.359.409-1.928 1.001-1.226 1.276-2.029 3.703-1.97 7.286.006.339-.263.615-.6.621-.339.006-.617-.265-.621-.601-.065-3.935.876-6.662 2.309-8.155.776-.807 1.695-1.264 2.685-1.369.973-.103 1.999.142 3.007.734.484.283.963.65 1.433 1.1.379-.436.782-.804 1.2-1.107.973-.702 2.034-1.053 3.097-1.053 1.063 0 2.122.351 3.096 1.053 1.979 1.43 3.595 4.341 4.084 8.721zm-9.071 18.074c-.608-.469-.934-1.119-.979-1.946-.049-.92.258-1.681.919-2.281.584-.531 1.23-.854 2.18-.982.225-.03.387-.227.374-.452l-.077-1.222c-.013-.238.172-.443.411-.455l.632-.035c.237-.013.441.17.456.407l.076 1.211c.012.224.192.4.416.409.896.033 1.516.279 2.09.732.538.423.887 1.005 1.043 1.744.027.129 0 .25-.081.354-.078.104-.187.162-.318.169l-1.661.09c-.208.012-.391-.123-.442-.324-.064-.252-.166-.451-.306-.599-.445-.473-2.38-.382-2.854.017-.386.326-.377 1.016.049 1.314.509.35 2.266.552 3.005.739.936.237 1.635.543 2.098.914.604.484.93 1.161.977 2.037.056 1.015-.229 1.812-.851 2.386-.556.514-1.25.851-2.33 1.02-.22.035-.377.229-.365.452l.066 1.222c.013.237-.17.442-.407.457l-.582.03c-.239.012-.442-.171-.456-.409l-.068-1.231c-.011-.224-.19-.4-.415-.409-1.017-.041-1.717-.325-2.345-.835-.6-.486-.969-1.151-1.109-1.996-.022-.125.009-.244.089-.342.08-.101.186-.154.314-.161l1.797-.098c.217-.013.408.135.448.348.07.355.181.621.332.791.525.587 2.5.352 2.983-.026.436-.34.412-1.065-.025-1.394-1.033-.765-3.542-.454-5.084-1.646zm8.275-9.398c.927 0 1.679-.752 1.679-1.677 0-.928-.752-1.679-1.679-1.679-.926 0-1.677.751-1.677 1.679 0 .925.751 1.677 1.677 1.677zm-12.211 0c.926 0 1.676-.752 1.676-1.677 0-.928-.75-1.679-1.676-1.679-.928 0-1.679.751-1.679 1.679 0 .925.751 1.677 1.679 1.677z" fill="#972F84" sketch:type="MSShapeGroup"/><path d="M121.697 68.32v6.631c0 4.462 3.617 8.079 8.08 8.079m258.375-14.638v6.566c0 4.418-3.581 8-8 8h-337.052c-4.418 0-8-3.582-8-8v-6.066m172.64-.572v23.289-23.289zm0 66.073v23.289-23.289zm116.882-8c0 4.418-3.582 8-8 8h-213.853c-4.418 0-7.999-3.582-7.999-8v-26.333c0-4.419 3.581-8 7.999-8h213.853c4.418 0 8 3.581 8 8v26.333z" stroke="#1A213E" stroke-width="2" sketch:type="MSShapeGroup"/><path d="M152 123v-1.165c2.007-.027 3.705-.728 3.705-2.734v-13.197c0-1.483-1.245-1.714-3.48-1.742v-1.162h11.017l5.338 13.544h.075l5.378-13.544h11.092v1.162c-2.764 0-3.673.464-3.673 1.915v13.838c0 1.455.909 1.92 3.673 1.92v1.165h-13.138v-1.165c2.499 0 3.407-.465 3.407-1.92v-14.767h-.075l-7.23 17.852h-3.259l-6.926-17.852h-.075v13.953c0 2.006 1.702 2.707 3.975 2.734v1.165h-9.804" fill="#222844" sketch:type="MSShapeGroup"/><path d="M184 123.351v-1.165c2.839-.409 3.746-1.28 5.071-3.691l8.405-15.495h2.007l9.693 17.237c.795 1.397 1.628 1.831 3.596 1.949v1.165h-13.666v-1.165h1.513c1.969 0 2.272-.349 2.272-.959 0-.378-.189-.756-.416-1.163l-1.856-3.344h-8.33l-1.209 2.299c-.192.374-.455 1.016-.455 1.83 0 .814.683 1.337 2.157 1.337h1.857v1.165h-10.639zm12.341-14.275l-3.216 6.132h6.664l-3.448-6.132z" fill="#222844" sketch:type="MSShapeGroup"/><path d="M237.713 118.577c0 2.88-1.632 4.77-5.805 4.77-4.053 0-5.645-1.571-5.922-5.001-.279-3.548-.44-4.506-4.732-4.944v6.107c0 1.657.518 2.326 3.818 2.326v1.165h-14.072v-1.165c2.941 0 3.896-.465 3.896-1.92v-13.838c0-1.451-.955-1.915-3.896-1.915v-1.162h13.913c6.757 0 10.173 1.973 10.173 5.347 0 3.806-5.166 4.768-9.618 4.827v.054c4.85.467 5.966 2.355 6.879 4.361 1.231 2.821 1.473 3.143 2.423 3.143.995 0 1.234-1.165 1.351-2.155h1.592zm-16.459-6.22c4.335-.144 6.996-.639 6.996-3.98 0-2.414-1.67-4.041-4.414-4.041-1.388 0-2.582.406-2.582 1.741v6.28z" fill="#222844" sketch:type="MSShapeGroup"/><path d="M238 115.672h1.666c1.022 3.171 3.558 6.687 8.366 6.687 2.615 0 4.846-.928 4.846-3.371 0-4.215-14.649-2.763-14.649-9.421 0-4.183 4.049-6.567 8.819-6.567 4.126 0 5.489 1.541 6.51 1.541.76 0 1.06-.672 1.477-1.19h1.591v6.916h-1.515c-1.097-3.168-3.52-5.929-7.494-5.929-2.388 0-4.393 1.017-4.393 2.936 0 4.534 14.88 2.293 14.88 9.825 0 4.332-5.113 6.599-9.313 6.599-4.658 0-6.437-1.512-7.646-1.512-.76 0-1.329.786-1.632 1.165h-1.513v-7.679" fill="#222844" sketch:type="MSShapeGroup"/></g></svg>