<svg width="43" height="42" viewBox="0 0 43 42" xmlns="http://www.w3.org/2000/svg" xmlns:sketch="http://www.bohemiancoding.com/sketch/ns"><title>see</title><g id="see" sketch:type="MSLayerGroup" fill="none" fill-rule="evenodd"><path d="M18.779 13.811h4.122c.319-.319.661-.616 1.023-.891-.09-.266-.343-.459-.64-.459h-4.505c-.372 0-.675.302-.675.674 0 .373.303.676.675.676" id="Fill-1" fill="#1A213E" sketch:type="MSShapeGroup"/><path d="M8.035 3.438l-4.606 4.618h4.606v-4.618m1.005-3.438h17.955c.555 0 1.005.451 1.005 1.007v10.405c-.683.087-1.356.244-2.009.47v-9.868h-15.946v7.049c0 .557-.45 1.007-1.005 1.007h-7.032v24.918h23.982v-4.282c.224.079.452.148.682.21.439.118.882.204 1.327.261v4.818c0 .557-.45 1.008-1.005 1.008h-25.991c-.555 0-1.005-.451-1.005-1.008v-26.931c0-.282.116-.536.303-.719l8.019-8.039c.033-.033.067-.065.104-.094.02-.016.04-.03.062-.044v-.001c.021-.014.042-.025.064-.038.145-.081.312-.127.489-.127" id="Fill-2" fill="#1A213E" sketch:type="MSShapeGroup"/><path d="M5.949 22.678h8.668c.372 0 .674-.302.674-.674 0-.373-.302-.675-.674-.675h-8.668c-.372 0-.675.302-.675.675 0 .372.303.674.675.674" id="Fill-3" fill="#1A213E" sketch:type="MSShapeGroup"/><path d="M5.949 18.244h.68c.127.539.403 1.022.781 1.401.531.53 1.265.859 2.075.859.81 0 1.543-.329 2.075-.859.53-.532.859-1.265.859-2.075 0-.81-.329-1.544-.859-2.075-.532-.53-1.265-.858-2.075-.858-.81 0-1.544.328-2.075.858-.378.379-.654.86-.781 1.4h-.68c-.372 0-.675.302-.675.675 0 .372.303.674.675.674zm2.416-1.795c.286-.287.682-.464 1.12-.464.437 0 .834.177 1.121.464.286.287.463.684.463 1.121 0 .438-.177.833-.463 1.119-.287.288-.684.465-1.121.465-.438 0-.834-.177-1.12-.465-.287-.286-.465-.681-.465-1.119 0-.437.178-.834.465-1.121z" id="Fill-4" fill="#1A213E" sketch:type="MSShapeGroup"/><path d="M5.949 13.811h8.941c.373 0 .675-.303.675-.676 0-.372-.302-.674-.675-.674h-8.941c-.372 0-.675.302-.675.674 0 .373.303.676.675.676" id="Fill-5" fill="#1A213E" sketch:type="MSShapeGroup"/><path d="M17.831 22.004c0 .372.302.674.675.674h1.62c-.081-.446-.131-.897-.151-1.349h-1.469c-.373 0-.675.302-.675.675" id="Fill-6" fill="#1A213E" sketch:type="MSShapeGroup"/><path d="M20.797 16.895h-5.974c-.373 0-.675.302-.675.675 0 .372.302.674.675.674h5.498c.127-.463.286-.914.476-1.349" id="Fill-7" fill="#1A213E" sketch:type="MSShapeGroup"/><path d="M22.127 27.112c-.3-.38-.575-.783-.821-1.209-.022-.039-.044-.078-.065-.119l-.012-.021h-.898c-.086.244-.219.472-.4.675.181.202.314.432.4.674h1.796" id="Fill-8" fill="#1A213E" sketch:type="MSShapeGroup"/><path d="M12.539 26.438c0 .373.301.674.674.674h.602c.086-.242.219-.472.4-.674-.181-.203-.314-.431-.4-.675h-.602c-.373 0-.674.302-.674.675" id="Fill-9" fill="#1A213E" sketch:type="MSShapeGroup"/><path d="M17.005 30.198h-11.056c-.372 0-.675.302-.675.674 0 .373.303.676.675.676h11.056c.373 0 .675-.303.675-.676 0-.372-.302-.674-.675-.674" id="Fill-10" fill="#1A213E" sketch:type="MSShapeGroup"/><path d="M23.284 30.198h-2.389c-.373 0-.675.302-.675.674 0 .373.302.676.675.676h2.389c.372 0 .675-.303.675-.676 0-.372-.303-.674-.675-.674" id="Fill-11" fill="#1A213E" sketch:type="MSShapeGroup"/><path d="M18.9 24.612c-.264-.263-.691-.263-.955 0l-.872.871-.872-.871c-.264-.263-.691-.263-.954 0-.264.263-.264.69 0 .953l.872.873-.872.873c-.264.262-.264.69 0 .954.263.263.69.263.954 0l.872-.873.872.873c.264.263.691.263.955 0 .263-.264.263-.692 0-.954l-.873-.873.873-.873c.263-.263.263-.69 0-.953" id="Fill-12" fill="#1A213E" sketch:type="MSShapeGroup"/><path d="M5.949 27.112h3.375c.372 0 .674-.301.674-.674 0-.373-.302-.675-.674-.675h-3.375c-.372 0-.675.302-.675.675 0 .373.303.674.675.674" id="Fill-13" fill="#1A213E" sketch:type="MSShapeGroup"/><path d="M32.712 19.02c-.839-.489-1.765-.759-2.737-.759-.973 0-1.898.27-2.738.759-.852.495-1.612 1.214-2.24 2.103-.214.304-.141.725.164.938.304.214.724.14.938-.164.48-.678 1.045-1.233 1.669-1.626-.013.094-.02.19-.02.288 0 1.197.997 2.168 2.227 2.168 1.229 0 2.226-.971 2.226-2.168 0-.098-.007-.194-.019-.288.624.393 1.189.948 1.669 1.626.214.304.634.378.938.164.304-.213.378-.634.164-.938-.628-.889-1.389-1.608-2.241-2.103" id="Fill-14" fill="#972F84" sketch:type="MSShapeGroup"/><path d="M35.487 29.22c.322-.187.431-.599.245-.92-.186-.322-.598-.432-.92-.246l-1.195.69c-.321.187-.431.599-.244.92.186.321.597.431.919.245l1.195-.689" id="Fill-15" fill="#972F84" sketch:type="MSShapeGroup"/><path d="M42.739 38.974l-4.725-8.184c-.555-.965-1.787-1.298-2.752-.744-.965.555-1.298 1.787-.743 2.752l4.725 8.183c.554.965 1.786 1.298 2.752.745.964-.555 1.297-1.788.743-2.752" id="Fill-16" fill="#972F84" sketch:type="MSShapeGroup"/><path d="M37.69 22.963c.523-1.951.308-4.103-.766-5.999-.01-.021-.022-.042-.033-.062-1.103-1.91-2.876-3.193-4.849-3.721-1.952-.523-4.103-.308-6 .766-.021.01-.041.022-.061.034-1.911 1.103-3.193 2.874-3.722 4.849-.528 1.971-.303 4.145.799 6.054l.001.003c1.105 1.913 2.876 3.196 4.849 3.725 1.973.529 4.15.304 6.061-.8 1.91-1.102 3.193-2.875 3.721-4.849zm-4.732 3.102c-1.426.823-3.052.99-4.528.594-1.451-.388-2.755-1.319-3.58-2.701-.025-.055-.054-.104-.087-.152-.786-1.408-.94-3.003-.551-4.454.39-1.456 1.327-2.764 2.722-3.59.045-.023.089-.049.131-.078 1.408-.786 3.003-.94 4.454-.55 1.476.395 2.801 1.352 3.624 2.78.01.016.019.031.029.047.798 1.414.957 3.019.566 4.48-.396 1.476-1.354 2.8-2.78 3.624z" id="Fill-17" fill="#972F84" sketch:type="MSShapeGroup"/></g></svg>