<svg width="146" height="161" viewBox="0 0 146 161" xmlns="http://www.w3.org/2000/svg" xmlns:sketch="http://www.bohemiancoding.com/sketch/ns"><title>shield</title><desc>Created with Sketch.</desc><g id="shield" sketch:type="MSLayerGroup" transform="translate(-44 -707) translate(44 707)" fill="#fff" fill-rule="evenodd"><path d="M73 161c-.169 0-.339-.045-.49-.135-1.963-1.156-48.242-28.684-62.864-58.546-12.861-26.267-9.207-98.348-9.044-101.403.027-.514.45-.916.965-.916h142.869c.514 0 .938.403.965.916.162 3.055 3.817 75.136-9.044 101.403-14.623 29.862-60.902 57.39-62.864 58.546-.152.09-.321.135-.491.135zm-70.512-159.065c-.39 8.616-2.98 75.283 8.893 99.532 13.751 28.08 56.273 54.231 61.618 57.438 5.346-3.207 47.869-29.358 61.619-57.438 11.873-24.248 9.284-90.916 8.893-99.532h-141.024z" id="Fill-1" sketch:type="MSShapeGroup"/><path d="M62.021 96.035h-36.054c-.534 0-.967-.431-.967-.964v-70.073c0-.532.433-.964.967-.964h35.3c.534 0 .967.432.967.964 0 .533-.433.964-.967.964h-34.333v68.145h35.087c.535 0 .967.431.967.964 0 .533-.432.964-.967.964" id="Fill-2" sketch:type="MSShapeGroup"/><path d="M73.918 106.449c-.534 0-.967-.435-.967-.97v-64.763c0-.537.433-.97.967-.97.535 0 .967.434.967.97v64.763c0 .536-.432.97-.967.97" id="Fill-3" sketch:type="MSShapeGroup"/><path d="M73.918 51.055c-.534 0-.967-.434-.967-.97v-15.157c0-4.936-4.002-8.951-8.921-8.951h-10.163c-.534 0-.967-.434-.967-.97s.433-.97.967-.97h10.163c5.985 0 10.855 4.886 10.855 10.892v15.157c0 .537-.432.97-.967.97" id="Fill-4" sketch:type="MSShapeGroup"/><path d="M73.918 105c-.534 0-.967-.403-.967-.9 0-4.577-4.002-8.301-8.921-8.301h-10.163c-.534 0-.967-.402-.967-.9s.433-.9.967-.9h10.163c5.985 0 10.855 4.531 10.855 10.1 0 .497-.432.9-.967.9" id="Fill-5" sketch:type="MSShapeGroup"/><path d="M122.023 96.035h-36.056c-.534 0-.967-.431-.967-.964 0-.533.433-.964.967-.964h35.089v-68.145h-34.334c-.534 0-.967-.431-.967-.964 0-.532.433-.964.967-.964h35.301c.534 0 .967.432.967.964v70.073c0 .533-.433.964-.967.964" id="Fill-6" sketch:type="MSShapeGroup"/><path d="M73.918 106.449c-.534 0-.967-.435-.967-.97v-64.763c0-.537.433-.97.967-.97.535 0 .967.434.967.97v64.763c0 .536-.432.97-.967.97" id="Fill-7" sketch:type="MSShapeGroup"/><path d="M73.918 51.055c-.534 0-.967-.434-.967-.97v-15.157c0-6.006 4.87-10.892 10.856-10.892h10.163c.534 0 .967.435.967.97 0 .537-.433.97-.967.97h-10.163c-4.919 0-8.922 4.016-8.922 8.951v15.157c0 .537-.432.97-.967.97" id="Fill-8" sketch:type="MSShapeGroup"/><path d="M73.918 105c-.534 0-.967-.403-.967-.9 0-5.569 4.87-10.1 10.856-10.1h10.163c.534 0 .967.402.967.9s-.433.9-.967.9h-10.163c-4.919 0-8.922 3.724-8.922 8.301 0 .497-.432.9-.967.9" id="Fill-9" sketch:type="MSShapeGroup"/><path d="M35.974 41.94c-.538 0-.974-.434-.974-.97 0-.537.435-.97.974-.97h26.052c.538 0 .974.434.974.97 0 .537-.435.97-.974.97h-26.052z" id="Fill-10" sketch:type="MSShapeGroup"/><path d="M62.026 53.94h-26.052c-.538 0-.974-.434-.974-.97 0-.537.435-.97.974-.97h26.052c.538 0 .974.434.974.97 0 .537-.435.97-.974.97" id="Fill-11" sketch:type="MSShapeGroup"/><path d="M62.026 65.94h-26.052c-.538 0-.974-.434-.974-.97 0-.537.435-.97.974-.97h26.052c.538 0 .974.434.974.97 0 .537-.435.97-.974.97" id="Fill-12" sketch:type="MSShapeGroup"/><path d="M62.026 77.94h-26.052c-.538 0-.974-.434-.974-.97 0-.537.435-.97.974-.97h26.052c.538 0 .974.434.974.97 0 .537-.435.97-.974.97" id="Fill-13" sketch:type="MSShapeGroup"/><path d="M84.967 41.94c-.534 0-.967-.435-.967-.97 0-.537.433-.97.967-.97h25.798c.535 0 .967.434.967.97s-.432.97-.967.97h-25.798z" id="Fill-14" sketch:type="MSShapeGroup"/><path d="M110.765 53.94h-25.798c-.534 0-.967-.435-.967-.97 0-.537.433-.97.967-.97h25.798c.535 0 .967.434.967.97s-.432.97-.967.97" id="Fill-15" sketch:type="MSShapeGroup"/><path d="M110.765 65.94h-25.798c-.534 0-.967-.434-.967-.97s.433-.97.967-.97h25.798c.535 0 .967.435.967.97 0 .537-.432.97-.967.97" id="Fill-16" sketch:type="MSShapeGroup"/><path d="M84.967 77.94c-.534 0-.967-.434-.967-.97s.433-.97.967-.97h25.798c.535 0 .967.435.967.97 0 .537-.432.97-.967.97h-25.798z" id="Fill-17" sketch:type="MSShapeGroup"/></g></svg>