<svg width="252" height="82" viewBox="0 0 252 82" xmlns="http://www.w3.org/2000/svg" xmlns:sketch="http://www.bohemiancoding.com/sketch/ns"><title>simple-key</title><desc>Created with Sketch.</desc><g id="simple-key" sketch:type="MSLayerGroup" transform="translate(-16 -390) translate(17 390)" fill="#fff" fill-rule="evenodd"><path d="M237.113 70.512h-8.292c-.552 0-1-.447-1-1v-12.164c0-1.406-1.143-2.549-2.549-2.549h-.258c-1.406 0-2.549 1.143-2.549 2.549v12.164c0 .553-.447 1-1 1h-11.351c-.553 0-1-.447-1-1v-12.164c0-1.406-1.143-2.549-2.549-2.549h-.258c-1.407 0-2.55 1.143-2.55 2.549v12.164c0 .553-.447 1-1 1h-8.751c-2.509 0-4.55-2.041-4.55-4.55v-19.851h2v19.851c0 1.406 1.144 2.55 2.55 2.55h7.751v-11.164c0-2.508 2.041-4.549 4.55-4.549h.258c2.508 0 4.549 2.041 4.549 4.549v11.164h9.351v-11.164c0-2.508 2.041-4.549 4.549-4.549h.258c2.508 0 4.549 2.041 4.549 4.549v11.164h7.292c1.407 0 2.55-1.144 2.55-2.55v-19.851h2v19.851c0 2.509-2.041 4.55-4.55 4.55" id="Fill-1" sketch:type="MSShapeGroup"/><path d="M78.937 45.866c-2.321 19.138-18.655 34.018-38.409 34.018-21.34 0-38.7-17.361-38.7-38.7 0-21.34 17.36-38.701 38.7-38.701 19.758 0 36.095 14.886 38.409 34.03h2.016c-2.325-20.249-19.562-36.03-40.425-36.03-22.442 0-40.7 18.258-40.7 40.701 0 22.442 18.258 40.7 40.7 40.7 20.859 0 38.093-15.775 40.424-36.018h-2.015" id="Fill-2" sketch:type="MSShapeGroup"/><path d="M80.471 45.852h111.029v2h-111.029v-2z" id="Fill-3" sketch:type="MSShapeGroup"/><path d="M247.392 34.516h-166.921v2h166.921c.847 0 1.537.689 1.537 1.537v6.262c0 .847-.69 1.537-1.537 1.537h-7.729v2h7.729c1.95 0 3.537-1.587 3.537-3.537v-6.262c0-1.95-1.587-3.537-3.537-3.537" id="Fill-4" sketch:type="MSShapeGroup"/></g></svg>