<svg width="50" height="47" viewBox="0 0 50 47" xmlns="http://www.w3.org/2000/svg" xmlns:sketch="http://www.bohemiancoding.com/sketch/ns"><title>star</title><path d="M49.163 17.54c-.367-1.11-1.341-1.92-2.515-2.089l-13.265-1.899-5.932-11.84c-.525-1.049-1.608-1.712-2.793-1.712s-2.268.663-2.793 1.712l-5.933 11.84-13.265 1.899c-1.173.169-2.148.979-2.515 2.089-.366 1.109-.06 2.328.788 3.144l9.599 9.217-2.266 13.015c-.201 1.15.28 2.315 1.239 3 .542.389 1.185.586 1.831.586.495 0 .995-.116 1.449-.352l11.866-6.144 11.865 6.144c.455.236.954.352 1.449.352.647 0 1.289-.197 1.832-.586.958-.685 1.44-1.85 1.238-3l-2.266-13.015 9.6-9.217c.847-.816 1.153-2.035.787-3.144" id="star" sketch:type="MSShapeGroup" fill="#E86035" fill-rule="evenodd"/></svg>