<svg width="55" height="60" viewBox="0 0 55 60" xmlns="http://www.w3.org/2000/svg" xmlns:sketch="http://www.bohemiancoding.com/sketch/ns"><title>support</title><desc>Created with Sketch.</desc><g sketch:type="MSLayerGroup" fill="none" fill-rule="evenodd"><path d="M10.576 3.784c1.777.295 4.718.565 6.284.665.623.039.864-.791.368-1.117-2.063-1.358.454-4.41 2.159-2.597l-.001.002c.571.608.696 1.51.287 2.125-.145.214-.361.381-.623.532-.536.309-.291 1.133.302 1.133 1.565 0 4.508-.07 6.301-.248.145 1.389.21 3.336.24 4.775-1.884-1.019-4.324.432-4.391 2.511-.07 2.139 2.322 3.667 4.224 2.787-.119 1.42-.301 3.322-.536 4.689-1.845-.323-4.69-.562-6.375-.665-.63-.039-.866.816-.348 1.127.271.165.498.351.635.585.648 1.075-.312 2.659-1.58 2.62-1.469-.047-2.517-2.338-.737-3.26.577-.295.315-1.156-.298-1.144-1.695.025-4.527.052-6.389.256-.152-1.384-.214-3.291-.24-4.72 1.84 1.006 4.332-.359 4.402-2.506.068-2.144-2.326-3.669-4.232-2.781.119-1.445.307-3.383.548-4.769zm31.346-.324c-.17 1.793-.232 4.747-.22 6.318.003.616.841.807 1.134.295h.002c.342-.604.692-.844 1.435-.874 1.186-.045 2.507 1.54 1.31 2.834-.568.613-1.459.802-2.102.438-.224-.129-.405-.332-.574-.585-.345-.513-1.15-.209-1.109.381.11 1.559.386 4.494.695 6.268-1.379.242-3.317.445-4.752.576.879-1.938-.714-4.285-2.813-4.204-2.14.083-3.492 2.572-2.481 4.41-1.427-.017-3.336-.067-4.717-.203.198-1.919.237-4.6.216-6.407-.015-.278-.195-.521-.477-.584l-.191-.012c-.208.02-.383.142-.481.329h-.002l-.02.039c-.298.56-.714.871-1.45.902-1.25.047-2.481-1.61-1.313-2.84.589-.615 1.468-.805 2.131-.409.513.303.585.96 1.15.921.351-.028.59-.342.562-.674-.143-1.69-.373-4.51-.707-6.356 1.371-.248 3.267-.443 4.692-.571-.874 1.907.662 4.299 2.809 4.215 2.144-.083 3.498-2.583 2.476-4.418 1.45.02 3.395.069 4.797.211z" fill="#DE6341" sketch:type="MSShapeGroup"/><path d="M10.753 23.805c2.106-.114 3.905 1.445 4.016 3.478.106 1.971-.5 6.265-2.898 6.396-2.397.131-4.627-4.01-4.733-5.979-.112-2.035 1.508-3.778 3.615-3.895zm6.965 35.97h-11.677c.195-3.411.376-6.679.242-10.101-.061-1.593-.181-3.255-.334-4.923-.572.938-1.104 1.93-1.572 3.058-.06 3.912-.302 5.204.198 8.976.36 2.745-3.243 3.227-3.604.479-.272-2.052-1.255-9.177-.638-10.698 1.323-3.257 3.021-6.481 4.9-9.494.098-.347.289-.674.552-.871.534-.401 3.188-1.108 4.048-1.331 1.206 1.573 2.107 2.962 3.127 5.699-.124-1.564-.414-2.967-.987-4.593l.697-.017c.552.963 1.337 2.807 1.679 3.894-.061-1.812-.387-3.708-.999-4.989 1.52.281 2.135.766 2.82 2.074 1.537 2.918 3.035 6.488 4.783 9.287 2.964 1.901 4.5 2.675 7.543 4.248 2.5 1.295 1.083 4.294-1.54 3.269-3.463-1.356-5.434-2.119-8.364-4.14-.473-.309-.824-.724-1.111-1.153-.225-.334-.409-.68-.579-.986.437 3.528.624 6.977.816 12.312zm24.982-35.964c-2.106-.114-3.905 1.445-4.016 3.48-.106 1.966.501 6.262 2.898 6.393 2.397.127 4.627-4.01 4.735-5.978.11-2.035-1.509-3.778-3.617-3.895zm4.715 35.964h-11.993c.117-3.67.129-10.881.586-16.369-1.222 1.167-2.526 2.3-3.901 3.401-.849.678-2.085.54-2.763-.31-1.613-2.018-1.298-9.843-1.466-12.651-.153-2.598 3.159-2.88 3.314-.232.155 2.562.606 5.382 1.022 7.941.397-.362.792-.73 1.184-1.106 1.095-1.052 2.273-2.11 3.312-3.246.353-.39.295-.52.442-.677.655-.687 1.685-1.027 2.885-1.508-.613 1.275-1.097 3.839-1.161 5.78.345-1.089 1.3-3.709 1.851-4.672l.698.017c-.574 1.62-1.018 3.844-1.046 5.637 1.022-2.739 2.227-5.281 3.436-6.854.858.219 3.319.88 3.85 1.277.349.262.379.483.494.744l.028.014c1.392 1.793 5.702 7.606 5.96 9.634.212 1.653-2.998 9.354-3.781 11.264-.644 1.569-2.156 1.658-2.99.9.011.259.024.682.039 1.016zm-.086-4.115c.019-3.634.261-7.102.175-10.903l.084-.832.622.684c.574.755 1.121 1.551 1.634 2.445-.82 3.33-1.346 5.602-2.515 8.606z" fill="#0E1729" sketch:type="MSShapeGroup"/></g></svg>