<svg width="54" height="52" viewBox="0 0 54 52" xmlns="http://www.w3.org/2000/svg" xmlns:sketch="http://www.bohemiancoding.com/sketch/ns"><title>tools</title><desc>Created with Sketch.</desc><g sketch:type="MSLayerGroup" stroke="#fff" fill="none" fill-rule="evenodd"><path d="M47.687 2.098c-.351 0-.712.118-1.005.359l.002-.001-5.072 4.123c-.352.278-.593.704-.619 1.173l-.005.115c-.003.428.171.846.482 1.149l.072.075-10.894 10.894 2.714 2.717 10.895-10.896.077.075c.297.305.711.478 1.134.478h.012l.095-.002.013-.002c.473-.022.902-.263 1.183-.619l4.122-5.071c.239-.294.357-.653.355-1.005 0-.424-.168-.843-.481-1.161l-.355.354-.354.352c.127.128.192.294.192.455-.002.136-.043.263-.132.374l-4.125 5.072c-.141.168-.263.232-.453.251l-.06.001c-.181-.003-.303-.052-.44-.184l-.43-.429-.354-.352-10.894 10.894-1.299-1.301 10.894-10.895-.781-.781-.002-.004c-.132-.135-.183-.258-.186-.439l.002-.04.001-.006c.016-.201.081-.321.25-.466l5.073-4.123.003-.003c.107-.087.233-.129.37-.13.162 0 .327.063.456.19l1.915 1.916.354-.352.354-.354-1.917-1.918c-.319-.316-.738-.483-1.162-.483" sketch:type="MSShapeGroup"/><path d="M13.022 33.422c.261-.066.526-.122.791-.16l.627-.092-.236-.589c-.077-.194-.123-.394-.136-.589l-.001-.007-.003-.122c0-.438.154-.841.464-1.154l2.411-2.411c.31-.311.711-.462 1.152-.463l.128.005c.054.003.11.01.166.018l7.105 7.104c.008.05.014.1.019.15l.004.139c-.001.44-.153.847-.463 1.158l-2.412 2.412c-.313.31-.716.463-1.156.465l-.126-.005c-.195-.014-.397-.06-.59-.136l-.591-.235-.088.629c-.039.263-.093.527-.161.784-.276 1.043-.807 2.021-1.384 2.596l-5.921 5.921c-.708.703-1.641 1.051-2.638 1.053-.1 0-.2-.004-.3-.01-1.063-.076-2.165-.549-3.029-1.416l-1.773-1.772c-.865-.866-1.341-1.966-1.415-3.031v-.005c-.007-.097-.012-.194-.012-.294.002-.999.351-1.932 1.055-2.637l5.92-5.921c.575-.578 1.553-1.108 2.596-1.385h-.003m5.062-6.587c-.673 0-1.348.247-1.853.757l-2.412 2.41c-.508.508-.757 1.185-.755 1.861l.007.195h-.001c.007.106.02.211.04.316-.114.025-.227.052-.339.081h-.004c-1.191.323-2.295.901-3.044 1.645l-5.923 5.921c-.905.905-1.346 2.112-1.345 3.344 0 .121.004.244.013.372v-.003c.092 1.311.672 2.632 1.707 3.669l1.77 1.77c1.037 1.037 2.361 1.613 3.67 1.707.123.008.246.013.368.013 1.231.002 2.438-.44 3.344-1.347l5.921-5.921c.745-.749 1.322-1.852 1.645-3.043.03-.114.057-.228.082-.343.103.018.207.032.31.04l.197.006h.007c.674 0 1.348-.249 1.855-.756l2.414-2.414c.511-.509.757-1.189.756-1.864l-.005-.177-.002-.013v-.005c-.011-.149-.033-.3-.067-.449l-.031-.141-.102-.104-.354.355-.489.109.489-.109.354-.355-7.426-7.423-.143-.031c-.144-.032-.295-.056-.45-.066l-.197-.007h-.007" sketch:type="MSShapeGroup"/><path d="M11.682 1.127c-2.688.004-4.784 1.054-4.824 1.071l-.084.042-.061.068c-.29.317-.474.695-.548 1.083-.028.13-.041.265-.041.401 0 .299.066.6.201.88l-.002-.003c.173.363.464.681.85.886l5.287 2.817c.019.039.05.113.075.201.055.192.084.424.084.639 0 .144-.015.282-.035.398v-.005c-.106.548-.288 1.104-.54 1.599-.219.43-.486.804-.789 1.085-.36.335-.81.697-1.188.874-.135.069-.254.099-.299.104l-5.214-3.236c-.299-.186-.63-.278-.957-.278h-.008c-.174 0-.349.024-.518.071h.002c-.281.08-.541.22-.767.404l-.003.003c-.192.16-.364.356-.504.58-.227.365-.369.806-.369 1.284 0 .203.025.416.086.63h-.001c.609 2.198 1.844 4.611 3.888 6.339 1.614 1.364 3.732 2.278 6.344 2.278h.007l.123-.001h.188-.003c.246-.005.476-.01.703-.016h-.005c.338-.008.652-.014.946-.014h.04c.627 0 1.152.037 1.589.155.448.123.811.315 1.169.672l14.878 14.874c.686.689 1.074 1.313 1.3 1.909.185.483.272.971.311 1.476l-.001.139v.006c0 .254.014.5.046.734.066 1.263.209 2.562.569 3.774.438 1.476 1.206 2.832 2.532 3.766 1.457 1.024 3.126 1.629 4.852 1.894.707.108 1.423.159 2.139.159 1.181 0 2.363-.138 3.502-.39.547-.121.992-.396 1.306-.742.29-.316.473-.694.549-1.08.026-.136.039-.271.039-.405 0-.3-.066-.6-.198-.875l-.001-.003c-.173-.36-.462-.679-.85-.883l-5.286-2.815c-.018-.038-.05-.114-.076-.205-.055-.19-.086-.422-.086-.635 0-.147.015-.284.037-.389v-.005c.108-.549.288-1.104.54-1.601.219-.429.487-.802.789-1.082.362-.336.812-.7 1.188-.878.135-.068.255-.098.299-.103l5.215 3.236c.3.187.636.279.964.279.176 0 .348-.027.513-.071l1.268-.343-.363-.182c.142-.136.266-.291.372-.461l.001-.002c.226-.363.367-.806.367-1.283.001-.208-.027-.419-.084-.63v-.002l-.482.134-.483.13c0 .001.001.002.001.003l-.001-.003c.034.126.05.248.05.368 0 .275-.084.542-.218.758v-.003c-.084.135-.185.251-.293.339-.12.099-.257.172-.397.212-.091.025-.173.036-.251.036-.148-.002-.287-.036-.436-.129l-5.25-3.255c-.155-.098-.332-.132-.479-.132-.283.005-.516.096-.745.202-.544.264-1.037.68-1.436 1.045-.411.383-.738.853-.999 1.362-.302.594-.508 1.234-.631 1.865-.039.186-.054.383-.054.585 0 .3.038.615.125.917.042.137.088.268.154.395.07.124.146.259.343.375l.005.003 5.351 2.848c.196.106.326.25.416.433.067.138.1.292.1.445l-.019.213c-.042.208-.141.418-.306.599-.181.197-.436.36-.785.44-1.072.236-2.183.365-3.285.365-.67 0-1.336-.048-1.988-.146-1.598-.246-3.115-.802-4.427-1.725-1.094-.773-1.749-1.894-2.15-3.232-.328-1.102-.468-2.339-.532-3.57v-.024l-.003-.019c-.025-.187-.039-.389-.039-.606l.003-.157v-.024l-.001-.019c-.044-.58-.145-1.177-.375-1.782-.28-.738-.759-1.489-1.53-2.259l-14.875-14.876c-.478-.48-1.031-.775-1.618-.931-.592-.157-1.211-.189-1.889-.189-.309 0-.631.008-.968.015h-.005c-.216.007-.443.011-.692.015h-.003l-.156.002h-.128c-2.382-.003-4.244-.813-5.706-2.043-1.843-1.55-3.005-3.794-3.567-5.839l-.002-.004c-.035-.121-.049-.24-.049-.361 0-.275.084-.541.218-.756.081-.13.185-.249.296-.34l-.002.004c.125-.104.263-.177.402-.216h.002l.243-.035c.148.001.289.038.439.13l5.247 3.255-.002-.002c.159.1.33.132.481.132.282-.005.515-.093.745-.202.544-.261 1.038-.676 1.437-1.044.41-.381.737-.851.999-1.363.301-.592.508-1.232.63-1.86l.002-.005c.033-.18.051-.377.051-.581 0-.3-.037-.613-.123-.917-.041-.138-.087-.268-.154-.395-.069-.123-.145-.262-.35-.377l.001-.001-5.349-2.85c-.199-.106-.329-.251-.416-.433l-.003-.003c-.066-.139-.099-.286-.099-.444l.021-.209c.034-.182.117-.368.246-.531.405-.185 2.179-.925 4.278-.925h.012c.58 0 1.185.055 1.794.19 1.621.361 3.166.818 4.46 1.731 1.093.773 1.749 1.896 2.151 3.234.328 1.101.468 2.338.53 3.57l.001.017.003.024c.026.186.038.389.038.604l-.001.158-.001.027.001.018c.041.579.144 1.178.376 1.783.281.735.759 1.488 1.531 2.258l14.875 14.874c.475.48 1.025.773 1.612.929.588.157 1.207.191 1.885.191.31 0 .634-.007.975-.015.218-.004.442-.009.688-.014h.006l.179-.002h.012l.101-.001c2.383.003 4.241.814 5.704 2.043 1.844 1.551 3.004 3.792 3.568 5.837l.483-.13.482-.134c-.609-2.195-1.842-4.611-3.889-6.336-1.61-1.362-3.724-2.279-6.334-2.279h-.14700000000000002l-.17.003h-.011c-.25.003-.476.008-.694.013-.34.008-.658.014-.953.014h-.039c-.628 0-1.151-.037-1.587-.155-.446-.123-.806-.315-1.164-.67l-14.875-14.875c-.69-.69-1.076-1.313-1.304-1.909-.186-.489-.274-.978-.311-1.487l.003-.124v-.01c0-.253-.015-.498-.046-.732-.066-1.263-.207-2.563-.568-3.775-.441-1.475-1.209-2.831-2.533-3.765-1.475-1.038-3.161-1.52-4.819-1.89-.691-.153-1.367-.215-2.012-.215" sketch:type="MSShapeGroup"/></g></svg>