<svg width="61" height="61" viewBox="0 0 61 61" xmlns="http://www.w3.org/2000/svg" xmlns:sketch="http://www.bohemiancoding.com/sketch/ns"><title>vk</title><g id="vk" transform="translate(0 0)" sketch:type="MSShapeGroup" fill="#4D83B6" fill-rule="evenodd"><path d="M32.887 32.59c-.463-.183-1.1-.28-1.911-.3-.808-.021-1.895-.029-3.252-.029h-1.409v7.612h.41c1.988 0 3.36-.014 4.122-.043.757-.027 1.541-.208 2.326-.549.696-.302 1.197-.74 1.52-1.318.32-.578.478-1.234.478-1.967 0-.939-.187-1.672-.568-2.202-.384-.537-.958-.934-1.716-1.204" id="Fill-13"/><path d="M30.023 27.014c.522-.027 1.069-.167 1.624-.425.604-.286 1.032-.683 1.258-1.184.232-.509.352-1.095.352-1.757 0-.494-.125-.997-.378-1.512-.248-.516-.637-.892-1.178-1.122-.5-.224-1.092-.343-1.783-.363-.689-.021-1.713-.029-3.074-.029h-.529v6.433h.959c1.303 0 2.225-.013 2.749-.041" id="Fill-14"/><path d="M57.385 17.603c-3.026-6.572-8.358-11.86-14.963-14.837-3.766-1.698-7.941-2.65-12.341-2.65-4.4 0-8.575.952-12.341 2.65-6.483 2.921-11.743 8.066-14.797 14.468-1.861 3.904-2.906 8.271-2.906 12.882 0 4.611 1.045 8.979 2.906 12.882 2.963 6.212 8.001 11.246 14.22 14.208 3.914 1.864 8.293 2.91 12.918 2.91s9.004-1.046 12.917-2.91c6.342-3.019 11.449-8.196 14.387-14.577 1.754-3.809 2.739-8.045 2.739-12.513s-.985-8.703-2.739-12.513zm-15.209 22.522c-.572 1.142-1.336 2.081-2.308 2.835-1.139.897-2.394 1.532-3.769 1.915-1.368.383-3.101.573-5.214.573h-12.166v-30.4h10.74c2.231 0 3.922.083 5.072.259 1.151.165 2.232.521 3.234 1.065 1.089.585 1.904 1.373 2.439 2.348.536.982.81 2.111.81 3.395 0 1.484-.372 2.801-1.117 3.959-.738 1.157-1.761 2.007-3.063 2.556v.161c1.873.397 3.377 1.199 4.503 2.418 1.132 1.222 1.698 2.864 1.698 4.928 0 1.513-.287 2.842-.859 3.988z" id="Fill-15"/></g></svg>