<svg width="61" height="61" viewBox="0 0 61 61" xmlns="http://www.w3.org/2000/svg" xmlns:sketch="http://www.bohemiancoding.com/sketch/ns"><title>youtube</title><g id="youtube" sketch:type="MSShapeGroup" fill="#CD3A28" fill-rule="evenodd"><path d="M28.732 42.867c-.167.192-.344.349-.542.474-.197.125-.361.187-.489.187-.163 0-.282-.045-.358-.141-.072-.093-.109-.244-.109-.455v-6.809h-1.747v7.421c0 .531.104.924.306 1.19.208.267.508.396.913.396.33 0 .668-.092 1.017-.283.35-.187.684-.461 1.008-.823v.977h1.748v-8.878h-1.747v6.744" id="Fill-2"/><path d="M30.222 23.924c.267 0 .476-.075.636-.224.157-.151.235-.357.235-.618v-5.327c0-.214-.08-.386-.241-.519-.162-.13-.371-.195-.63-.195-.241 0-.435.065-.586.195-.149.133-.225.305-.225.519v5.327c0 .268.072.474.211.622.14.148.34.22.6.22" id="Fill-3"/><path d="M35.115 36.015c-.271 0-.539.07-.806.211-.262.139-.512.347-.748.616v-3.874h-1.768v12.033h1.768v-.681c.226.272.48.472.746.601.267.129.57.192.914.192.517 0 .916-.165 1.187-.502.276-.335.412-.817.412-1.444v-4.927c0-.726-.144-1.281-.439-1.659-.289-.377-.711-.566-1.266-.566zm-.095 6.906c0 .286-.053.487-.153.611-.099.128-.256.191-.47.191-.149 0-.288-.035-.422-.097-.135-.061-.274-.17-.414-.314v-5.53c.119-.123.238-.214.359-.271.123-.06.246-.087.371-.087.234 0 .418.078.545.231.123.155.184.383.184.683v4.583z" id="Fill-4"/><path d="M18.673 32.968v1.747h2.037v10.286h1.971v-10.286h2.038l-.001-1.747h-6.045" id="Fill-5"/><path d="M30.777.116c-16.592 0-30.044 13.432-30.044 30 0 16.569 13.452 30 30.044 30s30.043-13.431 30.043-30c0-16.568-13.451-30-30.043-30zm3.918 15.477h1.965v7.496c0 .232.045.399.127.503.08.103.215.156.4.156.143 0 .327-.07.549-.206.219-.138.424-.313.606-.527v-7.422h1.969v9.778h-1.969v-1.08c-.36.397-.736.703-1.131.91-.393.208-.774.312-1.143.312-.457 0-.797-.147-1.029-.437-.229-.292-.344-.728-.344-1.311v-8.172zm-7.309 2.237c0-.76.263-1.363.795-1.811.53-.448 1.244-.673 2.135-.673.814 0 1.483.237 2.004.71.518.473.78 1.083.78 1.828v5.052c0 .836-.256 1.491-.764 1.967-.514.476-1.214.715-2.109.715-.859 0-1.549-.247-2.068-.736-.513-.492-.773-1.154-.773-1.984v-5.068zm-5.36-5.714l1.44 5.299h.138l1.37-5.299h2.253l-2.579 7.756v5.499h-2.215v-5.251l-2.638-8.004h2.231zm22.279 35.539c-1.436 1.43-13.533 1.461-13.533 1.461s-12.097-.031-13.536-1.461c-1.438-1.434-1.442-8.502-1.442-8.556 0-.04.004-7.12 1.442-8.554 1.44-1.432 13.536-1.451 13.536-1.45 0-.001 12.097.018 13.533 1.45 1.441 1.434 1.457 8.513 1.457 8.554 0 0-.012 7.117-1.457 8.556z" id="Fill-6"/><path d="M40.393 35.903c-.786 0-1.42.241-1.914.726-.495.484-.743 1.115-.743 1.882v3.987c0 .855.227 1.526.676 2.013.449.49 1.066.731 1.85.731.871 0 1.525-.227 1.961-.685.441-.463.658-1.149.658-2.059v-.456h-1.799v.405c0 .522-.061.859-.174 1.012-.115.153-.318.23-.607.23-.279 0-.475-.089-.592-.269-.113-.182-.172-.505-.172-.973v-1.673h3.344v-2.263c0-.842-.213-1.487-.643-1.935-.429-.449-1.045-.673-1.845-.673zm.691 3.49h-1.545v-.897c0-.371.059-.64.18-.795.121-.166.322-.245.599-.245.266 0 .463.079.58.245.122.155.186.424.186.795v.897z" id="Fill-7"/></g></svg>