<svg width="39" height="53" viewBox="0 0 39 53" xmlns="http://www.w3.org/2000/svg" xmlns:sketch="http://www.bohemiancoding.com/sketch/ns"><title>calc</title><desc>Created with Sketch.</desc><path d="M31.704 6.166h-24.373c-1.462.002-2.655 1.19-2.658 2.653v5.022c.002 1.466 1.2 2.64 2.658 2.64h24.373c1.457 0 2.654-1.174 2.655-2.64h-1c-.002.905-.745 1.64-1.655 1.642h-24.373c-.911-.002-1.656-.739-1.658-1.642v-5.022c0-.453.186-.864.487-1.166.303-.301.717-.487 1.171-.487h24.373c.454 0 .865.186 1.168.487.302.302.487.713.487 1.166v5.022h1v-5.022c-.001-1.463-1.192-2.651-2.655-2.653m-.023 13.204h-3.261c-1.458 0-2.653 1.178-2.655 2.644v3.049c.004 1.463 1.192 2.653 2.655 2.655h3.261c1.467-.002 2.643-1.197 2.645-2.655h-1.001c-.002.909-.738 1.653-1.644 1.655h-3.261c-.453 0-.865-.186-1.168-.488-.301-.303-.487-.714-.487-1.167v-3.049c.002-.905.747-1.644 1.655-1.645h3.261c.91.001 1.644.735 1.644 1.645v3.049h1.001v-3.049c-.004-1.461-1.183-2.642-2.645-2.644m-10.526 0h-3.261c-1.459 0-2.656 1.178-2.657 2.644v3.049c.003 1.463 1.195 2.653 2.657 2.655h3.261c1.466-.002 2.642-1.197 2.644-2.655h-1c-.002.909-.739 1.653-1.644 1.655h-3.261c-.454 0-.865-.186-1.169-.488-.303-.303-.488-.714-.488-1.167v-3.049c.002-.905.748-1.644 1.657-1.645h3.261c.908.001 1.644.735 1.644 1.645v3.049h1v-3.049c-.004-1.461-1.182-2.644-2.644-2.644m-10.564 0h-3.26c-1.458 0-2.656 1.178-2.658 2.644v3.049c.003 1.463 1.196 2.653 2.658 2.655h3.26c1.465-.002 2.642-1.197 2.644-2.655h-1c-.002.908-.74 1.653-1.644 1.655h-3.26c-.453 0-.866-.186-1.169-.488-.303-.303-.489-.714-.489-1.167v-3.049c.002-.903.749-1.644 1.658-1.645h3.26c.908.001 1.642.737 1.644 1.645v3.049h1v-3.049c0-1.461-1.184-2.644-2.644-2.644m21.09 10.524h-3.261c-1.458.001-2.653 1.177-2.655 2.643v3.049c.002 1.463 1.192 2.655 2.655 2.657h3.261c1.467-.002 2.643-1.199 2.645-2.657h-1.001c-.002.912-.738 1.655-1.644 1.657h-3.261c-.453 0-.865-.186-1.168-.487-.301-.304-.487-.715-.487-1.17v-3.049c.002-.904.745-1.642 1.655-1.643h3.261c.91 0 1.644.734 1.644 1.643v3.049h1.001v-3.049c-.004-1.459-1.183-2.64-2.645-2.643m-10.526 0h-3.261c-1.459.001-2.656 1.177-2.657 2.643v3.049c.003 1.465 1.195 2.655 2.657 2.657h3.261c1.466-.002 2.642-1.197 2.644-2.657h-1c-.002.91-.739 1.655-1.644 1.657h-3.261c-.454 0-.865-.186-1.169-.487-.303-.304-.488-.717-.488-1.17v-3.049c.002-.903.748-1.642 1.657-1.643h3.261c.91 0 1.644.734 1.644 1.643v3.049h1v-3.049c-.004-1.461-1.182-2.64-2.644-2.643m-10.564 0h-3.26c-1.458.001-2.656 1.177-2.658 2.643v3.049c.003 1.465 1.196 2.655 2.658 2.657h3.26c1.465-.002 2.644-1.197 2.644-2.657h-1c-.002.91-.74 1.655-1.644 1.657h-3.26c-.453 0-.866-.186-1.169-.487-.303-.304-.489-.717-.489-1.17v-3.049c.002-.903.749-1.642 1.658-1.643h3.26c.908.001 1.642.735 1.644 1.643v3.049h1v-3.049c0-1.461-1.184-2.643-2.644-2.643m21.09 10.317h-3.261c-1.458 0-2.653 1.179-2.655 2.643v3.049c.002 1.463 1.194 2.653 2.655 2.655h3.261c1.467-.002 2.643-1.197 2.645-2.655h-1.001c-.002.91-.738 1.654-1.644 1.655h-3.261c-.453 0-.865-.185-1.168-.487-.301-.303-.487-.715-.487-1.168v-3.049c.002-.903.747-1.642 1.655-1.643h3.261c.91.001 1.644.735 1.644 1.643v3.049h1.001v-3.049c-.004-1.459-1.183-2.643-2.645-2.643m-10.526 0h-3.261c-1.459 0-2.656 1.179-2.657 2.643v3.049c.003 1.463 1.195 2.652 2.657 2.655h3.261c1.465-.002 2.642-1.197 2.644-2.655h-1c-.002.91-.739 1.654-1.644 1.655h-3.261c-.454 0-.865-.185-1.169-.487-.303-.303-.488-.715-.488-1.168v-3.049c.002-.903.748-1.642 1.657-1.643h3.261c.908.001 1.642.735 1.644 1.643v3.049h1v-3.049c0-1.459-1.182-2.643-2.644-2.643m-10.564 0h-3.26c-1.458 0-2.656 1.177-2.658 2.643v3.049c.003 1.463 1.196 2.652 2.658 2.655h3.26c1.465-.002 2.642-1.197 2.644-2.655h-1c-.002.908-.74 1.654-1.644 1.655h-3.26c-.453 0-.866-.185-1.171-.487-.301-.303-.487-.715-.487-1.168v-3.049c.002-.903.749-1.642 1.658-1.643h3.26c.907.001 1.642.735 1.644 1.643v3.049h1v-3.049c0-1.459-1.184-2.643-2.644-2.643m-6.934 11.08c-.923-.002-1.656-.746-1.656-1.656v-45.977c0-.912.735-1.657 1.656-1.658h31.722c.455 0 .866.185 1.167.487.303.303.488.716.489 1.171v45.977c-.001.454-.186.865-.489 1.169-.301.301-.712.487-1.167.487h-31.722m31.722-50.291h-31.722c-1.478.001-2.654 1.198-2.657 2.658v45.977c.003 1.459 1.181 2.656 2.657 2.656h31.722c1.463-.004 2.653-1.192 2.654-2.656v-45.977c-.001-1.463-1.19-2.655-2.654-2.658" sketch:type="MSShapeGroup" stroke="#fff" fill="none" fill-rule="evenodd"/></svg>