<svg width="22" height="29" viewBox="0 0 22 29" xmlns="http://www.w3.org/2000/svg" xmlns:sketch="http://www.bohemiancoding.com/sketch/ns"><title>intership</title><desc>Created with Sketch.</desc><path d="M20.508 15.122c-1.449 1.786-6.315.24-10.868-3.455-4.553-3.694-7.068-8.137-5.618-9.924 1.449-1.787 6.316-.24 10.869 3.454 4.552 3.694 7.067 8.138 5.617 9.925zm-16.629-13.188c-2.337 2.504-3.429 6.084-2.607 9.672 1.316 5.742 7.038 9.33 12.78 8.014 2.818-.646 5.114-2.352 6.569-4.6m-14.648-7l11.133-6.213-3.012 12.76m.848 11.441c0 .852-.691 1.543-1.543 1.543h-9.207c-.853 0-1.544-.691-1.544-1.543 0-.853.691-1.545 1.544-1.545h9.207c.852 0 1.543.692 1.543 1.545zm-6.223-6.564v5.019-5.019zm8.387-17.637l-7.466 9.86 7.466-9.86z" sketch:type="MSShapeGroup" stroke="#FFFDFD" fill="none" fill-rule="evenodd"/></svg>