<?xml version="1.0" encoding="UTF-8" standalone="no"?>
<svg width="44px" height="77px" viewBox="0 0 44 77" version="1.1" xmlns="http://www.w3.org/2000/svg" xmlns:xlink="http://www.w3.org/1999/xlink" xmlns:sketch="http://www.bohemiancoding.com/sketch/ns">
    <!-- Generator: Sketch 3.0.4 (8053) - http://www.bohemiancoding.com/sketch -->
    <title>0</title>
    <desc>Created with Sketch.</desc>
    <defs></defs>
    <g id="Page-1" stroke="none" stroke-width="1" fill="none" fill-rule="evenodd" sketch:type="MSPage">
        <g id="Imported-Layers" sketch:type="MSLayerGroup" transform="translate(-511.000000, -59.000000)">
            <g id="0" transform="translate(511.000000, 59.000000)" sketch:type="MSShapeGroup">
                <path d="M0,0 L44,0 L44,77 L0,77 L0,0 Z" id="Fill-6" fill="#FFFFFF"></path>
                <path d="M8.139,27.979 C8.139,25.693 8.45150853,23.549 9.07751453,21.542 C9.70450948,19.537 10.643024,17.785 11.895036,16.287 C13.147048,14.79 14.662121,13.609 16.4402549,12.745 C18.2183889,11.882 20.2852965,11.45 22.639,11.45 C24.9422669,11.45 26.9963182,11.882 28.799176,12.745 C30.6030226,13.609 32.1042503,14.79 33.3068148,16.287 C34.5083903,17.785 35.4350374,19.537 36.0867561,21.542 C36.7384748,23.549 37.0638397,25.693 37.0638397,27.979 L37.0638397,30.873 C37.0638397,31.89 37.0747182,33.185 37.1014199,34.758 C37.1261436,36.332 37.139,38.312 37.139,40.698 L37.139,49.687 C37.0885635,51.972 36.7503422,54.104 36.1253252,56.085 C35.4983302,58.064 34.5706942,59.805 33.3443949,61.302 C32.1171067,62.801 30.6030226,63.981 28.799176,64.844 C26.9963182,65.707 24.9422669,66.139 22.639,66.139 C20.2852965,66.139 18.2183889,65.707 16.4402549,64.844 C14.662121,63.981 13.147048,62.801 11.895036,61.302 C10.643024,59.805 9.70450948,58.053 9.07751453,56.047 C8.45150853,54.041 8.139,51.896 8.139,49.61 L8.139,27.979 L8.139,27.979 Z M34.0505059,27.979 C34.0000694,23.917 33.0308974,20.718 31.141012,18.382 C29.2511266,16.046 26.4434946,14.878 22.7141603,14.878 C18.9848259,14.878 16.1396138,16.046 14.1735792,18.382 C12.2085335,20.718 11.2274941,23.917 11.2274941,27.979 L11.2274941,49.61 C11.2274941,53.724 12.2085335,56.935 14.1735792,59.245 C16.1396138,61.557 18.9848259,62.711 22.7141603,62.711 C26.4434946,62.711 29.2511266,61.568 31.141012,59.283 C33.0308974,56.998 34.0000694,53.8 34.0505059,49.687 L34.0505059,27.979 L34.0505059,27.979 Z" id="Fill-21" fill="#1A5284"></path>
            </g>
        </g>
    </g>
</svg>