<?xml version="1.0" encoding="UTF-8" standalone="no"?>
<svg width="44px" height="77px" viewBox="0 0 44 77" version="1.1" xmlns="http://www.w3.org/2000/svg" xmlns:xlink="http://www.w3.org/1999/xlink" xmlns:sketch="http://www.bohemiancoding.com/sketch/ns">
    <!-- Generator: Sketch 3.0.4 (8053) - http://www.bohemiancoding.com/sketch -->
    <title>1</title>
    <desc>Created with Sketch.</desc>
    <defs></defs>
    <g id="Page-1" stroke="none" stroke-width="1" fill="none" fill-rule="evenodd" sketch:type="MSPage">
        <g id="Imported-Layers" sketch:type="MSLayerGroup" transform="translate(-37.000000, -59.000000)">
            <g id="1" transform="translate(37.000000, 59.000000)" sketch:type="MSShapeGroup">
                <path d="M0,0 L44,0 L44,77 L0,77 L0,0 Z" id="Fill-2" fill="#FFFFFF"></path>
                <path d="M13.603,33.996 C13.044,33.691 12.689,33.437 12.537,33.234 C12.384,33.032 12.054,32.752 11.546,32.396 C11.394,32.244 11.368,32.066 11.47,31.863 L22.972,11.831 C23.073,11.729 23.174,11.679 23.276,11.679 L26.178,11.679 C26.376,11.679 26.476,11.806 26.476,12.06 L26.476,65.072 C26.476,65.327 26.376,65.453 26.178,65.453 L23.65,65.453 C23.451,65.453 23.353,65.327 23.353,65.072 L23.353,18.001 C22.743,19.017 22.044,20.209 21.258,21.58 C20.47,22.951 19.658,24.374 18.821,25.846 C17.983,27.319 17.145,28.753 16.307,30.149 C15.469,31.547 14.719,32.804 14.06,33.92 L13.603,33.996" id="Fill-12" fill="#1A5284"></path>
            </g>
        </g>
    </g>
</svg>