<?xml version="1.0" encoding="UTF-8" standalone="no"?>
<svg width="45px" height="77px" viewBox="0 0 45 77" version="1.1" xmlns="http://www.w3.org/2000/svg" xmlns:xlink="http://www.w3.org/1999/xlink" xmlns:sketch="http://www.bohemiancoding.com/sketch/ns">
    <!-- Generator: Sketch 3.0.4 (8053) - http://www.bohemiancoding.com/sketch -->
    <title>2</title>
    <desc>Created with Sketch.</desc>
    <defs></defs>
    <g id="Page-1" stroke="none" stroke-width="1" fill="none" fill-rule="evenodd" sketch:type="MSPage">
        <g id="Imported-Layers" sketch:type="MSLayerGroup" transform="translate(-89.000000, -59.000000)">
            <g id="2" transform="translate(90.000000, 59.000000)" sketch:type="MSShapeGroup">
                <path d="M-0.006,0 L43.994,0 L43.994,77 L-0.006,77 L-0.006,0 Z" id="Fill-2" fill="#FFFFFF"></path>
                <path d="M8.363,65.453 C8.007,65.453 7.779,65.199 7.678,64.691 L7.525,63.396 L7.525,63.016 C7.525,62.863 7.575,62.737 7.678,62.635 L30.147,37.195 C31.061,36.078 31.924,34.758 32.737,33.234 C33.548,31.711 33.956,29.959 33.956,27.979 C33.904,23.917 32.914,20.756 30.985,18.496 C29.055,16.236 26.236,15.106 22.53,15.106 C19.179,15.106 16.513,16.008 14.533,17.81 C12.552,19.613 11.41,22.266 11.105,25.769 C11.003,26.329 10.774,26.607 10.419,26.607 L8.591,26.607 C8.032,26.607 7.804,26.278 7.906,25.617 C8.108,23.637 8.565,21.784 9.277,20.057 C9.987,18.331 10.953,16.833 12.171,15.563 C13.39,14.295 14.862,13.291 16.589,12.555 C18.315,11.819 20.27,11.45 22.454,11.45 C24.789,11.45 26.872,11.882 28.7,12.745 C30.528,13.609 32.051,14.79 33.27,16.287 C34.489,17.785 35.428,19.537 36.088,21.542 C36.748,23.549 37.078,25.693 37.078,27.979 C37.078,30.01 36.812,31.813 36.278,33.387 C35.745,34.961 34.971,36.256 33.956,37.271 L11.791,62.33 L35.783,62.33 C36.24,62.33 36.469,62.635 36.469,63.244 L36.469,64.539 C36.469,65.148 36.24,65.453 35.783,65.453 L8.363,65.453" id="Fill-13" fill="#1A5284"></path>
            </g>
        </g>
    </g>
</svg>