<?xml version="1.0" encoding="UTF-8" standalone="no"?>
<svg width="44px" height="77px" viewBox="0 0 44 77" version="1.1" xmlns="http://www.w3.org/2000/svg" xmlns:xlink="http://www.w3.org/1999/xlink" xmlns:sketch="http://www.bohemiancoding.com/sketch/ns">
    <!-- Generator: Sketch 3.0.4 (8053) - http://www.bohemiancoding.com/sketch -->
    <title>3</title>
    <desc>Created with Sketch.</desc>
    <defs></defs>
    <g id="Page-1" stroke="none" stroke-width="1" fill="none" fill-rule="evenodd" sketch:type="MSPage">
        <g id="Imported-Layers" sketch:type="MSLayerGroup" transform="translate(-142.000000, -59.000000)">
            <g id="3" transform="translate(142.000000, 59.000000)" sketch:type="MSShapeGroup">
                <path d="M0,0 L44,0 L44,77 L0,77 L0,0 Z" id="Fill-3" fill="#FFFFFF"></path>
                <path d="M12.127,37.119 C12.127,36.51 12.38,36.205 12.888,36.205 L22.866,36.205 C25.761,35.748 28.096,34.479 29.874,32.396 C31.65,30.314 32.565,27.801 32.616,24.856 C32.616,21.454 31.549,19.042 29.417,17.62 C27.284,16.198 24.491,15.487 21.038,15.487 L9.613,15.487 C9.156,15.487 8.928,15.209 8.928,14.649 L8.928,13.05 C8.928,12.44 9.156,12.136 9.613,12.136 L21.114,12.136 C26.039,12.136 29.721,13.267 32.159,15.525 C34.596,17.785 35.815,20.87 35.815,24.779 C35.815,27.42 35.116,29.959 33.72,32.396 C32.323,34.834 30.254,36.662 27.513,37.88 C28.781,38.337 29.936,38.998 30.978,39.86 C32.018,40.725 32.907,41.74 33.644,42.907 C34.379,44.076 34.951,45.357 35.358,46.754 C35.764,48.151 35.967,49.585 35.967,51.058 C35.967,53.14 35.631,55.057 34.961,56.808 C34.29,58.56 33.313,60.083 32.029,61.378 C30.744,62.673 29.175,63.677 27.322,64.387 C25.468,65.099 23.373,65.453 21.038,65.453 L8.852,65.453 C8.395,65.453 8.166,65.148 8.166,64.539 L8.166,62.939 C8.166,62.382 8.395,62.102 8.852,62.102 L20.962,62.178 C24.618,62.178 27.461,61.187 29.493,59.207 C31.523,57.227 32.54,54.536 32.54,51.134 C32.488,49.713 32.197,48.29 31.664,46.868 C31.13,45.447 30.419,44.178 29.531,43.06 C28.642,41.943 27.589,41.041 26.37,40.356 C25.151,39.67 23.856,39.327 22.485,39.327 L12.888,39.327 C12.38,39.327 12.127,39.023 12.127,38.413 L12.127,37.119" id="Fill-14" fill="#1A5284"></path>
            </g>
        </g>
    </g>
</svg>