<?xml version="1.0" encoding="UTF-8" standalone="no"?>
<svg width="45px" height="77px" viewBox="0 0 45 77" version="1.1" xmlns="http://www.w3.org/2000/svg" xmlns:xlink="http://www.w3.org/1999/xlink" xmlns:sketch="http://www.bohemiancoding.com/sketch/ns">
    <!-- Generator: Sketch 3.0.4 (8053) - http://www.bohemiancoding.com/sketch -->
    <title>4</title>
    <desc>Created with Sketch.</desc>
    <defs></defs>
    <g id="Page-1" stroke="none" stroke-width="1" fill="none" fill-rule="evenodd" sketch:type="MSPage">
        <g id="Imported-Layers" sketch:type="MSLayerGroup" transform="translate(-194.000000, -59.000000)">
            <g id="4" transform="translate(195.000000, 59.000000)" sketch:type="MSShapeGroup">
                <path d="M-0.006,0 L43.994,0 L43.994,77 L-0.006,77 L-0.006,0 Z" id="Fill-3" fill="#FFFFFF"></path>
                <path d="M5.859,48.163 L29.09,11.374 C29.141,11.273 29.205,11.222 29.281,11.222 C29.357,11.222 29.445,11.196 29.547,11.145 C29.648,11.145 29.725,11.12 29.776,11.069 L32.983,10.993 C33.231,10.993 33.356,11.12 33.356,11.374 L33.356,47.706 L40.439,47.706 C40.693,47.706 40.82,47.833 40.82,48.087 L40.82,50.22 C40.82,50.475 40.693,50.601 40.439,50.601 L33.356,50.601 L33.356,65.072 C33.356,65.327 33.231,65.453 32.983,65.453 L30.301,65.453 C30.052,65.453 29.928,65.327 29.928,65.072 L29.928,50.601 L6.24,50.601 C5.985,50.601 5.859,50.475 5.859,50.22 L5.859,48.163 L5.859,48.163 Z M29.928,47.706 L29.928,15.64 C26.475,21.175 23.136,26.519 19.912,31.673 C16.687,36.827 13.349,42.172 9.896,47.706 L29.928,47.706 L29.928,47.706 Z" id="Fill-15" fill="#1A5284"></path>
            </g>
        </g>
    </g>
</svg>