<?xml version="1.0" encoding="UTF-8" standalone="no"?>
<svg width="44px" height="77px" viewBox="0 0 44 77" version="1.1" xmlns="http://www.w3.org/2000/svg" xmlns:xlink="http://www.w3.org/1999/xlink" xmlns:sketch="http://www.bohemiancoding.com/sketch/ns">
    <!-- Generator: Sketch 3.0.4 (8053) - http://www.bohemiancoding.com/sketch -->
    <title>5</title>
    <desc>Created with Sketch.</desc>
    <defs></defs>
    <g id="Page-1" stroke="none" stroke-width="1" fill="none" fill-rule="evenodd" sketch:type="MSPage">
        <g id="Imported-Layers" sketch:type="MSLayerGroup" transform="translate(-248.000000, -59.000000)">
            <g id="5" transform="translate(248.000000, 59.000000)" sketch:type="MSShapeGroup">
                <path d="M0,0 L44,0 L44,77 L0,77 L0,0 Z" id="Fill-3" fill="#FFFFFF"></path>
                <path d="M34.726,50.067 C34.726,48.087 34.433,46.285 33.85,44.659 C33.266,43.035 32.453,41.65 31.413,40.508 C30.371,39.365 29.14,38.477 27.718,37.842 C26.296,37.208 24.748,36.891 23.072,36.891 L8.752,36.891 C8.498,36.891 8.372,36.764 8.372,36.51 L8.372,12.517 C8.372,12.263 8.498,12.136 8.752,12.136 L34.726,12.136 C34.878,12.136 34.955,12.263 34.955,12.517 L34.955,14.649 C34.955,14.852 34.878,14.954 34.726,14.954 L11.647,14.954 L11.647,33.996 L23.148,33.996 C25.535,33.996 27.642,34.416 29.47,35.256 C31.298,36.097 32.833,37.254 34.079,38.731 C35.322,40.206 36.261,41.937 36.897,43.922 C37.531,45.906 37.849,48.019 37.849,50.259 C37.849,52.347 37.531,54.306 36.897,56.138 C36.261,57.971 35.347,59.575 34.155,60.948 C32.961,62.323 31.476,63.418 29.699,64.232 C27.921,65.046 25.864,65.453 23.529,65.453 L9.971,65.453 C9.717,65.453 9.59,65.327 9.59,65.072 L9.59,62.711 C9.59,62.458 9.717,62.33 9.971,62.33 L23.453,62.482 C25.281,62.482 26.881,62.153 28.251,61.492 C29.623,60.833 30.79,59.931 31.755,58.788 C32.719,57.645 33.456,56.326 33.964,54.828 C34.471,53.33 34.726,51.743 34.726,50.067" id="Fill-16" fill="#1A5284"></path>
            </g>
        </g>
    </g>
</svg>