<?xml version="1.0" encoding="UTF-8" standalone="no"?>
<svg width="45px" height="77px" viewBox="0 0 45 77" version="1.1" xmlns="http://www.w3.org/2000/svg" xmlns:xlink="http://www.w3.org/1999/xlink" xmlns:sketch="http://www.bohemiancoding.com/sketch/ns">
    <!-- Generator: Sketch 3.0.4 (8053) - http://www.bohemiancoding.com/sketch -->
    <title>6</title>
    <desc>Created with Sketch.</desc>
    <defs></defs>
    <g id="Page-1" stroke="none" stroke-width="1" fill="none" fill-rule="evenodd" sketch:type="MSPage">
        <g id="Imported-Layers" sketch:type="MSLayerGroup" transform="translate(-300.000000, -59.000000)">
            <g id="6" transform="translate(301.000000, 59.000000)" sketch:type="MSShapeGroup">
                <path d="M-0.006,0 L43.994,0 L43.994,77 L-0.006,77 L-0.006,0 Z" id="Fill-3" fill="#FFFFFF"></path>
                <path d="M11.512,39.556 C12.835,37.295 14.49,35.688 16.477,34.737 C18.462,33.786 20.678,33.31 23.122,33.31 C25.464,33.31 27.54,33.731 29.348,34.57 C31.155,35.411 32.671,36.569 33.893,38.045 C35.115,39.521 36.045,41.251 36.682,43.236 C37.318,45.221 37.662,47.332 37.713,49.572 C37.713,51.862 37.396,54.013 36.761,56.022 C36.125,58.034 35.199,59.789 33.981,61.291 C32.762,62.793 31.239,63.977 29.411,64.842 C27.583,65.705 25.475,66.139 23.089,66.139 C20.701,66.139 18.606,65.707 16.805,64.844 C15.002,63.981 13.479,62.813 12.235,61.34 C10.99,59.868 10.051,58.154 9.417,56.199 C8.781,54.244 8.439,52.15 8.389,49.915 L8.389,27.979 C8.389,25.693 8.698,23.549 9.318,21.542 C9.937,19.537 10.877,17.785 12.136,16.287 C13.396,14.79 14.926,13.609 16.728,12.745 C18.53,11.882 20.625,11.45 23.013,11.45 C24.129,11.45 25.222,11.577 26.288,11.831 C27.354,12.086 28.345,12.415 29.259,12.821 C29.716,13.076 29.816,13.507 29.564,14.116 L28.802,15.487 C28.598,15.894 28.318,16.02 27.964,15.868 C27.252,15.614 26.517,15.424 25.755,15.297 C24.993,15.171 24.105,15.106 23.089,15.106 C19.33,15.106 16.462,16.236 14.481,18.496 C12.502,20.756 11.512,23.917 11.512,27.979 L11.512,39.556 L11.512,39.556 Z M11.512,49.915 C11.561,53.927 12.58,57.024 14.567,59.207 C16.555,61.392 19.408,62.482 23.127,62.482 C26.897,62.482 29.75,61.354 31.687,59.093 C33.621,56.834 34.59,53.622 34.59,49.458 C34.488,45.548 33.469,42.488 31.533,40.279 C29.597,38.07 26.795,36.967 23.127,36.967 C19.356,36.967 16.479,38.097 14.491,40.356 C12.504,42.616 11.512,45.802 11.512,49.915 L11.512,49.915 Z" id="Fill-17" fill="#1A5284"></path>
            </g>
        </g>
    </g>
</svg>