<?xml version="1.0" encoding="UTF-8" standalone="no"?>
<svg width="44px" height="77px" viewBox="0 0 44 77" version="1.1" xmlns="http://www.w3.org/2000/svg" xmlns:xlink="http://www.w3.org/1999/xlink" xmlns:sketch="http://www.bohemiancoding.com/sketch/ns">
    <!-- Generator: Sketch 3.0.4 (8053) - http://www.bohemiancoding.com/sketch -->
    <title>7</title>
    <desc>Created with Sketch.</desc>
    <defs></defs>
    <g id="Page-1" stroke="none" stroke-width="1" fill="none" fill-rule="evenodd" sketch:type="MSPage">
        <g id="Imported-Layers" sketch:type="MSLayerGroup" transform="translate(-353.000000, -59.000000)">
            <g id="7" transform="translate(353.000000, 59.000000)" sketch:type="MSShapeGroup">
                <path d="M0,0 L44,0 L44,77 L0,77 L0,0 Z" id="Fill-4" fill="#FFFFFF"></path>
                <path d="M14.674,64.996 C14.674,65.301 14.522,65.453 14.217,65.453 L12.541,65.453 C12.286,65.453 12.096,65.313 11.97,65.035 C11.842,64.757 11.829,64.465 11.932,64.161 L35.086,15.106 L9.418,15.106 C8.961,15.106 8.732,14.794 8.732,14.17 L8.732,12.92 C8.732,12.296 8.961,11.983 9.418,11.983 L36.609,11.983 C37.878,11.983 38.514,12.567 38.514,13.735 C38.564,14.295 38.411,14.954 38.057,15.716 C37.701,16.477 37.371,17.188 37.066,17.849 L14.674,64.996" id="Fill-18" fill="#1A5284"></path>
            </g>
        </g>
    </g>
</svg>