<?xml version="1.0" encoding="UTF-8" standalone="no"?>
<svg width="45px" height="77px" viewBox="0 0 45 77" version="1.1" xmlns="http://www.w3.org/2000/svg" xmlns:xlink="http://www.w3.org/1999/xlink" xmlns:sketch="http://www.bohemiancoding.com/sketch/ns">
    <!-- Generator: Sketch 3.0.4 (8053) - http://www.bohemiancoding.com/sketch -->
    <title>8</title>
    <desc>Created with Sketch.</desc>
    <defs></defs>
    <g id="Page-1" stroke="none" stroke-width="1" fill="none" fill-rule="evenodd" sketch:type="MSPage">
        <g id="Imported-Layers" sketch:type="MSLayerGroup" transform="translate(-405.000000, -59.000000)">
            <g id="8" transform="translate(406.000000, 59.000000)" sketch:type="MSShapeGroup">
                <path d="M-0.006,0 L43.994,0 L43.994,77 L-0.006,77 L-0.006,0 Z" id="Fill-4" fill="#FFFFFF"></path>
                <path d="M37.874,26.709 C37.772,28.185 37.543,29.481 37.187,30.601 C36.829,31.719 36.333,32.724 35.697,33.614 C35.06,34.504 34.297,35.316 33.406,36.055 C32.517,36.793 31.511,37.542 30.391,38.306 C31.714,39.167 32.834,40.105 33.75,41.119 C34.667,42.133 35.43,43.185 36.041,44.274 C36.652,45.365 37.097,46.469 37.378,47.583 C37.657,48.698 37.823,49.737 37.874,50.701 C37.874,52.932 37.568,54.998 36.958,56.898 C36.346,58.801 35.418,60.435 34.171,61.805 C32.923,63.173 31.357,64.238 29.475,64.998 C27.591,65.758 25.401,66.139 22.907,66.139 C20.413,66.139 18.249,65.745 16.416,64.96 C14.584,64.175 13.056,63.097 11.834,61.729 C10.612,60.359 9.709,58.711 9.123,56.784 C8.538,54.857 8.245,52.753 8.245,50.471 C8.295,48.442 8.867,46.403 9.962,44.349 C11.058,42.296 12.852,40.331 15.347,38.454 C13.259,37.285 11.616,35.798 10.421,33.992 C9.225,32.187 8.5,29.885 8.245,27.088 C8.295,24.8 8.639,22.701 9.275,20.795 C9.911,18.889 10.841,17.235 12.062,15.837 C13.284,14.438 14.799,13.357 16.606,12.595 C18.413,11.832 20.514,11.45 22.907,11.45 C25.401,11.45 27.591,11.819 29.475,12.557 C31.357,13.295 32.923,14.337 34.171,15.685 C35.418,17.033 36.346,18.648 36.958,20.529 C37.568,22.411 37.874,24.472 37.874,26.709 L37.874,26.709 Z M23.06,36.967 C24.426,36.967 25.766,36.738 27.082,36.278 C28.398,35.82 29.587,35.145 30.65,34.253 C31.713,33.361 32.587,32.292 33.27,31.043 C33.953,29.795 34.345,28.381 34.446,26.801 C34.396,22.521 33.434,19.477 31.562,17.667 C29.689,15.858 26.804,14.954 22.907,14.954 C19.11,14.954 16.327,16.012 14.556,18.126 C12.785,20.24 11.823,23.285 11.673,27.26 C11.823,28.738 12.241,30.075 12.925,31.272 C13.607,32.47 14.468,33.49 15.506,34.33 C16.544,35.171 17.72,35.82 19.036,36.278 C20.352,36.738 21.693,36.967 23.06,36.967 L23.06,36.967 Z M22.832,40.089 C21.211,40.089 19.896,40.331 18.884,40.812 C17.872,41.296 16.809,41.943 15.696,42.755 C14.532,43.619 13.583,44.735 12.85,46.106 C12.115,47.477 11.723,48.925 11.673,50.448 C11.673,54.714 12.558,57.824 14.329,59.778 C16.1,61.734 18.96,62.711 22.907,62.711 C26.804,62.711 29.677,61.658 31.523,59.55 C33.371,57.443 34.319,54.308 34.37,50.144 C34.269,48.57 33.863,47.161 33.155,45.916 C32.446,44.673 31.511,43.619 30.347,42.755 C29.284,41.943 28.221,41.296 27.158,40.812 C26.096,40.331 24.754,40.089 23.136,40.089 L22.907,40.013 L22.832,40.089 L22.832,40.089 Z" id="Fill-19" fill="#1A5284"></path>
            </g>
        </g>
    </g>
</svg>