<?xml version="1.0" encoding="UTF-8" standalone="no"?>
<svg width="44px" height="77px" viewBox="0 0 44 77" version="1.1" xmlns="http://www.w3.org/2000/svg" xmlns:xlink="http://www.w3.org/1999/xlink" xmlns:sketch="http://www.bohemiancoding.com/sketch/ns">
    <!-- Generator: Sketch 3.0.4 (8053) - http://www.bohemiancoding.com/sketch -->
    <title>9</title>
    <desc>Created with Sketch.</desc>
    <defs></defs>
    <g id="Page-1" stroke="none" stroke-width="1" fill="none" fill-rule="evenodd" sketch:type="MSPage">
        <g id="Imported-Layers" sketch:type="MSLayerGroup" transform="translate(-459.000000, -59.000000)">
            <g id="9" transform="translate(459.000000, 59.000000)" sketch:type="MSShapeGroup">
                <path d="M0,0 L44,0 L44,77 L0,77 L0,0 Z" id="Fill-5" fill="#FFFFFF"></path>
                <path d="M0,0 L44,0 L44,77 L0,77 L0,0 Z" id="Fill-5" fill="#FFFFFF"></path>
                <path d="M33.961,38.718 C32.336,40.648 30.42,42.019 28.211,42.831 C26.002,43.644 23.932,44.05 22.003,44.05 C19.615,44.05 17.521,43.606 15.719,42.717 C13.916,41.829 12.405,40.636 11.188,39.137 C9.969,37.64 9.041,35.888 8.407,33.882 C7.772,31.876 7.455,29.757 7.455,27.521 C7.455,25.339 7.784,23.269 8.445,21.313 C9.104,19.359 10.045,17.658 11.264,16.211 C12.481,14.764 13.992,13.609 15.795,12.745 C17.597,11.882 19.667,11.45 22.003,11.45 C24.338,11.45 26.407,11.882 28.211,12.745 C30.013,13.609 31.536,14.764 32.78,16.211 C34.024,17.658 34.977,19.359 35.637,21.313 C36.296,23.269 36.652,25.339 36.703,27.521 L36.703,49.687 C36.703,51.922 36.372,54.041 35.713,56.047 C35.053,58.053 34.101,59.805 32.856,61.302 C31.612,62.801 30.077,63.981 28.249,64.844 C26.421,65.707 24.338,66.139 22.003,66.139 C18.549,66.139 15.376,65.072 12.481,62.939 C11.923,62.433 11.39,61.835 10.883,61.149 C10.374,60.464 9.931,59.754 9.55,59.017 C9.169,58.281 8.864,57.569 8.636,56.884 C8.407,56.199 8.293,55.628 8.293,55.171 C8.293,54.714 8.495,54.485 8.902,54.485 L10.73,54.485 C11.035,54.485 11.237,54.765 11.34,55.323 C11.593,56.136 11.935,56.948 12.367,57.76 C12.799,58.573 13.396,59.335 14.157,60.045 C16.442,62.178 19.032,63.244 21.927,63.244 C25.735,63.244 28.668,62.073 30.724,59.729 C32.78,57.388 33.834,54.051 33.885,49.721 L33.961,38.718 L33.961,38.718 Z M33.885,27.445 C33.885,25.821 33.631,24.222 33.123,22.646 C32.615,21.073 31.866,19.676 30.876,18.458 C29.887,17.239 28.642,16.249 27.145,15.487 C25.646,14.726 23.907,14.345 21.927,14.345 C18.118,14.345 15.224,15.487 13.243,17.772 C11.264,20.057 10.247,23.282 10.197,27.445 C10.197,31.813 11.199,35.151 13.205,37.462 C15.211,39.773 18.118,40.927 21.927,40.927 C25.735,40.927 28.706,39.773 30.838,37.462 C32.971,35.151 33.986,31.813 33.885,27.445 L33.885,27.445 Z" id="Fill-20" fill="#1A5284"></path>
            </g>
        </g>
    </g>
</svg>