<?xml version="1.0" encoding="UTF-8" standalone="no"?>
<svg width="38px" height="38px" viewBox="0 0 38 38" version="1.1" xmlns="http://www.w3.org/2000/svg" xmlns:xlink="http://www.w3.org/1999/xlink" xmlns:sketch="http://www.bohemiancoding.com/sketch/ns">
    <!-- Generator: Sketch 3.0.2 (7799) - http://www.bohemiancoding.com/sketch -->
    <title>best</title>
    <description>Created with Sketch.</description>
    <defs></defs>
    <g id="Page-1" stroke="none" stroke-width="1" fill="none" fill-rule="evenodd" sketch:type="MSPage">
        <g id="Portrait" sketch:type="MSArtboardGroup" transform="translate(-442.000000, -777.000000)">
            <g id="best" sketch:type="MSLayerGroup" transform="translate(442.000000, 777.000000)">
                <path d="M25.697,13.319 C25.241,12.863 24.502,12.863 24.045,13.319 L17.375,21.434 L13.447,17.552 C12.992,17.098 12.252,17.098 11.797,17.553 C11.342,18.01 11.342,18.748 11.797,19.201 L16.569,23.916 C16.591,23.941 16.599,23.974 16.624,23.998 C16.855,24.229 17.159,24.34 17.462,24.336 C17.765,24.34 18.069,24.229 18.3,23.998 C18.351,23.947 18.375,23.882 18.415,23.824 L25.695,14.969 C26.151,14.512 26.151,13.775 25.697,13.319" id="Fill-1" fill="#46A83E" sketch:type="MSShapeGroup"></path>
                <path d="M18.748,31.336 C11.816,31.336 6.178,25.697 6.178,18.768 C6.178,11.836 11.816,6.197 18.748,6.197 C25.678,6.197 31.316,11.836 31.316,18.768 C31.316,25.697 25.678,31.336 18.748,31.336 L18.748,31.336 Z M18.748,8.197 C12.919,8.197 8.178,12.94 8.178,18.768 C8.178,24.595 12.919,29.336 18.748,29.336 C24.575,29.336 29.316,24.595 29.316,18.768 C29.316,12.94 24.575,8.197 18.748,8.197 L18.748,8.197 Z" id="Fill-2" fill="#1A213E" sketch:type="MSShapeGroup"></path>
                <path d="M34.837,22.996 C35.424,20.786 37.171,20.898 37.171,18.658 C37.171,16.436 35.434,16.529 34.837,14.318 C34.242,12.107 35.804,11.325 34.694,9.393 C33.615,7.52 32.176,8.404 30.542,6.76 C28.897,5.125 29.781,3.695 27.911,2.615 C26.05,1.535 25.238,3.006 23.007,2.41 C20.767,1.803 20.808,0.126 18.65,0.126 C16.491,0.126 16.542,1.803 14.302,2.41 C12.061,3.006 11.259,1.535 9.388,2.615 C7.518,3.695 8.402,5.125 6.757,6.76 C5.123,8.404 3.694,7.52 2.615,9.393 C1.535,11.264 3.005,12.065 2.409,14.297 C1.803,16.549 0.127,16.498 0.127,18.658 C0.127,20.817 1.803,20.766 2.398,23.019 C3.005,25.25 1.535,26.062 2.615,27.923 C3.725,29.845 5.174,28.9 6.798,30.516 C8.422,32.128 7.446,33.589 9.388,34.71 C11.259,35.79 12.061,34.31 14.291,34.916 C16.542,35.512 16.491,37.188 18.65,37.188 C20.87,37.188 20.777,35.461 22.987,34.854 C25.206,34.259 25.978,35.832 27.911,34.71 C29.852,33.589 28.877,32.128 30.501,30.516 C32.124,28.9 33.574,29.856 34.694,27.923 C35.804,26 34.252,25.208 34.837,22.996 L34.837,22.996 Z M18.748,33.45 C10.637,33.45 4.063,26.877 4.063,18.768 C4.063,10.658 10.637,4.083 18.748,4.083 C26.857,4.083 33.431,10.658 33.431,18.768 C33.431,26.877 26.857,33.45 18.748,33.45 L18.748,33.45 Z" id="Fill-3" fill="#1A213E" sketch:type="MSShapeGroup"></path>
            </g>
        </g>
    </g>
</svg>