<?xml version="1.0" encoding="UTF-8" standalone="no"?>
<svg width="39px" height="53px" viewBox="0 0 39 53" version="1.1" xmlns="http://www.w3.org/2000/svg" xmlns:xlink="http://www.w3.org/1999/xlink" xmlns:sketch="http://www.bohemiancoding.com/sketch/ns">
    <!-- Generator: Sketch 3.0.3 (7891) - http://www.bohemiancoding.com/sketch -->
    <title>calc</title>
    <desc>Created with Sketch.</desc>
    <defs></defs>
    <g id="Page-1" stroke="none" stroke-width="1" fill="none" fill-rule="evenodd" sketch:type="MSPage">
        <g id="Portrait" sketch:type="MSArtboardGroup" transform="translate(-577.000000, -653.000000)" stroke="#FFFFFF">
            <path d="M608.704,659.166 L584.331,659.166 C582.869,659.168 581.676,660.356 581.673,661.819 L581.673,666.841 C581.675,668.307 582.873,669.481 584.331,669.481 L608.704,669.481 C610.161,669.481 611.358,668.307 611.359,666.841 L610.359,666.841 C610.357,667.746 609.614,668.481 608.704,668.483 L584.331,668.483 C583.42,668.481 582.675,667.744 582.673,666.841 L582.673,661.819 C582.673,661.366 582.859,660.955 583.16,660.653 C583.463,660.352 583.877,660.166 584.331,660.166 L608.704,660.166 C609.158,660.166 609.569,660.352 609.872,660.653 C610.174,660.955 610.359,661.366 610.359,661.819 L610.359,666.841 L611.359,666.841 L611.359,661.819 C611.358,660.356 610.167,659.168 608.704,659.166 M608.681,672.37 L605.42,672.37 C603.962,672.37 602.767,673.548 602.765,675.014 L602.765,678.063 C602.769,679.526 603.957,680.716 605.42,680.718 L608.681,680.718 C610.148,680.716 611.324,679.521 611.326,678.063 L610.325,678.063 C610.323,678.972 609.587,679.716 608.681,679.718 L605.42,679.718 C604.967,679.718 604.555,679.532 604.252,679.23 C603.951,678.927 603.765,678.516 603.765,678.063 L603.765,675.014 C603.767,674.109 604.512,673.37 605.42,673.369 L608.681,673.369 C609.591,673.37 610.325,674.104 610.325,675.014 L610.325,678.063 L611.326,678.063 L611.326,675.014 C611.322,673.553 610.143,672.372 608.681,672.37 M598.155,672.37 L594.894,672.37 C593.435,672.37 592.238,673.548 592.237,675.014 L592.237,678.063 C592.24,679.526 593.432,680.716 594.894,680.718 L598.155,680.718 C599.621,680.716 600.797,679.521 600.799,678.063 L599.799,678.063 C599.797,678.972 599.06,679.716 598.155,679.718 L594.894,679.718 C594.44,679.718 594.029,679.532 593.725,679.23 C593.422,678.927 593.237,678.516 593.237,678.063 L593.237,675.014 C593.239,674.109 593.985,673.37 594.894,673.369 L598.155,673.369 C599.063,673.37 599.799,674.104 599.799,675.014 L599.799,678.063 L600.799,678.063 L600.799,675.014 C600.795,673.553 599.617,672.37 598.155,672.37 M587.591,672.37 L584.331,672.37 C582.873,672.37 581.675,673.548 581.673,675.014 L581.673,678.063 C581.676,679.526 582.869,680.716 584.331,680.718 L587.591,680.718 C589.056,680.716 590.233,679.521 590.235,678.063 L589.235,678.063 C589.233,678.971 588.495,679.716 587.591,679.718 L584.331,679.718 C583.878,679.718 583.465,679.532 583.162,679.23 C582.859,678.927 582.673,678.516 582.673,678.063 L582.673,675.014 C582.675,674.111 583.422,673.37 584.331,673.369 L587.591,673.369 C588.499,673.37 589.233,674.106 589.235,675.014 L589.235,678.063 L590.235,678.063 L590.235,675.014 C590.235,673.553 589.051,672.37 587.591,672.37 M608.681,682.894 L605.42,682.894 C603.962,682.895 602.767,684.071 602.765,685.537 L602.765,688.586 C602.767,690.049 603.957,691.241 605.42,691.243 L608.681,691.243 C610.148,691.241 611.324,690.044 611.326,688.586 L610.325,688.586 C610.323,689.498 609.587,690.241 608.681,690.243 L605.42,690.243 C604.967,690.243 604.555,690.057 604.252,689.756 C603.951,689.452 603.765,689.041 603.765,688.586 L603.765,685.537 C603.767,684.633 604.51,683.895 605.42,683.894 L608.681,683.894 C609.591,683.894 610.325,684.628 610.325,685.537 L610.325,688.586 L611.326,688.586 L611.326,685.537 C611.322,684.078 610.143,682.897 608.681,682.894 M598.155,682.894 L594.894,682.894 C593.435,682.895 592.238,684.071 592.237,685.537 L592.237,688.586 C592.24,690.051 593.432,691.241 594.894,691.243 L598.155,691.243 C599.621,691.241 600.797,690.046 600.799,688.586 L599.799,688.586 C599.797,689.496 599.06,690.241 598.155,690.243 L594.894,690.243 C594.44,690.243 594.029,690.057 593.725,689.756 C593.422,689.452 593.237,689.039 593.237,688.586 L593.237,685.537 C593.239,684.634 593.985,683.895 594.894,683.894 L598.155,683.894 C599.065,683.894 599.799,684.628 599.799,685.537 L599.799,688.586 L600.799,688.586 L600.799,685.537 C600.795,684.076 599.617,682.897 598.155,682.894 M587.591,682.894 L584.331,682.894 C582.873,682.895 581.675,684.071 581.673,685.537 L581.673,688.586 C581.676,690.051 582.869,691.241 584.331,691.243 L587.591,691.243 C589.056,691.241 590.235,690.046 590.235,688.586 L589.235,688.586 C589.233,689.496 588.495,690.241 587.591,690.243 L584.331,690.243 C583.878,690.243 583.465,690.057 583.162,689.756 C582.859,689.452 582.673,689.039 582.673,688.586 L582.673,685.537 C582.675,684.634 583.422,683.895 584.331,683.894 L587.591,683.894 C588.499,683.895 589.233,684.629 589.235,685.537 L589.235,688.586 L590.235,688.586 L590.235,685.537 C590.235,684.076 589.051,682.894 587.591,682.894 M608.681,693.211 L605.42,693.211 C603.962,693.211 602.767,694.39 602.765,695.854 L602.765,698.903 C602.767,700.366 603.959,701.556 605.42,701.558 L608.681,701.558 C610.148,701.556 611.324,700.361 611.326,698.903 L610.325,698.903 C610.323,699.813 609.587,700.557 608.681,700.558 L605.42,700.558 C604.967,700.558 604.555,700.373 604.252,700.071 C603.951,699.768 603.765,699.356 603.765,698.903 L603.765,695.854 C603.767,694.951 604.512,694.212 605.42,694.211 L608.681,694.211 C609.591,694.212 610.325,694.946 610.325,695.854 L610.325,698.903 L611.326,698.903 L611.326,695.854 C611.322,694.395 610.143,693.211 608.681,693.211 M598.155,693.211 L594.894,693.211 C593.435,693.211 592.238,694.39 592.237,695.854 L592.237,698.903 C592.24,700.366 593.432,701.555 594.894,701.558 L598.155,701.558 C599.62,701.556 600.797,700.361 600.799,698.903 L599.799,698.903 C599.797,699.813 599.06,700.557 598.155,700.558 L594.894,700.558 C594.44,700.558 594.029,700.373 593.725,700.071 C593.422,699.768 593.237,699.356 593.237,698.903 L593.237,695.854 C593.239,694.951 593.985,694.212 594.894,694.211 L598.155,694.211 C599.063,694.212 599.797,694.946 599.799,695.854 L599.799,698.903 L600.799,698.903 L600.799,695.854 C600.799,694.395 599.617,693.211 598.155,693.211 M587.591,693.211 L584.331,693.211 C582.873,693.211 581.675,694.388 581.673,695.854 L581.673,698.903 C581.676,700.366 582.869,701.555 584.331,701.558 L587.591,701.558 C589.056,701.556 590.233,700.361 590.235,698.903 L589.235,698.903 C589.233,699.811 588.495,700.557 587.591,700.558 L584.331,700.558 C583.878,700.558 583.465,700.373 583.16,700.071 C582.859,699.768 582.673,699.356 582.673,698.903 L582.673,695.854 C582.675,694.951 583.422,694.212 584.331,694.211 L587.591,694.211 C588.498,694.212 589.233,694.946 589.235,695.854 L589.235,698.903 L590.235,698.903 L590.235,695.854 C590.235,694.395 589.051,693.211 587.591,693.211 M580.657,704.291 C579.734,704.289 579.001,703.545 579.001,702.635 L579.001,656.658 C579.001,655.746 579.736,655.001 580.657,655 L612.379,655 C612.834,655 613.245,655.185 613.546,655.487 C613.849,655.79 614.034,656.203 614.035,656.658 L614.035,702.635 C614.034,703.089 613.849,703.5 613.546,703.804 C613.245,704.105 612.834,704.291 612.379,704.291 L580.657,704.291 M612.379,654 L580.657,654 C579.179,654.001 578.003,655.198 578,656.658 L578,702.635 C578.003,704.094 579.181,705.291 580.657,705.291 L612.379,705.291 C613.842,705.287 615.032,704.099 615.033,702.635 L615.033,656.658 C615.032,655.195 613.843,654.003 612.379,654" id="calc" sketch:type="MSShapeGroup"></path>
        </g>
    </g>
</svg>