<?xml version="1.0" encoding="UTF-8" standalone="no"?>
<svg width="40px" height="36px" viewBox="0 0 40 36" version="1.1" xmlns="http://www.w3.org/2000/svg" xmlns:xlink="http://www.w3.org/1999/xlink" xmlns:sketch="http://www.bohemiancoding.com/sketch/ns">
    <!-- Generator: Sketch 3.0.3 (7891) - http://www.bohemiancoding.com/sketch -->
    <title>chart</title>
    <desc>Created with Sketch.</desc>
    <defs></defs>
    <g id="Page-1" stroke="none" stroke-width="1" fill="none" fill-rule="evenodd" sketch:type="MSPage">
        <g id="Portrait" sketch:type="MSArtboardGroup" transform="translate(-374.000000, -66.000000)" fill="#42A84D">
            <g id="chart" sketch:type="MSLayerGroup" transform="translate(374.000000, 67.000000)">
                <path d="M30.53,-0.091 L30.53,-0.091 L26.864,-0.478 C26.352,-0.532 25.889,-0.157 25.835,0.355 C25.781,0.866 26.156,1.329 26.667,1.383 L28.088,1.533 C28.088,1.533 24.092,6.19 16.627,12.197 C8.285,18.909 1.862,22.633 1.862,22.633 C1.462,22.957 1.4,23.549 1.724,23.948 C2.047,24.349 2.64,24.411 3.04,24.088 C3.04,24.088 8.203,21.376 17.529,13.872 C26.56,6.607 29.265,2.987 29.265,2.987 L29.115,4.407 C29.061,4.919 29.435,5.383 29.947,5.437 C30.459,5.491 30.921,5.116 30.975,4.604 L31.362,0.938 C31.363,0.93 31.364,0.923 31.365,0.914 C31.374,0.805 31.362,0.696 31.334,0.592 C31.315,0.523 31.287,0.455 31.252,0.392 C31.194,0.289 31.118,0.194 31.026,0.12 C30.973,0.074 30.913,0.036 30.851,0.003 C30.75,-0.047 30.641,-0.079 30.53,-0.091" id="Fill-1" sketch:type="MSShapeGroup"></path>
                <path d="M24.931,12.197 L29.866,12.197 L29.866,30.29 L24.931,30.29 L24.931,12.197 Z" id="Fill-2" sketch:type="MSShapeGroup"></path>
                <path d="M32.333,3.973 L37.267,3.973 L37.267,30.29 L32.333,30.29 L32.333,3.973 Z" id="Fill-3" sketch:type="MSShapeGroup"></path>
                <path d="M10.127,23.711 L15.062,23.711 L15.062,30.29 L10.127,30.29 L10.127,23.711 Z" id="Fill-4" sketch:type="MSShapeGroup"></path>
                <path d="M17.529,18.776 L22.464,18.776 L22.464,30.29 L17.529,30.29 L17.529,18.776 Z" id="Fill-5" sketch:type="MSShapeGroup"></path>
                <path d="M0.259,31.935 L39.735,31.935 L39.735,34.402 L0.259,34.402 L0.259,31.935 Z" id="Fill-6" sketch:type="MSShapeGroup"></path>
                <path d="M2.726,27.001 L7.661,27.001 L7.661,30.29 L2.726,30.29 L2.726,27.001 Z" id="Fill-7" sketch:type="MSShapeGroup"></path>
            </g>
        </g>
    </g>
</svg>