<?xml version="1.0" encoding="UTF-8" standalone="no"?>
<svg width="58px" height="42px" viewBox="0 0 58 42" version="1.1" xmlns="http://www.w3.org/2000/svg" xmlns:xlink="http://www.w3.org/1999/xlink" xmlns:sketch="http://www.bohemiancoding.com/sketch/ns">
    <!-- Generator: Sketch 3.0.3 (7891) - http://www.bohemiancoding.com/sketch -->
    <title>effective</title>
    <desc>Created with Sketch.</desc>
    <defs></defs>
    <g id="Page-1" stroke="none" stroke-width="1" fill="none" fill-rule="evenodd" sketch:type="MSPage">
        <g id="Portrait" sketch:type="MSArtboardGroup" transform="translate(-83.000000, -598.000000)">
            <g id="effective" sketch:type="MSLayerGroup" transform="translate(83.000000, 598.000000)">
                <path d="M55.912,38.247 L55.245,38.247 L55.245,3.689 L55.912,3.689 C56.926,3.689 57.744,2.865 57.744,1.854 C57.744,0.839 56.926,0.019 55.912,0.019 L2.033,0.019 C1.02,0.019 0.2,0.839 0.2,1.854 C0.2,2.865 1.02,3.689 2.033,3.689 L2.699,3.689 L2.699,38.247 L2.033,38.247 C1.02,38.247 0.2,39.065 0.2,40.079 C0.2,41.096 1.02,41.914 2.033,41.914 L55.912,41.914 C56.926,41.914 57.744,41.096 57.744,40.079 C57.744,39.065 56.926,38.247 55.912,38.247 L55.912,38.247 Z M5.207,3.689 L52.738,3.689 L52.738,38.247 L5.207,38.247 L5.207,3.689 Z" id="Fill-1" fill="#0E1729" sketch:type="MSShapeGroup"></path>
                <path d="M10.999,35.185 C11.55,35.705 12.291,36.025 13.109,36.025 C13.95,36.025 14.717,35.68 15.273,35.129 L15.276,35.123 C15.834,34.569 16.175,33.801 16.175,32.954 C16.175,32.367 16.011,31.815 15.723,31.345 L23.19,22.449 C23.641,22.708 24.157,22.852 24.711,22.852 C25.557,22.852 26.323,22.511 26.877,21.955 L26.88,21.951 L26.883,21.955 C27.053,21.784 27.202,21.592 27.328,21.389 L32.437,22.583 C32.505,23.318 32.83,23.98 33.324,24.477 C33.881,25.033 34.648,25.374 35.495,25.374 C36.344,25.374 37.109,25.027 37.666,24.477 C37.686,24.451 37.705,24.433 37.727,24.409 C38.248,23.858 38.565,23.114 38.565,22.303 C38.565,21.622 38.343,20.993 37.963,20.481 L43.873,12.122 C44.151,12.199 44.442,12.239 44.741,12.239 C46.22,12.239 47.457,11.229 47.81,9.864 L47.816,9.843 L47.822,9.822 L47.823,9.796 L47.829,9.788 L47.829,9.778 L47.836,9.756 L47.84,9.732 L47.843,9.711 L47.849,9.689 L47.855,9.665 L47.858,9.645 L47.861,9.633 L47.861,9.622 L47.865,9.601 L47.871,9.578 L47.872,9.555 L47.878,9.53 L47.879,9.508 L47.885,9.487 L47.885,9.466 L47.891,9.439 L47.891,9.419 L47.896,9.397 L47.896,9.372 L47.898,9.349 C47.907,9.26 47.91,9.165 47.91,9.072 C47.91,7.325 46.492,5.906 44.741,5.906 C42.993,5.906 41.574,7.325 41.574,9.072 C41.574,9.82 41.835,10.507 42.269,11.047 L36.389,19.368 C36.106,19.282 35.807,19.236 35.495,19.236 C34.651,19.236 33.883,19.578 33.331,20.136 L33.328,20.139 L33.324,20.136 C33.154,20.306 33.006,20.496 32.881,20.701 L27.772,19.505 C27.703,18.772 27.376,18.111 26.883,17.615 L26.877,17.614 C26.323,17.058 25.557,16.717 24.711,16.717 C23.866,16.717 23.1,17.061 22.544,17.614 L22.539,17.614 C21.987,18.168 21.643,18.936 21.643,19.784 C21.643,20.212 21.732,20.623 21.894,20.994 L14.241,30.104 C13.892,29.964 13.509,29.889 13.109,29.889 C12.264,29.889 11.497,30.231 10.94,30.788 L10.936,30.788 C10.381,31.342 10.035,32.11 10.035,32.954 C10.035,33.804 10.381,34.572 10.936,35.129 C10.955,35.148 10.979,35.168 10.999,35.185 L10.999,35.185 Z M34.69,21.5 C34.894,21.295 35.18,21.168 35.495,21.168 C35.793,21.168 36.062,21.282 36.264,21.467 L36.3,21.503 C36.503,21.709 36.631,21.992 36.631,22.303 C36.631,22.602 36.52,22.869 36.339,23.07 L36.3,23.106 C36.094,23.314 35.81,23.441 35.495,23.441 C35.183,23.441 34.898,23.314 34.693,23.106 C34.485,22.906 34.358,22.616 34.358,22.303 C34.358,21.992 34.485,21.709 34.693,21.503 L34.69,21.5 L34.69,21.5 Z M23.908,18.981 L23.908,18.978 C24.109,18.774 24.397,18.648 24.711,18.648 C25.026,18.648 25.312,18.774 25.516,18.978 C25.719,19.184 25.848,19.467 25.848,19.784 C25.848,20.1 25.719,20.382 25.516,20.587 L25.519,20.589 C25.312,20.79 25.028,20.919 24.711,20.919 C24.397,20.919 24.112,20.79 23.908,20.587 L23.908,20.589 C23.702,20.382 23.578,20.1 23.578,19.784 C23.578,19.472 23.703,19.184 23.908,18.981 L23.908,18.981 Z M12.303,32.149 C12.508,31.949 12.792,31.821 13.109,31.821 C13.421,31.821 13.704,31.949 13.908,32.155 C14.114,32.358 14.241,32.645 14.241,32.954 C14.241,33.272 14.114,33.553 13.914,33.759 L13.908,33.765 C13.704,33.965 13.421,34.09 13.109,34.09 C12.811,34.09 12.544,33.981 12.34,33.798 L12.305,33.759 C12.099,33.553 11.974,33.272 11.974,32.954 C11.974,32.645 12.099,32.358 12.305,32.155 L12.303,32.149 L12.303,32.149 Z" id="Fill-2" fill="#43A84E" sketch:type="MSShapeGroup"></path>
            </g>
        </g>
    </g>
</svg>