<?xml version="1.0" encoding="UTF-8" standalone="no"?>
<svg width="25px" height="18px" viewBox="0 0 25 18" version="1.1" xmlns="http://www.w3.org/2000/svg" xmlns:xlink="http://www.w3.org/1999/xlink" xmlns:sketch="http://www.bohemiancoding.com/sketch/ns">
    <!-- Generator: Sketch 3.0.4 (8053) - http://www.bohemiancoding.com/sketch -->
    <title>email.svg</title>
    <desc>Created with Sketch.</desc>
    <defs></defs>
    <g id="Page-1" stroke="none" stroke-width="1" fill="none" fill-rule="evenodd" sketch:type="MSPage">
        <g id="email.svg" sketch:type="MSLayerGroup" fill="#1650A5">
            <path d="M11.014,8.865 C11.346,9.172 12.016,9.615 12.425,9.615 C12.762,9.615 13.512,9.153 13.976,8.739 L23.323,0.356 L23.028,0.356 L1.823,0.356 L1.672,0.356 L11.014,8.865" id="Fill-1" sketch:type="MSShapeGroup"></path>
            <path d="M15.312,10.227 C15.057,10.457 13.708,11.615 12.425,11.615 C11.065,11.615 9.798,10.466 9.658,10.335 L0.03,1.565 L0.03,16.166 C0.03,17.155 0.834,17.958 1.823,17.958 L23.028,17.958 C24.016,17.958 24.821,17.155 24.821,16.166 L24.821,1.699 L15.312,10.227" id="Fill-2" sketch:type="MSShapeGroup"></path>
        </g>
    </g>
</svg>