<?xml version="1.0" encoding="UTF-8" standalone="no"?>
<svg width="61px" height="61px" viewBox="0 0 61 61" version="1.1" xmlns="http://www.w3.org/2000/svg" xmlns:xlink="http://www.w3.org/1999/xlink" xmlns:sketch="http://www.bohemiancoding.com/sketch/ns">
    <!-- Generator: Sketch 3.0.2 (7799) - http://www.bohemiancoding.com/sketch -->
    <title>fb</title>
    <description>Created with Sketch.</description>
    <defs></defs>
    <g id="Page-1" stroke="none" stroke-width="1" fill="none" fill-rule="evenodd" sketch:type="MSPage">
        <g id="Portrait" sketch:type="MSArtboardGroup" transform="translate(-379.000000, -389.000000)" fill="#395B97">
            <g id="Imported-Layers" sketch:type="MSLayerGroup" transform="translate(228.000000, 389.000000)">
                <g id="fb" transform="translate(152.000000, 0.000000)" sketch:type="MSShapeGroup">
                    <path d="M29.916,0.116 C13.322,0.116 -0.128,13.548 -0.128,30.116 C-0.128,46.685 13.322,60.116 29.916,60.116 C46.508,60.116 59.959,46.685 59.959,30.116 C59.959,13.548 46.508,0.116 29.916,0.116 L29.916,0.116 Z M36.934,30.114 L32.428,30.114 L32.428,46.436 L25.674,46.436 L25.674,30.115 L22.301,30.115 L22.301,24.491 L25.674,24.491 L25.674,21.114 C25.674,16.525 27.58,13.797 32.992,13.797 L37.498,13.797 L37.498,19.422 L34.682,19.422 C32.574,19.422 32.435,20.208 32.435,21.675 L32.428,24.49 L37.53,24.49 L36.934,30.114 L36.934,30.114 Z" id="Fill-12"></path>
                </g>
            </g>
        </g>
    </g>
</svg>