<?xml version="1.0" encoding="UTF-8" standalone="no"?>
<svg width="50px" height="61px" viewBox="0 0 50 61" version="1.1" xmlns="http://www.w3.org/2000/svg" xmlns:xlink="http://www.w3.org/1999/xlink" xmlns:sketch="http://www.bohemiancoding.com/sketch/ns">
    <!-- Generator: Sketch 3.0.3 (7891) - http://www.bohemiancoding.com/sketch -->
    <title>freedom</title>
    <desc>Created with Sketch.</desc>
    <defs></defs>
    <g id="Page-1" stroke="none" stroke-width="1" fill="none" fill-rule="evenodd" sketch:type="MSPage">
        <g id="Portrait" sketch:type="MSArtboardGroup" transform="translate(-2.000000, -656.000000)">
            <g id="freedom" sketch:type="MSLayerGroup" transform="translate(3.000000, 656.000000)">
                <path d="M4.822,57.313 C4.071,58.367 3.244,58.618 2.576,58.821 C2.007,58.997 1.6,59.119 1.16,59.731 C0.906,60.091 0.413,60.172 0.058,59.921 C-0.297,59.668 -0.381,59.175 -0.124,58.818 C0.53,57.898 1.245,57.588 1.858,57.391 C1.948,57.362 2.036,57.335 2.118,57.31 C2.687,57.137 3.1,57.012 3.535,56.399 C3.975,55.784 3.957,55.352 3.935,54.757 C3.933,54.67 3.928,54.581 3.924,54.489 C3.913,53.843 3.969,53.066 4.626,52.145 C5.28,51.223 5.995,50.914 6.611,50.717 C6.7,50.689 6.786,50.661 6.868,50.636 C7.438,50.463 7.849,50.338 8.285,49.726 C8.722,49.112 8.707,48.681 8.684,48.085 C8.68,48.002 8.676,47.913 8.673,47.818 C8.666,47.506 8.681,47.161 8.769,46.785 L9.193,47.089 L9.48,47.292 L10.253,47.843 C10.256,47.901 10.258,47.963 10.261,48.026 C10.289,48.723 10.321,49.589 9.572,50.642 C8.821,51.693 7.994,51.944 7.326,52.148 C6.76,52.317 6.349,52.442 5.912,53.058 C5.475,53.673 5.49,54.102 5.511,54.698 C5.539,55.394 5.572,56.26 4.822,57.313" id="Fill-1" fill="#3292B0" sketch:type="MSShapeGroup"></path>
                <path d="M11.745,10.154 C7.791,15.71 6.521,21.403 6.563,26.504 C6.572,27.301 6.612,28.08 6.681,28.843 C7.228,35.222 9.642,40.395 10.927,42.753 C10.807,42.781 10.694,42.846 10.617,42.954 C10.604,42.971 10.603,42.99 10.593,43.007 C10.531,43.118 10.509,43.238 10.534,43.352 C10.559,43.475 10.624,43.589 10.734,43.669 C9.88,43.792 8.785,44.195 7.947,45.373 L9.603,46.551 L10.273,47.03 L10.342,47.077 L10.93,47.495 L11.817,48.127 C12.678,46.919 12.72,45.782 12.56,44.959 C12.669,45.02 12.789,45.042 12.903,45.02 C13.027,44.995 13.14,44.928 13.221,44.819 C13.224,44.816 13.227,44.816 13.228,44.814 C13.29,44.727 13.312,44.627 13.315,44.527 C18.227,45.557 33.615,47.387 43.852,33.006 C51.003,22.96 49.614,9.698 40.749,3.387 C40.173,2.977 39.576,2.607 38.97,2.275 C37.482,1.465 35.911,0.886 34.292,0.531 C26.365,-1.213 17.298,2.354 11.745,10.154 L11.745,10.154 Z M38.374,32.212 C37.696,33.348 36.62,33.958 35.974,33.571 C35.326,33.186 35.35,31.95 36.028,30.814 C36.707,29.679 37.781,29.071 38.428,29.456 C39.077,29.843 39.052,31.077 38.374,32.212 L38.374,32.212 Z M44.193,16.609 C44.969,24.35 39.913,28.627 39.294,27.448 C38.563,26.522 40.924,22.206 40.253,17.007 C40.014,13.748 38.687,11.061 37.851,9.245 C37.347,8.149 37.02,7.368 37.221,6.971 C37.322,6.616 37.845,6.605 38.564,6.939 C40.432,7.809 43.619,11.018 44.193,16.609 L44.193,16.609 Z" id="Fill-2" fill="#0E1729" sketch:type="MSShapeGroup"></path>
            </g>
        </g>
    </g>
</svg>