<?xml version="1.0" encoding="UTF-8" standalone="no"?>
<svg width="48px" height="50px" viewBox="0 0 48 50" version="1.1" xmlns="http://www.w3.org/2000/svg" xmlns:xlink="http://www.w3.org/1999/xlink" xmlns:sketch="http://www.bohemiancoding.com/sketch/ns">
    <!-- Generator: Sketch 3.0.3 (7891) - http://www.bohemiancoding.com/sketch -->
    <title>home</title>
    <desc>Created with Sketch.</desc>
    <defs></defs>
    <g id="Page-1" stroke="none" stroke-width="1" fill="none" fill-rule="evenodd" sketch:type="MSPage">
        <g id="Portrait" sketch:type="MSArtboardGroup" transform="translate(-316.000000, -721.000000)" fill="#020202">
            <g id="home" sketch:type="MSLayerGroup" transform="translate(316.000000, 721.000000)">
                <path d="M11.014,49.809 C8.166,49.809 6.02416999,47.4929987 6.02416999,44.6449987 C6.01816999,40.0599987 6.00716999,32.0049987 5.99916999,29.2279987 L5.67016999,29.2269987 C2.84816999,29.2269987 0.551169994,26.9309987 0.551169994,24.1079987 C0.551169994,22.6139987 1.20416999,21.1979987 2.34116999,20.2229987 L20.55,1.836 C21.516,0.869 22.81,0.337 24.194,0.337 C25.578,0.337 26.2510904,0.869000122 27.2170904,1.83600012 L45.6580904,20.2750001 C46.7390904,21.1980001 47.3900904,22.6140001 47.3900904,24.1080001 C47.3900904,26.9310001 45.0950904,29.2270001 42.2730904,29.2270001 L41.9320904,29.2270001 L41.9320904,44.6450001 C41.9320904,47.4930001 39.6150904,49.8090001 36.7670904,49.8090001 L11.014,49.809 Z M21.964,3.25 L3.524,21.689 C2.774,22.336 2.377,23.199 2.377,24.108 C2.377,25.828 3.775,27.226 5.495,27.226 L6.823,27.23 C7.817,27.23 7.82,28.096 7.823,28.932 L7.849,44.644 C7.849,46.39 9.29418472,48.0128156 11.0391847,48.0128156 L36.6459972,48.0128156 C38.3919972,48.0128156 40.0124961,46.39 40.0124961,44.645 L40.0124961,28.234 C40.0124961,27.682 40.4604961,27.226 41.0124961,27.226 L42.3534961,27.226 C44.0724961,27.226 45.4704961,25.828 45.4704961,24.108 C45.4704961,23.199 45.0734961,22.336 44.3804961,21.741 L25.8834961,3.25 C25.2944961,2.661 25.044,2.337 24.194,2.337 C23.345,2.337 22.553,2.661 21.964,3.25 Z" id="Fill-1" sketch:type="MSShapeGroup"></path>
                <path d="M28.943662,40 L19.056338,40 C16.8192676,40 15,38.1807324 15,35.943662 L15,26.056338 C15,23.8202817 16.8192676,22 19.056338,22 L28.943662,22 C31.1807324,22 33,23.8202817 33,26.056338 L33,35.943662 C33,38.1807324 31.1807324,40 28.943662,40 L28.943662,40 Z M19.056338,24.028169 C17.9378028,24.028169 17.028169,24.9378028 17.028169,26.056338 L17.028169,35.943662 C17.028169,37.0621972 17.9378028,37.971831 19.056338,37.971831 L28.943662,37.971831 C30.0621972,37.971831 30.971831,37.0621972 30.971831,35.943662 L30.971831,26.056338 C30.971831,24.9378028 30.0621972,24.028169 28.943662,24.028169 L19.056338,24.028169 L19.056338,24.028169 Z" id="Fill-2" sketch:type="MSShapeGroup"></path>
            </g>
        </g>
    </g>
</svg>