<?xml version="1.0" encoding="UTF-8" standalone="no"?>
<svg width="62px" height="61px" viewBox="0 0 62 61" version="1.1" xmlns="http://www.w3.org/2000/svg" xmlns:xlink="http://www.w3.org/1999/xlink" xmlns:sketch="http://www.bohemiancoding.com/sketch/ns">
    <!-- Generator: Sketch 3.0.2 (7799) - http://www.bohemiancoding.com/sketch -->
    <title>in</title>
    <description>Created with Sketch.</description>
    <defs></defs>
    <g id="Page-1" stroke="none" stroke-width="1" fill="none" fill-rule="evenodd" sketch:type="MSPage">
        <g id="Portrait" sketch:type="MSArtboardGroup" transform="translate(-532.000000, -389.000000)" fill="#007CB6">
            <g id="Imported-Layers" sketch:type="MSLayerGroup" transform="translate(228.000000, 389.000000)">
                <path d="M334.395,0.116 C317.802,0.116 304.351,13.548 304.351,30.116 C304.351,46.685 317.802,60.116 334.395,60.116 C350.986,60.116 364.438,46.685 364.438,30.116 C364.438,13.548 350.986,0.116 334.395,0.116 L334.395,0.116 Z M319.939,23.826 L326.738,23.826 L326.738,44.253 L319.939,44.253 L319.939,23.826 Z M323.338,21.038 L323.294,21.038 C321.013,21.038 319.536,19.469 319.536,17.507 C319.536,15.504 321.058,13.979 323.383,13.979 C325.708,13.979 327.141,15.504 327.185,17.507 C327.185,19.469 325.708,21.038 323.338,21.038 L323.338,21.038 Z M351.256,44.253 L344.457,44.253 L344.457,33.325 C344.457,30.58 343.473,28.707 341.012,28.707 C339.133,28.707 338.016,29.97 337.523,31.189 C337.344,31.626 337.299,32.235 337.299,32.846 L337.299,44.254 L330.501,44.254 C330.501,44.254 330.59,25.744 330.501,23.827 L337.299,23.827 L337.299,26.72 C338.201,25.329 339.818,23.347 343.428,23.347 C347.902,23.347 351.256,26.267 351.256,32.541 L351.256,44.253 L351.256,44.253 Z" id="in" sketch:type="MSShapeGroup"></path>
            </g>
        </g>
    </g>
</svg>