<?xml version="1.0" encoding="UTF-8" standalone="no"?>
<svg width="61px" height="61px" viewBox="0 0 61 61" version="1.1" xmlns="http://www.w3.org/2000/svg" xmlns:xlink="http://www.w3.org/1999/xlink" xmlns:sketch="http://www.bohemiancoding.com/sketch/ns">
    <!-- Generator: Sketch 3.0.2 (7799) - http://www.bohemiancoding.com/sketch -->
    <title>insta</title>
    <description>Created with Sketch.</description>
    <defs></defs>
    <g id="Page-1" stroke="none" stroke-width="1" fill="none" fill-rule="evenodd" sketch:type="MSPage">
        <g id="Portrait" sketch:type="MSArtboardGroup" transform="translate(-228.000000, -389.000000)" fill="#4F7FA3">
            <g id="Imported-Layers" sketch:type="MSLayerGroup" transform="translate(228.000000, 389.000000)">
                <g id="insta" sketch:type="MSShapeGroup">
                    <path d="M41.21,17.339 C40.249,17.338 39.286,17.338 38.323,17.339 C37.634,17.34 37.085,17.891 37.085,18.581 C37.085,19.536 37.081,20.491 37.089,21.446 C37.089,21.589 37.116,21.737 37.161,21.872 C37.335,22.38 37.802,22.692 38.372,22.695 C38.837,22.696 39.3,22.694 39.765,22.694 C40.267,22.689 40.773,22.698 41.274,22.687 C41.921,22.67 42.448,22.117 42.448,21.47 L42.448,18.58 C42.448,17.889 41.901,17.339 41.21,17.339" id="Fill-8"></path>
                    <path d="M39.909,31.247 C39.747,32.61 39.308,33.879 38.591,35.05 C37.874,36.223 36.944,37.194 35.808,37.967 C32.858,39.973 28.976,40.149 25.847,38.396 C24.265,37.51 23.023,36.275 22.157,34.684 C20.866,32.31 20.659,29.817 21.417,27.231 C20.448,27.232 19.485,27.232 18.509,27.232 L18.509,27.315 L18.509,40.86 C18.509,41.509 19.073,42.068 19.724,42.068 L41.231,42.068 C41.89,42.068 42.448,41.51 42.448,40.856 C42.45,36.346 42.448,31.837 42.448,27.327 L42.448,27.233 L39.532,27.233 C39.944,28.548 40.071,29.885 39.909,31.247" id="Fill-9"></path>
                    <path d="M30.339,36.295 C33.798,36.37 36.595,33.609 36.669,30.253 C36.743,26.791 33.946,23.932 30.48,23.934 C27.091,23.932 24.337,26.654 24.29,30.023 C24.241,33.482 27.013,36.224 30.339,36.295" id="Fill-10"></path>
                    <path d="M30.48,0.116 C13.888,0.116 0.437,13.548 0.437,30.116 C0.437,46.685 13.888,60.116 30.48,60.116 C47.073,60.116 60.524,46.685 60.524,30.116 C60.524,13.548 47.073,0.116 30.48,0.116 L30.48,0.116 Z M45.757,42.322 C45.735,42.458 45.716,42.596 45.688,42.731 C45.446,43.984 44.427,45.024 43.179,45.288 C43.021,45.322 42.862,45.344 42.704,45.372 L18.257,45.372 C18.192,45.361 18.126,45.348 18.062,45.34 C16.718,45.168 15.587,44.144 15.288,42.822 C15.253,42.667 15.231,42.511 15.204,42.356 L15.204,17.878 C15.214,17.821 15.226,17.764 15.233,17.707 C15.427,16.338 16.427,15.249 17.78,14.941 C17.927,14.908 18.075,14.888 18.224,14.861 L42.737,14.861 C42.794,14.872 42.851,14.884 42.907,14.892 C44.294,15.081 45.423,16.142 45.69,17.51 C45.718,17.643 45.735,17.777 45.757,17.911 L45.757,42.322 L45.757,42.322 Z" id="Fill-11"></path>
                </g>
            </g>
        </g>
    </g>
</svg>