<?xml version="1.0" encoding="UTF-8" standalone="no"?>
<svg width="22px" height="29px" viewBox="0 0 22 29" version="1.1" xmlns="http://www.w3.org/2000/svg" xmlns:xlink="http://www.w3.org/1999/xlink" xmlns:sketch="http://www.bohemiancoding.com/sketch/ns">
    <!-- Generator: Sketch 3.0.3 (7891) - http://www.bohemiancoding.com/sketch -->
    <title>intership</title>
    <desc>Created with Sketch.</desc>
    <defs></defs>
    <g id="Page-1" stroke="none" stroke-width="1" fill="none" fill-rule="evenodd" sketch:type="MSPage">
        <g id="Portrait" sketch:type="MSArtboardGroup" transform="translate(-376.000000, -585.000000)" stroke="#FFFDFD">
            <path d="M396.507794,600.122023 C395.058794,601.908023 390.192794,600.362023 385.639794,596.667023 C381.086794,592.973023 378.571794,588.530023 380.021794,586.743023 C381.470794,584.956023 386.337794,586.503023 390.890794,590.197023 C395.442794,593.891023 397.957794,598.335023 396.507794,600.122023 L396.507794,600.122023 Z M379.878794,586.934023 C377.541794,589.438023 376.449794,593.018023 377.271794,596.606023 C378.587794,602.348023 384.309794,605.936023 390.051794,604.620023 C392.869794,603.974023 395.165794,602.268023 396.620794,600.020023 M381.972794,593.020023 L393.105794,586.807023 L390.093794,599.567023 M390.941794,611.008023 C390.941794,611.860023 390.250794,612.551023 389.398794,612.551023 L380.191794,612.551023 C379.338794,612.551023 378.647794,611.860023 378.647794,611.008023 C378.647794,610.155023 379.338794,609.463023 380.191794,609.463023 L389.398794,609.463023 C390.250794,609.463023 390.941794,610.155023 390.941794,611.008023 L390.941794,611.008023 Z M384.718794,604.444023 L384.718794,609.463023 L384.718794,604.444023 Z M393.105794,586.807023 L385.639794,596.667023 L393.105794,586.807023 Z" id="intership" sketch:type="MSShapeGroup"></path>
        </g>
    </g>
</svg>