<?xml version="1.0" encoding="UTF-8" standalone="no"?>
<svg width="252px" height="82px" viewBox="0 0 252 82" version="1.1" xmlns="http://www.w3.org/2000/svg" xmlns:xlink="http://www.w3.org/1999/xlink" xmlns:sketch="http://www.bohemiancoding.com/sketch/ns">
    <!-- Generator: Sketch 3.0.2 (7799) - http://www.bohemiancoding.com/sketch -->
    <title>key</title>
    <description>Created with Sketch.</description>
    <defs></defs>
    <g id="Page-1" stroke="none" stroke-width="1" fill="none" fill-rule="evenodd" sketch:type="MSPage">
        <g id="Portrait" sketch:type="MSArtboardGroup" transform="translate(-307.000000, -815.000000)" fill="#FFFFFF">
            <g id="key" sketch:type="MSLayerGroup" transform="translate(308.000000, 815.000000)">
                <path d="M247.217,47.678 L80.296,47.678 L80.296,45.678 L247.217,45.678 C248.064,45.678 248.754,44.988 248.754,44.141 L248.754,37.879 C248.754,37.031 248.064,36.342 247.217,36.342 L80.296,36.342 L80.296,34.342 L247.217,34.342 C249.167,34.342 250.754,35.929 250.754,37.879 L250.754,44.141 C250.754,46.091 249.167,47.678 247.217,47.678" id="Fill-1" sketch:type="MSShapeGroup"></path>
                <path d="M236.939,70.338 L228.646,70.338 C228.094,70.338 227.647,69.891 227.647,69.338 L227.647,57.174 C227.647,55.769 226.503,54.625 225.098,54.625 L224.839,54.625 C223.434,54.625 222.29,55.769 222.29,57.174 L222.29,69.338 C222.29,69.891 221.843,70.338 221.29,70.338 L209.94,70.338 C209.387,70.338 208.94,69.891 208.94,69.338 L208.94,57.174 C208.94,55.769 207.796,54.625 206.391,54.625 L206.132,54.625 C204.726,54.625 203.582,55.769 203.582,57.174 L203.582,69.338 C203.582,69.891 203.135,70.338 202.582,70.338 L193.831,70.338 C191.322,70.338 189.281,68.297 189.281,65.788 L189.281,45.937 L191.281,45.937 L191.281,65.788 C191.281,67.194 192.425,68.338 193.831,68.338 L201.582,68.338 L201.582,57.174 C201.582,54.666 203.623,52.625 206.132,52.625 L206.391,52.625 C208.899,52.625 210.939,54.666 210.939,57.174 L210.939,68.338 L220.29,68.338 L220.29,57.174 C220.29,54.666 222.331,52.625 224.839,52.625 L225.098,52.625 C227.606,52.625 229.647,54.666 229.647,57.174 L229.647,68.338 L236.939,68.338 C238.345,68.338 239.488,67.194 239.488,65.788 L239.488,45.937 L241.488,45.937 L241.488,65.788 C241.488,68.297 239.447,70.338 236.939,70.338" id="Fill-2" sketch:type="MSShapeGroup"></path>
                <path d="M40.354,73.363 C29.675,73.363 20.987,64.676 20.987,53.998 C20.987,49.152 22.756,44.578 25.988,41.01 C22.756,37.443 20.987,32.869 20.987,28.023 C20.987,17.346 29.675,8.658 40.354,8.658 C51.032,8.658 59.72,17.346 59.72,28.023 C59.72,32.87 57.951,37.444 54.72,41.01 C57.951,44.577 59.72,49.152 59.72,53.998 C59.72,64.676 51.032,73.363 40.354,73.363 L40.354,73.363 Z M40.354,10.658 C30.777,10.658 22.987,18.448 22.987,28.023 C22.987,32.662 24.794,37.022 28.075,40.303 C28.466,40.693 28.466,41.326 28.075,41.717 C24.794,44.999 22.987,49.36 22.987,53.998 C22.987,63.573 30.777,71.363 40.354,71.363 C49.93,71.363 57.72,63.573 57.72,53.998 C57.72,49.359 55.913,44.998 52.632,41.717 C52.444,41.529 52.339,41.274 52.339,41.01 C52.339,40.744 52.444,40.49 52.632,40.303 C55.913,37.023 57.72,32.663 57.72,28.023 C57.72,18.448 49.93,10.658 40.354,10.658 L40.354,10.658 Z" id="Fill-3" sketch:type="MSShapeGroup"></path>
                <path d="M78.762,45.692 C76.441,64.83 60.107,79.71 40.354,79.71 C19.014,79.71 1.653,62.35 1.653,41.01 C1.653,19.67 19.014,2.31 40.354,2.31 C60.111,2.31 76.448,17.195 78.763,36.339 L80.778,36.339 C78.453,16.09 61.216,0.31 40.354,0.31 C17.911,0.31 -0.347,18.567 -0.347,41.01 C-0.347,63.452 17.911,81.71 40.354,81.71 C61.212,81.71 78.446,65.935 80.777,45.692 L78.762,45.692" id="Fill-4" sketch:type="MSShapeGroup"></path>
            </g>
        </g>
    </g>
</svg>