<?xml version="1.0" encoding="UTF-8" standalone="no"?>
<svg width="258px" height="84px" viewBox="0 0 258 84" version="1.1" xmlns="http://www.w3.org/2000/svg" xmlns:xlink="http://www.w3.org/1999/xlink" xmlns:sketch="http://www.bohemiancoding.com/sketch/ns">
    <!-- Generator: Sketch 3.0.3 (7891) - http://www.bohemiancoding.com/sketch -->
    <title>key</title>
    <desc>Created with Sketch.</desc>
    <defs></defs>
    <g id="Page-1" stroke="none" stroke-width="1" fill="none" fill-rule="evenodd" sketch:type="MSPage">
        <g id="Portrait" sketch:type="MSArtboardGroup" transform="translate(-158.000000, -302.000000)" fill="#FFFFFF">
            <g id="key" sketch:type="MSLayerGroup" transform="translate(159.000000, 302.000000)">
                <path d="M234.015007,72.029541 C233.449864,72.029541 232.991198,71.5716385 232.991198,71.0051507 L232.991198,58.5444678 C232.991198,57.1041751 231.820983,55.9332971 230.381507,55.9332971 L229.689035,55.9332961 C228.249558,55.9332961 227.079344,57.1041741 227.079344,58.5444668 L227.079344,71.0051497 C227.079344,71.5716375 226.621701,72.02954 226.055535,72.02954 L215.088942,72.0295409 C214.522776,72.0295409 214.065133,71.5716385 214.065133,71.0051507 L214.065133,58.5444677 C214.065133,57.1041751 212.894919,55.933297 211.455442,55.933297 L210.632443,55.9332961 C209.191943,55.9332961 208.021729,57.1041741 208.021729,58.5444668 L208.021729,71.0051497 C208.021729,71.5716375 207.564086,72.02954 206.997919,72.02954 L198.597419,72.0295409 C196.028681,72.0295409 193.939085,69.9387604 193.939085,67.3685653 L193.966857,47.2356585 L196.014476,47.2356585 L195.986704,67.3685653 C195.986704,68.808858 197.157942,69.9807604 198.597419,69.9807604 L205.97411,69.9807595 L205.97411,58.5444668 C205.97411,55.9752961 208.063705,53.8845156 210.632443,53.8845156 L211.455442,53.8845165 C214.023157,53.8845165 216.112752,55.975297 216.112752,58.5444677 L216.112752,69.9807604 L225.031725,69.9807595 L225.031725,58.5444668 C225.031725,55.9752961 227.12132,53.8845156 229.689035,53.8845156 L230.381507,53.8845166 C232.949221,53.8845166 235.038817,55.9752971 235.038817,58.5444678 L235.038817,69.9807605 L242.391053,69.9807604 C243.831553,69.9807604 245.001767,68.808858 245.001767,67.3685653 L245.029539,47.2356585 L247.077158,47.2356585 L247.049387,67.3685653 C247.049387,69.9387604 244.959791,72.0295409 242.391053,72.0295409 L234.015007,72.029541 Z" id="Fill-1" sketch:type="MSShapeGroup"></path>
                <path d="M80.8164524,46.9846829 C78.4401905,66.5894634 61.7172857,81.8323902 41.4929524,81.8323902 C19.6448571,81.8323902 1.87152381,64.0479512 1.87152381,42.1884878 C1.87152381,20.328 19.6448571,2.54356098 41.4929524,2.54356098 C61.721381,2.54356098 78.4473571,17.7926341 80.8164524,37.403561 L82.8804524,37.403561 C80.5000952,16.6606829 62.8526905,0.494780488 41.4929524,0.494780488 C18.516619,0.494780488 -0.176095238,19.1980976 -0.176095238,42.1884878 C-0.176095238,65.1778537 18.516619,83.8811707 41.4929524,83.8811707 C62.8485952,83.8811707 80.4929286,67.7214146 82.8794286,46.9846829 L80.8164524,46.9846829" id="Fill-2" sketch:type="MSShapeGroup"></path>
                <path d="M82.0157471,35.0137195 L82.0157471,37.0625 L252.911057,37.0625 C253.778223,37.0625 254.484652,37.7683049 254.484652,38.6369878 L254.855881,45.3958537 C254.855881,46.2635122 254.149452,46.9703415 253.282286,46.9703415 L82.5835476,46.9703415 L82.5835476,49.019122 L253.282286,49.019122 C255.278714,49.019122 256.9035,47.3934146 256.9035,45.3958537 L256.532271,38.6369878 C256.532271,36.6394268 254.907485,35.0137195 252.911057,35.0137195 L82.0157471,35.0137195 Z" id="Fill-3" sketch:type="MSShapeGroup"></path>
                <path d="M40.9687619,75.8089756 C29.7959286,75.8089756 20.7055238,66.714439 20.7055238,55.5352683 C20.7055238,50.5956585 22.483881,45.8926829 25.7324286,42.1884878 C22.483881,38.4832683 20.7055238,33.7813171 20.7055238,28.8406829 C20.7055238,17.6615122 29.7959286,8.56697561 40.9687619,8.56697561 C52.1415952,8.56697561 61.232,17.6615122 61.232,28.8406829 C61.232,33.7813171 59.452619,38.4832683 56.2040714,42.1884878 C59.452619,45.8926829 61.232,50.5956585 61.232,55.5352683 C61.232,66.714439 52.1415952,75.8089756 40.9687619,75.8089756 L40.9687619,75.8089756 Z M40.9687619,10.6157561 C30.9241667,10.6157561 22.7531429,18.792439 22.7531429,28.8406829 C22.7531429,33.5702927 24.5663095,38.057122 27.8599048,41.4765366 L28.5448333,42.1884878 L27.8599048,42.8994146 C24.5663095,46.3188293 22.7531429,50.8066829 22.7531429,55.5352683 C22.7531429,65.5845366 30.9241667,73.7601951 40.9687619,73.7601951 C51.0123333,73.7601951 59.184381,65.5845366 59.184381,55.5352683 C59.184381,50.8066829 57.3701905,46.3188293 54.0765952,42.8994146 L53.3916667,42.1884878 L54.0765952,41.4765366 C57.3701905,38.057122 59.184381,33.5702927 59.184381,28.8406829 C59.184381,18.792439 51.0123333,10.6157561 40.9687619,10.6157561 L40.9687619,10.6157561 Z" id="Fill-4" sketch:type="MSShapeGroup"></path>
            </g>
        </g>
    </g>
</svg>