<?xml version="1.0" encoding="UTF-8" standalone="no"?>
<svg width="56px" height="53px" viewBox="0 0 56 53" version="1.1" xmlns="http://www.w3.org/2000/svg" xmlns:xlink="http://www.w3.org/1999/xlink" xmlns:sketch="http://www.bohemiancoding.com/sketch/ns">
    <!-- Generator: Sketch 3.0.3 (7891) - http://www.bohemiancoding.com/sketch -->
    <title>leader</title>
    <desc>Created with Sketch.</desc>
    <defs></defs>
    <g id="Page-1" stroke="none" stroke-width="1" fill="none" fill-rule="evenodd" sketch:type="MSPage">
        <g id="Portrait" sketch:type="MSArtboardGroup" transform="translate(-507.000000, -587.000000)" stroke="#FFFFFF">
            <g id="leader" sketch:type="MSLayerGroup" transform="translate(508.000000, 588.000000)">
                <path d="M27.478,29.336 L26.793,30.067 L35.041,38.868 L35.769,38.184 L27.478,29.336" id="Fill-1" sketch:type="MSShapeGroup"></path>
                <path d="M5.6,0.302 L6.287,8.185 L20.123,22.949 L20.809,22.218 L7.255,7.754 L6.708,1.478 L12.807,2.391 L26.106,16.57 L26.793,15.839 L13.298,1.453 L5.6,0.302" id="Fill-2" sketch:type="MSShapeGroup"></path>
                <path d="M33.463,22.949 L32.778,23.68 L41.412,32.884 L42.14,32.2 L33.463,22.949" id="Fill-3" sketch:type="MSShapeGroup"></path>
                <path d="M45.77,28.79 L35.769,38.184 L35.041,38.868 L31.466,42.227 L32.15,42.955 L36.748,38.637 L36.416,38.283 L36.78,37.94 L36.416,38.283 L36.074,37.918 L40.991,33.296 L41.668,34.016 L46.455,29.52 L45.77,28.79" id="Fill-4" sketch:type="MSShapeGroup"></path>
                <path d="M37.488,37.963 L40.948,34.711 L52.185,46.673 L48.724,49.924 L37.488,37.963 M40.991,33.296 L36.074,37.918 L36.416,38.283 L36.78,37.94 L36.416,38.283 L36.748,38.637 L48.679,51.339 L53.598,46.718 L40.991,33.296" id="Fill-5" sketch:type="MSShapeGroup"></path>
                <path d="M47.983,0.302 L40.286,1.455 L26.793,15.839 L26.106,16.57 L11.445,32.2 L12.173,32.884 L40.778,2.391 L46.878,1.478 L46.331,7.753 L17.816,38.185 L18.545,38.87 L47.297,8.185 L47.983,0.302" id="Fill-6" sketch:type="MSShapeGroup"></path>
                <path d="M7.815,28.79 L7.13,29.52 L11.751,33.86 L12.407,33.162 L16.962,37.44 L17.327,37.783 L16.671,38.481 L21.434,42.955 L22.119,42.227 L18.545,38.87 L17.816,38.185 L7.815,28.79" id="Fill-7" sketch:type="MSShapeGroup"></path>
                <path d="M4.677,49.789 L1.214,46.538 L12.452,34.576 L15.912,37.827 L4.677,49.789 M12.407,33.162 L-0.2,46.583 L4.72,51.202 L17.327,37.783 L16.962,37.44 L12.407,33.162" id="Fill-8" sketch:type="MSShapeGroup"></path>
            </g>
        </g>
    </g>
</svg>