<?xml version="1.0" encoding="UTF-8" standalone="no"?>
<svg width="267px" height="24px" viewBox="0 0 267 24" version="1.1" xmlns="http://www.w3.org/2000/svg" xmlns:xlink="http://www.w3.org/1999/xlink" xmlns:sketch="http://www.bohemiancoding.com/sketch/ns">
    <!-- Generator: Sketch 3.0.2 (7799) - http://www.bohemiancoding.com/sketch -->
    <title>logo</title>
    <description>Created with Sketch.</description>
    <defs></defs>
    <g id="Page-1" stroke="none" stroke-width="1" fill="none" fill-rule="evenodd" sketch:type="MSPage">
        <g id="Portrait" sketch:type="MSArtboardGroup" transform="translate(-244.000000, -534.000000)" fill="#000206">
            <g id="logo" sketch:type="MSLayerGroup" transform="translate(245.000000, 535.000000)">
                <path d="M158.788,20.89 L158.788,19.725 C160.795,19.698 162.493,18.997 162.493,16.991 L162.493,3.794 C162.493,2.311 161.248,2.08 159.013,2.052 L159.013,0.89 L170.03,0.89 L175.368,14.434 L175.443,14.434 L180.821,0.89 L191.913,0.89 L191.913,2.052 C189.149,2.052 188.24,2.516 188.24,3.967 L188.24,17.805 C188.24,19.26 189.149,19.725 191.913,19.725 L191.913,20.89 L178.775,20.89 L178.775,19.725 C181.274,19.725 182.182,19.26 182.182,17.805 L182.182,3.038 L182.107,3.038 L174.877,20.89 L171.618,20.89 L164.692,3.038 L164.617,3.038 L164.617,16.991 C164.617,18.997 166.319,19.698 168.592,19.725 L168.592,20.89 L158.788,20.89" id="Fill-1" sketch:type="MSShapeGroup"></path>
                <path d="M190.844,20.89 L190.844,19.725 C193.683,19.316 194.59,18.445 195.915,16.034 L204.32,0.539 L206.327,0.539 L216.02,17.776 C216.815,19.173 217.648,19.607 219.616,19.725 L219.616,20.89 L205.95,20.89 L205.95,19.725 L207.463,19.725 C209.432,19.725 209.735,19.376 209.735,18.766 C209.735,18.388 209.546,18.01 209.319,17.603 L207.463,14.259 L199.133,14.259 L197.924,16.558 C197.732,16.932 197.469,17.574 197.469,18.388 C197.469,19.202 198.152,19.725 199.626,19.725 L201.483,19.725 L201.483,20.89 L190.844,20.89 L190.844,20.89 Z M203.185,6.615 L199.969,12.747 L206.633,12.747 L203.185,6.615 L203.185,6.615 Z" id="Fill-2" sketch:type="MSShapeGroup"></path>
                <path d="M244.738,16.467 C244.738,19.347 243.106,21.237 238.933,21.237 C234.88,21.237 233.288,19.666 233.011,16.236 C232.732,12.688 232.571,11.73 228.279,11.292 L228.279,17.399 C228.279,19.056 228.797,19.725 232.097,19.725 L232.097,20.89 L218.025,20.89 L218.025,19.725 C220.966,19.725 221.921,19.26 221.921,17.805 L221.921,3.967 C221.921,2.516 220.966,2.052 218.025,2.052 L218.025,0.89 L231.938,0.89 C238.695,0.89 242.111,2.863 242.111,6.237 C242.111,10.043 236.945,11.005 232.493,11.064 L232.493,11.118 C237.343,11.585 238.459,13.473 239.372,15.479 C240.603,18.3 240.845,18.622 241.795,18.622 C242.79,18.622 243.029,17.457 243.146,16.467 L244.738,16.467 L244.738,16.467 Z M228.279,10.247 C232.614,10.103 235.275,9.608 235.275,6.267 C235.275,3.853 233.605,2.226 230.861,2.226 C229.473,2.226 228.279,2.632 228.279,3.967 L228.279,10.247 L228.279,10.247 Z" id="Fill-3" sketch:type="MSShapeGroup"></path>
                <path d="M245.112,13.211 L246.778,13.211 C247.8,16.382 250.336,19.898 255.144,19.898 C257.759,19.898 259.99,18.97 259.99,16.527 C259.99,12.312 245.341,13.764 245.341,7.106 C245.341,2.923 249.39,0.539 254.16,0.539 C258.286,0.539 259.649,2.08 260.67,2.08 C261.43,2.08 261.73,1.408 262.147,0.89 L263.738,0.89 L263.738,7.806 L262.223,7.806 C261.126,4.638 258.703,1.877 254.729,1.877 C252.341,1.877 250.336,2.894 250.336,4.813 C250.336,9.347 265.216,7.106 265.216,14.638 C265.216,18.97 260.103,21.237 255.903,21.237 C251.245,21.237 249.466,19.725 248.257,19.725 C247.497,19.725 246.928,20.511 246.625,20.89 L245.112,20.89 L245.112,13.211" id="Fill-4" sketch:type="MSShapeGroup"></path>
                <path d="M8.894,16.51 C8.815,16.51 8.752,16.445 8.752,16.353 L8.72,8.148 L4.936,14.207 C4.872,14.316 4.744,14.316 4.681,14.207 L0.961,8.131 L0.961,16.353 C0.961,16.445 0.897,16.51 0.8,16.51 L-0.185,16.51 C-0.28,16.51 -0.327,16.445 -0.327,16.353 L-0.327,5.54 C-0.327,5.442 -0.28,5.38 -0.185,5.38 L0.563,5.38 C0.611,5.38 0.673,5.427 0.69,5.46 L4.793,12.107 L8.975,5.477 C8.99,5.442 9.085,5.38 9.117,5.38 L9.817,5.38 C9.912,5.38 9.96,5.442 9.96,5.54 L9.96,16.353 C9.96,16.445 9.912,16.51 9.817,16.51 L8.894,16.51" id="Fill-5" sketch:type="MSShapeGroup"></path>
                <path d="M11.564,16.51 C11.453,16.51 11.388,16.415 11.42,16.305 L14.901,5.301 C14.918,5.237 14.998,5.19 15.063,5.19 L16.222,5.19 C16.286,5.19 16.367,5.237 16.383,5.301 L19.849,16.305 C19.88,16.415 19.816,16.51 19.706,16.51 L18.608,16.51 C18.544,16.51 18.464,16.462 18.449,16.399 L17.59,13.633 L13.6,13.633 L12.725,16.399 C12.709,16.462 12.628,16.51 12.566,16.51 L11.564,16.51 L11.564,16.51 Z M13.965,12.487 L17.207,12.487 L15.603,6.97 L13.965,12.487 L13.965,12.487 Z" id="Fill-6" sketch:type="MSShapeGroup"></path>
                <path d="M22.438,10.944 C23.838,9.197 25.507,7.162 26.908,5.442 C26.922,5.411 26.985,5.38 27.018,5.38 L28.193,5.38 C28.337,5.38 28.418,5.523 28.321,5.635 L24.394,10.501 C25.11,11.407 25.825,12.377 26.541,13.33 C27.288,14.316 28.036,15.302 28.767,16.257 C28.847,16.367 28.783,16.51 28.641,16.51 L27.305,16.51 C27.271,16.51 27.192,16.479 27.176,16.445 L23.489,11.613 C23.122,12.06 22.805,12.487 22.438,12.933 L22.438,16.353 C22.438,16.445 22.375,16.51 22.28,16.51 L21.293,16.51 C21.197,16.51 21.134,16.445 21.134,16.353 L21.134,5.54 C21.134,5.442 21.197,5.38 21.293,5.38 L22.28,5.38 C22.375,5.38 22.438,5.442 22.438,5.54 L22.438,10.944" id="Fill-7" sketch:type="MSShapeGroup"></path>
                <path d="M30.197,5.54 C30.197,5.442 30.259,5.38 30.355,5.38 L36.558,5.38 C36.652,5.38 36.715,5.442 36.715,5.54 L36.715,6.43 C36.715,6.525 36.652,6.588 36.558,6.588 L31.5,6.588 L31.5,10.34 L36.126,10.34 C36.222,10.34 36.287,10.406 36.287,10.501 L36.287,11.374 C36.287,11.47 36.222,11.535 36.126,11.535 L31.5,11.535 L31.5,15.302 L36.526,15.302 C36.619,15.302 36.683,15.366 36.683,15.462 L36.683,16.353 C36.683,16.445 36.619,16.51 36.526,16.51 L30.355,16.51 C30.259,16.51 30.197,16.445 30.197,16.353 L30.197,5.54" id="Fill-8" sketch:type="MSShapeGroup"></path>
                <path d="M42.455,16.51 C42.358,16.51 42.294,16.445 42.294,16.353 L42.294,5.54 C42.294,5.442 42.358,5.38 42.455,5.38 L43.44,5.38 C43.535,5.38 43.599,5.442 43.599,5.54 L43.599,16.353 C43.599,16.445 43.535,16.51 43.44,16.51 L42.455,16.51" id="Fill-9" sketch:type="MSShapeGroup"></path>
                <path d="M48.83,16.51 C48.735,16.51 48.671,16.445 48.671,16.353 L48.671,6.637 L45.602,6.637 C45.505,6.637 45.441,6.573 45.441,6.479 L45.441,5.54 C45.441,5.442 45.505,5.38 45.602,5.38 L53.012,5.38 C53.106,5.38 53.17,5.442 53.17,5.54 L53.17,6.479 C53.17,6.573 53.106,6.637 53.012,6.637 L49.976,6.637 L49.976,16.353 C49.976,16.445 49.91,16.51 49.815,16.51 L48.83,16.51" id="Fill-10" sketch:type="MSShapeGroup"></path>
                <path d="M67.686,16.51 C67.606,16.51 67.544,16.445 67.544,16.353 L67.512,8.148 L63.727,14.207 C63.664,14.316 63.535,14.316 63.472,14.207 L59.751,8.131 L59.751,16.353 C59.751,16.445 59.687,16.51 59.593,16.51 L58.607,16.51 C58.511,16.51 58.463,16.445 58.463,16.353 L58.463,5.54 C58.463,5.442 58.511,5.38 58.607,5.38 L59.354,5.38 C59.402,5.38 59.464,5.427 59.48,5.46 L63.583,12.107 L67.766,5.477 C67.782,5.442 67.875,5.38 67.908,5.38 L68.607,5.38 C68.703,5.38 68.751,5.442 68.751,5.54 L68.751,16.353 C68.751,16.445 68.703,16.51 68.607,16.51 L67.686,16.51" id="Fill-11" sketch:type="MSShapeGroup"></path>
                <path d="M70.831,5.54 C70.831,5.442 70.895,5.38 70.99,5.38 L77.191,5.38 C77.288,5.38 77.352,5.442 77.352,5.54 L77.352,6.43 C77.352,6.525 77.288,6.588 77.191,6.588 L72.134,6.588 L72.134,10.34 L76.763,10.34 C76.859,10.34 76.92,10.406 76.92,10.501 L76.92,11.374 C76.92,11.47 76.859,11.535 76.763,11.535 L72.134,11.535 L72.134,15.302 L77.159,15.302 C77.255,15.302 77.319,15.366 77.319,15.462 L77.319,16.353 C77.319,16.445 77.255,16.51 77.159,16.51 L70.99,16.51 C70.895,16.51 70.831,16.445 70.831,16.353 L70.831,5.54" id="Fill-12" sketch:type="MSShapeGroup"></path>
                <path d="M78.303,16.51 C78.193,16.51 78.129,16.415 78.161,16.305 L81.643,5.301 C81.658,5.237 81.738,5.19 81.801,5.19 L82.962,5.19 C83.027,5.19 83.105,5.237 83.121,5.301 L86.588,16.305 C86.618,16.415 86.557,16.51 86.444,16.51 L85.346,16.51 C85.284,16.51 85.204,16.462 85.188,16.399 L84.329,13.633 L80.338,13.633 L79.465,16.399 C79.449,16.462 79.369,16.51 79.304,16.51 L78.303,16.51 L78.303,16.51 Z M80.705,12.487 L83.948,12.487 L82.341,6.97 L80.705,12.487 L80.705,12.487 Z" id="Fill-13" sketch:type="MSShapeGroup"></path>
                <path d="M94.059,16.51 C94.028,16.51 93.948,16.462 93.933,16.432 L89.163,8.131 L89.163,16.353 C89.163,16.445 89.099,16.51 89.002,16.51 L88.017,16.51 C87.923,16.51 87.874,16.445 87.874,16.353 L87.874,5.54 C87.874,5.442 87.923,5.38 88.017,5.38 L89.019,5.38 C89.066,5.38 89.146,5.427 89.163,5.46 L93.884,13.743 L93.884,5.54 C93.884,5.442 93.948,5.38 94.028,5.38 L95.03,5.38 C95.124,5.38 95.172,5.442 95.172,5.54 L95.172,16.353 C95.172,16.445 95.124,16.51 95.03,16.51 L94.059,16.51" id="Fill-14" sketch:type="MSShapeGroup"></path>
                <path d="M110.21,16.51 C110.132,16.51 110.069,16.445 110.069,16.353 L110.036,8.148 L106.252,14.207 C106.188,14.316 106.062,14.316 105.997,14.207 L102.278,8.131 L102.278,16.353 C102.278,16.445 102.214,16.51 102.118,16.51 L101.132,16.51 C101.038,16.51 100.99,16.445 100.99,16.353 L100.99,5.54 C100.99,5.442 101.038,5.38 101.132,5.38 L101.879,5.38 C101.927,5.38 101.991,5.427 102.007,5.46 L106.11,12.107 L110.291,5.477 C110.307,5.442 110.403,5.38 110.435,5.38 L111.133,5.38 C111.229,5.38 111.275,5.442 111.275,5.54 L111.275,16.353 C111.275,16.445 111.229,16.51 111.133,16.51 L110.21,16.51" id="Fill-15" sketch:type="MSShapeGroup"></path>
                <path d="M113.39,8.8 C113.39,6.875 114.645,5.253 116.951,5.253 C119.226,5.253 120.464,6.875 120.498,8.8 L120.513,13.108 C120.464,15.034 119.226,16.638 116.951,16.638 C114.645,16.638 113.39,15.034 113.39,13.091 L113.39,8.8 L113.39,8.8 Z M116.967,6.559 C115.519,6.559 114.707,7.479 114.691,8.896 L114.691,12.947 C114.691,14.411 115.503,15.334 116.967,15.334 C118.397,15.334 119.178,14.443 119.209,13.013 L119.209,8.896 C119.178,7.479 118.397,6.559 116.967,6.559 L116.967,6.559 Z" id="Fill-16" sketch:type="MSShapeGroup"></path>
                <path d="M129.495,8.625 C129.51,10.085 128.667,11.693 126.966,12.219 C127.095,12.44 127.253,12.68 127.411,12.902 C128.143,14.031 128.92,15.224 129.638,16.32 C129.7,16.415 129.638,16.51 129.525,16.51 L128.189,16.51 C128.157,16.51 128.095,16.479 128.08,16.445 L125.439,12.346 L123.659,12.346 L123.659,16.385 C123.659,16.445 123.596,16.51 123.548,16.51 L122.499,16.51 C122.435,16.51 122.37,16.445 122.37,16.385 L122.37,5.508 C122.37,5.442 122.435,5.38 122.499,5.38 L126.092,5.38 C128.366,5.38 129.477,7.018 129.495,8.625 L129.495,8.625 Z M123.659,6.606 L123.659,11.152 L126.092,11.152 C127.523,11.152 128.189,9.831 128.207,8.657 C128.189,7.463 127.539,6.606 126.076,6.606 L123.659,6.606 L123.659,6.606 Z" id="Fill-17" sketch:type="MSShapeGroup"></path>
                <path d="M131.194,5.54 C131.194,5.442 131.256,5.38 131.352,5.38 L137.555,5.38 C137.65,5.38 137.713,5.442 137.713,5.54 L137.713,6.43 C137.713,6.525 137.65,6.588 137.555,6.588 L132.499,6.588 L132.499,10.34 L137.125,10.34 C137.221,10.34 137.284,10.406 137.284,10.501 L137.284,11.374 C137.284,11.47 137.221,11.535 137.125,11.535 L132.499,11.535 L132.499,15.302 L137.523,15.302 C137.618,15.302 137.682,15.366 137.682,15.462 L137.682,16.353 C137.682,16.445 137.618,16.51 137.523,16.51 L131.352,16.51 C131.256,16.51 131.194,16.445 131.194,16.353 L131.194,5.54" id="Fill-18" sketch:type="MSShapeGroup"></path>
                <path d="M147.136,-0.474 L148.636,-0.474 L148.636,22.176 L147.136,22.176 L147.136,-0.474 Z" id="Fill-19" sketch:type="MSShapeGroup"></path>
            </g>
        </g>
    </g>
</svg>