<?xml version="1.0" encoding="UTF-8" standalone="no"?>
<svg width="28px" height="20px" viewBox="0 0 28 20" version="1.1" xmlns="http://www.w3.org/2000/svg" xmlns:xlink="http://www.w3.org/1999/xlink" xmlns:sketch="http://www.bohemiancoding.com/sketch/ns">
    <!-- Generator: Sketch 3.0.3 (7891) - http://www.bohemiancoding.com/sketch -->
    <title>mail</title>
    <desc>Created with Sketch.</desc>
    <defs></defs>
    <g id="Page-1" stroke="none" stroke-width="1" fill="none" fill-rule="evenodd" sketch:type="MSPage">
        <g id="Portrait" sketch:type="MSArtboardGroup" transform="translate(-449.000000, -475.000000)" stroke="#FFFFFF" stroke-width="2">
            <g id="mail" sketch:type="MSLayerGroup" transform="translate(451.500000, 477.000000)">
                <path d="M22.5,14.9648073 C22.5,15.5365095 22.0374684,16 21.4683453,16 L0.530703025,16 C-0.0384201597,16 -0.5,15.5365095 -0.5,14.9648073 L-0.5,1.03615035 C-0.5,0.464448169 -0.0384201597,0 0.530703025,0 L21.4683453,0 C22.0374684,0 22.5,0.464448169 22.5,1.03615035 L22.5,14.9648073 L22.5,14.9648073 Z" id="Stroke-1" sketch:type="MSShapeGroup"></path>
                <path d="M-0.5,0.763 L8.86909301,9.343 C8.86909301,9.343 9.97371578,10.391 11.0004927,10.391 C11.9848978,10.391 13.2688617,9.217 13.2688617,9.217 L22.5,0.763" id="Stroke-2" stroke-linecap="round" stroke-linejoin="round" sketch:type="MSShapeGroup"></path>
            </g>
        </g>
    </g>
</svg>