<?xml version="1.0" encoding="UTF-8" standalone="no"?>
<svg width="208px" height="61px" viewBox="0 0 208 61" version="1.1" xmlns="http://www.w3.org/2000/svg" xmlns:xlink="http://www.w3.org/1999/xlink" xmlns:sketch="http://www.bohemiancoding.com/sketch/ns">
    <!-- Generator: Sketch 3.0.3 (7891) - http://www.bohemiancoding.com/sketch -->
    <title>Shape</title>
    <desc>Created with Sketch.</desc>
    <defs></defs>
    <g id="Page-1" stroke="none" stroke-width="1" fill="none" fill-rule="evenodd" sketch:type="MSPage">
        <g id="marscom" sketch:type="MSLayerGroup" fill="#395B97">
            <path d="M30.053,60 C13.46,60 0.009,46.569 0.009,30 C0.009,13.432 13.46,0 30.053,0 L176.877,0 C193.469,0 206.92,13.432 206.92,30 C206.92,46.569 193.469,60 176.877,60 L30.053,60 L30.053,60 Z M77.653,39.75 L64.783,39.75 L64.783,38.584 L66.296,38.584 C68.265,38.584 68.568,38.236 68.568,37.626 C68.568,37.248 68.379,36.87 68.152,36.462 L66.296,33.119 L57.966,33.119 L56.757,35.417 C56.565,35.792 56.302,36.434 56.302,37.248 C56.302,38.062 56.985,38.584 58.459,38.584 L60.316,38.584 L60.316,39.75 L37.607,39.75 L37.607,38.584 C40.106,38.584 41.014,38.12 41.014,36.665 L41.014,21.898 L40.939,21.898 L33.709,39.75 L30.45,39.75 L23.524,21.898 L23.449,21.898 L23.449,35.851 C23.449,37.857 25.151,38.558 27.424,38.584 L27.424,39.75 L17.62,39.75 L17.62,38.584 C19.627,38.558 21.325,37.857 21.325,35.851 L21.325,22.654 C21.325,21.17 20.08,20.94 17.845,20.912 L17.845,19.749 L28.862,19.749 L34.2,33.294 L34.275,33.294 L39.653,19.749 L50.745,19.749 L50.745,20.912 C47.981,20.912 47.072,21.375 47.072,22.827 L47.072,36.665 C47.072,37.944 47.774,38.457 49.82,38.563 C52.546,38.146 53.444,37.264 54.747,34.894 L63.152,19.399 L65.159,19.399 L74.853,36.636 C75.588,37.929 76.356,38.397 78.027,38.552 C80.058,38.426 80.753,37.906 80.753,36.665 L80.753,22.827 C80.753,21.375 79.798,20.912 76.857,20.912 L76.857,19.749 L90.77,19.749 C97.527,19.749 100.943,21.723 100.943,25.097 C100.943,28.903 95.777,29.865 91.325,29.923 L91.325,29.978 C96.175,30.445 97.291,32.332 98.204,34.338 C99.435,37.16 99.677,37.482 100.627,37.482 C101.622,37.482 101.861,36.317 101.978,35.327 L103.57,35.327 C103.57,38.206 101.938,40.097 97.765,40.097 C93.712,40.097 92.12,38.526 91.843,35.096 C91.564,31.548 91.403,30.59 87.111,30.152 L87.111,36.259 C87.111,37.916 87.629,38.584 90.929,38.584 L90.929,39.75 L77.652,39.75 L77.653,39.75 Z M103.945,32.071 L105.611,32.071 C106.633,35.242 109.169,38.758 113.977,38.758 C116.592,38.758 118.823,37.83 118.823,35.387 C118.823,31.172 104.174,32.623 104.174,25.966 C104.174,21.783 108.223,19.399 112.993,19.399 C117.119,19.399 118.482,20.94 119.503,20.94 C120.263,20.94 120.563,20.268 120.981,19.749 L122.571,19.749 L122.571,26.666 L121.056,26.666 C119.959,23.498 117.536,20.737 113.563,20.737 C111.174,20.737 109.169,21.753 109.169,23.673 C109.169,28.207 124.049,25.966 124.049,33.498 C124.049,37.83 118.937,40.097 114.736,40.097 C110.078,40.097 108.299,38.584 107.09,38.584 C106.33,38.584 105.761,39.371 105.458,39.75 L103.945,39.75 L103.945,32.071 L103.945,32.071 Z M131.23,37.791 C131.23,36.517 130.196,35.484 128.923,35.484 C127.649,35.484 126.616,36.517 126.616,37.791 C126.616,39.065 127.649,40.097 128.923,40.097 C130.196,40.097 131.23,39.065 131.23,37.791 L131.23,37.791 Z M135.075,31.366 C135.075,30.608 135.21,29.849 135.479,29.091 C135.748,28.333 136.158,27.649 136.706,27.04 C137.255,26.431 137.953,25.937 138.802,25.558 C139.65,25.179 140.643,24.989 141.781,24.989 C142.859,24.989 143.767,25.154 144.505,25.483 C145.243,25.812 145.872,26.187 146.391,26.606 C146.511,26.726 146.541,26.855 146.481,26.995 L145.523,28.462 C145.483,28.542 145.423,28.592 145.343,28.612 C145.263,28.632 145.183,28.612 145.103,28.552 C144.704,28.213 144.195,27.918 143.576,27.669 C142.957,27.42 142.309,27.295 141.63,27.295 C140.951,27.295 140.358,27.41 139.849,27.639 C139.34,27.869 138.916,28.178 138.577,28.567 C138.238,28.956 137.983,29.4 137.814,29.899 C137.644,30.398 137.56,30.917 137.56,31.456 L137.56,34.599 C137.56,35.138 137.645,35.667 137.814,36.186 C137.984,36.705 138.238,37.159 138.577,37.548 C138.916,37.937 139.35,38.252 139.879,38.491 C140.408,38.731 141.032,38.85 141.75,38.85 C142.349,38.85 142.952,38.72 143.561,38.461 C144.17,38.202 144.684,37.912 145.103,37.593 C145.243,37.493 145.412,37.543 145.612,37.743 C145.692,37.843 145.827,38.042 146.016,38.342 C146.206,38.641 146.36,38.921 146.48,39.18 C146.54,39.28 146.49,39.429 146.33,39.629 C145.851,40.028 145.212,40.387 144.414,40.707 C143.616,41.026 142.678,41.186 141.6,41.186 C140.522,41.186 139.579,40.991 138.771,40.602 C137.963,40.213 137.284,39.709 136.735,39.09 C136.186,38.471 135.772,37.778 135.493,37.009 C135.214,36.241 135.074,35.467 135.074,34.689 L135.074,31.366 L135.075,31.366 Z M161.779,34.689 C161.779,35.467 161.639,36.241 161.36,37.009 C161.081,37.777 160.661,38.471 160.103,39.09 C159.544,39.709 158.846,40.213 158.007,40.602 C157.169,40.991 156.191,41.186 155.073,41.186 C153.995,41.186 153.047,40.991 152.229,40.602 C151.411,40.213 150.732,39.709 150.193,39.09 C149.654,38.471 149.245,37.778 148.966,37.009 C148.687,36.241 148.547,35.467 148.547,34.689 L148.547,31.366 C148.567,30.608 148.717,29.849 148.996,29.091 C149.275,28.333 149.695,27.649 150.253,27.04 C150.812,26.431 151.505,25.937 152.334,25.558 C153.162,25.179 154.135,24.989 155.253,24.989 C156.331,24.989 157.279,25.184 158.097,25.573 C158.915,25.962 159.594,26.466 160.133,27.085 C160.672,27.704 161.081,28.397 161.36,29.166 C161.639,29.934 161.779,30.708 161.779,31.486 L161.779,34.689 L161.779,34.689 Z M185.969,41.036 C185.809,41.036 185.729,40.956 185.729,40.796 L185.729,31.725 C185.729,31.186 185.654,30.652 185.504,30.123 C185.354,29.594 185.12,29.125 184.8,28.716 C184.481,28.307 184.077,27.973 183.588,27.713 C183.099,27.454 182.515,27.324 181.837,27.324 C181.138,27.324 180.54,27.449 180.041,27.698 C179.542,27.947 179.128,28.282 178.799,28.701 C178.47,29.12 178.23,29.594 178.08,30.123 C177.93,30.652 177.855,31.186 177.855,31.725 L177.855,40.796 C177.855,40.956 177.775,41.036 177.615,41.036 L175.699,41.036 C175.539,41.036 175.459,40.956 175.459,40.796 L175.459,31.725 C175.459,31.186 175.384,30.652 175.234,30.123 C175.084,29.594 174.85,29.125 174.53,28.716 C174.211,28.307 173.807,27.973 173.318,27.713 C172.829,27.454 172.245,27.324 171.567,27.324 C170.868,27.324 170.27,27.449 169.771,27.698 C169.272,27.947 168.858,28.282 168.529,28.701 C168.2,29.12 167.96,29.594 167.81,30.123 C167.66,30.652 167.585,31.186 167.585,31.725 L167.585,40.796 C167.585,40.956 167.505,41.036 167.345,41.036 L165.429,41.036 C165.289,41.036 165.219,40.956 165.219,40.796 L165.219,25.438 C165.219,25.278 165.289,25.198 165.429,25.198 L167.345,25.198 C167.505,25.198 167.585,25.278 167.585,25.438 L167.585,26.695 C168.144,26.176 168.758,25.762 169.426,25.453 C170.095,25.144 170.818,24.989 171.596,24.989 C172.853,24.989 173.911,25.248 174.769,25.767 C175.627,26.286 176.306,26.935 176.805,27.713 C177.304,26.955 177.988,26.311 178.856,25.782 C179.724,25.253 180.727,24.989 181.865,24.989 C182.943,24.989 183.871,25.179 184.649,25.558 C185.427,25.937 186.071,26.431 186.58,27.04 C187.089,27.649 187.468,28.332 187.718,29.091 C187.967,29.849 188.102,30.608 188.122,31.366 L188.122,40.796 C188.122,40.956 188.042,41.036 187.882,41.036 L185.966,41.036 L185.969,41.036 Z M62.019,25.475 L58.802,31.607 L65.466,31.607 L62.019,25.475 L62.019,25.475 Z M87.112,29.107 C91.447,28.962 94.108,28.468 94.108,25.127 C94.108,22.712 92.438,21.085 89.694,21.085 C88.306,21.085 87.112,21.492 87.112,22.827 L87.112,29.107 L87.112,29.107 Z M155.103,38.881 C155.802,38.881 156.415,38.761 156.944,38.522 C157.473,38.282 157.917,37.968 158.276,37.579 C158.635,37.19 158.905,36.741 159.084,36.232 C159.264,35.723 159.353,35.199 159.353,34.66 L159.353,31.576 C159.353,31.037 159.263,30.508 159.084,29.989 C158.904,29.47 158.64,29.016 158.291,28.627 C157.942,28.238 157.503,27.923 156.974,27.684 C156.445,27.444 155.821,27.325 155.103,27.325 C154.424,27.325 153.831,27.44 153.322,27.669 C152.813,27.899 152.389,28.208 152.05,28.597 C151.711,28.986 151.451,29.425 151.272,29.914 C151.092,30.403 151.003,30.917 151.003,31.456 L151.003,34.629 C151.003,35.168 151.088,35.697 151.257,36.216 C151.427,36.735 151.686,37.189 152.035,37.578 C152.384,37.967 152.813,38.282 153.322,38.521 C153.831,38.761 154.425,38.88 155.103,38.88 L155.103,38.881 Z" id="Shape" sketch:type="MSShapeGroup"></path>
        </g>
    </g>
</svg>