<?xml version="1.0" encoding="UTF-8" standalone="no"?>
<svg width="45px" height="23px" viewBox="0 0 45 23" version="1.1" xmlns="http://www.w3.org/2000/svg" xmlns:xlink="http://www.w3.org/1999/xlink" xmlns:sketch="http://www.bohemiancoding.com/sketch/ns">
    <!-- Generator: Sketch 3.0.3 (7891) - http://www.bohemiancoding.com/sketch -->
    <title>money</title>
    <desc>Created with Sketch.</desc>
    <defs></defs>
    <g id="Page-1" stroke="none" stroke-width="1" fill="none" fill-rule="evenodd" sketch:type="MSPage">
        <g id="Portrait" sketch:type="MSArtboardGroup" transform="translate(-382.000000, -111.000000)" fill="#42A84D">
            <g id="money" sketch:type="MSLayerGroup" transform="translate(383.000000, 112.000000)">
                <path d="M24.198,10.855 C23.865,10.549 23.32,10.214 22.567,9.851 C21.137,9.164 20.419,8.499 20.416,7.855 C20.413,7.477 20.539,7.163 20.79,6.914 C21.041,6.665 21.396,6.539 21.856,6.536 C22.442,6.532 23.007,6.672 23.551,6.952 L23.729,7.045 C23.919,7.17 24.142,7.083 24.223,6.849 C24.304,6.618 24.437,6.229 24.521,5.989 C24.603,5.749 24.525,5.453 24.348,5.331 C24.348,5.331 24.348,5.331 24.148,5.242 C23.831,5.1 23.451,4.996 23.007,4.929 L22.867,4.907 C22.701,4.891 22.567,4.744 22.566,4.582 C22.567,4.421 22.566,4.127 22.565,3.926 C22.566,3.728 22.375,3.567 22.141,3.568 C21.907,3.57 21.512,3.572 21.263,3.574 C21.014,3.576 20.812,3.73 20.813,3.917 C20.814,4.105 20.815,4.418 20.817,4.611 C20.818,4.805 20.64,5.015 20.423,5.079 C20.423,5.079 20.423,5.079 20.242,5.157 C19.772,5.36 19.381,5.653 19.067,6.039 C18.634,6.573 18.419,7.187 18.423,7.883 C18.427,8.354 18.509,8.778 18.673,9.162 C18.836,9.544 19.069,9.872 19.372,10.145 C19.676,10.42 20.247,10.763 21.085,11.178 C21.921,11.592 22.493,11.974 22.793,12.327 C23.094,12.681 23.247,13.06 23.248,13.464 C23.253,14.271 22.671,14.678 21.501,14.685 C20.942,14.689 20.373,14.543 19.798,14.249 L19.591,14.143 C19.362,13.993 19.091,14.075 18.991,14.323 C18.89,14.573 18.727,14.976 18.628,15.219 C18.531,15.462 18.655,15.782 18.91,15.929 C18.91,15.929 18.91,15.929 19.152,16.033 C19.541,16.202 19.95,16.321 20.378,16.388 L20.546,16.415 C20.736,16.431 20.891,16.556 20.892,16.69 C20.893,16.826 20.894,17.068 20.895,17.229 C20.896,17.391 20.898,17.646 20.899,17.796 C20.9,17.946 21.083,18.069 21.304,18.067 C21.526,18.065 21.921,18.064 22.182,18.062 C22.442,18.06 22.656,17.945 22.655,17.807 C22.654,17.669 22.652,17.385 22.651,17.177 C22.65,16.97 22.648,16.687 22.647,16.548 C22.647,16.41 22.804,16.251 22.998,16.197 C22.998,16.197 22.998,16.197 23.162,16.136 C23.736,15.919 24.199,15.602 24.555,15.184 C25.01,14.648 25.237,14.021 25.233,13.305 C25.231,12.8 25.14,12.342 24.964,11.931 C24.788,11.522 24.532,11.162 24.198,10.855" id="Fill-1" sketch:type="MSShapeGroup"></path>
                <path d="M41.309,-0.29 L2.213,-0.047 C1.609,-0.043 1.039,0.198 0.611,0.631 C0.182,1.066 -0.052,1.637 -0.048,2.244 L0.06,19.66 C0.067,20.916 1.095,21.93 2.351,21.923 L33.186,21.731 C34.453,21.724 35.885,21.077 36.87,20.125 L42.63,14.294 C43.183,13.659 43.665,12.614 43.658,11.601 L43.599,1.973 C43.591,0.718 42.563,-0.297 41.309,-0.29 L41.309,-0.29 Z M4.106,19.873 C3.023,19.88 2.135,19.055 2.128,18.033 L2.041,3.846 C2.038,3.353 2.24,2.888 2.609,2.534 C2.981,2.18 3.473,1.983 3.995,1.981 L17.324,1.898 C14.832,3.746 13.168,7.076 13.192,10.87 C13.215,14.665 14.92,17.973 17.435,19.791 L4.106,19.873 L4.106,19.873 Z M21.882,19.246 C18.237,19.269 15.25,15.506 15.221,10.857 C15.192,6.209 18.133,2.409 21.777,2.387 C25.422,2.364 28.41,6.128 28.439,10.775 C28.467,15.423 25.527,19.224 21.882,19.246 L21.882,19.246 Z M41.579,11.356 C41.583,12.105 40.979,12.716 40.23,12.721 L36.573,12.743 C35.519,12.75 34.663,13.618 34.67,14.669 L34.692,18.328 C34.697,19.076 34.094,19.688 33.345,19.692 L26.334,19.736 C28.827,17.887 30.49,14.558 30.466,10.763 C30.443,6.968 28.739,3.66 26.223,1.843 L39.552,1.76 C40.636,1.754 41.524,2.579 41.53,3.602 L41.579,11.356 L41.579,11.356 Z" id="Fill-2" sketch:type="MSShapeGroup"></path>
            </g>
        </g>
    </g>
</svg>