<?xml version="1.0" encoding="UTF-8" standalone="no"?>
<svg width="72px" height="44px" viewBox="0 0 72 44" version="1.1" xmlns="http://www.w3.org/2000/svg" xmlns:xlink="http://www.w3.org/1999/xlink" xmlns:sketch="http://www.bohemiancoding.com/sketch/ns">
    <!-- Generator: Sketch 3.0.3 (7891) - http://www.bohemiancoding.com/sketch -->
    <title>moto</title>
    <desc>Created with Sketch.</desc>
    <defs></defs>
    <g id="Page-1" stroke="none" stroke-width="1" fill="none" fill-rule="evenodd" sketch:type="MSPage">
        <g id="Portrait" sketch:type="MSArtboardGroup" transform="translate(-431.000000, -620.000000)" stroke="#FFFFFF">
            <g id="moto" sketch:type="MSLayerGroup" transform="translate(431.000000, 621.000000)">
                <path d="M51.543,18.284 C52.089,17.934 52.68,17.606 53.323,17.298 L55.671,21.784 L56.085,21.631 C57.218,21.209 58.431,20.969 59.702,20.969 C62.57,20.969 65.169,22.135 67.057,24.021 C68.942,25.907 70.108,28.506 70.108,31.376 C70.108,34.246 68.942,36.845 67.057,38.73 C65.169,40.616 62.57,41.782 59.702,41.782 C56.83,41.782 54.231,40.616 52.345,38.73 C50.46,36.845 49.294,34.246 49.293,31.376 C49.294,27.945 50.968,24.907 53.539,23.009 L53.883,22.754 L53.685,22.374 L51.543,18.284 M53.769,15.994 L53.34,16.188 C52.33,16.642 51.423,17.147 50.608,17.702 L50.24,17.954 L52.604,22.467 C49.985,24.555 48.293,27.767 48.293,31.376 C48.295,37.667 53.409,42.781 59.702,42.781 C65.992,42.781 71.107,37.667 71.107,31.376 C71.107,25.085 65.992,19.971 59.702,19.969 C58.46,19.969 57.269,20.178 56.153,20.546 L53.769,15.994 M40.069,2.741 C39.7,2.741 39.403,2.445 39.402,2.077 C39.403,1.705 39.698,1.409 40.069,1.406 L43.15,1.396 L43.299,1.212 C43.385,1.107 43.488,1.018 43.613,0.954 L43.616,0.952 C43.766,0.874 43.926,0.837 44.087,0.837 C44.453,0.837 44.806,1.035 44.989,1.382 L44.997,1.398 L49.163,8.028 C49.457,8.501 49.939,9.049 50.444,9.685 C50.945,10.315 51.463,11.02 51.793,11.714 L51.989,12.128 L52.419,11.967 C54.705,11.113 57.16,10.648 59.702,10.648 C61.984,10.648 64.229,11.018 66.369,11.746 C66.793,11.889 67.06,12.285 67.06,12.71 C67.06,12.816 67.043,12.927 67.005,13.04 L67.007,13.037 C66.864,13.459 66.468,13.727 66.044,13.727 C65.935,13.727 65.826,13.709 65.719,13.673 C63.79,13.017 61.77,12.683 59.717,12.683 L59.702,12.683 C54.578,12.682 49.823,14.755 46.381,18.256 L46.373,18.264 C44.28,20.49 42.901,23.107 41.792,25.961 C40.909,28.223 39.671,29.701 38.178,30.635 C36.686,31.568 34.912,31.963 32.939,31.963 L27.473,31.963 L25.58,31.963 C25.581,31.885 25.581,31.799 25.581,31.708 C25.581,31.187 25.56,30.473 25.47,29.752 L25.401,29.204 L22.099,29.949 L22.144,30.388 C22.177,30.713 22.195,31.044 22.195,31.376 C22.193,34.246 21.028,36.845 19.142,38.73 C17.255,40.616 14.657,41.782 11.786,41.782 C8.917,41.782 6.32,40.616 4.433,38.73 C2.547,36.845 1.381,34.246 1.38,31.376 C1.381,28.506 2.547,25.907 4.433,24.021 C6.32,22.135 8.917,20.969 11.786,20.969 C16.18,20.969 19.941,23.71 21.465,27.573 L21.622,27.971 L24.912,27.23 L24.753,26.714 C24.02,24.37 21.738,20.978 18.077,19.231 L6.777,13.854 L7.733,11.843 L7.278,11.629 C5.896,10.983 4.548,10.293 3.568,9.672 C3.14,9.4 2.784,9.14 2.532,8.916 L7.936,8.916 C9.231,8.96 10.678,8.968 12.166,9.192 C16.497,9.846 22.049,11.035 28.302,11.035 C32.798,11.035 37.662,10.418 42.698,8.544 C43.079,8.401 43.639,8.21 44.103,8.054 C44.437,7.942 44.72,7.849 44.851,7.805 L44.84,7.771 L44.803,7.69 L44.692,7.712 L44.595,7.223 L44.595,7.221 L44.499,6.731 L45.036,6.625 L43.429,2.731 L40.071,2.741 L40.069,2.741 M44.087,-0.164 C43.771,-0.164 43.447,-0.09 43.15,0.068 L43.153,0.066 C42.979,0.157 42.825,0.269 42.691,0.398 L40.064,0.407 C39.143,0.412 38.402,1.158 38.402,2.079 C38.405,2.999 39.15,3.741 40.069,3.741 L40.072,3.741 L42.76,3.732 L44.108,6.998 C43.607,7.165 42.849,7.42 42.349,7.607 C37.444,9.432 32.708,10.035 28.302,10.035 C22.172,10.035 16.693,8.866 12.314,8.204 C10.737,7.965 9.243,7.96 7.971,7.916 L1.124,7.916 L1.124,8.416 C1.124,8.654 1.208,8.858 1.316,9.035 C1.508,9.346 1.794,9.617 2.153,9.902 C3.138,10.673 4.721,11.518 6.4,12.321 L5.445,14.327 L17.647,20.133 C20.725,21.582 22.815,24.443 23.618,26.496 L22.23,26.809 C20.466,22.788 16.454,19.971 11.786,19.969 C5.498,19.971 0.382,25.085 0.381,31.376 C0.382,37.667 5.498,42.781 11.786,42.781 C18.078,42.781 23.193,37.667 23.195,31.376 C23.195,31.16 23.187,30.945 23.175,30.731 L24.533,30.425 C24.57,30.899 24.582,31.352 24.582,31.708 C24.582,31.93 24.577,32.114 24.573,32.241 C24.57,32.369 24.565,32.436 24.565,32.436 L24.537,32.964 L25.065,32.964 L32.939,32.964 C35.042,32.964 37.016,32.54 38.709,31.483 C40.401,30.427 41.783,28.744 42.724,26.323 C43.807,23.54 45.126,21.054 47.094,18.956 L47.095,18.956 C50.353,15.644 54.849,13.683 59.702,13.683 C61.651,13.683 63.567,13.998 65.394,14.618 C65.608,14.692 65.827,14.727 66.044,14.727 C66.885,14.727 67.668,14.196 67.954,13.357 L67.954,13.354 C68.025,13.142 68.061,12.925 68.059,12.71 C68.061,11.868 67.531,11.085 66.692,10.799 C64.448,10.035 62.092,9.649 59.702,9.649 C57.191,9.649 54.76,10.081 52.485,10.879 C52.118,10.218 51.657,9.605 51.226,9.062 C50.708,8.412 50.223,7.849 50.016,7.505 L49.556,7.787 L50.012,7.5 L45.868,0.908 C45.507,0.227 44.808,-0.164 44.087,-0.164" id="Fill-1" sketch:type="MSShapeGroup"></path>
            </g>
        </g>
    </g>
</svg>