<?xml version="1.0" encoding="UTF-8" standalone="no"?>
<svg width="18px" height="19px" viewBox="0 0 18 19" version="1.1" xmlns="http://www.w3.org/2000/svg" xmlns:xlink="http://www.w3.org/1999/xlink" xmlns:sketch="http://www.bohemiancoding.com/sketch/ns">
    <!-- Generator: Sketch 3.0.2 (7799) - http://www.bohemiancoding.com/sketch -->
    <title>question-1</title>
    <description>Created with Sketch.</description>
    <defs></defs>
    <g id="Page-1" stroke="none" stroke-width="1" fill="none" fill-rule="evenodd" sketch:type="MSPage">
        <g id="Portrait" sketch:type="MSArtboardGroup" transform="translate(-282.000000, -490.000000)" fill="#FFFFFF">
            <g id="question-1" sketch:type="MSLayerGroup" transform="translate(282.000000, 491.000000)">
                <path d="M17.145,4.867 C16.242,2.908 14.654,1.332 12.685,0.444 C11.562,-0.062 10.318,-0.345 9.007,-0.345 C7.695,-0.345 6.451,-0.062 5.328,0.444 C3.396,1.315 1.828,2.848 0.919,4.757 C0.364,5.92 0.053,7.222 0.053,8.596 C0.053,9.971 0.364,11.273 0.919,12.436 C1.801,14.288 3.302,15.788 5.157,16.67 C6.323,17.226 7.628,17.538 9.007,17.538 C10.386,17.538 11.69,17.226 12.856,16.67 C14.747,15.77 16.269,14.228 17.145,12.325 C17.668,11.19 17.961,9.928 17.961,8.596 C17.961,7.265 17.668,6.003 17.145,4.867 L17.145,4.867 Z M12.611,11.579 C12.441,11.92 12.214,12.2 11.923,12.424 C11.585,12.692 11.21,12.881 10.8,12.995 C10.392,13.11 9.876,13.166 9.246,13.166 L5.62,13.166 L5.62,4.106 L8.821,4.106 C9.486,4.106 9.99,4.13 10.333,4.183 C10.677,4.231 10.998,4.338 11.297,4.5 C11.622,4.675 11.864,4.909 12.023,5.2 C12.183,5.492 12.265,5.829 12.265,6.211 C12.265,6.654 12.154,7.047 11.932,7.391 C11.713,7.737 11.407,7.99 11.019,8.153 L11.019,8.201 C11.578,8.32 12.026,8.559 12.361,8.922 C12.698,9.287 12.867,9.776 12.867,10.391 C12.867,10.841 12.782,11.239 12.611,11.579 L12.611,11.579 Z" id="Fill-1" sketch:type="MSShapeGroup"></path>
                <path d="M8.989,7.672 C9.145,7.663 9.307,7.622 9.473,7.546 C9.653,7.459 9.781,7.342 9.848,7.192 C9.918,7.041 9.953,6.866 9.953,6.669 C9.953,6.521 9.916,6.371 9.84,6.219 C9.766,6.064 9.651,5.953 9.489,5.883 C9.341,5.816 9.164,5.781 8.958,5.776 C8.753,5.77 8.448,5.767 8.042,5.767 L7.883,5.767 L7.883,7.685 L8.171,7.685 C8.558,7.685 8.834,7.68 8.989,7.672" id="Fill-2" sketch:type="MSShapeGroup"></path>
                <path d="M9.843,9.334 C9.705,9.279 9.516,9.251 9.273,9.245 C9.033,9.238 8.709,9.235 8.304,9.235 L7.883,9.235 L7.883,11.504 L8.007,11.504 C8.599,11.504 9.007,11.501 9.234,11.492 C9.461,11.484 9.694,11.43 9.929,11.329 C10.136,11.239 10.285,11.107 10.382,10.935 C10.477,10.763 10.523,10.567 10.523,10.349 C10.523,10.068 10.468,9.851 10.354,9.692 C10.24,9.533 10.069,9.414 9.843,9.334" id="Fill-3" sketch:type="MSShapeGroup"></path>
            </g>
        </g>
    </g>
</svg>