<?xml version="1.0" encoding="UTF-8" standalone="no"?>
<svg width="421px" height="227px" viewBox="0 0 421 227" version="1.1" xmlns="http://www.w3.org/2000/svg" xmlns:xlink="http://www.w3.org/1999/xlink" xmlns:sketch="http://www.bohemiancoding.com/sketch/ns">
    <!-- Generator: Sketch 3.0.4 (8053) - http://www.bohemiancoding.com/sketch -->
    <title>scheme</title>
    <desc>Created with Sketch.</desc>
    <defs></defs>
    <g id="Page-1" stroke="none" stroke-width="1" fill="none" fill-rule="evenodd" sketch:type="MSPage">
        <g id="Portrait" sketch:type="MSArtboardGroup" transform="translate(-39.000000, -907.000000)">
            <g id="scheme" sketch:type="MSLayerGroup" transform="translate(40.000000, 908.000000)">
                <g id="scheme-2" transform="translate(86.000000, 0.000000)" sketch:type="MSShapeGroup">
                    <path d="M43.557,1.602 C25.346,-3.277 6.513,7.596 1.633,25.807 C-3.246,44.018 7.627,62.85 25.838,67.73 C44.049,72.61 62.882,61.736 67.762,43.526 C72.641,25.314 61.768,6.482 43.557,1.602 L43.557,1.602 Z M64.238,42.582 C59.878,58.851 43.052,68.566 26.782,64.206 C10.512,59.847 0.798,43.021 5.157,26.75 C9.517,10.481 26.343,0.766 42.613,5.126 C58.883,9.485 68.597,26.311 64.238,42.582 L64.238,42.582 Z" id="Fill-1" fill="#1A213E"></path>
                    <path d="M43.557,1.602 C25.346,-3.277 6.513,7.596 1.633,25.807 C-3.246,44.018 7.627,62.85 25.838,67.73 C44.049,72.61 62.882,61.736 67.762,43.526 C72.641,25.314 61.768,6.482 43.557,1.602 L43.557,1.602 Z M64.238,42.582 C59.878,58.851 43.052,68.566 26.782,64.206 C10.512,59.847 0.798,43.021 5.157,26.75 C9.517,10.481 26.343,0.766 42.613,5.126 C58.883,9.485 68.597,26.311 64.238,42.582 L64.238,42.582 Z" id="Stroke-2" stroke="#FFFFFF" stroke-width="1.5"></path>
                    <path d="M52.827,33.788 L52.519,33.788 L52.519,19.595 L52.827,19.595 C53.295,19.595 53.673,19.216 53.673,18.748 C53.673,18.28 53.295,17.903 52.827,17.903 L42.272,17.903 L42.272,16.39 C42.272,15.922 41.894,15.543 41.426,15.543 C40.958,15.543 40.581,15.922 40.581,16.39 L40.581,17.903 L30.029,17.903 C29.561,17.903 29.179,18.28 29.179,18.748 C29.179,19.216 29.561,19.595 30.029,19.595 L30.334,19.595 L30.334,23.845 C30.711,24.227 31.094,24.601 31.493,24.964 L31.493,19.595 L51.364,19.595 L51.364,33.788 L31.493,33.788 L31.493,30.284 C31.273,30.215 31.064,30.105 30.876,29.956 C30.697,29.816 30.513,29.677 30.334,29.538 L30.334,33.788 L30.029,33.788 C29.561,33.788 29.179,34.166 29.179,34.634 C29.179,35.102 29.561,35.479 30.029,35.479 L40.581,35.479 L40.581,45.632 L32.558,54.296 C32.294,54.58 32.309,55.023 32.593,55.287 C32.877,55.55 33.324,55.536 33.587,55.251 L40.581,47.697 L40.581,51.359 C40.581,51.828 40.958,52.206 41.426,52.206 C41.894,52.206 42.272,51.828 42.272,51.359 L42.272,47.697 L49.269,55.251 C49.533,55.536 49.976,55.55 50.259,55.287 C50.543,55.023 50.563,54.58 50.299,54.296 L42.272,45.632 L42.272,35.479 L52.827,35.479 C53.295,35.479 53.673,35.102 53.673,34.634 C53.673,34.166 53.295,33.788 52.827,33.788 L52.827,33.788 Z M37.176,23.476 C35.579,24.641 34.21,25.621 32.294,26.591 C31.129,25.641 30.025,24.581 29.02,23.486 C28.646,23.079 28.566,22.471 28.079,22.262 C26.999,21.789 26.257,21.649 25.088,21.321 C24.884,22.391 24.46,24.277 24.038,25.416 L23.968,22.81 L23.58,22.551 L23.197,22.81 L23.127,25.416 C22.714,24.392 22.152,22.411 21.888,21.361 C20.977,21.62 20.654,21.774 19.748,22.023 C19.236,22.167 19.17,22.158 18.917,22.406 C16.916,24.392 15.14,26.357 13.612,28.353 C13.14,28.97 13.179,29.781 13.716,30.344 C15.145,31.822 17.454,33.658 19.126,34.908 C19.141,35.102 19.111,36.749 19.126,37.371 L19.494,37.365 C19.763,42.865 19.987,49.877 20.111,55.067 C20.116,55.291 20.306,55.476 20.529,55.476 L22.356,55.476 C22.58,55.476 22.768,55.291 22.773,55.067 L23.197,39.017 C23.202,38.764 23.381,38.635 23.561,38.635 C23.739,38.635 23.918,38.764 23.923,39.017 L24.341,55.067 C24.351,55.291 24.536,55.476 24.764,55.476 L26.585,55.476 C26.815,55.476 26.999,55.291 27.004,55.067 C27.128,49.857 27.352,42.83 27.626,37.326 L28.208,37.321 C28.148,34.673 28.128,31.409 28.159,28.761 C28.179,28.268 28.114,27.492 28.203,26.815 C29.148,27.736 30.278,28.602 31.309,29.398 C31.791,29.776 32.433,29.761 32.936,29.463 C35.29,28.064 36.424,27.069 38.589,25.416 C40.057,24.297 38.644,22.356 37.176,23.476 L37.176,23.476 Z M16.598,29.234 C17.404,28.204 18.26,27.223 19.141,26.288 L19.141,28.602 C19.156,29.717 19.161,30.553 19.17,31.633 C18.27,30.752 17.394,30.154 16.598,29.234 L16.598,29.234 Z M23.58,13.856 C22.157,13.856 21.002,14.971 21.002,16.35 C21.002,17.679 21.963,20.55 23.58,20.55 C25.202,20.55 26.163,17.679 26.163,16.35 C26.163,14.971 25.008,13.856 23.58,13.856 L23.58,13.856 Z" id="Fill-3" fill="#1A213E"></path>
                    <path d="M47.263,26.731 L49.851,26.731 L49.851,33.265 L47.263,33.265 L47.263,26.731 Z" id="Fill-4" fill="#E86035"></path>
                    <path d="M43.75,22.053 L46.337,22.053 L46.337,33.265 L43.75,33.265 L43.75,22.053 Z" id="Fill-5" fill="#E86035"></path>
                    <path d="M40.241,24.268 L42.824,24.268 L42.824,33.266 L40.241,33.266 L40.241,24.268 Z" id="Fill-6" fill="#E86035"></path>
                    <path d="M36.728,29.811 L39.316,29.811 L39.316,33.265 L36.728,33.265 L36.728,29.811 Z" id="Fill-7" fill="#E86035"></path>
                </g>
                <g id="scheme-3" transform="translate(174.000000, 0.000000)" sketch:type="MSShapeGroup">
                    <path d="M51.356,4.626 C35.028,-4.8 14.022,0.828 4.596,17.155 C-4.831,33.483 0.797,54.488 17.125,63.915 C33.453,73.342 54.457,67.713 63.885,51.386 C73.311,35.058 67.683,14.053 51.356,4.626 L51.356,4.626 Z M60.725,49.562 C52.303,64.149 33.537,69.178 18.949,60.755 C4.362,52.334 -0.667,33.567 7.755,18.979 C16.177,4.393 34.944,-0.636 49.531,7.786 C64.119,16.208 69.147,34.974 60.725,49.562 L60.725,49.562 Z" id="Fill-8" fill="#1A213E"></path>
                    <path d="M51.356,4.626 C35.028,-4.8 14.022,0.828 4.596,17.155 C-4.831,33.483 0.797,54.488 17.125,63.915 C33.453,73.342 54.457,67.713 63.885,51.386 C73.311,35.058 67.683,14.053 51.356,4.626 L51.356,4.626 Z M60.725,49.562 C52.303,64.149 33.537,69.178 18.949,60.755 C4.362,52.334 -0.667,33.567 7.755,18.979 C16.177,4.393 34.944,-0.636 49.531,7.786 C64.119,16.208 69.147,34.974 60.725,49.562 L60.725,49.562 Z" id="Stroke-9" stroke="#FFFFFF" stroke-width="1.5"></path>
                    <path d="M48.356,22.133 C47.407,21.768 45.11,21.219 44.49,20.672 C43.972,20.207 44.07,19.29 44.635,18.921 C45.329,18.468 47.91,18.655 48.426,19.355 C48.655,19.666 48.766,20.101 48.76,20.667 L52.121,20.888 C52.155,19.574 51.78,18.522 50.996,17.735 C50.21,16.946 49.304,16.502 47.816,16.364 L47.896,15.146 L45.896,15.015 L45.815,16.252 C44.243,16.182 43.206,16.506 42.231,17.197 C41.257,17.888 40.729,18.848 40.648,20.076 C40.575,21.184 40.903,22.097 41.635,22.816 C43.49,24.645 46.868,24.635 48.119,25.815 C48.644,26.319 48.56,27.287 47.927,27.668 C47.224,28.092 44.57,28.087 43.967,27.226 C43.733,26.892 43.629,26.355 43.638,25.622 L40.101,25.389 C40.019,26.828 40.4,27.984 41.247,28.859 C42.094,29.734 43.104,30.241 44.748,30.412 L44.639,32.043 L46.571,32.17 L46.677,30.559 C48.434,30.572 49.538,30.231 50.454,29.571 C51.372,28.907 51.875,27.898 51.966,26.542 C52.042,25.373 51.719,24.421 50.996,23.682 C50.44,23.115 49.56,22.599 48.356,22.133" id="Fill-10" fill="#46A83E"></path>
                    <path d="M29.604,18.299 C31.398,18.299 32.379,15.12 32.342,13.647 C32.304,12.124 30.995,10.89 29.417,10.89 C27.841,10.89 26.593,12.124 26.632,13.647 C26.669,15.12 27.81,18.299 29.604,18.299" id="Fill-11" fill="#1A213E"></path>
                    <path d="M44.961,34.023 C42.589,32.64 41.445,31.403 39.351,29.654 C38.096,27.174 37.102,24.32 36.285,21.613 C36.148,21.16 35.88,21.064 35.814,20.78 C35.79,20.677 35.822,20.637 35.705,20.581 C35.568,20.516 35.226,20.428 34.347,20.185 C33.233,19.88 32.785,19.602 31.662,19.287 C31.373,20.57 30.871,22.657 30.307,23.843 L30.153,21.163 L29.672,20.85 L29.207,21.163 L29.188,23.843 C28.563,22.657 27.957,20.57 27.603,19.287 L23.709,20.537 C23.47,20.603 23.564,20.805 23.412,21.027 C21.903,23.197 20.791,25.457 19.826,27.931 C19.71,28.229 19.618,28.76 19.742,29.365 C20.177,31.478 21.62,35.089 22.088,36.75 C22.469,38.101 23.97,38.041 24.451,37.16 C24.459,37.375 24.484,38.234 24.495,38.451 L25.115,38.451 C25.591,44.72 26.418,51.126 26.716,57.192 C26.73,57.446 26.944,57.651 27.198,57.651 L29.244,57.651 C29.498,57.651 29.704,57.446 29.704,57.193 L29.723,39.178 C29.724,38.603 30.511,38.603 30.541,39.178 L31.466,57.193 C31.478,57.446 31.694,57.651 31.946,57.651 L33.994,57.651 C34.248,57.651 34.453,57.446 34.452,57.192 C34.446,51.126 34.952,44.72 35.113,38.451 L35.733,38.451 C35.719,35.138 35.476,31.887 35.271,28.232 C35.702,29.295 36.172,30.339 36.699,31.35 C37.26,32.429 42.582,35.465 43.95,36.244 C45.348,37.039 46.732,35.057 44.961,34.023 L44.961,34.023 Z M24.407,35.587 C23.809,33.26 23.004,30.699 22.706,28.831 C23.191,27.636 23.786,26.492 24.442,25.387 C24.466,28.875 24.341,32.145 24.407,35.587 L24.407,35.587 Z" id="Fill-12" fill="#1A213E"></path>
                </g>
                <g id="scheme-9" transform="translate(261.000000, 156.000000)" sketch:type="MSShapeGroup">
                    <path d="M67.684,25.326 C62.804,7.115 43.972,-3.758 25.761,1.122 C7.549,6.001 -3.324,24.834 1.556,43.045 C6.435,61.256 25.269,72.129 43.479,67.249 C61.69,62.37 72.563,43.537 67.684,25.326 L67.684,25.326 Z M42.535,63.726 C26.265,68.085 9.439,58.371 5.08,42.101 C0.72,25.831 10.435,9.005 26.705,4.645 C42.975,0.286 59.8,10 64.16,26.27 C68.519,42.541 58.805,59.366 42.535,63.726 L42.535,63.726 Z" id="Fill-13" fill="#1A213E"></path>
                    <path d="M67.684,25.326 C62.804,7.115 43.972,-3.758 25.761,1.122 C7.549,6.001 -3.324,24.834 1.556,43.045 C6.435,61.256 25.269,72.129 43.479,67.249 C61.69,62.37 72.563,43.537 67.684,25.326 L67.684,25.326 Z M42.535,63.726 C26.265,68.085 9.439,58.371 5.08,42.101 C0.72,25.831 10.435,9.005 26.705,4.645 C42.975,0.286 59.8,10 64.16,26.27 C68.519,42.541 58.805,59.366 42.535,63.726 L42.535,63.726 Z" id="Stroke-14" stroke="#FFFFFF" stroke-width="1.5"></path>
                    <path d="M24.323,15.86 C25.171,16.396 26.057,16.862 26.971,17.257 C27.373,16.677 28.043,16.297 28.802,16.297 C28.978,16.297 29.15,16.317 29.314,16.356 C30.3,14.706 31.524,13.191 32.958,11.865 C29.632,12.23 26.632,13.684 24.323,15.86 L24.323,15.86 Z M28.802,20.75 C29.648,20.75 30.383,20.278 30.759,19.583 C31.846,19.792 32.95,19.912 34.062,19.942 L34.062,20.235 C34.244,20.208 34.431,20.194 34.62,20.194 C34.809,20.194 34.997,20.208 35.179,20.235 L35.179,19.94 C36.856,19.891 38.515,19.634 40.121,19.179 C41.072,21.385 41.609,23.773 41.68,26.226 L37.909,26.226 C37.761,26.615 37.577,26.993 37.362,27.345 L41.68,27.345 C41.652,28.29 41.556,29.225 41.394,30.144 C41.69,30.609 41.97,31.088 42.232,31.575 C42.566,30.198 42.759,28.782 42.798,27.345 L44.603,27.345 C44.851,28.304 45.723,29.012 46.759,29.012 C47.795,29.012 48.666,28.304 48.915,27.345 L49.623,27.345 C49.491,30.952 48.086,34.236 45.842,36.757 C45.289,36.391 44.719,36.051 44.136,35.741 C44.264,36.169 44.301,36.64 44.256,37.084 C44.527,37.243 44.793,37.406 45.057,37.577 C44.705,37.918 44.336,38.241 43.952,38.546 C43.794,39.15 43.606,39.753 43.422,40.333 L43.341,40.592 C44.364,39.944 45.312,39.184 46.165,38.331 C49.12,35.376 50.947,31.294 50.947,26.785 C50.947,22.277 49.12,18.195 46.165,15.241 C43.211,12.287 39.129,10.458 34.62,10.458 C30.111,10.458 26.03,12.287 23.075,15.241 C20.121,18.195 18.293,22.277 18.293,26.785 C18.293,28.866 18.682,30.855 19.392,32.685 C18.882,33.092 18.556,33.72 18.556,34.423 C18.556,35.653 19.553,36.65 20.783,36.65 C21.039,36.65 21.286,36.605 21.515,36.526 C21.991,37.165 22.512,37.768 23.075,38.331 C23.928,39.184 24.876,39.944 25.9,40.592 L25.817,40.333 C25.635,39.753 25.447,39.151 25.288,38.546 C24.895,38.234 24.519,37.903 24.16,37.554 C24.43,37.379 24.704,37.212 24.981,37.052 C24.942,36.604 24.982,36.132 25.116,35.705 C24.524,36.016 23.949,36.356 23.388,36.727 L23.376,36.735 C23.096,36.417 22.828,36.086 22.573,35.747 C22.847,35.375 23.007,34.918 23.007,34.423 C23.007,33.193 22.011,32.197 20.783,32.197 C20.726,32.197 20.669,32.199 20.614,32.203 C20.028,30.687 19.681,29.052 19.619,27.345 L26.441,27.345 C26.481,28.782 26.673,30.198 27.009,31.575 C27.271,31.087 27.55,30.609 27.847,30.144 C27.684,29.225 27.588,28.29 27.56,27.345 L31.878,27.345 C31.663,26.993 31.481,26.615 31.331,26.226 L27.56,26.226 C27.615,24.338 27.946,22.489 28.528,20.733 C28.619,20.744 28.71,20.75 28.802,20.75 L28.802,20.75 Z M31.028,18.499 C31.02,17.856 30.742,17.279 30.301,16.878 C31.308,15.205 32.571,13.68 34.062,12.367 L34.062,18.824 C33.039,18.795 32.024,18.687 31.028,18.499 L31.028,18.499 Z M26.587,18.304 C26.579,18.376 26.576,18.45 26.576,18.524 C26.576,19.262 26.937,19.917 27.491,20.323 C26.857,22.209 26.498,24.198 26.441,26.226 L19.619,26.226 C19.752,22.55 21.209,19.212 23.526,16.672 C24.501,17.305 25.525,17.85 26.587,18.304 L26.587,18.304 Z M48.915,26.226 C48.666,25.268 47.795,24.56 46.759,24.56 C45.723,24.56 44.851,25.268 44.603,26.226 L42.798,26.226 C42.727,23.663 42.172,21.164 41.19,18.846 C42.768,18.304 44.282,17.568 45.692,16.648 C48.023,19.192 49.488,22.54 49.623,26.226 L48.915,26.226 L48.915,26.226 Z M36.283,11.865 C38.134,13.578 39.632,15.605 40.725,17.829 C42.182,17.337 43.582,16.671 44.893,15.838 C42.587,13.674 39.598,12.229 36.283,11.865 L36.283,11.865 Z M35.179,12.367 L35.179,18.822 C36.698,18.776 38.196,18.552 39.646,18.157 C38.551,15.981 37.044,14.01 35.179,12.367 L35.179,12.367 Z" id="Fill-15" fill="#972F84"></path>
                    <path d="M29.924,42.934 C29.942,40.067 30.114,37.342 30.168,34.435 C29.597,35.355 29.333,36.244 29.008,37.305 C29.217,38.862 29.475,40.997 29.924,42.934 L29.924,42.934 Z M38.529,29.834 C37.608,29.579 37.109,29.348 36.18,29.085 C35.912,30.155 35.581,32.304 35.086,33.292 L35.015,30.648 L34.62,30.388 L34.226,30.648 L34.154,33.292 C33.659,32.304 33.327,30.155 33.06,29.085 L29.657,30.125 C29.456,30.181 29.533,30.351 29.399,30.535 C28.098,32.343 27.302,34.494 26.626,36.555 C26.543,36.81 26.435,37.247 26.527,37.75 C26.843,39.511 27.612,42.52 27.968,43.904 C28.257,45.03 29.51,44.979 29.928,44.245 C29.931,44.424 29.933,45.141 29.937,45.321 L30.455,45.321 C30.72,50.544 31.275,55.883 31.398,60.938 C31.402,61.151 31.577,61.321 31.789,61.321 L33.494,61.321 C33.706,61.321 33.88,61.151 33.886,60.94 L34.28,45.928 C34.291,45.449 34.949,45.449 34.961,45.928 L35.354,60.94 C35.359,61.151 35.535,61.321 35.746,61.321 L37.452,61.321 C37.664,61.321 37.837,61.151 37.843,60.938 C37.964,55.883 38.52,50.544 38.785,45.321 L39.302,45.321 C39.306,45.141 39.309,44.424 39.311,44.245 C39.731,44.979 40.983,45.03 41.272,43.904 C41.627,42.52 42.396,39.511 42.713,37.75 C42.804,37.247 42.697,36.81 42.613,36.555 C41.938,34.494 41.143,32.343 39.841,30.535 C39.513,30.079 40.218,30.302 38.529,29.834 L38.529,29.834 Z M39.315,42.934 C39.297,40.067 39.125,37.342 39.072,34.435 C39.643,35.355 39.928,36.271 40.232,37.305 C40.023,38.862 39.765,40.997 39.315,42.934 L39.315,42.934 Z M34.62,28.294 C33.055,28.294 32.129,25.521 32.129,24.237 C32.129,22.908 33.246,21.832 34.62,21.831 C35.996,21.832 37.109,22.908 37.109,24.237 C37.109,25.521 36.185,28.294 34.62,28.294 L34.62,28.294 Z" id="Fill-16" fill="#1A213E"></path>
                </g>
                <g id="scheme-8" transform="translate(173.000000, 156.000000)" sketch:type="MSShapeGroup">
                    <path d="M67.672,25.582 C62.792,7.371 43.961,-3.502 25.749,1.377 C7.538,6.257 -3.335,25.09 1.545,43.301 C6.424,61.512 25.257,72.385 43.468,67.505 C61.679,62.626 72.552,43.793 67.672,25.582 L67.672,25.582 Z M42.524,63.982 C26.254,68.341 9.428,58.627 5.068,42.357 C0.709,26.087 10.423,9.261 26.694,4.901 C42.963,0.541 59.789,10.256 64.149,26.526 C68.508,42.796 58.794,59.622 42.524,63.982 L42.524,63.982 Z" id="Fill-17" fill="#1A213E"></path>
                    <path d="M67.672,25.582 C62.792,7.371 43.961,-3.502 25.749,1.377 C7.538,6.257 -3.335,25.09 1.545,43.301 C6.424,61.512 25.257,72.385 43.468,67.505 C61.679,62.626 72.552,43.793 67.672,25.582 L67.672,25.582 Z M42.524,63.982 C26.254,68.341 9.428,58.627 5.068,42.357 C0.709,26.087 10.423,9.261 26.694,4.901 C42.963,0.541 59.789,10.256 64.149,26.526 C68.508,42.796 58.794,59.622 42.524,63.982 L42.524,63.982 Z" id="Stroke-18" stroke="#FFFFFF" stroke-width="1.5"></path>
                    <path d="M26.37,16.658 C28.16,16.658 29.139,13.484 29.103,12.015 C29.064,10.494 27.758,9.262 26.183,9.262 C24.609,9.262 23.364,10.494 23.403,12.015 C23.44,13.484 24.579,16.658 26.37,16.658" id="Fill-19" fill="#1A213E"></path>
                    <path d="M41.699,32.354 C39.331,30.972 38.188,29.738 36.098,27.992 C34.846,25.517 33.854,22.668 33.038,19.966 C32.901,19.513 32.635,19.418 32.568,19.134 C32.544,19.031 32.577,18.992 32.459,18.936 C32.323,18.87 31.981,18.783 31.103,18.541 C29.992,18.235 29.544,17.959 28.423,17.644 C28.135,18.925 27.634,21.008 27.071,22.192 L26.918,19.517 L26.438,19.204 L25.974,19.517 L25.954,22.192 C25.33,21.008 24.726,18.925 24.373,17.644 L20.485,18.892 C20.247,18.959 20.341,19.16 20.188,19.381 C18.682,21.548 17.573,23.803 16.609,26.272 C16.493,26.569 16.401,27.1 16.525,27.703 C16.96,29.813 18.4,33.417 18.867,35.075 C19.247,36.423 20.745,36.364 21.227,35.484 C21.234,35.699 21.259,36.556 21.27,36.772 L21.889,36.772 C22.364,43.03 23.189,49.425 23.487,55.48 C23.499,55.733 23.714,55.938 23.968,55.938 L26.011,55.938 C26.264,55.938 26.468,55.733 26.468,55.481 L26.488,37.499 C26.489,36.926 27.275,36.926 27.305,37.499 L28.228,55.481 C28.24,55.733 28.455,55.938 28.707,55.938 L30.752,55.938 C31.006,55.938 31.21,55.733 31.208,55.48 C31.203,49.425 31.707,43.03 31.869,36.772 L32.487,36.772 C32.473,33.466 32.231,30.221 32.027,26.573 C32.456,27.634 32.925,28.675 33.451,29.686 C34.011,30.762 39.324,33.792 40.689,34.57 C42.085,35.365 43.467,33.385 41.699,32.354 L41.699,32.354 Z M21.183,33.914 C20.585,31.591 19.782,29.035 19.483,27.171 C19.968,25.978 20.562,24.835 21.217,23.733 C21.241,27.215 21.116,30.479 21.183,33.914 L21.183,33.914 Z" id="Fill-20" fill="#1A213E"></path>
                    <path d="M42.4,43.848 L37.405,42.214 L35.071,46.071 L37.297,46.799 C37.32,46.805 37.343,46.812 37.365,46.821 L40.066,47.705 L42.4,43.848 L42.4,43.848 Z M42.672,45.477 L40.767,48.625 C40.63,48.85 40.358,48.94 40.121,48.853 L37.703,48.063 L37.703,53.914 L42.672,55.54 L42.672,45.477 L42.672,45.477 Z M36.626,47.711 L34.095,46.883 C33.813,46.791 33.658,46.488 33.749,46.206 C33.763,46.166 33.78,46.127 33.801,46.094 L36.46,41.696 L33.307,39.183 C33.074,38.999 33.036,38.66 33.221,38.428 C33.299,38.329 33.405,38.265 33.519,38.239 L41.917,36.262 C42.091,36.222 42.264,36.27 42.389,36.378 L45.594,38.933 L48.377,37.098 C48.519,37.006 48.688,36.989 48.837,37.037 L48.838,37.036 L54.883,39.012 C55.165,39.104 55.319,39.407 55.227,39.689 C55.185,39.823 55.094,39.927 54.981,39.992 L52.526,41.608 L55.951,44.292 C56.185,44.475 56.226,44.812 56.044,45.046 C55.964,45.146 55.858,45.21 55.743,45.238 L55.743,45.24 L52.146,46.086 L52.146,54.304 C52.146,54.57 51.954,54.789 51.703,54.833 L43.362,56.797 C43.313,56.811 43.263,56.819 43.21,56.819 C43.139,56.819 43.072,56.806 43.01,56.78 L36.998,54.814 C36.771,54.741 36.628,54.53 36.628,54.304 L36.626,54.304 L36.626,47.711 L36.626,47.711 Z M37.295,40.988 L44.363,39.325 L41.909,37.369 L34.842,39.032 L37.295,40.988 L37.295,40.988 Z M46.788,39.43 L51.53,40.98 L53.492,39.687 L48.749,38.137 L46.788,39.43 L46.788,39.43 Z M51.481,42.152 L44.421,43.814 L47.349,46.109 L51.456,45.142 C51.475,45.138 51.493,45.133 51.514,45.129 L54.41,44.448 L51.481,42.152 L51.481,42.152 Z M51.069,46.338 L47.345,47.215 C47.167,47.256 46.989,47.204 46.863,47.09 L43.748,44.651 L43.748,55.602 L51.069,53.877 L51.069,46.338 L51.069,46.338 Z" id="Fill-21" fill="#E86035"></path>
                    <path d="M46.644,49.536 L46.644,52.529 C46.338,52.602 46.036,52.677 45.733,52.751 L45.733,49.767 C45.475,49.833 45.217,49.899 44.959,49.964 C45.375,49.261 45.793,48.556 46.213,47.848 C46.633,48.338 47.055,48.83 47.479,49.323 C47.199,49.394 46.921,49.465 46.644,49.536 L46.644,49.536 Z M49.461,48.819 L49.461,51.839 C49.15,51.916 48.842,51.992 48.533,52.066 L48.533,49.055 C48.268,49.123 48.006,49.19 47.744,49.256 C48.167,48.544 48.594,47.831 49.021,47.117 C49.448,47.61 49.878,48.106 50.309,48.603 C50.024,48.675 49.743,48.747 49.461,48.819 L49.461,48.819 Z M45.733,54.123 C46.346,53.976 46.965,53.827 47.584,53.679 C48.206,53.529 48.834,53.379 49.461,53.227 L49.461,52.379 C48.834,52.532 48.206,52.684 47.584,52.835 C46.965,52.985 46.346,53.135 45.733,53.285 L45.733,54.123 L45.733,54.123 Z" id="Fill-22" fill="#E86035"></path>
                </g>
                <g id="scheme-6" transform="translate(1.000000, 156.000000)" sketch:type="MSShapeGroup">
                    <path d="M34.319,-0.044 C15.465,-0.044 0.088,15.333 0.088,34.186 C0.088,53.039 15.465,68.416 34.319,68.416 C53.172,68.416 68.549,53.039 68.549,34.186 C68.549,15.333 53.172,-0.044 34.319,-0.044 L34.319,-0.044 Z M34.319,64.768 C17.475,64.768 3.736,51.03 3.736,34.186 C3.736,17.342 17.475,3.603 34.319,3.603 C51.163,3.603 64.901,17.342 64.901,34.186 C64.901,51.03 51.163,64.768 34.319,64.768 L34.319,64.768 Z" id="Fill-23" fill="#1A213E"></path>
                    <path d="M34.319,-0.044 C15.465,-0.044 0.088,15.333 0.088,34.186 C0.088,53.039 15.465,68.416 34.319,68.416 C53.172,68.416 68.549,53.039 68.549,34.186 C68.549,15.333 53.172,-0.044 34.319,-0.044 L34.319,-0.044 Z M34.319,64.768 C17.475,64.768 3.736,51.03 3.736,34.186 C3.736,17.342 17.475,3.603 34.319,3.603 C51.163,3.603 64.901,17.342 64.901,34.186 C64.901,51.03 51.163,64.768 34.319,64.768 L34.319,64.768 Z" id="Stroke-24" stroke="#FFFFFF" stroke-width="1.5"></path>
                    <path d="M20.446,44.695 C20.566,42.593 20.682,40.75 20.6,38.647 C20.562,37.692 20.491,36.695 20.399,35.695 C20.056,36.258 19.737,36.852 19.457,37.529 C19.419,39.874 19.36,41.352 19.658,43.617 C19.875,45.263 17.713,45.552 17.497,43.903 C17.334,42.674 16.66,37.695 17.031,36.784 C17.825,34.829 18.842,32.895 19.969,31.09 C20.029,30.879 20.142,30.684 20.301,30.564 C20.621,30.326 21.412,30 21.927,29.868 C21.83,30.091 23.107,30.64 24.037,29.865 C24.95,30.032 26.119,30.224 26.531,31.007 C27.452,32.759 28.351,34.899 29.399,36.579 C30.44,37.247 34.55,39.198 35.383,40.006 C36.261,40.859 35.245,41.928 34.301,41.461 C33.623,41.776 32.662,41.462 32.577,40.921 C30.904,40.258 29.477,39.634 27.983,38.603 C27.476,38.272 27.202,37.902 26.969,37.485 C26.651,36.907 26.249,36.262 26.252,36.357 C26.269,37.013 26.982,38.699 27.051,40.298 C27.33,46.743 27.368,51.831 26.935,58.618 C26.91,58.894 26.688,59.086 26.436,59.086 L24.763,59.085 C24.555,59.085 24.404,58.94 24.408,58.734 C24.502,54.304 24.543,51.573 24.25,47.347 C24.248,47.33 24.094,47.312 24.092,47.352 C23.781,51.397 23.793,54.783 23.29,58.734 C23.264,58.94 23.076,59.085 22.869,59.085 L21.196,59.086 C20.944,59.086 20.771,58.895 20.785,58.618 C21.047,53.344 21.189,50.126 21.085,44.712 L20.446,44.695 L20.446,44.695 Z M34.809,38.951 C36.228,38.166 37.44,37.51 38.908,36.497 C39.949,34.859 40.805,32.937 41.476,31.086 C41.457,31.005 41.453,30.931 41.516,30.865 C41.909,30.453 42.526,30.142 43.247,29.852 C42.879,30.619 42.587,32.154 42.55,33.319 C42.757,32.667 43.329,31.095 43.66,30.517 L44.08,30.527 C43.735,31.499 43.468,32.835 43.451,33.909 C44.064,32.266 44.789,30.741 45.514,29.799 C46.028,29.93 47.504,30.326 47.823,30.564 C48.031,30.721 48.049,30.852 48.118,31.009 L48.136,31.018 C48.969,32.095 51.556,35.581 51.711,36.798 C51.838,37.79 49.913,42.411 49.443,43.555 C49.057,44.498 48.149,44.55 47.65,44.096 C47.658,44.294 47.668,44.493 47.679,44.695 L47.206,44.682 L47.208,44.712 C46.865,48.834 47.152,54.326 47.105,58.618 C47.101,58.895 46.933,59.086 46.681,59.086 L45.008,59.085 C44.801,59.085 44.617,58.94 44.596,58.734 C44.33,56.01 44.08,52.543 43.896,49.24 C43.891,49.172 43.828,49.267 43.822,49.308 C43.371,52.416 43.037,55.585 42.779,58.734 C42.763,58.939 42.617,59.085 42.409,59.085 L40.738,59.086 C40.485,59.086 40.271,58.894 40.257,58.618 L41.067,44.716 C40.935,44.709 40.61,44.702 40.473,44.695 C40.507,43.718 40.552,41.009 40.713,38.191 C40.627,38.282 40.524,38.375 40.391,38.473 C38.841,39.607 37.933,40.037 36.262,40.728 C36.256,39.837 35.513,39.33 34.809,38.951 L34.809,38.951 Z M47.622,42.236 C47.633,40.058 47.778,37.975 47.726,35.695 L47.777,35.196 L48.151,35.605 C48.494,36.06 48.824,36.538 49.129,37.075 C48.638,39.07 48.323,40.435 47.622,42.236 L47.622,42.236 Z M44.844,23.131 C43.58,23.062 42.501,23.995 42.435,25.216 C42.37,26.397 42.736,28.974 44.172,29.052 C45.612,29.13 46.949,26.647 47.013,25.466 C47.079,24.246 46.11,23.2 44.844,23.131 L44.844,23.131 Z M22.304,23.131 C23.567,23.062 24.647,23.995 24.713,25.216 C24.778,26.396 24.413,28.974 22.975,29.052 C21.537,29.13 20.2,26.646 20.136,25.466 C20.069,24.246 21.04,23.2 22.304,23.131 L22.304,23.131 Z" id="Fill-25" fill="#1A213E"></path>
                    <path d="M34.099,29.641 C35.192,28.625 36.104,27.448 36.81,26.162 C35.925,25.944 35.016,25.814 34.099,25.774 L34.099,29.641 L34.099,29.641 Z M32.957,25.773 C32.037,25.81 31.128,25.938 30.242,26.153 C30.946,27.442 31.86,28.623 32.957,29.641 L32.957,25.773 L32.957,25.773 Z M34.099,9.403 L34.099,13.27 C35.018,13.231 35.926,13.101 36.808,12.886 C36.102,11.596 35.191,10.418 34.099,9.403 L34.099,9.403 Z M34.099,14.414 L34.099,18.951 L38.495,18.951 C38.422,17.2 38.018,15.498 37.323,13.928 C36.27,14.206 35.189,14.371 34.099,14.414 L34.099,14.414 Z M34.099,20.094 L34.099,24.633 C35.192,24.675 36.273,24.838 37.325,25.116 C38.02,23.548 38.422,21.847 38.495,20.094 L34.099,20.094 L34.099,20.094 Z M32.957,24.63 L32.957,20.094 L28.561,20.094 C28.633,21.844 29.035,23.542 29.727,25.107 C30.778,24.831 31.862,24.671 32.957,24.63 L32.957,24.63 Z M32.957,18.951 L32.957,14.416 C31.864,14.374 30.78,14.213 29.727,13.938 C29.035,15.503 28.633,17.203 28.561,18.951 L32.957,18.951 L32.957,18.951 Z M32.957,13.272 L32.957,9.403 C31.86,10.421 30.946,11.602 30.24,12.893 C31.127,13.108 32.036,13.235 32.957,13.272 L32.957,13.272 Z M35.448,29.915 C37.299,29.576 38.983,28.752 40.363,27.582 C39.584,27.137 38.768,26.772 37.926,26.488 C37.268,27.735 36.437,28.891 35.448,29.915 L35.448,29.915 Z M35.446,9.129 C36.438,10.156 37.272,11.311 37.928,12.559 C38.77,12.275 39.586,11.908 40.363,11.464 C38.983,10.294 37.299,9.47 35.446,9.129 L35.446,9.129 Z M38.422,13.592 C39.147,15.271 39.566,17.087 39.637,18.951 L44.079,18.951 C43.941,16.375 42.881,14.042 41.223,12.28 C40.334,12.815 39.395,13.255 38.422,13.592 L38.422,13.592 Z M39.637,20.094 C39.566,21.957 39.146,23.771 38.42,25.451 C39.354,25.775 40.257,26.193 41.114,26.699 C41.197,27.37 41.36,28.067 41.626,28.696 C39.468,30.602 36.633,31.758 33.527,31.758 C30.574,31.758 27.866,30.712 25.75,28.97 C26.037,28.178 26.175,27.302 26.208,26.522 C26.984,26.089 27.795,25.727 28.628,25.438 C27.906,23.762 27.489,21.951 27.417,20.094 L22.976,20.094 C23.017,20.86 23.139,21.604 23.334,22.318 C22.953,22.218 22.55,22.175 22.139,22.199 C21.956,22.208 21.776,22.231 21.6,22.266 C21.397,21.384 21.291,20.465 21.291,19.522 C21.291,16.143 22.66,13.084 24.876,10.871 C27.09,8.656 30.148,7.285 33.527,7.285 C36.906,7.285 39.966,8.656 42.179,10.871 C44.393,13.084 45.764,16.143 45.764,19.522 C45.764,20.257 45.699,20.978 45.574,21.677 C45.427,21.651 45.274,21.634 45.121,21.625 C44.685,21.601 44.258,21.651 43.857,21.764 C43.973,21.222 44.049,20.663 44.079,20.094 L39.637,20.094 L39.637,20.094 Z M29.123,26.476 C28.277,26.758 27.457,27.124 26.676,27.568 C28.058,28.746 29.747,29.574 31.607,29.915 C30.616,28.888 29.781,27.726 29.123,26.476 L29.123,26.476 Z M27.417,18.951 C27.489,17.092 27.907,15.282 28.629,13.605 C27.653,13.27 26.71,12.831 25.818,12.295 C24.167,14.057 23.113,16.383 22.976,18.951 L27.417,18.951 L27.417,18.951 Z M29.123,12.57 C29.779,11.319 30.616,10.158 31.609,9.129 C29.749,9.47 28.058,10.299 26.676,11.478 C27.456,11.922 28.277,12.288 29.123,12.57 L29.123,12.57 Z" id="Fill-26" fill="#46A83E"></path>
                </g>
                <g id="scheme-4" transform="translate(260.000000, 0.000000)" sketch:type="MSShapeGroup">
                    <path d="M43.479,1.542 C25.269,-3.338 6.435,7.535 1.556,25.746 C-3.324,43.957 7.549,62.79 25.761,67.669 C43.972,72.549 62.804,61.676 67.684,43.465 C72.563,25.254 61.69,6.421 43.479,1.542 L43.479,1.542 Z M64.161,42.521 C59.8,58.791 42.975,68.505 26.705,64.145 C10.434,59.786 0.72,42.96 5.079,26.69 C9.439,10.42 26.265,0.706 42.536,5.065 C58.805,9.425 68.519,26.251 64.161,42.521 L64.161,42.521 Z" id="Fill-27" fill="#1A213E"></path>
                    <path d="M43.479,1.542 C25.269,-3.338 6.435,7.535 1.556,25.746 C-3.324,43.957 7.549,62.79 25.761,67.669 C43.972,72.549 62.804,61.676 67.684,43.465 C72.563,25.254 61.69,6.421 43.479,1.542 L43.479,1.542 Z M64.161,42.521 C59.8,58.791 42.975,68.505 26.705,64.145 C10.434,59.786 0.72,42.96 5.079,26.69 C9.439,10.42 26.265,0.706 42.536,5.065 C58.805,9.425 68.519,26.251 64.161,42.521 L64.161,42.521 Z" id="Stroke-28" stroke="#FFFFFF" stroke-width="1.5"></path>
                    <path d="M38.495,16.291 C38.682,16.257 38.856,16.289 38.912,16.493 C38.995,16.792 38.977,17.067 38.887,17.324 C38.802,17.562 38.461,17.778 38.278,17.981 C38.201,18.069 38.035,18.108 37.919,18.099 C37.263,19.762 36.122,21.25 34.675,21.25 C33.231,21.25 32.089,19.762 31.434,18.099 C31.318,18.108 31.15,18.069 31.074,17.981 C30.892,17.778 30.549,17.562 30.467,17.324 C30.376,17.067 30.356,16.792 30.44,16.493 C30.496,16.289 30.669,16.258 30.855,16.291 C30.689,15.56 30.603,14.658 30.762,13.925 C31.149,12.13 32.986,11.147 34.675,11.147 C36.174,11.147 37.035,11.505 37.345,12.249 C38.74,12.903 38.932,14.393 38.495,16.291 L38.495,16.291 Z M34.675,23.155 L34.033,23.582 L34.213,24.292 L33.688,27.596 C32.88,25.985 32.068,23.891 31.631,22.149 C30.33,22.653 28.381,22.809 27.733,24.12 C27.065,25.466 26.757,28.449 26.649,30.838 C26.641,31.023 26.702,31.187 26.831,31.322 C26.957,31.456 27.119,31.524 27.304,31.524 L42.047,31.524 C42.234,31.524 42.394,31.456 42.522,31.322 C42.649,31.187 42.71,31.023 42.702,30.838 C42.595,28.449 42.288,25.466 41.62,24.12 C40.97,22.809 39.024,22.653 37.722,22.149 C37.285,23.891 36.472,25.985 35.665,27.596 L35.139,24.292 L35.319,23.582 L34.675,23.155 L34.675,23.155 Z M37.356,28.393 L39.595,28.393 L39.595,29.088 L37.356,29.088 L37.356,28.393 Z M45.794,37.27 C46.453,38.907 47.583,40.354 49.009,40.354 C50.424,40.354 51.549,38.927 52.209,37.305 C52.367,37.353 52.543,37.369 52.653,37.227 C52.818,37.015 52.951,36.789 53.027,36.54 C53.106,36.281 53.123,36.006 53.051,35.707 C53.025,35.603 52.946,35.528 52.85,35.504 C53.405,34.231 53.319,32.887 52.413,31.773 C51.517,30.669 50.09,30.138 48.708,30.2 L48.632,30.203 C48.707,29.982 48.733,29.75 48.692,29.419 C48.681,29.323 47.799,30.266 47.748,30.133 C47.7,30.011 47.237,29.05 47.195,29.434 C47.128,30.041 46.917,30.467 46.801,30.705 L46.763,30.725 C46.464,30.518 45.415,30.101 45.632,30.402 C45.9,30.77 46.008,31.033 46.054,31.216 C45.744,31.484 45.475,31.806 45.26,32.181 C44.646,33.25 44.569,34.578 45.147,35.533 C45.083,35.568 45.034,35.63 45.015,35.707 C44.942,36.006 44.96,36.281 45.039,36.54 C45.115,36.789 45.248,37.015 45.413,37.227 C45.514,37.357 45.652,37.339 45.794,37.27 L45.794,37.27 Z M52.151,41.253 C53.453,41.759 54.656,41.913 55.305,43.226 C55.972,44.57 56.281,47.555 56.389,49.944 C56.398,50.129 56.337,50.292 56.208,50.427 C56.08,50.56 55.92,50.629 55.735,50.629 L42.217,50.629 C42.03,50.629 41.871,50.56 41.742,50.427 C41.614,50.292 41.553,50.129 41.56,49.944 C41.669,47.555 41.977,44.57 42.644,43.226 C43.292,41.913 44.496,41.759 45.799,41.253 L48.975,43.877 L52.151,41.253 L52.151,41.253 Z M12.963,49.957 C13.017,47.699 13.339,45.441 14.039,43.184 C14.362,42.143 16.134,41.623 17.772,41.287 C18.44,42.926 19.157,43.829 19.878,43.994 L19.904,44.573 C19.922,45.001 19.937,45.361 19.951,45.669 C19.952,45.692 19.972,45.715 20.002,45.73 C20.032,45.745 20.073,45.755 20.119,45.755 C20.164,45.755 20.206,45.745 20.235,45.73 C20.266,45.715 20.285,45.692 20.286,45.669 C20.299,45.361 20.316,45.001 20.334,44.573 L20.36,43.994 C21.081,43.831 21.798,42.927 22.467,41.287 C24.103,41.623 25.875,42.143 26.198,43.184 C26.898,45.441 27.221,47.699 27.276,49.957 C27.28,50.141 27.217,50.3 27.089,50.431 C26.962,50.563 26.803,50.629 26.62,50.629 L13.618,50.629 C13.434,50.629 13.277,50.563 13.149,50.431 C13.02,50.3 12.957,50.141 12.963,49.957 L12.963,49.957 Z M17.976,39.162 C17.004,39.095 15.612,38.916 14.823,38.604 C15.538,37.888 15.973,37.108 16.003,35.945 C16.015,35.526 16.002,34.993 16.002,34.502 C16.002,32.225 17.662,30.364 19.913,30.258 C20.052,30.251 20.185,30.251 20.325,30.258 C22.576,30.364 24.237,32.224 24.237,34.502 C24.237,35.08 24.204,35.633 24.249,36.19 C24.332,37.219 24.751,37.94 25.415,38.604 C24.625,38.918 23.234,39.095 22.261,39.162 C21.669,39.885 20.943,40.37 20.119,40.37 C19.294,40.37 18.569,39.885 17.976,39.162 L17.976,39.162 Z" id="Fill-29" fill="#1A213E"></path>
                    <path d="M40.074,44.078 C40.537,44.078 40.912,44.455 40.912,44.917 C40.912,45.38 40.537,45.755 40.074,45.755 L32.742,45.755 L32.742,48.065 L28.44,44.917 L32.742,41.768 L32.742,44.078 L40.074,44.078 L40.074,44.078 Z M20.517,27.581 C20.517,28.041 20.142,28.417 19.68,28.417 C19.22,28.417 18.846,28.041 18.846,27.581 L18.844,22.666 L18.841,22.666 L18.841,22.663 C18.841,21.814 19.187,21.044 19.745,20.485 C20.303,19.927 21.074,19.581 21.927,19.58 L21.927,19.577 L24.15,19.577 L24.15,17.267 L28.451,20.415 L24.15,23.566 L24.15,21.255 L21.927,21.255 L21.927,21.251 C21.538,21.251 21.186,21.411 20.932,21.666 C20.677,21.919 20.519,22.273 20.519,22.663 L20.519,22.666 L20.515,22.666 L20.517,27.581 L20.517,27.581 Z M48.387,24.172 L48.388,22.463 L48.384,22.463 L48.384,22.461 C48.384,22.07 48.226,21.716 47.972,21.46 C47.717,21.207 47.365,21.049 46.976,21.049 L46.976,21.051 L42.651,21.051 C42.188,21.051 41.813,20.675 41.813,20.212 C41.813,19.749 42.188,19.375 42.651,19.375 L46.976,19.375 L46.976,19.376 C47.829,19.378 48.601,19.723 49.158,20.282 C49.715,20.841 50.062,21.611 50.062,22.461 L50.062,22.463 L50.057,22.463 L50.057,24.172 L52.371,24.172 L49.223,28.476 L46.073,24.172 L48.387,24.172 L48.387,24.172 Z" id="Fill-30" fill="#E86035"></path>
                </g>
                <g id="scheme-5" transform="translate(350.000000, 0.000000)" sketch:type="MSShapeGroup">
                    <path d="M43.256,1.602 C25.045,-3.277 6.212,7.596 1.332,25.807 C-3.547,44.018 7.326,62.851 25.537,67.73 C43.748,72.61 62.581,61.737 67.46,43.526 C72.34,25.315 61.467,6.482 43.256,1.602 L43.256,1.602 Z M63.937,42.582 C59.577,58.852 42.751,68.566 26.481,64.207 C10.211,59.847 0.497,43.021 4.856,26.751 C9.216,10.481 26.042,0.767 42.312,5.126 C58.581,9.486 68.296,26.312 63.937,42.582 L63.937,42.582 Z" id="Fill-31" fill="#1A213E"></path>
                    <path d="M43.256,1.602 C25.045,-3.277 6.212,7.596 1.332,25.807 C-3.547,44.018 7.326,62.851 25.537,67.73 C43.748,72.61 62.581,61.737 67.46,43.526 C72.34,25.315 61.467,6.482 43.256,1.602 L43.256,1.602 Z M63.937,42.582 C59.577,58.852 42.751,68.566 26.481,64.207 C10.211,59.847 0.497,43.021 4.856,26.751 C9.216,10.481 26.042,0.767 42.312,5.126 C58.581,9.486 68.296,26.312 63.937,42.582 L63.937,42.582 Z" id="Stroke-32" stroke="#FFFFFF" stroke-width="1.5"></path>
                    <path d="M50.787,31.39 L50.779,31.35 L50.743,31.234 L50.685,31.129 L50.611,31.039 L50.519,30.963 L50.415,30.908 L50.3,30.871 L50.259,30.862 C50.213,30.861 49.95,30.595 49.676,30.273 L46.731,26.826 C46.456,26.503 46.006,26.503 45.73,26.826 L45.38,27.235 C45.105,27.557 44.655,28.083 44.38,28.405 L42.786,30.273 C42.51,30.595 42.06,30.595 41.786,30.273 L38.841,26.826 C38.566,26.503 38.115,26.503 37.84,26.826 L34.896,30.273 C34.622,30.595 34.171,30.595 33.896,30.273 L33.047,29.28 C32.773,28.958 32.323,28.431 32.048,28.11 L30.951,26.826 C30.676,26.503 30.227,26.503 29.95,26.826 L27.006,30.273 C26.732,30.595 26.281,30.595 26.007,30.273 L23.062,26.826 C22.787,26.503 22.336,26.503 22.061,26.826 L19.116,30.273 C18.842,30.595 18.578,30.861 18.532,30.862 L18.492,30.871 L18.377,30.908 L18.272,30.963 L18.181,31.039 L18.106,31.129 L18.049,31.234 L18.013,31.35 L18.005,31.39 C18.002,31.437 18.001,31.82 18.001,32.245 L18.001,51.026 C18.001,51.449 18.002,51.833 18.005,51.878 L18.013,51.919 L18.049,52.035 L18.106,52.139 L18.181,52.23 L18.272,52.305 L18.377,52.362 L18.492,52.399 L18.532,52.407 C18.578,52.408 18.962,52.411 19.387,52.411 L49.405,52.411 C49.829,52.411 50.213,52.408 50.259,52.407 L50.3,52.399 L50.415,52.362 L50.519,52.305 L50.611,52.23 L50.685,52.139 L50.743,52.035 L50.779,51.919 L50.787,51.878 C50.789,51.833 50.792,51.449 50.792,51.026 L50.792,32.245 C50.792,31.82 50.789,31.437 50.787,31.39 L50.787,31.39 Z M21.922,41.692 L24.65,41.692 L24.65,44.42 L21.922,44.42 L21.922,41.692 Z M21.922,37.899 L24.65,37.899 L24.65,40.627 L21.922,40.627 L21.922,37.899 Z M21.922,34.107 L24.65,34.107 L24.65,36.835 L21.922,36.835 L21.922,34.107 Z M25.714,41.692 L28.442,41.692 L28.442,44.42 L25.714,44.42 L25.714,41.692 Z M25.714,37.899 L28.442,37.899 L28.442,40.627 L25.714,40.627 L25.714,37.899 Z M25.714,34.107 L28.442,34.107 L28.442,36.835 L25.714,36.835 L25.714,34.107 Z M29.508,41.692 L32.235,41.692 L32.235,44.42 L29.508,44.42 L29.508,41.692 Z M29.508,37.899 L32.235,37.899 L32.235,40.627 L29.508,40.627 L29.508,37.899 Z M29.508,34.107 L32.235,34.107 L32.235,36.835 L29.508,36.835 L29.508,34.107 Z M33.299,41.692 L36.028,41.692 L36.028,44.42 L33.299,44.42 L33.299,41.692 Z M33.299,37.899 L36.028,37.899 L36.028,40.627 L33.299,40.627 L33.299,37.899 Z M33.299,34.107 L36.028,34.107 L36.028,36.835 L33.299,36.835 L33.299,34.107 Z M37.092,41.692 L39.821,41.692 L39.821,44.42 L37.092,44.42 L37.092,41.692 Z M37.092,37.899 L39.821,37.899 L39.821,40.627 L37.092,40.627 L37.092,37.899 Z M37.092,34.107 L39.821,34.107 L39.821,36.835 L37.092,36.835 L37.092,34.107 Z" id="Fill-33" fill="#2895D2"></path>
                    <path d="M37.84,25.286 C38.115,24.964 38.566,24.964 38.841,25.286 L41.786,28.733 C42.06,29.056 42.51,29.056 42.786,28.733 L44.38,26.867 C44.655,26.544 44.797,25.945 44.695,25.534 C44.695,25.534 42.698,17.504 42.459,12.798 C42.452,12.486 42.267,12.231 42.038,12.231 L35.603,12.231 C35.374,12.231 35.188,12.486 35.183,12.798 C34.926,17.815 32.739,26.409 32.739,26.409 C32.632,26.82 32.773,27.418 33.047,27.74 L33.896,28.733 C34.171,29.056 34.622,29.056 34.896,28.733 L37.84,25.286" id="Fill-34" fill="#1A213E"></path>
                </g>
                <g id="scheme-10" transform="translate(350.000000, 156.000000)" sketch:type="MSShapeGroup">
                    <path d="M43.256,0.839 C25.045,-4.04 6.212,6.833 1.332,25.044 C-3.547,43.255 7.326,62.087 25.537,66.967 C43.748,71.847 62.581,60.974 67.46,42.763 C72.34,24.552 61.467,5.719 43.256,0.839 L43.256,0.839 Z M63.937,41.819 C59.577,58.089 42.751,67.803 26.481,63.444 C10.211,59.084 0.497,42.258 4.856,25.988 C9.216,9.718 26.042,0.003 42.312,4.363 C58.581,8.723 68.296,25.549 63.937,41.819 L63.937,41.819 Z" id="Fill-35" fill="#1A213E"></path>
                    <path d="M43.256,0.839 C25.045,-4.04 6.212,6.833 1.332,25.044 C-3.547,43.255 7.326,62.087 25.537,66.967 C43.748,71.847 62.581,60.974 67.46,42.763 C72.34,24.552 61.467,5.719 43.256,0.839 L43.256,0.839 Z M63.937,41.819 C59.577,58.089 42.751,67.803 26.481,63.444 C10.211,59.084 0.497,42.258 4.856,25.988 C9.216,9.718 26.042,0.003 42.312,4.363 C58.581,8.723 68.296,25.549 63.937,41.819 L63.937,41.819 Z" id="Stroke-36" stroke="#FFFFFF" stroke-width="1.5"></path>
                    <path d="M15.333,41.661 C14.798,41.661 14.363,42.096 14.363,42.631 C14.363,44.009 14.052,45.696 15.333,45.696 C16.059,45.696 16.931,45.864 16.878,45.275 C16.555,41.587 18.907,41.661 15.333,41.661" id="Fill-37" fill="#1A213E"></path>
                    <path d="M23.637,39.8 C20.966,39.8 18.789,41.976 18.789,44.647 C18.789,48.944 24.008,51.12 27.055,48.078 C30.12,45.02 27.933,39.8 23.637,39.8 L23.637,39.8 Z M24.989,46.002 C23.784,47.204 21.726,46.344 21.726,44.648 C21.726,43.594 22.584,42.735 23.637,42.735 C25.332,42.735 26.197,44.795 24.989,46.002 L24.989,46.002 Z" id="Fill-38" fill="#1A213E"></path>
                    <path d="M39.14,38.752 L39.14,19.279 C39.14,18.744 38.706,18.31 38.171,18.31 L16.382,18.31 C15.845,18.31 15.411,18.744 15.411,19.279 L15.411,38.752 C15.411,40.04 17.119,39.722 18.531,39.722 C19.594,39.722 20.337,37.861 23.637,37.861 C26.998,37.861 27.672,39.722 28.75,39.722 L38.171,39.722 C38.706,39.722 39.14,39.288 39.14,38.752" id="Fill-39" fill="#46A83E"></path>
                    <path d="M56.677,38.752 L56.673,33.897 C56.675,31.886 52.304,33.718 51.959,31.684 L50.847,25.101 L52.796,25.101 C54.074,25.101 54.074,23.161 52.796,23.161 L42.054,23.161 C41.518,23.161 41.083,23.596 41.083,24.13 L41.083,38.752 C41.083,39.288 41.518,39.722 42.054,39.722 C43.321,39.722 43.862,37.861 47.241,37.861 C50.604,37.861 51.275,39.722 52.354,39.722 L55.707,39.722 C56.243,39.722 56.677,39.288 56.677,38.752 L56.677,38.752 Z M49.359,32.276 L43.545,31.681 C43.248,31.65 43.025,31.402 43.025,31.103 L43.025,25.101 L48.88,25.101 L49.994,31.599 C50.057,31.979 49.743,32.316 49.359,32.276 L49.359,32.276 Z" id="Fill-40" fill="#46A83E"></path>
                    <path d="M53.913,41.661 C53.638,41.661 53.452,41.935 53.552,42.19 C54.367,44.271 53.793,45.23 54.104,45.571 C54.246,45.725 56.517,46.091 56.517,44.727 C56.517,41.498 56.814,41.661 53.913,41.661" id="Fill-41" fill="#1A213E"></path>
                    <path d="M40.553,41.661 L30.31,41.661 C30.035,41.661 29.849,41.935 29.948,42.191 C30.867,44.533 29.974,45.696 30.787,45.696 L40.094,45.696 L40.481,45.275 C40.274,42.953 41.508,41.661 40.553,41.661" id="Fill-42" fill="#1A213E"></path>
                    <path d="M47.241,39.8 C44.569,39.8 42.393,41.976 42.393,44.647 C42.393,48.944 47.61,51.12 50.658,48.078 C53.723,45.02 51.536,39.8 47.241,39.8 L47.241,39.8 Z M48.592,46.002 C47.388,47.204 45.33,46.344 45.33,44.648 C45.33,43.594 46.187,42.735 47.241,42.735 C48.938,42.735 49.801,44.795 48.592,46.002 L48.592,46.002 Z" id="Fill-43" fill="#1A213E"></path>
                </g>
                <g id="scheme-7" transform="translate(87.000000, 156.000000)" sketch:type="MSShapeGroup">
                    <path d="M43.415,0.849 C25.205,-4.03 6.372,6.843 1.492,25.054 C-3.388,43.265 7.485,62.097 25.697,66.977 C43.908,71.857 62.74,60.983 67.62,42.773 C72.5,24.561 61.626,5.729 43.415,0.849 L43.415,0.849 Z M64.096,41.829 C59.736,58.099 42.911,67.813 26.641,63.454 C10.371,59.094 0.656,42.268 5.016,25.997 C9.375,9.728 26.201,0.013 42.471,4.373 C58.741,8.732 68.456,25.559 64.096,41.829 L64.096,41.829 Z" id="Fill-44" fill="#1A213E"></path>
                    <path d="M43.415,0.849 C25.205,-4.03 6.372,6.843 1.492,25.054 C-3.388,43.265 7.485,62.097 25.697,66.977 C43.908,71.857 62.74,60.983 67.62,42.773 C72.5,24.561 61.626,5.729 43.415,0.849 L43.415,0.849 Z M64.096,41.829 C59.736,58.099 42.911,67.813 26.641,63.454 C10.371,59.094 0.656,42.268 5.016,25.997 C9.375,9.728 26.201,0.013 42.471,4.373 C58.741,8.732 68.456,25.559 64.096,41.829 L64.096,41.829 Z" id="Stroke-45" stroke="#FFFFFF" stroke-width="1.5"></path>
                    <path d="M30.552,40.275 C28.461,41.086 23.368,41.271 22.467,43.435 C22.157,44.186 21.957,44.759 21.803,45.315 L48.903,45.315 C48.696,44.759 48.45,44.186 48.142,43.435 C47.24,41.271 42.146,41.086 40.056,40.275 C38.712,41.721 37.117,42.978 35.305,44.072 C33.608,42.973 32.01,41.727 30.552,40.275 L30.552,40.275 Z M35.305,22.636 C38.72,22.636 41.492,25.52 41.492,29.08 C41.492,32.675 39.027,38.834 35.305,38.834 C31.581,38.834 29.115,32.675 29.115,29.08 C29.115,25.52 31.886,22.636 35.305,22.636 L35.305,22.636 Z" id="Fill-46" fill="#2895D2"></path>
                    <path d="M18.903,15.658 L51.707,15.658 C53.918,15.658 55.729,17.467 55.729,19.681 L55.729,46.134 C55.729,48.343 53.914,50.156 51.707,50.156 L18.903,50.156 C16.684,50.156 14.878,48.351 14.878,46.134 L14.878,19.681 C14.878,17.465 16.684,15.658 18.903,15.658 L18.903,15.658 Z M45.79,54.914 C46.215,54.914 46.704,54.535 46.577,54.131 L45.892,51.964 C45.767,51.559 45.535,51.18 45.108,51.18 L25.498,51.18 C25.076,51.18 24.841,51.561 24.714,51.964 L24.033,54.131 C23.906,54.535 24.394,54.914 24.817,54.914 L45.79,54.914 L45.79,54.914 Z M17.776,46.134 C17.776,46.751 18.284,47.262 18.903,47.262 L51.707,47.262 C52.335,47.262 52.834,46.758 52.834,46.134 L52.834,19.681 C52.834,19.044 52.335,18.554 51.707,18.554 L18.903,18.554 C18.284,18.554 17.776,19.063 17.776,19.681 L17.776,46.134 L17.776,46.134 Z" id="Fill-47" fill="#1A213E"></path>
                    <path d="M27.279,32.015 C27.495,32.038 27.709,32.025 27.925,31.979 C28.3,31.897 28.525,31.516 28.42,31.148 C27.59,28.264 28.26,25.28 30.705,23.352 C33.384,21.233 37.163,21.233 39.843,23.352 C42.287,25.28 42.958,28.264 42.127,31.148 C42.034,31.472 42.197,31.801 42.489,31.936 C42.368,32.811 42.192,33.66 41.951,34.479 C41.789,35.027 41.596,35.56 41.37,36.073 C41.262,36.047 41.148,36.033 41.031,36.033 C40.27,36.033 39.654,36.648 39.654,37.408 C39.654,38.168 40.27,38.785 41.031,38.785 C41.792,38.785 42.408,38.168 42.408,37.408 C42.408,36.979 42.211,36.599 41.905,36.347 C42.146,35.796 42.355,35.229 42.523,34.65 C42.777,33.805 42.958,32.925 43.081,32.025 C43.143,32.024 43.208,32.02 43.268,32.015 L44.718,32.015 C45.465,32.015 46.081,31.404 46.081,30.664 L46.081,28.165 C46.081,27.425 45.465,26.815 44.718,26.815 L43.161,26.815 C40.825,18.877 29.724,18.877 27.387,26.815 L25.89,26.815 C25.142,26.815 24.529,27.425 24.529,28.165 L24.529,30.664 C24.529,31.404 25.142,32.015 25.89,32.015 L27.279,32.015" id="Fill-48" fill="#2895D2"></path>
                </g>
                <g id="scheme-1" sketch:type="MSShapeGroup">
                    <path d="M34.099,0.436 C15.246,0.436 -0.13,15.813 -0.13,34.666 C-0.13,53.519 15.246,68.896 34.099,68.896 C52.953,68.896 68.329,53.519 68.329,34.666 C68.329,15.813 52.953,0.436 34.099,0.436 L34.099,0.436 Z M34.099,65.249 C17.255,65.249 3.517,51.51 3.517,34.666 C3.517,17.822 17.255,4.084 34.099,4.084 C50.943,4.084 64.682,17.822 64.682,34.666 C64.682,51.51 50.943,65.249 34.099,65.249 L34.099,65.249 Z" id="Fill-50" fill="#1A213E"></path>
                    <path d="M34.099,0.436 C15.246,0.436 -0.13,15.813 -0.13,34.666 C-0.13,53.519 15.246,68.896 34.099,68.896 C52.953,68.896 68.329,53.519 68.329,34.666 C68.329,15.813 52.953,0.436 34.099,0.436 L34.099,0.436 Z M34.099,65.249 C17.255,65.249 3.517,51.51 3.517,34.666 C3.517,17.822 17.255,4.084 34.099,4.084 C50.943,4.084 64.682,17.822 64.682,34.666 C64.682,51.51 50.943,65.249 34.099,65.249 L34.099,65.249 Z" id="Stroke-51" stroke="#FFFFFF" stroke-width="1.5"></path>
                    <path d="M49.196,22.48 C49.15,22.005 48.764,21.633 48.271,21.633 L26.428,21.633 C26.234,21.633 26.055,21.69 25.906,21.781 L23.029,22.853 L20.14,21.721 C20.05,21.676 19.961,21.662 19.871,21.647 C19.364,21.573 18.889,21.915 18.813,22.435 L14.731,50.345 C14.715,50.404 14.701,50.464 14.701,50.524 C14.701,51.045 15.119,51.462 15.639,51.462 L52.369,51.462 C52.414,51.462 52.458,51.462 52.503,51.448 C53.024,51.374 53.368,50.911 53.293,50.39 L49.196,22.48 L49.196,22.48 Z M20.498,23.852 L22.33,24.567 L20.2,46.352 L16.816,48.884 L20.498,23.852 L20.498,23.852 Z M17.905,49.6 L20.766,47.454 L23.418,49.6 L17.905,49.6 L17.905,49.6 Z M24.639,49.034 L21.42,46.412 L23.552,24.642 L25.444,23.942 L24.639,49.034 L24.639,49.034 Z M26.487,49.6 L27.321,23.495 L47.467,23.495 L51.296,49.6 L26.487,49.6 L26.487,49.6 Z" id="Fill-52" fill="#1A213E"></path>
                    <path d="M44.469,20.244 C44.507,20.576 44.264,20.874 43.93,20.911 C43.593,20.947 43.292,20.708 43.254,20.376 C42.806,16.363 41.389,13.743 39.667,12.5 C38.912,11.955 38.099,11.681 37.289,11.681 C36.478,11.681 35.664,11.955 34.91,12.5 C34.529,12.773 34.164,13.116 33.821,13.524 C35.097,15.073 36.241,17.278 37.053,20.146 C37.145,20.47 36.954,20.808 36.629,20.899 C36.303,20.991 35.966,20.8 35.874,20.475 C35.152,17.929 34.173,15.959 33.089,14.558 C32.238,15.975 31.598,17.913 31.324,20.376 C31.286,20.708 30.983,20.947 30.649,20.911 C30.314,20.874 30.071,20.576 30.107,20.244 C30.423,17.422 31.206,15.21 32.253,13.61 C31.823,13.186 31.382,12.844 30.941,12.583 C30.166,12.128 29.392,11.937 28.677,12.013 C27.978,12.087 27.318,12.422 26.749,13.014 C25.523,14.29 24.72,16.717 24.779,20.3 C24.785,20.639 24.516,20.915 24.179,20.921 C23.84,20.927 23.562,20.656 23.558,20.32 C23.493,16.385 24.434,13.658 25.867,12.165 C26.643,11.358 27.562,10.901 28.552,10.796 C29.525,10.693 30.551,10.938 31.559,11.53 C32.043,11.813 32.522,12.18 32.992,12.63 C33.371,12.194 33.774,11.826 34.192,11.523 C35.165,10.821 36.226,10.47 37.289,10.47 C38.352,10.47 39.411,10.821 40.385,11.523 C42.364,12.953 43.98,15.864 44.469,20.244 L44.469,20.244 Z M35.398,38.318 C34.79,37.849 34.464,37.199 34.419,36.372 C34.37,35.452 34.677,34.691 35.338,34.091 C35.922,33.56 36.568,33.237 37.518,33.109 C37.743,33.079 37.905,32.882 37.892,32.657 L37.815,31.435 C37.802,31.197 37.987,30.992 38.226,30.98 L38.858,30.945 C39.095,30.932 39.299,31.115 39.314,31.352 L39.39,32.563 C39.402,32.787 39.582,32.963 39.806,32.972 C40.702,33.005 41.322,33.251 41.896,33.704 C42.434,34.127 42.783,34.709 42.939,35.448 C42.966,35.577 42.939,35.698 42.858,35.802 C42.78,35.906 42.671,35.964 42.54,35.971 L40.879,36.061 C40.671,36.073 40.488,35.938 40.437,35.737 C40.373,35.485 40.271,35.286 40.131,35.138 C39.686,34.665 37.751,34.756 37.277,35.155 C36.891,35.481 36.9,36.171 37.326,36.469 C37.835,36.819 39.592,37.021 40.331,37.208 C41.267,37.445 41.966,37.751 42.429,38.122 C43.033,38.606 43.359,39.283 43.406,40.159 C43.462,41.174 43.177,41.971 42.555,42.545 C41.999,43.059 41.305,43.396 40.225,43.565 C40.005,43.6 39.848,43.794 39.86,44.017 L39.926,45.239 C39.939,45.476 39.756,45.681 39.519,45.696 L38.937,45.726 C38.698,45.738 38.495,45.555 38.481,45.317 L38.413,44.086 C38.402,43.862 38.223,43.686 37.998,43.677 C36.981,43.636 36.281,43.352 35.653,42.842 C35.053,42.356 34.684,41.691 34.544,40.846 C34.522,40.721 34.553,40.602 34.633,40.504 C34.713,40.403 34.819,40.35 34.947,40.343 L36.744,40.245 C36.961,40.232 37.152,40.38 37.192,40.593 C37.262,40.948 37.373,41.214 37.524,41.384 C38.049,41.971 40.024,41.736 40.507,41.358 C40.943,41.018 40.919,40.293 40.482,39.964 C39.449,39.199 36.94,39.51 35.398,38.318 L35.398,38.318 Z M43.673,28.92 C44.6,28.92 45.352,28.168 45.352,27.243 C45.352,26.315 44.6,25.564 43.673,25.564 C42.747,25.564 41.996,26.315 41.996,27.243 C41.996,28.168 42.747,28.92 43.673,28.92 L43.673,28.92 Z M31.462,28.92 C32.388,28.92 33.138,28.168 33.138,27.243 C33.138,26.315 32.388,25.564 31.462,25.564 C30.534,25.564 29.783,26.315 29.783,27.243 C29.783,28.168 30.534,28.92 31.462,28.92 L31.462,28.92 Z" id="Fill-53" fill="#972F84"></path>
                </g>
                <g id="stroke" transform="translate(34.000000, 67.000000)" stroke="#1A213E" stroke-width="2" sketch:type="MSShapeGroup">
                    <path d="M0.1,89.609 L0.1,83.043 C0.1,78.625 3.681,75.043 8.1,75.043 L345.152,75.043 C349.57,75.043 353.152,78.625 353.152,83.043 L353.152,89.109 M86.697,89.681 L86.697,83.05 C86.697,78.588 90.314,74.971 94.776,74.971 M261.606,89.681 L261.606,83.05 C261.606,78.588 257.989,74.971 253.527,74.971 M261.606,0.32 L261.606,6.951 C261.606,11.413 257.99,15.03 253.527,15.03" id="Stroke-49"></path>
                    <path d="M86.697,0.32 L86.697,6.951 C86.697,11.413 90.314,15.03 94.777,15.03 M353.152,0.392 L353.152,6.958 C353.152,11.376 349.571,14.958 345.152,14.958 L8.1,14.958 C3.682,14.958 0.1,11.376 0.1,6.958 L0.1,0.892 M172.74,0.32 L172.74,23.609 L172.74,0.32 Z M172.74,66.393 L172.74,89.682 L172.74,66.393 Z M289.622,58.393 C289.622,62.811 286.04,66.393 281.622,66.393 L67.769,66.393 C63.351,66.393 59.77,62.811 59.77,58.393 L59.77,32.06 C59.77,27.641 63.351,24.06 67.769,24.06 L281.622,24.06 C286.04,24.06 289.622,27.641 289.622,32.06 L289.622,58.393 L289.622,58.393 Z" id="Stroke-54"></path>
                </g>
                <g id="logo" transform="translate(151.000000, 102.000000)" fill="#222844" sketch:type="MSShapeGroup">
                    <path d="M0,20 L0,18.835 C2.007,18.808 3.705,18.107 3.705,16.101 L3.705,2.904 C3.705,1.421 2.46,1.19 0.225,1.162 L0.225,0 L11.242,0 L16.58,13.544 L16.655,13.544 L22.033,0 L33.125,0 L33.125,1.162 C30.361,1.162 29.452,1.626 29.452,3.077 L29.452,16.915 C29.452,18.37 30.361,18.835 33.125,18.835 L33.125,20 L19.987,20 L19.987,18.835 C22.486,18.835 23.394,18.37 23.394,16.915 L23.394,2.148 L23.319,2.148 L16.089,20 L12.83,20 L5.904,2.148 L5.829,2.148 L5.829,16.101 C5.829,18.107 7.531,18.808 9.804,18.835 L9.804,20 L0,20" id="Fill-36"></path>
                    <path d="M32,20.351 L32,19.186 C34.839,18.777 35.746,17.906 37.071,15.495 L45.476,0 L47.483,0 L57.176,17.237 C57.971,18.634 58.804,19.068 60.772,19.186 L60.772,20.351 L47.106,20.351 L47.106,19.186 L48.619,19.186 C50.588,19.186 50.891,18.837 50.891,18.227 C50.891,17.849 50.702,17.471 50.475,17.064 L48.619,13.72 L40.289,13.72 L39.08,16.019 C38.888,16.393 38.625,17.035 38.625,17.849 C38.625,18.663 39.308,19.186 40.782,19.186 L42.639,19.186 L42.639,20.351 L32,20.351 L32,20.351 Z M44.341,6.076 L41.125,12.208 L47.789,12.208 L44.341,6.076 L44.341,6.076 Z" id="Fill-24"></path>
                    <path d="M85.713,15.577 C85.713,18.457 84.081,20.347 79.908,20.347 C75.855,20.347 74.263,18.776 73.986,15.346 C73.707,11.798 73.546,10.84 69.254,10.402 L69.254,16.509 C69.254,18.166 69.772,18.835 73.072,18.835 L73.072,20 L59,20 L59,18.835 C61.941,18.835 62.896,18.37 62.896,16.915 L62.896,3.077 C62.896,1.626 61.941,1.162 59,1.162 L59,0 L72.913,0 C79.67,0 83.086,1.973 83.086,5.347 C83.086,9.153 77.92,10.115 73.468,10.174 L73.468,10.228 C78.318,10.695 79.434,12.583 80.347,14.589 C81.578,17.41 81.82,17.732 82.77,17.732 C83.765,17.732 84.004,16.567 84.121,15.577 L85.713,15.577 L85.713,15.577 Z M69.254,9.357 C73.589,9.213 76.25,8.718 76.25,5.377 C76.25,2.963 74.58,1.336 71.836,1.336 C70.448,1.336 69.254,1.742 69.254,3.077 L69.254,9.357 L69.254,9.357 Z" id="Fill-28"></path>
                    <path d="M86,12.672 L87.666,12.672 C88.688,15.843 91.224,19.359 96.032,19.359 C98.647,19.359 100.878,18.431 100.878,15.988 C100.878,11.773 86.229,13.225 86.229,6.567 C86.229,2.384 90.278,0 95.048,0 C99.174,0 100.537,1.541 101.558,1.541 C102.318,1.541 102.618,0.869 103.035,0.351 L104.626,0.351 L104.626,7.267 L103.111,7.267 C102.014,4.099 99.591,1.338 95.617,1.338 C93.229,1.338 91.224,2.355 91.224,4.274 C91.224,8.808 106.104,6.567 106.104,14.099 C106.104,18.431 100.991,20.698 96.791,20.698 C92.133,20.698 90.354,19.186 89.145,19.186 C88.385,19.186 87.816,19.972 87.513,20.351 L86,20.351 L86,12.672" id="Fill-32"></path>
                </g>
            </g>
        </g>
    </g>
</svg>