<?xml version="1.0" encoding="UTF-8" standalone="no"?>
<svg width="421px" height="227px" viewBox="0 0 421 227" version="1.1" xmlns="http://www.w3.org/2000/svg" xmlns:xlink="http://www.w3.org/1999/xlink" xmlns:sketch="http://www.bohemiancoding.com/sketch/ns">
    <!-- Generator: Sketch 3.0.3 (7891) - http://www.bohemiancoding.com/sketch -->
    <title>scheme</title>
    <desc>Created with Sketch.</desc>
    <defs></defs>
    <g id="Page-1" stroke="none" stroke-width="1" fill="none" fill-rule="evenodd" sketch:type="MSPage">
        <g id="Portrait" sketch:type="MSArtboardGroup" transform="translate(-39.000000, -907.000000)">
            <g id="scheme" sketch:type="MSLayerGroup" transform="translate(40.000000, 908.000000)">
                <path d="M129.557,1.602 C111.346,-3.277 92.513,7.596 87.633,25.807 C82.754,44.018 93.627,62.85 111.838,67.73 C130.049,72.61 148.882,61.736 153.762,43.526 C158.641,25.314 147.768,6.482 129.557,1.602 L129.557,1.602 Z M150.238,42.582 C145.878,58.851 129.052,68.566 112.782,64.206 C96.512,59.847 86.798,43.021 91.157,26.75 C95.517,10.481 112.343,0.766 128.613,5.126 C144.883,9.485 154.597,26.311 150.238,42.582 L150.238,42.582 Z" id="Fill-1" fill="#1A213E" sketch:type="MSShapeGroup"></path>
                <path d="M129.557,1.602 C111.346,-3.277 92.513,7.596 87.633,25.807 C82.754,44.018 93.627,62.85 111.838,67.73 C130.049,72.61 148.882,61.736 153.762,43.526 C158.641,25.314 147.768,6.482 129.557,1.602 L129.557,1.602 Z M150.238,42.582 C145.878,58.851 129.052,68.566 112.782,64.206 C96.512,59.847 86.798,43.021 91.157,26.75 C95.517,10.481 112.343,0.766 128.613,5.126 C144.883,9.485 154.597,26.311 150.238,42.582 L150.238,42.582 Z" id="Stroke-2" stroke="#FFFFFF" stroke-width="1.5" sketch:type="MSShapeGroup"></path>
                <path d="M138.827,33.788 L138.519,33.788 L138.519,19.595 L138.827,19.595 C139.295,19.595 139.673,19.216 139.673,18.748 C139.673,18.28 139.295,17.903 138.827,17.903 L128.272,17.903 L128.272,16.39 C128.272,15.922 127.894,15.543 127.426,15.543 C126.958,15.543 126.581,15.922 126.581,16.39 L126.581,17.903 L116.029,17.903 C115.561,17.903 115.179,18.28 115.179,18.748 C115.179,19.216 115.561,19.595 116.029,19.595 L116.334,19.595 L116.334,23.845 C116.711,24.227 117.094,24.601 117.493,24.964 L117.493,19.595 L137.364,19.595 L137.364,33.788 L117.493,33.788 L117.493,30.284 C117.273,30.215 117.064,30.105 116.876,29.956 C116.697,29.816 116.513,29.677 116.334,29.538 L116.334,33.788 L116.029,33.788 C115.561,33.788 115.179,34.166 115.179,34.634 C115.179,35.102 115.561,35.479 116.029,35.479 L126.581,35.479 L126.581,45.632 L118.558,54.296 C118.294,54.58 118.309,55.023 118.593,55.287 C118.877,55.55 119.324,55.536 119.587,55.251 L126.581,47.697 L126.581,51.359 C126.581,51.828 126.958,52.206 127.426,52.206 C127.894,52.206 128.272,51.828 128.272,51.359 L128.272,47.697 L135.269,55.251 C135.533,55.536 135.976,55.55 136.259,55.287 C136.543,55.023 136.563,54.58 136.299,54.296 L128.272,45.632 L128.272,35.479 L138.827,35.479 C139.295,35.479 139.673,35.102 139.673,34.634 C139.673,34.166 139.295,33.788 138.827,33.788 L138.827,33.788 Z M123.176,23.476 C121.579,24.641 120.21,25.621 118.294,26.591 C117.129,25.641 116.025,24.581 115.02,23.486 C114.646,23.079 114.566,22.471 114.079,22.262 C112.999,21.789 112.257,21.649 111.088,21.321 C110.884,22.391 110.46,24.277 110.038,25.416 L109.968,22.81 L109.58,22.551 L109.197,22.81 L109.127,25.416 C108.714,24.392 108.152,22.411 107.888,21.361 C106.977,21.62 106.654,21.774 105.748,22.023 C105.236,22.167 105.17,22.158 104.917,22.406 C102.916,24.392 101.14,26.357 99.612,28.353 C99.14,28.97 99.179,29.781 99.716,30.344 C101.145,31.822 103.454,33.658 105.126,34.908 C105.141,35.102 105.111,36.749 105.126,37.371 L105.494,37.365 C105.763,42.865 105.987,49.877 106.111,55.067 C106.116,55.291 106.306,55.476 106.529,55.476 L108.356,55.476 C108.58,55.476 108.768,55.291 108.773,55.067 L109.197,39.017 C109.202,38.764 109.381,38.635 109.561,38.635 C109.739,38.635 109.918,38.764 109.923,39.017 L110.341,55.067 C110.351,55.291 110.536,55.476 110.764,55.476 L112.585,55.476 C112.815,55.476 112.999,55.291 113.004,55.067 C113.128,49.857 113.352,42.83 113.626,37.326 L114.208,37.321 C114.148,34.673 114.128,31.409 114.159,28.761 C114.179,28.268 114.114,27.492 114.203,26.815 C115.148,27.736 116.278,28.602 117.309,29.398 C117.791,29.776 118.433,29.761 118.936,29.463 C121.29,28.064 122.424,27.069 124.589,25.416 C126.057,24.297 124.644,22.356 123.176,23.476 L123.176,23.476 Z M102.598,29.234 C103.404,28.204 104.26,27.223 105.141,26.288 L105.141,28.602 C105.156,29.717 105.161,30.553 105.17,31.633 C104.27,30.752 103.394,30.154 102.598,29.234 L102.598,29.234 Z M109.58,13.856 C108.157,13.856 107.002,14.971 107.002,16.35 C107.002,17.679 107.963,20.55 109.58,20.55 C111.202,20.55 112.163,17.679 112.163,16.35 C112.163,14.971 111.008,13.856 109.58,13.856 L109.58,13.856 Z" id="Fill-3" fill="#1A213E" sketch:type="MSShapeGroup"></path>
                <path d="M133.263,26.731 L135.851,26.731 L135.851,33.265 L133.263,33.265 L133.263,26.731 Z" id="Fill-4" fill="#E86035" sketch:type="MSShapeGroup"></path>
                <path d="M129.75,22.053 L132.337,22.053 L132.337,33.265 L129.75,33.265 L129.75,22.053 Z" id="Fill-5" fill="#E86035" sketch:type="MSShapeGroup"></path>
                <path d="M126.241,24.268 L128.824,24.268 L128.824,33.266 L126.241,33.266 L126.241,24.268 Z" id="Fill-6" fill="#E86035" sketch:type="MSShapeGroup"></path>
                <path d="M122.728,29.811 L125.316,29.811 L125.316,33.265 L122.728,33.265 L122.728,29.811 Z" id="Fill-7" fill="#E86035" sketch:type="MSShapeGroup"></path>
                <path d="M225.356,4.626 C209.028,-4.8 188.022,0.828 178.596,17.155 C169.169,33.483 174.797,54.488 191.125,63.915 C207.453,73.342 228.457,67.713 237.885,51.386 C247.311,35.058 241.683,14.053 225.356,4.626 L225.356,4.626 Z M234.725,49.562 C226.303,64.149 207.537,69.178 192.949,60.755 C178.362,52.334 173.333,33.567 181.755,18.979 C190.177,4.393 208.944,-0.636 223.531,7.786 C238.119,16.208 243.147,34.974 234.725,49.562 L234.725,49.562 Z" id="Fill-8" fill="#1A213E" sketch:type="MSShapeGroup"></path>
                <path d="M225.356,4.626 C209.028,-4.8 188.022,0.828 178.596,17.155 C169.169,33.483 174.797,54.488 191.125,63.915 C207.453,73.342 228.457,67.713 237.885,51.386 C247.311,35.058 241.683,14.053 225.356,4.626 L225.356,4.626 Z M234.725,49.562 C226.303,64.149 207.537,69.178 192.949,60.755 C178.362,52.334 173.333,33.567 181.755,18.979 C190.177,4.393 208.944,-0.636 223.531,7.786 C238.119,16.208 243.147,34.974 234.725,49.562 L234.725,49.562 Z" id="Stroke-9" stroke="#FFFFFF" stroke-width="1.5" sketch:type="MSShapeGroup"></path>
                <path d="M222.356,22.133 C221.407,21.768 219.11,21.219 218.49,20.672 C217.972,20.207 218.07,19.29 218.635,18.921 C219.329,18.468 221.91,18.655 222.426,19.355 C222.655,19.666 222.766,20.101 222.76,20.667 L226.121,20.888 C226.155,19.574 225.78,18.522 224.996,17.735 C224.21,16.946 223.304,16.502 221.816,16.364 L221.896,15.146 L219.896,15.015 L219.815,16.252 C218.243,16.182 217.206,16.506 216.231,17.197 C215.257,17.888 214.729,18.848 214.648,20.076 C214.575,21.184 214.903,22.097 215.635,22.816 C217.49,24.645 220.868,24.635 222.119,25.815 C222.644,26.319 222.56,27.287 221.927,27.668 C221.224,28.092 218.57,28.087 217.967,27.226 C217.733,26.892 217.629,26.355 217.638,25.622 L214.101,25.389 C214.019,26.828 214.4,27.984 215.247,28.859 C216.094,29.734 217.104,30.241 218.748,30.412 L218.639,32.043 L220.571,32.17 L220.677,30.559 C222.434,30.572 223.538,30.231 224.454,29.571 C225.372,28.907 225.875,27.898 225.966,26.542 C226.042,25.373 225.719,24.421 224.996,23.682 C224.44,23.115 223.56,22.599 222.356,22.133" id="Fill-10" fill="#46A83E" sketch:type="MSShapeGroup"></path>
                <path d="M203.604,18.299 C205.398,18.299 206.379,15.12 206.342,13.647 C206.304,12.124 204.995,10.89 203.417,10.89 C201.841,10.89 200.593,12.124 200.632,13.647 C200.669,15.12 201.81,18.299 203.604,18.299" id="Fill-11" fill="#1A213E" sketch:type="MSShapeGroup"></path>
                <path d="M218.961,34.023 C216.589,32.64 215.445,31.403 213.351,29.654 C212.096,27.174 211.102,24.32 210.285,21.613 C210.148,21.16 209.88,21.064 209.814,20.78 C209.79,20.677 209.822,20.637 209.705,20.581 C209.568,20.516 209.226,20.428 208.347,20.185 C207.233,19.88 206.785,19.602 205.662,19.287 C205.373,20.57 204.871,22.657 204.307,23.843 L204.153,21.163 L203.672,20.85 L203.207,21.163 L203.188,23.843 C202.563,22.657 201.957,20.57 201.603,19.287 L197.709,20.537 C197.47,20.603 197.564,20.805 197.412,21.027 C195.903,23.197 194.791,25.457 193.826,27.931 C193.71,28.229 193.618,28.76 193.742,29.365 C194.177,31.478 195.62,35.089 196.088,36.75 C196.469,38.101 197.97,38.041 198.451,37.16 C198.459,37.375 198.484,38.234 198.495,38.451 L199.115,38.451 C199.591,44.72 200.418,51.126 200.716,57.192 C200.73,57.446 200.944,57.651 201.198,57.651 L203.244,57.651 C203.498,57.651 203.704,57.446 203.704,57.193 L203.723,39.178 C203.724,38.603 204.511,38.603 204.541,39.178 L205.466,57.193 C205.478,57.446 205.694,57.651 205.946,57.651 L207.994,57.651 C208.248,57.651 208.453,57.446 208.452,57.192 C208.446,51.126 208.952,44.72 209.113,38.451 L209.733,38.451 C209.719,35.138 209.476,31.887 209.271,28.232 C209.702,29.295 210.172,30.339 210.699,31.35 C211.26,32.429 216.582,35.465 217.95,36.244 C219.348,37.039 220.732,35.057 218.961,34.023 L218.961,34.023 Z M198.407,35.587 C197.809,33.26 197.004,30.699 196.706,28.831 C197.191,27.636 197.786,26.492 198.442,25.387 C198.466,28.875 198.341,32.145 198.407,35.587 L198.407,35.587 Z" id="Fill-12" fill="#1A213E" sketch:type="MSShapeGroup"></path>
                <path d="M328.684,181.326 C323.804,163.115 304.972,152.242 286.761,157.122 C268.549,162.001 257.676,180.834 262.556,199.045 C267.435,217.256 286.269,228.129 304.479,223.249 C322.69,218.37 333.563,199.537 328.684,181.326 L328.684,181.326 Z M303.535,219.726 C287.265,224.085 270.439,214.371 266.08,198.101 C261.72,181.831 271.435,165.005 287.705,160.645 C303.975,156.286 320.8,166 325.16,182.27 C329.519,198.541 319.805,215.366 303.535,219.726 L303.535,219.726 Z" id="Fill-13" fill="#1A213E" sketch:type="MSShapeGroup"></path>
                <path d="M328.684,181.326 C323.804,163.115 304.972,152.242 286.761,157.122 C268.549,162.001 257.676,180.834 262.556,199.045 C267.435,217.256 286.269,228.129 304.479,223.249 C322.69,218.37 333.563,199.537 328.684,181.326 L328.684,181.326 Z M303.535,219.726 C287.265,224.085 270.439,214.371 266.08,198.101 C261.72,181.831 271.435,165.005 287.705,160.645 C303.975,156.286 320.8,166 325.16,182.27 C329.519,198.541 319.805,215.366 303.535,219.726 L303.535,219.726 Z" id="Stroke-14" stroke="#FFFFFF" stroke-width="1.5" sketch:type="MSShapeGroup"></path>
                <path d="M285.323,171.86 C286.171,172.396 287.057,172.862 287.971,173.257 C288.373,172.677 289.043,172.297 289.802,172.297 C289.978,172.297 290.15,172.317 290.314,172.356 C291.3,170.706 292.524,169.191 293.958,167.865 C290.632,168.23 287.632,169.684 285.323,171.86 L285.323,171.86 Z M289.802,176.75 C290.648,176.75 291.383,176.278 291.759,175.583 C292.846,175.792 293.95,175.912 295.062,175.942 L295.062,176.235 C295.244,176.208 295.431,176.194 295.62,176.194 C295.809,176.194 295.997,176.208 296.179,176.235 L296.179,175.94 C297.856,175.891 299.515,175.634 301.121,175.179 C302.072,177.385 302.609,179.773 302.68,182.226 L298.909,182.226 C298.761,182.615 298.577,182.993 298.362,183.345 L302.68,183.345 C302.652,184.29 302.556,185.225 302.394,186.144 C302.69,186.609 302.97,187.088 303.232,187.575 C303.566,186.198 303.759,184.782 303.798,183.345 L305.603,183.345 C305.851,184.304 306.723,185.012 307.759,185.012 C308.795,185.012 309.666,184.304 309.915,183.345 L310.623,183.345 C310.491,186.952 309.086,190.236 306.842,192.757 C306.289,192.391 305.719,192.051 305.136,191.741 C305.264,192.169 305.301,192.64 305.256,193.084 C305.527,193.243 305.793,193.406 306.057,193.577 C305.705,193.918 305.336,194.241 304.952,194.546 C304.794,195.15 304.606,195.753 304.422,196.333 L304.341,196.592 C305.364,195.944 306.312,195.184 307.165,194.331 C310.12,191.376 311.947,187.294 311.947,182.785 C311.947,178.277 310.12,174.195 307.165,171.241 C304.211,168.287 300.129,166.458 295.62,166.458 C291.111,166.458 287.03,168.287 284.075,171.241 C281.121,174.195 279.293,178.277 279.293,182.785 C279.293,184.866 279.682,186.855 280.392,188.685 C279.882,189.092 279.556,189.72 279.556,190.423 C279.556,191.653 280.553,192.65 281.783,192.65 C282.039,192.65 282.286,192.605 282.515,192.526 C282.991,193.165 283.512,193.768 284.075,194.331 C284.928,195.184 285.876,195.944 286.9,196.592 L286.817,196.333 C286.635,195.753 286.447,195.151 286.288,194.546 C285.895,194.234 285.519,193.903 285.16,193.554 C285.43,193.379 285.704,193.212 285.981,193.052 C285.942,192.604 285.982,192.132 286.116,191.705 C285.524,192.016 284.949,192.356 284.388,192.727 L284.376,192.735 C284.096,192.417 283.828,192.086 283.573,191.747 C283.847,191.375 284.007,190.918 284.007,190.423 C284.007,189.193 283.011,188.197 281.783,188.197 C281.726,188.197 281.669,188.199 281.614,188.203 C281.028,186.687 280.681,185.052 280.619,183.345 L287.441,183.345 C287.481,184.782 287.673,186.198 288.009,187.575 C288.271,187.087 288.55,186.609 288.847,186.144 C288.684,185.225 288.588,184.29 288.56,183.345 L292.878,183.345 C292.663,182.993 292.481,182.615 292.331,182.226 L288.56,182.226 C288.615,180.338 288.946,178.489 289.528,176.733 C289.619,176.744 289.71,176.75 289.802,176.75 L289.802,176.75 Z M292.028,174.499 C292.02,173.856 291.742,173.279 291.301,172.878 C292.308,171.205 293.571,169.68 295.062,168.367 L295.062,174.824 C294.039,174.795 293.024,174.687 292.028,174.499 L292.028,174.499 Z M287.587,174.304 C287.579,174.376 287.576,174.45 287.576,174.524 C287.576,175.262 287.937,175.917 288.491,176.323 C287.857,178.209 287.498,180.198 287.441,182.226 L280.619,182.226 C280.752,178.55 282.209,175.212 284.526,172.672 C285.501,173.305 286.525,173.85 287.587,174.304 L287.587,174.304 Z M309.915,182.226 C309.666,181.268 308.795,180.56 307.759,180.56 C306.723,180.56 305.851,181.268 305.603,182.226 L303.798,182.226 C303.727,179.663 303.172,177.164 302.19,174.846 C303.768,174.304 305.282,173.568 306.692,172.648 C309.023,175.192 310.488,178.54 310.623,182.226 L309.915,182.226 L309.915,182.226 Z M297.283,167.865 C299.134,169.578 300.632,171.605 301.725,173.829 C303.182,173.337 304.582,172.671 305.893,171.838 C303.587,169.674 300.598,168.229 297.283,167.865 L297.283,167.865 Z M296.179,168.367 L296.179,174.822 C297.698,174.776 299.196,174.552 300.646,174.157 C299.551,171.981 298.044,170.01 296.179,168.367 L296.179,168.367 Z" id="Fill-15" fill="#972F84" sketch:type="MSShapeGroup"></path>
                <path d="M290.924,198.934 C290.942,196.067 291.114,193.342 291.168,190.435 C290.597,191.355 290.333,192.244 290.008,193.305 C290.217,194.862 290.475,196.997 290.924,198.934 L290.924,198.934 Z M299.529,185.834 C298.608,185.579 298.109,185.348 297.18,185.085 C296.912,186.155 296.581,188.304 296.086,189.292 L296.015,186.648 L295.62,186.388 L295.226,186.648 L295.154,189.292 C294.659,188.304 294.327,186.155 294.06,185.085 L290.657,186.125 C290.456,186.181 290.533,186.351 290.399,186.535 C289.098,188.343 288.302,190.494 287.626,192.555 C287.543,192.81 287.435,193.247 287.527,193.75 C287.843,195.511 288.612,198.52 288.968,199.904 C289.257,201.03 290.51,200.979 290.928,200.245 C290.931,200.424 290.933,201.141 290.937,201.321 L291.455,201.321 C291.72,206.544 292.275,211.883 292.398,216.938 C292.402,217.151 292.577,217.321 292.789,217.321 L294.494,217.321 C294.706,217.321 294.88,217.151 294.886,216.94 L295.28,201.928 C295.291,201.449 295.949,201.449 295.961,201.928 L296.354,216.94 C296.359,217.151 296.535,217.321 296.746,217.321 L298.452,217.321 C298.664,217.321 298.837,217.151 298.843,216.938 C298.964,211.883 299.52,206.544 299.785,201.321 L300.302,201.321 C300.306,201.141 300.309,200.424 300.311,200.245 C300.731,200.979 301.983,201.03 302.272,199.904 C302.627,198.52 303.396,195.511 303.713,193.75 C303.804,193.247 303.697,192.81 303.613,192.555 C302.938,190.494 302.143,188.343 300.841,186.535 C300.513,186.079 301.218,186.302 299.529,185.834 L299.529,185.834 Z M300.315,198.934 C300.297,196.067 300.125,193.342 300.072,190.435 C300.643,191.355 300.928,192.271 301.232,193.305 C301.023,194.862 300.765,196.997 300.315,198.934 L300.315,198.934 Z M295.62,184.294 C294.055,184.294 293.129,181.521 293.129,180.237 C293.129,178.908 294.246,177.832 295.62,177.831 C296.996,177.832 298.109,178.908 298.109,180.237 C298.109,181.521 297.185,184.294 295.62,184.294 L295.62,184.294 Z" id="Fill-16" fill="#1A213E" sketch:type="MSShapeGroup"></path>
                <path d="M240.672,181.582 C235.792,163.371 216.961,152.498 198.749,157.377 C180.538,162.257 169.665,181.09 174.545,199.301 C179.424,217.512 198.257,228.385 216.468,223.505 C234.679,218.626 245.552,199.793 240.672,181.582 L240.672,181.582 Z M215.524,219.982 C199.254,224.341 182.428,214.627 178.068,198.357 C173.709,182.087 183.423,165.261 199.694,160.901 C215.963,156.541 232.789,166.256 237.149,182.526 C241.508,198.796 231.794,215.622 215.524,219.982 L215.524,219.982 Z" id="Fill-17" fill="#1A213E" sketch:type="MSShapeGroup"></path>
                <path d="M240.672,181.582 C235.792,163.371 216.961,152.498 198.749,157.377 C180.538,162.257 169.665,181.09 174.545,199.301 C179.424,217.512 198.257,228.385 216.468,223.505 C234.679,218.626 245.552,199.793 240.672,181.582 L240.672,181.582 Z M215.524,219.982 C199.254,224.341 182.428,214.627 178.068,198.357 C173.709,182.087 183.423,165.261 199.694,160.901 C215.963,156.541 232.789,166.256 237.149,182.526 C241.508,198.796 231.794,215.622 215.524,219.982 L215.524,219.982 Z" id="Stroke-18" stroke="#FFFFFF" stroke-width="1.5" sketch:type="MSShapeGroup"></path>
                <path d="M199.37,172.658 C201.16,172.658 202.139,169.484 202.103,168.015 C202.064,166.494 200.758,165.262 199.183,165.262 C197.609,165.262 196.364,166.494 196.403,168.015 C196.44,169.484 197.579,172.658 199.37,172.658" id="Fill-19" fill="#1A213E" sketch:type="MSShapeGroup"></path>
                <path d="M214.699,188.354 C212.331,186.972 211.188,185.738 209.098,183.992 C207.846,181.517 206.854,178.668 206.038,175.966 C205.901,175.513 205.635,175.418 205.568,175.134 C205.544,175.031 205.577,174.992 205.459,174.936 C205.323,174.87 204.981,174.783 204.103,174.541 C202.992,174.235 202.544,173.959 201.423,173.644 C201.135,174.925 200.634,177.008 200.071,178.192 L199.918,175.517 L199.438,175.204 L198.974,175.517 L198.954,178.192 C198.33,177.008 197.726,174.925 197.373,173.644 L193.485,174.892 C193.247,174.959 193.341,175.16 193.188,175.381 C191.682,177.548 190.573,179.803 189.609,182.272 C189.493,182.569 189.401,183.1 189.525,183.703 C189.96,185.813 191.4,189.417 191.867,191.075 C192.247,192.423 193.745,192.364 194.227,191.484 C194.234,191.699 194.259,192.556 194.27,192.772 L194.889,192.772 C195.364,199.03 196.189,205.425 196.487,211.48 C196.499,211.733 196.714,211.938 196.968,211.938 L199.011,211.938 C199.264,211.938 199.468,211.733 199.468,211.481 L199.488,193.499 C199.489,192.926 200.275,192.926 200.305,193.499 L201.228,211.481 C201.24,211.733 201.455,211.938 201.707,211.938 L203.752,211.938 C204.006,211.938 204.21,211.733 204.208,211.48 C204.203,205.425 204.707,199.03 204.869,192.772 L205.487,192.772 C205.473,189.466 205.231,186.221 205.027,182.573 C205.456,183.634 205.925,184.675 206.451,185.686 C207.011,186.762 212.324,189.792 213.689,190.57 C215.085,191.365 216.467,189.385 214.699,188.354 L214.699,188.354 Z M194.183,189.914 C193.585,187.591 192.782,185.035 192.483,183.171 C192.968,181.978 193.562,180.835 194.217,179.733 C194.241,183.215 194.116,186.479 194.183,189.914 L194.183,189.914 Z" id="Fill-20" fill="#1A213E" sketch:type="MSShapeGroup"></path>
                <path d="M215.4,199.848 L210.405,198.214 L208.071,202.071 L210.297,202.799 C210.32,202.805 210.343,202.812 210.365,202.821 L213.066,203.705 L215.4,199.848 L215.4,199.848 Z M215.672,201.477 L213.767,204.625 C213.63,204.85 213.358,204.94 213.121,204.853 L210.703,204.063 L210.703,209.914 L215.672,211.54 L215.672,201.477 L215.672,201.477 Z M209.626,203.711 L207.095,202.883 C206.813,202.791 206.658,202.488 206.749,202.206 C206.763,202.166 206.78,202.127 206.801,202.094 L209.46,197.696 L206.307,195.183 C206.074,194.999 206.036,194.66 206.221,194.428 C206.299,194.329 206.405,194.265 206.519,194.239 L214.917,192.262 C215.091,192.222 215.264,192.27 215.389,192.378 L218.594,194.933 L221.377,193.098 C221.519,193.006 221.688,192.989 221.837,193.037 L221.838,193.036 L227.883,195.012 C228.165,195.104 228.319,195.407 228.227,195.689 C228.185,195.823 228.094,195.927 227.981,195.992 L225.526,197.608 L228.951,200.292 C229.185,200.475 229.226,200.812 229.044,201.046 C228.964,201.146 228.858,201.21 228.743,201.238 L228.743,201.24 L225.146,202.086 L225.146,210.304 C225.146,210.57 224.954,210.789 224.703,210.833 L216.362,212.797 C216.313,212.811 216.263,212.819 216.21,212.819 C216.139,212.819 216.072,212.806 216.01,212.78 L209.998,210.814 C209.771,210.741 209.628,210.53 209.628,210.304 L209.626,210.304 L209.626,203.711 L209.626,203.711 Z M210.295,196.988 L217.363,195.325 L214.909,193.369 L207.842,195.032 L210.295,196.988 L210.295,196.988 Z M219.788,195.43 L224.53,196.98 L226.492,195.687 L221.749,194.137 L219.788,195.43 L219.788,195.43 Z M224.481,198.152 L217.421,199.814 L220.349,202.109 L224.456,201.142 C224.475,201.138 224.493,201.133 224.514,201.129 L227.41,200.448 L224.481,198.152 L224.481,198.152 Z M224.069,202.338 L220.345,203.215 C220.167,203.256 219.989,203.204 219.863,203.09 L216.748,200.651 L216.748,211.602 L224.069,209.877 L224.069,202.338 L224.069,202.338 Z" id="Fill-21" fill="#E86035" sketch:type="MSShapeGroup"></path>
                <path d="M219.644,205.536 L219.644,208.529 C219.338,208.602 219.036,208.677 218.733,208.751 L218.733,205.767 C218.475,205.833 218.217,205.899 217.959,205.964 C218.375,205.261 218.793,204.556 219.213,203.848 C219.633,204.338 220.055,204.83 220.479,205.323 C220.199,205.394 219.921,205.465 219.644,205.536 L219.644,205.536 Z M222.461,204.819 L222.461,207.839 C222.15,207.916 221.842,207.992 221.533,208.066 L221.533,205.055 C221.268,205.123 221.006,205.19 220.744,205.256 C221.167,204.544 221.594,203.831 222.021,203.117 C222.448,203.61 222.878,204.106 223.309,204.603 C223.024,204.675 222.743,204.747 222.461,204.819 L222.461,204.819 Z M218.733,210.123 C219.346,209.976 219.965,209.827 220.584,209.679 C221.206,209.529 221.834,209.379 222.461,209.227 L222.461,208.379 C221.834,208.532 221.206,208.684 220.584,208.835 C219.965,208.985 219.346,209.135 218.733,209.285 L218.733,210.123 L218.733,210.123 Z" id="Fill-22" fill="#E86035" sketch:type="MSShapeGroup"></path>
                <path d="M35.319,155.956 C16.465,155.956 1.088,171.333 1.088,190.186 C1.088,209.039 16.465,224.416 35.319,224.416 C54.172,224.416 69.549,209.039 69.549,190.186 C69.549,171.333 54.172,155.956 35.319,155.956 L35.319,155.956 Z M35.319,220.768 C18.475,220.768 4.736,207.03 4.736,190.186 C4.736,173.342 18.475,159.603 35.319,159.603 C52.163,159.603 65.901,173.342 65.901,190.186 C65.901,207.03 52.163,220.768 35.319,220.768 L35.319,220.768 Z" id="Fill-23" fill="#1A213E" sketch:type="MSShapeGroup"></path>
                <path d="M35.319,155.956 C16.465,155.956 1.088,171.333 1.088,190.186 C1.088,209.039 16.465,224.416 35.319,224.416 C54.172,224.416 69.549,209.039 69.549,190.186 C69.549,171.333 54.172,155.956 35.319,155.956 L35.319,155.956 Z M35.319,220.768 C18.475,220.768 4.736,207.03 4.736,190.186 C4.736,173.342 18.475,159.603 35.319,159.603 C52.163,159.603 65.901,173.342 65.901,190.186 C65.901,207.03 52.163,220.768 35.319,220.768 L35.319,220.768 Z" id="Stroke-24" stroke="#FFFFFF" stroke-width="1.5" sketch:type="MSShapeGroup"></path>
                <path d="M21.446,200.695 C21.566,198.593 21.682,196.75 21.6,194.647 C21.562,193.692 21.491,192.695 21.399,191.695 C21.056,192.258 20.737,192.852 20.457,193.529 C20.419,195.874 20.36,197.352 20.658,199.617 C20.875,201.263 18.713,201.552 18.497,199.903 C18.334,198.674 17.66,193.695 18.031,192.784 C18.825,190.829 19.842,188.895 20.969,187.09 C21.029,186.879 21.142,186.684 21.301,186.564 C21.621,186.326 22.412,186 22.927,185.868 C22.83,186.091 24.107,186.64 25.037,185.865 C25.95,186.032 27.119,186.224 27.531,187.007 C28.452,188.759 29.351,190.899 30.399,192.579 C31.44,193.247 35.55,195.198 36.383,196.006 C37.261,196.859 36.245,197.928 35.301,197.461 C34.623,197.776 33.662,197.462 33.577,196.921 C31.904,196.258 30.477,195.634 28.983,194.603 C28.476,194.272 28.202,193.902 27.969,193.485 C27.651,192.907 27.249,192.262 27.252,192.357 C27.269,193.013 27.982,194.699 28.051,196.298 C28.33,202.743 28.368,207.831 27.935,214.618 C27.91,214.894 27.688,215.086 27.436,215.086 L25.763,215.085 C25.555,215.085 25.404,214.94 25.408,214.734 C25.502,210.304 25.543,207.573 25.25,203.347 C25.248,203.33 25.094,203.312 25.092,203.352 C24.781,207.397 24.793,210.783 24.29,214.734 C24.264,214.94 24.076,215.085 23.869,215.085 L22.196,215.086 C21.944,215.086 21.771,214.895 21.785,214.618 C22.047,209.344 22.189,206.126 22.085,200.712 L21.446,200.695 L21.446,200.695 Z M35.809,194.951 C37.228,194.166 38.44,193.51 39.908,192.497 C40.949,190.859 41.805,188.937 42.476,187.086 C42.457,187.005 42.453,186.931 42.516,186.865 C42.909,186.453 43.526,186.142 44.247,185.852 C43.879,186.619 43.587,188.154 43.55,189.319 C43.757,188.667 44.329,187.095 44.66,186.517 L45.08,186.527 C44.735,187.499 44.468,188.835 44.451,189.909 C45.064,188.266 45.789,186.741 46.514,185.799 C47.028,185.93 48.504,186.326 48.823,186.564 C49.031,186.721 49.049,186.852 49.118,187.009 L49.136,187.018 C49.969,188.095 52.556,191.581 52.711,192.798 C52.838,193.79 50.913,198.411 50.443,199.555 C50.057,200.498 49.149,200.55 48.65,200.096 C48.658,200.294 48.668,200.493 48.679,200.695 L48.206,200.682 L48.208,200.712 C47.865,204.834 48.152,210.326 48.105,214.618 C48.101,214.895 47.933,215.086 47.681,215.086 L46.008,215.085 C45.801,215.085 45.617,214.94 45.596,214.734 C45.33,212.01 45.08,208.543 44.896,205.24 C44.891,205.172 44.828,205.267 44.822,205.308 C44.371,208.416 44.037,211.585 43.779,214.734 C43.763,214.939 43.617,215.085 43.409,215.085 L41.738,215.086 C41.485,215.086 41.271,214.894 41.257,214.618 L42.067,200.716 C41.935,200.709 41.61,200.702 41.473,200.695 C41.507,199.718 41.552,197.009 41.713,194.191 C41.627,194.282 41.524,194.375 41.391,194.473 C39.841,195.607 38.933,196.037 37.262,196.728 C37.256,195.837 36.513,195.33 35.809,194.951 L35.809,194.951 Z M48.622,198.236 C48.633,196.058 48.778,193.975 48.726,191.695 L48.777,191.196 L49.151,191.605 C49.494,192.06 49.824,192.538 50.129,193.075 C49.638,195.07 49.323,196.435 48.622,198.236 L48.622,198.236 Z M45.844,179.131 C44.58,179.062 43.501,179.995 43.435,181.216 C43.37,182.397 43.736,184.974 45.172,185.052 C46.612,185.13 47.949,182.647 48.013,181.466 C48.079,180.246 47.11,179.2 45.844,179.131 L45.844,179.131 Z M23.304,179.131 C24.567,179.062 25.647,179.995 25.713,181.216 C25.778,182.396 25.413,184.974 23.975,185.052 C22.537,185.13 21.2,182.646 21.136,181.466 C21.069,180.246 22.04,179.2 23.304,179.131 L23.304,179.131 Z" id="Fill-25" fill="#1A213E" sketch:type="MSShapeGroup"></path>
                <path d="M35.099,185.641 C36.192,184.625 37.104,183.448 37.81,182.162 C36.925,181.944 36.016,181.814 35.099,181.774 L35.099,185.641 L35.099,185.641 Z M33.957,181.773 C33.037,181.81 32.128,181.938 31.242,182.153 C31.946,183.442 32.86,184.623 33.957,185.641 L33.957,181.773 L33.957,181.773 Z M35.099,165.403 L35.099,169.27 C36.018,169.231 36.926,169.101 37.808,168.886 C37.102,167.596 36.191,166.418 35.099,165.403 L35.099,165.403 Z M35.099,170.414 L35.099,174.951 L39.495,174.951 C39.422,173.2 39.018,171.498 38.323,169.928 C37.27,170.206 36.189,170.371 35.099,170.414 L35.099,170.414 Z M35.099,176.094 L35.099,180.633 C36.192,180.675 37.273,180.838 38.325,181.116 C39.02,179.548 39.422,177.847 39.495,176.094 L35.099,176.094 L35.099,176.094 Z M33.957,180.63 L33.957,176.094 L29.561,176.094 C29.633,177.844 30.035,179.542 30.727,181.107 C31.778,180.831 32.862,180.671 33.957,180.63 L33.957,180.63 Z M33.957,174.951 L33.957,170.416 C32.864,170.374 31.78,170.213 30.727,169.938 C30.035,171.503 29.633,173.203 29.561,174.951 L33.957,174.951 L33.957,174.951 Z M33.957,169.272 L33.957,165.403 C32.86,166.421 31.946,167.602 31.24,168.893 C32.127,169.108 33.036,169.235 33.957,169.272 L33.957,169.272 Z M36.448,185.915 C38.299,185.576 39.983,184.752 41.363,183.582 C40.584,183.137 39.768,182.772 38.926,182.488 C38.268,183.735 37.437,184.891 36.448,185.915 L36.448,185.915 Z M36.446,165.129 C37.438,166.156 38.272,167.311 38.928,168.559 C39.77,168.275 40.586,167.908 41.363,167.464 C39.983,166.294 38.299,165.47 36.446,165.129 L36.446,165.129 Z M39.422,169.592 C40.147,171.271 40.566,173.087 40.637,174.951 L45.079,174.951 C44.941,172.375 43.881,170.042 42.223,168.28 C41.334,168.815 40.395,169.255 39.422,169.592 L39.422,169.592 Z M40.637,176.094 C40.566,177.957 40.146,179.771 39.42,181.451 C40.354,181.775 41.257,182.193 42.114,182.699 C42.197,183.37 42.36,184.067 42.626,184.696 C40.468,186.602 37.633,187.758 34.527,187.758 C31.574,187.758 28.866,186.712 26.75,184.97 C27.037,184.178 27.175,183.302 27.208,182.522 C27.984,182.089 28.795,181.727 29.628,181.438 C28.906,179.762 28.489,177.951 28.417,176.094 L23.976,176.094 C24.017,176.86 24.139,177.604 24.334,178.318 C23.953,178.218 23.55,178.175 23.139,178.199 C22.956,178.208 22.776,178.231 22.6,178.266 C22.397,177.384 22.291,176.465 22.291,175.522 C22.291,172.143 23.66,169.084 25.876,166.871 C28.09,164.656 31.148,163.285 34.527,163.285 C37.906,163.285 40.966,164.656 43.179,166.871 C45.393,169.084 46.764,172.143 46.764,175.522 C46.764,176.257 46.699,176.978 46.574,177.677 C46.427,177.651 46.274,177.634 46.121,177.625 C45.685,177.601 45.258,177.651 44.857,177.764 C44.973,177.222 45.049,176.663 45.079,176.094 L40.637,176.094 L40.637,176.094 Z M30.123,182.476 C29.277,182.758 28.457,183.124 27.676,183.568 C29.058,184.746 30.747,185.574 32.607,185.915 C31.616,184.888 30.781,183.726 30.123,182.476 L30.123,182.476 Z M28.417,174.951 C28.489,173.092 28.907,171.282 29.629,169.605 C28.653,169.27 27.71,168.831 26.818,168.295 C25.167,170.057 24.113,172.383 23.976,174.951 L28.417,174.951 L28.417,174.951 Z M30.123,168.57 C30.779,167.319 31.616,166.158 32.609,165.129 C30.749,165.47 29.058,166.299 27.676,167.478 C28.456,167.922 29.277,168.288 30.123,168.57 L30.123,168.57 Z" id="Fill-26" fill="#46A83E" sketch:type="MSShapeGroup"></path>
                <path d="M303.479,1.542 C285.269,-3.338 266.435,7.535 261.556,25.746 C256.676,43.957 267.549,62.79 285.761,67.669 C303.972,72.549 322.804,61.676 327.684,43.465 C332.563,25.254 321.69,6.421 303.479,1.542 L303.479,1.542 Z M324.161,42.521 C319.8,58.791 302.975,68.505 286.705,64.145 C270.434,59.786 260.72,42.96 265.079,26.69 C269.439,10.42 286.265,0.706 302.536,5.065 C318.805,9.425 328.519,26.251 324.161,42.521 L324.161,42.521 Z" id="Fill-27" fill="#1A213E" sketch:type="MSShapeGroup"></path>
                <path d="M303.479,1.542 C285.269,-3.338 266.435,7.535 261.556,25.746 C256.676,43.957 267.549,62.79 285.761,67.669 C303.972,72.549 322.804,61.676 327.684,43.465 C332.563,25.254 321.69,6.421 303.479,1.542 L303.479,1.542 Z M324.161,42.521 C319.8,58.791 302.975,68.505 286.705,64.145 C270.434,59.786 260.72,42.96 265.079,26.69 C269.439,10.42 286.265,0.706 302.536,5.065 C318.805,9.425 328.519,26.251 324.161,42.521 L324.161,42.521 Z" id="Stroke-28" stroke="#FFFFFF" stroke-width="1.5" sketch:type="MSShapeGroup"></path>
                <path d="M298.495,16.291 C298.682,16.257 298.856,16.289 298.912,16.493 C298.995,16.792 298.977,17.067 298.887,17.324 C298.802,17.562 298.461,17.778 298.278,17.981 C298.201,18.069 298.035,18.108 297.919,18.099 C297.263,19.762 296.122,21.25 294.675,21.25 C293.231,21.25 292.089,19.762 291.434,18.099 C291.318,18.108 291.15,18.069 291.074,17.981 C290.892,17.778 290.549,17.562 290.467,17.324 C290.376,17.067 290.356,16.792 290.44,16.493 C290.496,16.289 290.669,16.258 290.855,16.291 C290.689,15.56 290.603,14.658 290.762,13.925 C291.149,12.13 292.986,11.147 294.675,11.147 C296.174,11.147 297.035,11.505 297.345,12.249 C298.74,12.903 298.932,14.393 298.495,16.291 L298.495,16.291 Z M294.675,23.155 L294.033,23.582 L294.213,24.292 L293.688,27.596 C292.88,25.985 292.068,23.891 291.631,22.149 C290.33,22.653 288.381,22.809 287.733,24.12 C287.065,25.466 286.757,28.449 286.649,30.838 C286.641,31.023 286.702,31.187 286.831,31.322 C286.957,31.456 287.119,31.524 287.304,31.524 L302.047,31.524 C302.234,31.524 302.394,31.456 302.522,31.322 C302.649,31.187 302.71,31.023 302.702,30.838 C302.595,28.449 302.288,25.466 301.62,24.12 C300.97,22.809 299.024,22.653 297.722,22.149 C297.285,23.891 296.472,25.985 295.665,27.596 L295.139,24.292 L295.319,23.582 L294.675,23.155 L294.675,23.155 Z M297.356,28.393 L299.595,28.393 L299.595,29.088 L297.356,29.088 L297.356,28.393 Z M305.794,37.27 C306.453,38.907 307.583,40.354 309.009,40.354 C310.424,40.354 311.549,38.927 312.209,37.305 C312.367,37.353 312.543,37.369 312.653,37.227 C312.818,37.015 312.951,36.789 313.027,36.54 C313.106,36.281 313.123,36.006 313.051,35.707 C313.025,35.603 312.946,35.528 312.85,35.504 C313.405,34.231 313.319,32.887 312.413,31.773 C311.517,30.669 310.09,30.138 308.708,30.2 L308.632,30.203 C308.707,29.982 308.733,29.75 308.692,29.419 C308.681,29.323 307.799,30.266 307.748,30.133 C307.7,30.011 307.237,29.05 307.195,29.434 C307.128,30.041 306.917,30.467 306.801,30.705 L306.763,30.725 C306.464,30.518 305.415,30.101 305.632,30.402 C305.9,30.77 306.008,31.033 306.054,31.216 C305.744,31.484 305.475,31.806 305.26,32.181 C304.646,33.25 304.569,34.578 305.147,35.533 C305.083,35.568 305.034,35.63 305.015,35.707 C304.942,36.006 304.96,36.281 305.039,36.54 C305.115,36.789 305.248,37.015 305.413,37.227 C305.514,37.357 305.652,37.339 305.794,37.27 L305.794,37.27 Z M312.151,41.253 C313.453,41.759 314.656,41.913 315.305,43.226 C315.972,44.57 316.281,47.555 316.389,49.944 C316.398,50.129 316.337,50.292 316.208,50.427 C316.08,50.56 315.92,50.629 315.735,50.629 L302.217,50.629 C302.03,50.629 301.871,50.56 301.742,50.427 C301.614,50.292 301.553,50.129 301.56,49.944 C301.669,47.555 301.977,44.57 302.644,43.226 C303.292,41.913 304.496,41.759 305.799,41.253 L308.975,43.877 L312.151,41.253 L312.151,41.253 Z M272.963,49.957 C273.017,47.699 273.339,45.441 274.039,43.184 C274.362,42.143 276.134,41.623 277.772,41.287 C278.44,42.926 279.157,43.829 279.878,43.994 L279.904,44.573 C279.922,45.001 279.937,45.361 279.951,45.669 C279.952,45.692 279.972,45.715 280.002,45.73 C280.032,45.745 280.073,45.755 280.119,45.755 C280.164,45.755 280.206,45.745 280.235,45.73 C280.266,45.715 280.285,45.692 280.286,45.669 C280.299,45.361 280.316,45.001 280.334,44.573 L280.36,43.994 C281.081,43.831 281.798,42.927 282.467,41.287 C284.103,41.623 285.875,42.143 286.198,43.184 C286.898,45.441 287.221,47.699 287.276,49.957 C287.28,50.141 287.217,50.3 287.089,50.431 C286.962,50.563 286.803,50.629 286.62,50.629 L273.618,50.629 C273.434,50.629 273.277,50.563 273.149,50.431 C273.02,50.3 272.957,50.141 272.963,49.957 L272.963,49.957 Z M277.976,39.162 C277.004,39.095 275.612,38.916 274.823,38.604 C275.538,37.888 275.973,37.108 276.003,35.945 C276.015,35.526 276.002,34.993 276.002,34.502 C276.002,32.225 277.662,30.364 279.913,30.258 C280.052,30.251 280.185,30.251 280.325,30.258 C282.576,30.364 284.237,32.224 284.237,34.502 C284.237,35.08 284.204,35.633 284.249,36.19 C284.332,37.219 284.751,37.94 285.415,38.604 C284.625,38.918 283.234,39.095 282.261,39.162 C281.669,39.885 280.943,40.37 280.119,40.37 C279.294,40.37 278.569,39.885 277.976,39.162 L277.976,39.162 Z" id="Fill-29" fill="#1A213E" sketch:type="MSShapeGroup"></path>
                <path d="M300.074,44.078 C300.537,44.078 300.912,44.455 300.912,44.917 C300.912,45.38 300.537,45.755 300.074,45.755 L292.742,45.755 L292.742,48.065 L288.44,44.917 L292.742,41.768 L292.742,44.078 L300.074,44.078 L300.074,44.078 Z M280.517,27.581 C280.517,28.041 280.142,28.417 279.68,28.417 C279.22,28.417 278.846,28.041 278.846,27.581 L278.844,22.666 L278.841,22.666 L278.841,22.663 C278.841,21.814 279.187,21.044 279.745,20.485 C280.303,19.927 281.074,19.581 281.927,19.58 L281.927,19.577 L284.15,19.577 L284.15,17.267 L288.451,20.415 L284.15,23.566 L284.15,21.255 L281.927,21.255 L281.927,21.251 C281.538,21.251 281.186,21.411 280.932,21.666 C280.677,21.919 280.519,22.273 280.519,22.663 L280.519,22.666 L280.515,22.666 L280.517,27.581 L280.517,27.581 Z M308.387,24.172 L308.388,22.463 L308.384,22.463 L308.384,22.461 C308.384,22.07 308.226,21.716 307.972,21.46 C307.717,21.207 307.365,21.049 306.976,21.049 L306.976,21.051 L302.651,21.051 C302.188,21.051 301.813,20.675 301.813,20.212 C301.813,19.749 302.188,19.375 302.651,19.375 L306.976,19.375 L306.976,19.376 C307.829,19.378 308.601,19.723 309.158,20.282 C309.715,20.841 310.062,21.611 310.062,22.461 L310.062,22.463 L310.057,22.463 L310.057,24.172 L312.371,24.172 L309.223,28.476 L306.073,24.172 L308.387,24.172 L308.387,24.172 Z" id="Fill-30" fill="#E86035" sketch:type="MSShapeGroup"></path>
                <path d="M393.256,1.602 C375.045,-3.277 356.212,7.596 351.332,25.807 C346.453,44.018 357.326,62.851 375.537,67.73 C393.748,72.61 412.581,61.737 417.46,43.526 C422.34,25.315 411.467,6.482 393.256,1.602 L393.256,1.602 Z M413.937,42.582 C409.577,58.852 392.751,68.566 376.481,64.207 C360.211,59.847 350.497,43.021 354.856,26.751 C359.216,10.481 376.042,0.767 392.312,5.126 C408.581,9.486 418.296,26.312 413.937,42.582 L413.937,42.582 Z" id="Fill-31" fill="#1A213E" sketch:type="MSShapeGroup"></path>
                <path d="M393.256,1.602 C375.045,-3.277 356.212,7.596 351.332,25.807 C346.453,44.018 357.326,62.851 375.537,67.73 C393.748,72.61 412.581,61.737 417.46,43.526 C422.34,25.315 411.467,6.482 393.256,1.602 L393.256,1.602 Z M413.937,42.582 C409.577,58.852 392.751,68.566 376.481,64.207 C360.211,59.847 350.497,43.021 354.856,26.751 C359.216,10.481 376.042,0.767 392.312,5.126 C408.581,9.486 418.296,26.312 413.937,42.582 L413.937,42.582 Z" id="Stroke-32" stroke="#FFFFFF" stroke-width="1.5" sketch:type="MSShapeGroup"></path>
                <path d="M400.787,31.39 L400.779,31.35 L400.743,31.234 L400.685,31.129 L400.611,31.039 L400.519,30.963 L400.415,30.908 L400.3,30.871 L400.259,30.862 C400.213,30.861 399.95,30.595 399.676,30.273 L396.731,26.826 C396.456,26.503 396.006,26.503 395.73,26.826 L395.38,27.235 C395.105,27.557 394.655,28.083 394.38,28.405 L392.786,30.273 C392.51,30.595 392.06,30.595 391.786,30.273 L388.841,26.826 C388.566,26.503 388.115,26.503 387.84,26.826 L384.896,30.273 C384.622,30.595 384.171,30.595 383.896,30.273 L383.047,29.28 C382.773,28.958 382.323,28.431 382.048,28.11 L380.951,26.826 C380.676,26.503 380.227,26.503 379.95,26.826 L377.006,30.273 C376.732,30.595 376.281,30.595 376.007,30.273 L373.062,26.826 C372.787,26.503 372.336,26.503 372.061,26.826 L369.116,30.273 C368.842,30.595 368.578,30.861 368.532,30.862 L368.492,30.871 L368.377,30.908 L368.272,30.963 L368.181,31.039 L368.106,31.129 L368.049,31.234 L368.013,31.35 L368.005,31.39 C368.002,31.437 368.001,31.82 368.001,32.245 L368.001,51.026 C368.001,51.449 368.002,51.833 368.005,51.878 L368.013,51.919 L368.049,52.035 L368.106,52.139 L368.181,52.23 L368.272,52.305 L368.377,52.362 L368.492,52.399 L368.532,52.407 C368.578,52.408 368.962,52.411 369.387,52.411 L399.405,52.411 C399.829,52.411 400.213,52.408 400.259,52.407 L400.3,52.399 L400.415,52.362 L400.519,52.305 L400.611,52.23 L400.685,52.139 L400.743,52.035 L400.779,51.919 L400.787,51.878 C400.789,51.833 400.792,51.449 400.792,51.026 L400.792,32.245 C400.792,31.82 400.789,31.437 400.787,31.39 L400.787,31.39 Z M371.922,41.692 L374.65,41.692 L374.65,44.42 L371.922,44.42 L371.922,41.692 Z M371.922,37.899 L374.65,37.899 L374.65,40.627 L371.922,40.627 L371.922,37.899 Z M371.922,34.107 L374.65,34.107 L374.65,36.835 L371.922,36.835 L371.922,34.107 Z M375.714,41.692 L378.442,41.692 L378.442,44.42 L375.714,44.42 L375.714,41.692 Z M375.714,37.899 L378.442,37.899 L378.442,40.627 L375.714,40.627 L375.714,37.899 Z M375.714,34.107 L378.442,34.107 L378.442,36.835 L375.714,36.835 L375.714,34.107 Z M379.508,41.692 L382.235,41.692 L382.235,44.42 L379.508,44.42 L379.508,41.692 Z M379.508,37.899 L382.235,37.899 L382.235,40.627 L379.508,40.627 L379.508,37.899 Z M379.508,34.107 L382.235,34.107 L382.235,36.835 L379.508,36.835 L379.508,34.107 Z M383.299,41.692 L386.028,41.692 L386.028,44.42 L383.299,44.42 L383.299,41.692 Z M383.299,37.899 L386.028,37.899 L386.028,40.627 L383.299,40.627 L383.299,37.899 Z M383.299,34.107 L386.028,34.107 L386.028,36.835 L383.299,36.835 L383.299,34.107 Z M387.092,41.692 L389.821,41.692 L389.821,44.42 L387.092,44.42 L387.092,41.692 Z M387.092,37.899 L389.821,37.899 L389.821,40.627 L387.092,40.627 L387.092,37.899 Z M387.092,34.107 L389.821,34.107 L389.821,36.835 L387.092,36.835 L387.092,34.107 Z" id="Fill-33" fill="#2895D2" sketch:type="MSShapeGroup"></path>
                <path d="M387.84,25.286 C388.115,24.964 388.566,24.964 388.841,25.286 L391.786,28.733 C392.06,29.056 392.51,29.056 392.786,28.733 L394.38,26.867 C394.655,26.544 394.797,25.945 394.695,25.534 C394.695,25.534 392.698,17.504 392.459,12.798 C392.452,12.486 392.267,12.231 392.038,12.231 L385.603,12.231 C385.374,12.231 385.188,12.486 385.183,12.798 C384.926,17.815 382.739,26.409 382.739,26.409 C382.632,26.82 382.773,27.418 383.047,27.74 L383.896,28.733 C384.171,29.056 384.622,29.056 384.896,28.733 L387.84,25.286" id="Fill-34" fill="#1A213E" sketch:type="MSShapeGroup"></path>
                <path d="M393.256,156.839 C375.045,151.96 356.212,162.833 351.332,181.044 C346.453,199.255 357.326,218.087 375.537,222.967 C393.748,227.847 412.581,216.974 417.46,198.763 C422.34,180.552 411.467,161.719 393.256,156.839 L393.256,156.839 Z M413.937,197.819 C409.577,214.089 392.751,223.803 376.481,219.444 C360.211,215.084 350.497,198.258 354.856,181.988 C359.216,165.718 376.042,156.003 392.312,160.363 C408.581,164.723 418.296,181.549 413.937,197.819 L413.937,197.819 Z" id="Fill-35" fill="#1A213E" sketch:type="MSShapeGroup"></path>
                <path d="M393.256,156.839 C375.045,151.96 356.212,162.833 351.332,181.044 C346.453,199.255 357.326,218.087 375.537,222.967 C393.748,227.847 412.581,216.974 417.46,198.763 C422.34,180.552 411.467,161.719 393.256,156.839 L393.256,156.839 Z M413.937,197.819 C409.577,214.089 392.751,223.803 376.481,219.444 C360.211,215.084 350.497,198.258 354.856,181.988 C359.216,165.718 376.042,156.003 392.312,160.363 C408.581,164.723 418.296,181.549 413.937,197.819 L413.937,197.819 Z" id="Stroke-36" stroke="#FFFFFF" stroke-width="1.5" sketch:type="MSShapeGroup"></path>
                <path d="M365.333,197.661 C364.798,197.661 364.363,198.096 364.363,198.631 C364.363,200.009 364.052,201.696 365.333,201.696 C366.059,201.696 366.931,201.864 366.878,201.275 C366.555,197.587 368.907,197.661 365.333,197.661" id="Fill-37" fill="#1A213E" sketch:type="MSShapeGroup"></path>
                <path d="M373.637,195.8 C370.966,195.8 368.789,197.976 368.789,200.647 C368.789,204.944 374.008,207.12 377.055,204.078 C380.12,201.02 377.933,195.8 373.637,195.8 L373.637,195.8 Z M374.989,202.002 C373.784,203.204 371.726,202.344 371.726,200.648 C371.726,199.594 372.584,198.735 373.637,198.735 C375.332,198.735 376.197,200.795 374.989,202.002 L374.989,202.002 Z" id="Fill-38" fill="#1A213E" sketch:type="MSShapeGroup"></path>
                <path d="M389.14,194.752 L389.14,175.279 C389.14,174.744 388.706,174.31 388.171,174.31 L366.382,174.31 C365.845,174.31 365.411,174.744 365.411,175.279 L365.411,194.752 C365.411,196.04 367.119,195.722 368.531,195.722 C369.594,195.722 370.337,193.861 373.637,193.861 C376.998,193.861 377.672,195.722 378.75,195.722 L388.171,195.722 C388.706,195.722 389.14,195.288 389.14,194.752" id="Fill-39" fill="#46A83E" sketch:type="MSShapeGroup"></path>
                <path d="M406.677,194.752 L406.673,189.897 C406.675,187.886 402.304,189.718 401.959,187.684 L400.847,181.101 L402.796,181.101 C404.074,181.101 404.074,179.161 402.796,179.161 L392.054,179.161 C391.518,179.161 391.083,179.596 391.083,180.13 L391.083,194.752 C391.083,195.288 391.518,195.722 392.054,195.722 C393.321,195.722 393.862,193.861 397.241,193.861 C400.604,193.861 401.275,195.722 402.354,195.722 L405.707,195.722 C406.243,195.722 406.677,195.288 406.677,194.752 L406.677,194.752 Z M399.359,188.276 L393.545,187.681 C393.248,187.65 393.025,187.402 393.025,187.103 L393.025,181.101 L398.88,181.101 L399.994,187.599 C400.057,187.979 399.743,188.316 399.359,188.276 L399.359,188.276 Z" id="Fill-40" fill="#46A83E" sketch:type="MSShapeGroup"></path>
                <path d="M403.913,197.661 C403.638,197.661 403.452,197.935 403.552,198.19 C404.367,200.271 403.793,201.23 404.104,201.571 C404.246,201.725 406.517,202.091 406.517,200.727 C406.517,197.498 406.814,197.661 403.913,197.661" id="Fill-41" fill="#1A213E" sketch:type="MSShapeGroup"></path>
                <path d="M390.553,197.661 L380.31,197.661 C380.035,197.661 379.849,197.935 379.948,198.191 C380.867,200.533 379.974,201.696 380.787,201.696 L390.094,201.696 L390.481,201.275 C390.274,198.953 391.508,197.661 390.553,197.661" id="Fill-42" fill="#1A213E" sketch:type="MSShapeGroup"></path>
                <path d="M397.241,195.8 C394.569,195.8 392.393,197.976 392.393,200.647 C392.393,204.944 397.61,207.12 400.658,204.078 C403.723,201.02 401.536,195.8 397.241,195.8 L397.241,195.8 Z M398.592,202.002 C397.388,203.204 395.33,202.344 395.33,200.648 C395.33,199.594 396.187,198.735 397.241,198.735 C398.938,198.735 399.801,200.795 398.592,202.002 L398.592,202.002 Z" id="Fill-43" fill="#1A213E" sketch:type="MSShapeGroup"></path>
                <path d="M130.415,156.849 C112.205,151.97 93.372,162.843 88.492,181.054 C83.612,199.265 94.485,218.097 112.697,222.977 C130.908,227.857 149.74,216.983 154.62,198.773 C159.5,180.561 148.626,161.729 130.415,156.849 L130.415,156.849 Z M151.096,197.829 C146.736,214.099 129.911,223.813 113.641,219.454 C97.371,215.094 87.656,198.268 92.016,181.997 C96.375,165.728 113.201,156.013 129.471,160.373 C145.741,164.732 155.456,181.559 151.096,197.829 L151.096,197.829 Z" id="Fill-44" fill="#1A213E" sketch:type="MSShapeGroup"></path>
                <path d="M130.415,156.849 C112.205,151.97 93.372,162.843 88.492,181.054 C83.612,199.265 94.485,218.097 112.697,222.977 C130.908,227.857 149.74,216.983 154.62,198.773 C159.5,180.561 148.626,161.729 130.415,156.849 L130.415,156.849 Z M151.096,197.829 C146.736,214.099 129.911,223.813 113.641,219.454 C97.371,215.094 87.656,198.268 92.016,181.997 C96.375,165.728 113.201,156.013 129.471,160.373 C145.741,164.732 155.456,181.559 151.096,197.829 L151.096,197.829 Z" id="Stroke-45" stroke="#FFFFFF" stroke-width="1.5" sketch:type="MSShapeGroup"></path>
                <path d="M117.552,196.275 C115.461,197.086 110.368,197.271 109.467,199.435 C109.157,200.186 108.957,200.759 108.803,201.315 L135.903,201.315 C135.696,200.759 135.45,200.186 135.142,199.435 C134.24,197.271 129.146,197.086 127.056,196.275 C125.712,197.721 124.117,198.978 122.305,200.072 C120.608,198.973 119.01,197.727 117.552,196.275 L117.552,196.275 Z M122.305,178.636 C125.72,178.636 128.492,181.52 128.492,185.08 C128.492,188.675 126.027,194.834 122.305,194.834 C118.581,194.834 116.115,188.675 116.115,185.08 C116.115,181.52 118.886,178.636 122.305,178.636 L122.305,178.636 Z" id="Fill-46" fill="#2895D2" sketch:type="MSShapeGroup"></path>
                <path d="M105.903,171.658 L138.707,171.658 C140.918,171.658 142.729,173.467 142.729,175.681 L142.729,202.134 C142.729,204.343 140.914,206.156 138.707,206.156 L105.903,206.156 C103.684,206.156 101.878,204.351 101.878,202.134 L101.878,175.681 C101.878,173.465 103.684,171.658 105.903,171.658 L105.903,171.658 Z M132.79,210.914 C133.215,210.914 133.704,210.535 133.577,210.131 L132.892,207.964 C132.767,207.559 132.535,207.18 132.108,207.18 L112.498,207.18 C112.076,207.18 111.841,207.561 111.714,207.964 L111.033,210.131 C110.906,210.535 111.394,210.914 111.817,210.914 L132.79,210.914 L132.79,210.914 Z M104.776,202.134 C104.776,202.751 105.284,203.262 105.903,203.262 L138.707,203.262 C139.335,203.262 139.834,202.758 139.834,202.134 L139.834,175.681 C139.834,175.044 139.335,174.554 138.707,174.554 L105.903,174.554 C105.284,174.554 104.776,175.063 104.776,175.681 L104.776,202.134 L104.776,202.134 Z" id="Fill-47" fill="#1A213E" sketch:type="MSShapeGroup"></path>
                <path d="M114.279,188.015 C114.495,188.038 114.709,188.025 114.925,187.979 C115.3,187.897 115.525,187.516 115.42,187.148 C114.59,184.264 115.26,181.28 117.705,179.352 C120.384,177.233 124.163,177.233 126.843,179.352 C129.287,181.28 129.958,184.264 129.127,187.148 C129.034,187.472 129.197,187.801 129.489,187.936 C129.368,188.811 129.192,189.66 128.951,190.479 C128.789,191.027 128.596,191.56 128.37,192.073 C128.262,192.047 128.148,192.033 128.031,192.033 C127.27,192.033 126.654,192.648 126.654,193.408 C126.654,194.168 127.27,194.785 128.031,194.785 C128.792,194.785 129.408,194.168 129.408,193.408 C129.408,192.979 129.211,192.599 128.905,192.347 C129.146,191.796 129.355,191.229 129.523,190.65 C129.777,189.805 129.958,188.925 130.081,188.025 C130.143,188.024 130.208,188.02 130.268,188.015 L131.718,188.015 C132.465,188.015 133.081,187.404 133.081,186.664 L133.081,184.165 C133.081,183.425 132.465,182.815 131.718,182.815 L130.161,182.815 C127.825,174.877 116.724,174.877 114.387,182.815 L112.89,182.815 C112.142,182.815 111.529,183.425 111.529,184.165 L111.529,186.664 C111.529,187.404 112.142,188.015 112.89,188.015 L114.279,188.015" id="Fill-48" fill="#2895D2" sketch:type="MSShapeGroup"></path>
                <path d="M34.1,156.609 L34.1,150.043 C34.1,145.625 37.681,142.043 42.1,142.043 L379.152,142.043 C383.57,142.043 387.152,145.625 387.152,150.043 L387.152,156.109 M120.697,156.681 L120.697,150.05 C120.697,145.588 124.314,141.971 128.776,141.971 M295.606,156.681 L295.606,150.05 C295.606,145.588 291.989,141.971 287.527,141.971 M295.606,67.32 L295.606,73.951 C295.606,78.413 291.99,82.03 287.527,82.03" id="Stroke-49" stroke="#1A213E" stroke-width="2" sketch:type="MSShapeGroup"></path>
                <path d="M34.099,0.436 C15.246,0.436 -0.13,15.813 -0.13,34.666 C-0.13,53.519 15.246,68.896 34.099,68.896 C52.953,68.896 68.329,53.519 68.329,34.666 C68.329,15.813 52.953,0.436 34.099,0.436 L34.099,0.436 Z M34.099,65.249 C17.255,65.249 3.517,51.51 3.517,34.666 C3.517,17.822 17.255,4.084 34.099,4.084 C50.943,4.084 64.682,17.822 64.682,34.666 C64.682,51.51 50.943,65.249 34.099,65.249 L34.099,65.249 Z" id="Fill-50" fill="#1A213E" sketch:type="MSShapeGroup"></path>
                <path d="M34.099,0.436 C15.246,0.436 -0.13,15.813 -0.13,34.666 C-0.13,53.519 15.246,68.896 34.099,68.896 C52.953,68.896 68.329,53.519 68.329,34.666 C68.329,15.813 52.953,0.436 34.099,0.436 L34.099,0.436 Z M34.099,65.249 C17.255,65.249 3.517,51.51 3.517,34.666 C3.517,17.822 17.255,4.084 34.099,4.084 C50.943,4.084 64.682,17.822 64.682,34.666 C64.682,51.51 50.943,65.249 34.099,65.249 L34.099,65.249 Z" id="Stroke-51" stroke="#FFFFFF" stroke-width="1.5" sketch:type="MSShapeGroup"></path>
                <path d="M49.196,22.48 C49.15,22.005 48.764,21.633 48.271,21.633 L26.428,21.633 C26.234,21.633 26.055,21.69 25.906,21.781 L23.029,22.853 L20.14,21.721 C20.05,21.676 19.961,21.662 19.871,21.647 C19.364,21.573 18.889,21.915 18.813,22.435 L14.731,50.345 C14.715,50.404 14.701,50.464 14.701,50.524 C14.701,51.045 15.119,51.462 15.639,51.462 L52.369,51.462 C52.414,51.462 52.458,51.462 52.503,51.448 C53.024,51.374 53.368,50.911 53.293,50.39 L49.196,22.48 L49.196,22.48 Z M20.498,23.852 L22.33,24.567 L20.2,46.352 L16.816,48.884 L20.498,23.852 L20.498,23.852 Z M17.905,49.6 L20.766,47.454 L23.418,49.6 L17.905,49.6 L17.905,49.6 Z M24.639,49.034 L21.42,46.412 L23.552,24.642 L25.444,23.942 L24.639,49.034 L24.639,49.034 Z M26.487,49.6 L27.321,23.495 L47.467,23.495 L51.296,49.6 L26.487,49.6 L26.487,49.6 Z" id="Fill-52" fill="#1A213E" sketch:type="MSShapeGroup"></path>
                <path d="M44.469,20.244 C44.507,20.576 44.264,20.874 43.93,20.911 C43.593,20.947 43.292,20.708 43.254,20.376 C42.806,16.363 41.389,13.743 39.667,12.5 C38.912,11.955 38.099,11.681 37.289,11.681 C36.478,11.681 35.664,11.955 34.91,12.5 C34.529,12.773 34.164,13.116 33.821,13.524 C35.097,15.073 36.241,17.278 37.053,20.146 C37.145,20.47 36.954,20.808 36.629,20.899 C36.303,20.991 35.966,20.8 35.874,20.475 C35.152,17.929 34.173,15.959 33.089,14.558 C32.238,15.975 31.598,17.913 31.324,20.376 C31.286,20.708 30.983,20.947 30.649,20.911 C30.314,20.874 30.071,20.576 30.107,20.244 C30.423,17.422 31.206,15.21 32.253,13.61 C31.823,13.186 31.382,12.844 30.941,12.583 C30.166,12.128 29.392,11.937 28.677,12.013 C27.978,12.087 27.318,12.422 26.749,13.014 C25.523,14.29 24.72,16.717 24.779,20.3 C24.785,20.639 24.516,20.915 24.179,20.921 C23.84,20.927 23.562,20.656 23.558,20.32 C23.493,16.385 24.434,13.658 25.867,12.165 C26.643,11.358 27.562,10.901 28.552,10.796 C29.525,10.693 30.551,10.938 31.559,11.53 C32.043,11.813 32.522,12.18 32.992,12.63 C33.371,12.194 33.774,11.826 34.192,11.523 C35.165,10.821 36.226,10.47 37.289,10.47 C38.352,10.47 39.411,10.821 40.385,11.523 C42.364,12.953 43.98,15.864 44.469,20.244 L44.469,20.244 Z M35.398,38.318 C34.79,37.849 34.464,37.199 34.419,36.372 C34.37,35.452 34.677,34.691 35.338,34.091 C35.922,33.56 36.568,33.237 37.518,33.109 C37.743,33.079 37.905,32.882 37.892,32.657 L37.815,31.435 C37.802,31.197 37.987,30.992 38.226,30.98 L38.858,30.945 C39.095,30.932 39.299,31.115 39.314,31.352 L39.39,32.563 C39.402,32.787 39.582,32.963 39.806,32.972 C40.702,33.005 41.322,33.251 41.896,33.704 C42.434,34.127 42.783,34.709 42.939,35.448 C42.966,35.577 42.939,35.698 42.858,35.802 C42.78,35.906 42.671,35.964 42.54,35.971 L40.879,36.061 C40.671,36.073 40.488,35.938 40.437,35.737 C40.373,35.485 40.271,35.286 40.131,35.138 C39.686,34.665 37.751,34.756 37.277,35.155 C36.891,35.481 36.9,36.171 37.326,36.469 C37.835,36.819 39.592,37.021 40.331,37.208 C41.267,37.445 41.966,37.751 42.429,38.122 C43.033,38.606 43.359,39.283 43.406,40.159 C43.462,41.174 43.177,41.971 42.555,42.545 C41.999,43.059 41.305,43.396 40.225,43.565 C40.005,43.6 39.848,43.794 39.86,44.017 L39.926,45.239 C39.939,45.476 39.756,45.681 39.519,45.696 L38.937,45.726 C38.698,45.738 38.495,45.555 38.481,45.317 L38.413,44.086 C38.402,43.862 38.223,43.686 37.998,43.677 C36.981,43.636 36.281,43.352 35.653,42.842 C35.053,42.356 34.684,41.691 34.544,40.846 C34.522,40.721 34.553,40.602 34.633,40.504 C34.713,40.403 34.819,40.35 34.947,40.343 L36.744,40.245 C36.961,40.232 37.152,40.38 37.192,40.593 C37.262,40.948 37.373,41.214 37.524,41.384 C38.049,41.971 40.024,41.736 40.507,41.358 C40.943,41.018 40.919,40.293 40.482,39.964 C39.449,39.199 36.94,39.51 35.398,38.318 L35.398,38.318 Z M43.673,28.92 C44.6,28.92 45.352,28.168 45.352,27.243 C45.352,26.315 44.6,25.564 43.673,25.564 C42.747,25.564 41.996,26.315 41.996,27.243 C41.996,28.168 42.747,28.92 43.673,28.92 L43.673,28.92 Z M31.462,28.92 C32.388,28.92 33.138,28.168 33.138,27.243 C33.138,26.315 32.388,25.564 31.462,25.564 C30.534,25.564 29.783,26.315 29.783,27.243 C29.783,28.168 30.534,28.92 31.462,28.92 L31.462,28.92 Z" id="Fill-53" fill="#972F84" sketch:type="MSShapeGroup"></path>
                <path d="M120.697,67.32 L120.697,73.951 C120.697,78.413 124.314,82.03 128.777,82.03 M387.152,67.392 L387.152,73.958 C387.152,78.376 383.571,81.958 379.152,81.958 L42.1,81.958 C37.682,81.958 34.1,78.376 34.1,73.958 L34.1,67.892 M206.74,67.32 L206.74,90.609 L206.74,67.32 Z M206.74,133.393 L206.74,156.682 L206.74,133.393 Z M323.622,125.393 C323.622,129.811 320.04,133.393 315.622,133.393 L101.769,133.393 C97.351,133.393 93.77,129.811 93.77,125.393 L93.77,99.06 C93.77,94.641 97.351,91.06 101.769,91.06 L315.622,91.06 C320.04,91.06 323.622,94.641 323.622,99.06 L323.622,125.393 L323.622,125.393 Z" id="Stroke-54" stroke="#1A213E" stroke-width="2" sketch:type="MSShapeGroup"></path>
                <path d="M151,122 L151,120.835 C153.007,120.808 154.705,120.107 154.705,118.101 L154.705,104.904 C154.705,103.421 153.46,103.19 151.225,103.162 L151.225,102 L162.242,102 L167.58,115.544 L167.655,115.544 L173.033,102 L184.125,102 L184.125,103.162 C181.361,103.162 180.452,103.626 180.452,105.077 L180.452,118.915 C180.452,120.37 181.361,120.835 184.125,120.835 L184.125,122 L170.987,122 L170.987,120.835 C173.486,120.835 174.394,120.37 174.394,118.915 L174.394,104.148 L174.319,104.148 L167.089,122 L163.83,122 L156.904,104.148 L156.829,104.148 L156.829,118.101 C156.829,120.107 158.531,120.808 160.804,120.835 L160.804,122 L151,122" id="Fill-36" fill="#222844" sketch:type="MSShapeGroup"></path>
                <path d="M183,122.351 L183,121.186 C185.839,120.777 186.746,119.906 188.071,117.495 L196.476,102 L198.483,102 L208.176,119.237 C208.971,120.634 209.804,121.068 211.772,121.186 L211.772,122.351 L198.106,122.351 L198.106,121.186 L199.619,121.186 C201.588,121.186 201.891,120.837 201.891,120.227 C201.891,119.849 201.702,119.471 201.475,119.064 L199.619,115.72 L191.289,115.72 L190.08,118.019 C189.888,118.393 189.625,119.035 189.625,119.849 C189.625,120.663 190.308,121.186 191.782,121.186 L193.639,121.186 L193.639,122.351 L183,122.351 L183,122.351 Z M195.341,108.076 L192.125,114.208 L198.789,114.208 L195.341,108.076 L195.341,108.076 Z" id="Fill-24" fill="#222844" sketch:type="MSShapeGroup"></path>
                <path d="M236.713,117.577 C236.713,120.457 235.081,122.347 230.908,122.347 C226.855,122.347 225.263,120.776 224.986,117.346 C224.707,113.798 224.546,112.84 220.254,112.402 L220.254,118.509 C220.254,120.166 220.772,120.835 224.072,120.835 L224.072,122 L210,122 L210,120.835 C212.941,120.835 213.896,120.37 213.896,118.915 L213.896,105.077 C213.896,103.626 212.941,103.162 210,103.162 L210,102 L223.913,102 C230.67,102 234.086,103.973 234.086,107.347 C234.086,111.153 228.92,112.115 224.468,112.174 L224.468,112.228 C229.318,112.695 230.434,114.583 231.347,116.589 C232.578,119.41 232.82,119.732 233.77,119.732 C234.765,119.732 235.004,118.567 235.121,117.577 L236.713,117.577 L236.713,117.577 Z M220.254,111.357 C224.589,111.213 227.25,110.718 227.25,107.377 C227.25,104.963 225.58,103.336 222.836,103.336 C221.448,103.336 220.254,103.742 220.254,105.077 L220.254,111.357 L220.254,111.357 Z" id="Fill-28" fill="#222844" sketch:type="MSShapeGroup"></path>
                <path d="M237,114.672 L238.666,114.672 C239.688,117.843 242.224,121.359 247.032,121.359 C249.647,121.359 251.878,120.431 251.878,117.988 C251.878,113.773 237.229,115.225 237.229,108.567 C237.229,104.384 241.278,102 246.048,102 C250.174,102 251.537,103.541 252.558,103.541 C253.318,103.541 253.618,102.869 254.035,102.351 L255.626,102.351 L255.626,109.267 L254.111,109.267 C253.014,106.099 250.591,103.338 246.617,103.338 C244.229,103.338 242.224,104.355 242.224,106.274 C242.224,110.808 257.104,108.567 257.104,116.099 C257.104,120.431 251.991,122.698 247.791,122.698 C243.133,122.698 241.354,121.186 240.145,121.186 C239.385,121.186 238.816,121.972 238.513,122.351 L237,122.351 L237,114.672" id="Fill-32" fill="#222844" sketch:type="MSShapeGroup"></path>
            </g>
        </g>
    </g>
</svg>