<?xml version="1.0" encoding="UTF-8" standalone="no"?>
<svg width="43px" height="42px" viewBox="0 0 43 42" version="1.1" xmlns="http://www.w3.org/2000/svg" xmlns:xlink="http://www.w3.org/1999/xlink" xmlns:sketch="http://www.bohemiancoding.com/sketch/ns">
    <!-- Generator: Sketch 3.0.2 (7799) - http://www.bohemiancoding.com/sketch -->
    <title>see</title>
    <description>Created with Sketch.</description>
    <defs></defs>
    <g id="Page-1" stroke="none" stroke-width="1" fill="none" fill-rule="evenodd" sketch:type="MSPage">
        <g id="Portrait" sketch:type="MSArtboardGroup" transform="translate(-530.000000, -748.000000)">
            <g id="see" sketch:type="MSLayerGroup" transform="translate(530.000000, 748.000000)">
                <path d="M18.779,13.811 L22.901,13.811 C23.22,13.492 23.562,13.195 23.924,12.92 C23.834,12.654 23.581,12.461 23.284,12.461 L18.779,12.461 C18.407,12.461 18.104,12.763 18.104,13.135 C18.104,13.508 18.407,13.811 18.779,13.811" id="Fill-1" fill="#1A213E" sketch:type="MSShapeGroup"></path>
                <path d="M8.03502428,3.4377185 L3.42940196,8.05550476 L8.03502428,8.05550476 L8.03502428,3.4377185 M9.04051898,0 L26.9954979,0 C27.5503563,0 28,0.450734147 28,1.00693809 L28,11.4116334 C27.3170974,11.4981982 26.6441207,11.6554079 25.9909958,11.8812725 L25.9909958,2.01288119 L10.0450211,2.01288119 L10.0450211,9.06144786 C10.0450211,9.6186468 9.59537736,10.068386 9.04051898,10.068386 L2.00900422,10.068386 L2.00900422,34.9861238 L25.9909958,34.9861238 L25.9909958,30.7036519 C26.2153214,30.7822568 26.4426247,30.8519066 26.6729058,30.9135965 C27.111631,31.0320013 27.5553192,31.1175711 28,31.174286 L28,35.9920669 C28,36.5492659 27.5503563,37 26.9954979,37 L1.00450211,37 C0.449643731,37 0,36.5492659 0,35.9920669 L0,9.06144786 C0,8.77986339 0.116133149,8.52514387 0.30274026,8.34206422 L8.32188309,0.303474426 C8.35463859,0.270639488 8.38937928,0.238799548 8.42610514,0.209944603 C8.44595696,0.194024633 8.46580878,0.180094659 8.48764579,0.166164686 L8.48764579,0.165169688 C8.5084902,0.151239714 8.52933461,0.140294735 8.55117161,0.127359759 C8.6960899,0.0467649115 8.86284519,0 9.04051898,0" id="Fill-2" fill="#1A213E" sketch:type="MSShapeGroup"></path>
                <path d="M5.949,22.678 L14.617,22.678 C14.989,22.678 15.291,22.376 15.291,22.004 C15.291,21.631 14.989,21.329 14.617,21.329 L5.949,21.329 C5.577,21.329 5.274,21.631 5.274,22.004 C5.274,22.376 5.577,22.678 5.949,22.678" id="Fill-3" fill="#1A213E" sketch:type="MSShapeGroup"></path>
                <path d="M5.949,18.244 L6.629,18.244 C6.756,18.783 7.032,19.266 7.41,19.645 C7.941,20.175 8.675,20.504 9.485,20.504 C10.295,20.504 11.028,20.175 11.56,19.645 C12.09,19.113 12.419,18.38 12.419,17.57 C12.419,16.76 12.09,16.026 11.56,15.495 C11.028,14.965 10.295,14.637 9.485,14.637 C8.675,14.637 7.941,14.965 7.41,15.495 C7.032,15.874 6.756,16.355 6.629,16.895 L5.949,16.895 C5.577,16.895 5.274,17.197 5.274,17.57 C5.274,17.942 5.577,18.244 5.949,18.244 L5.949,18.244 Z M8.365,16.449 C8.651,16.162 9.047,15.985 9.485,15.985 C9.922,15.985 10.319,16.162 10.606,16.449 C10.892,16.736 11.069,17.133 11.069,17.57 C11.069,18.008 10.892,18.403 10.606,18.689 C10.319,18.977 9.922,19.154 9.485,19.154 C9.047,19.154 8.651,18.977 8.365,18.689 C8.078,18.403 7.9,18.008 7.9,17.57 C7.9,17.133 8.078,16.736 8.365,16.449 L8.365,16.449 Z" id="Fill-4" fill="#1A213E" sketch:type="MSShapeGroup"></path>
                <path d="M5.949,13.811 L14.89,13.811 C15.263,13.811 15.565,13.508 15.565,13.135 C15.565,12.763 15.263,12.461 14.89,12.461 L5.949,12.461 C5.577,12.461 5.274,12.763 5.274,13.135 C5.274,13.508 5.577,13.811 5.949,13.811" id="Fill-5" fill="#1A213E" sketch:type="MSShapeGroup"></path>
                <path d="M17.831,22.004 C17.831,22.376 18.133,22.678 18.506,22.678 L20.126,22.678 C20.045,22.232 19.995,21.781 19.975,21.329 L18.506,21.329 C18.133,21.329 17.831,21.631 17.831,22.004" id="Fill-6" fill="#1A213E" sketch:type="MSShapeGroup"></path>
                <path d="M20.797,16.895 L14.823,16.895 C14.45,16.895 14.148,17.197 14.148,17.57 C14.148,17.942 14.45,18.244 14.823,18.244 L20.321,18.244 C20.448,17.781 20.607,17.33 20.797,16.895" id="Fill-7" fill="#1A213E" sketch:type="MSShapeGroup"></path>
                <path d="M22.127,27.112 C21.827,26.732 21.552,26.329 21.306,25.903 C21.284,25.864 21.262,25.825 21.241,25.784 L21.229,25.763 L20.331,25.763 C20.245,26.007 20.112,26.235 19.931,26.438 C20.112,26.64 20.245,26.87 20.331,27.112 L22.127,27.112" id="Fill-8" fill="#1A213E" sketch:type="MSShapeGroup"></path>
                <path d="M12.539,26.438 C12.539,26.811 12.84,27.112 13.213,27.112 L13.815,27.112 C13.901,26.87 14.034,26.64 14.215,26.438 C14.034,26.235 13.901,26.007 13.815,25.763 L13.213,25.763 C12.84,25.763 12.539,26.065 12.539,26.438" id="Fill-9" fill="#1A213E" sketch:type="MSShapeGroup"></path>
                <path d="M17.005,30.198 L5.949,30.198 C5.577,30.198 5.274,30.5 5.274,30.872 C5.274,31.245 5.577,31.548 5.949,31.548 L17.005,31.548 C17.378,31.548 17.68,31.245 17.68,30.872 C17.68,30.5 17.378,30.198 17.005,30.198" id="Fill-10" fill="#1A213E" sketch:type="MSShapeGroup"></path>
                <path d="M23.284,30.198 L20.895,30.198 C20.522,30.198 20.22,30.5 20.22,30.872 C20.22,31.245 20.522,31.548 20.895,31.548 L23.284,31.548 C23.656,31.548 23.959,31.245 23.959,30.872 C23.959,30.5 23.656,30.198 23.284,30.198" id="Fill-11" fill="#1A213E" sketch:type="MSShapeGroup"></path>
                <path d="M18.9,24.612 C18.636,24.349 18.209,24.349 17.945,24.612 L17.073,25.483 L16.201,24.612 C15.937,24.349 15.51,24.349 15.247,24.612 C14.983,24.875 14.983,25.302 15.247,25.565 L16.119,26.438 L15.247,27.311 C14.983,27.573 14.983,28.001 15.247,28.265 C15.51,28.528 15.937,28.528 16.201,28.265 L17.073,27.392 L17.945,28.265 C18.209,28.528 18.636,28.528 18.9,28.265 C19.163,28.001 19.163,27.573 18.9,27.311 L18.027,26.438 L18.9,25.565 C19.163,25.302 19.163,24.875 18.9,24.612" id="Fill-12" fill="#1A213E" sketch:type="MSShapeGroup"></path>
                <path d="M5.949,27.112 L9.324,27.112 C9.696,27.112 9.998,26.811 9.998,26.438 C9.998,26.065 9.696,25.763 9.324,25.763 L5.949,25.763 C5.577,25.763 5.274,26.065 5.274,26.438 C5.274,26.811 5.577,27.112 5.949,27.112" id="Fill-13" fill="#1A213E" sketch:type="MSShapeGroup"></path>
                <path d="M32.712,19.02 C31.873,18.531 30.947,18.261 29.975,18.261 C29.002,18.261 28.077,18.531 27.237,19.02 C26.385,19.515 25.625,20.234 24.997,21.123 C24.783,21.427 24.856,21.848 25.161,22.061 C25.465,22.275 25.885,22.201 26.099,21.897 C26.579,21.219 27.144,20.664 27.768,20.271 C27.755,20.365 27.748,20.461 27.748,20.559 C27.748,21.756 28.745,22.727 29.975,22.727 C31.204,22.727 32.201,21.756 32.201,20.559 C32.201,20.461 32.194,20.365 32.182,20.271 C32.806,20.664 33.371,21.219 33.851,21.897 C34.065,22.201 34.485,22.275 34.789,22.061 C35.093,21.848 35.167,21.427 34.953,21.123 C34.325,20.234 33.564,19.515 32.712,19.02" id="Fill-14" fill="#972F84" sketch:type="MSShapeGroup"></path>
                <path d="M35.487,29.22 C35.809,29.033 35.918,28.621 35.732,28.3 C35.546,27.978 35.134,27.868 34.812,28.054 L33.617,28.744 C33.296,28.931 33.186,29.343 33.373,29.664 C33.559,29.985 33.97,30.095 34.292,29.909 L35.487,29.22" id="Fill-15" fill="#972F84" sketch:type="MSShapeGroup"></path>
                <path d="M42.739,38.974 L38.014,30.79 C37.459,29.825 36.227,29.492 35.262,30.046 C34.297,30.601 33.964,31.833 34.519,32.798 L39.244,40.981 C39.798,41.946 41.03,42.279 41.996,41.726 C42.96,41.171 43.293,39.938 42.739,38.974" id="Fill-16" fill="#972F84" sketch:type="MSShapeGroup"></path>
                <path d="M37.69,22.963 C38.213,21.012 37.998,18.86 36.924,16.964 C36.914,16.943 36.902,16.922 36.891,16.902 C35.788,14.992 34.015,13.709 32.042,13.181 C30.09,12.658 27.939,12.873 26.042,13.947 C26.021,13.957 26.001,13.969 25.981,13.981 C24.07,15.084 22.788,16.855 22.259,18.83 C21.731,20.801 21.956,22.975 23.058,24.884 L23.059,24.887 C24.164,26.8 25.935,28.083 27.908,28.612 C29.881,29.141 32.058,28.916 33.969,27.812 C35.879,26.71 37.162,24.937 37.69,22.963 L37.69,22.963 Z M32.958,26.065 C31.532,26.888 29.906,27.055 28.43,26.659 C26.979,26.271 25.675,25.34 24.85,23.958 C24.825,23.903 24.796,23.854 24.763,23.806 C23.977,22.398 23.823,20.803 24.212,19.352 C24.602,17.896 25.539,16.588 26.934,15.762 C26.979,15.739 27.023,15.713 27.065,15.684 C28.473,14.898 30.068,14.744 31.519,15.134 C32.995,15.529 34.32,16.486 35.143,17.914 C35.153,17.93 35.162,17.945 35.172,17.961 C35.97,19.375 36.129,20.98 35.738,22.441 C35.342,23.917 34.384,25.241 32.958,26.065 L32.958,26.065 Z" id="Fill-17" fill="#972F84" sketch:type="MSShapeGroup"></path>
            </g>
        </g>
    </g>
</svg>