<?xml version="1.0" encoding="UTF-8" standalone="no"?>
<svg width="146px" height="161px" viewBox="0 0 146 161" version="1.1" xmlns="http://www.w3.org/2000/svg" xmlns:xlink="http://www.w3.org/1999/xlink" xmlns:sketch="http://www.bohemiancoding.com/sketch/ns">
    <!-- Generator: Sketch 3.0.3 (7891) - http://www.bohemiancoding.com/sketch -->
    <title>shield</title>
    <desc>Created with Sketch.</desc>
    <defs></defs>
    <g id="Page-1" stroke="none" stroke-width="1" fill="none" fill-rule="evenodd" sketch:type="MSPage">
        <g id="Portrait" sketch:type="MSArtboardGroup" transform="translate(-44.000000, -707.000000)" fill="#FFFFFF">
            <g id="shield" sketch:type="MSLayerGroup" transform="translate(44.000000, 707.000000)">
                <path d="M72.9995167,161 C72.8303659,161 72.6602486,160.955488 72.5094627,160.865496 C70.5463471,159.709151 24.2676598,132.181366 9.64529966,102.319602 C-3.2159592,76.052668 0.438664261,3.97124689 0.601049011,0.916367155 C0.628113136,0.402543544 1.05147338,0 1.56569175,0 L144.434308,0 C144.948527,0 145.371887,0.402543544 145.398951,0.916367155 C145.561336,3.97124689 149.215959,76.052668 136.3547,102.319602 C121.731374,132.181366 75.4526863,159.709151 73.4905373,160.865496 C73.3387849,160.955488 73.1696341,161 72.9995167,161 L72.9995167,161 Z M2.48780516,1.9353055 C2.0973085,10.5512856 -0.492148326,77.2186895 11.38127,101.4671 C25.1317787,129.547415 67.654352,155.698231 72.9995167,158.905032 C78.345648,155.698231 120.868221,129.547415 134.61873,101.4671 C146.492148,77.2186895 143.902692,10.5512856 143.512195,1.9353055 L2.48780516,1.9353055 L2.48780516,1.9353055 Z" id="Fill-1" sketch:type="MSShapeGroup"></path>
                <path d="M62.0207895,96.0353929 L25.9671053,96.0353929 C25.4332632,96.0353929 25,95.6046417 25,95.0717438 L25,24.9990419 C25,24.4671076 25.4332632,24.0353929 25.9671053,24.0353929 L61.2674145,24.0353929 C61.8012566,24.0353929 62.2345197,24.4671076 62.2345197,24.9990419 C62.2345197,25.5319398 61.8012566,25.9626909 61.2674145,25.9626909 L26.9342105,25.9626909 L26.9342105,94.1080948 L62.0207895,94.1080948 C62.5555987,94.1080948 62.9878947,94.5388459 62.9878947,95.0717438 C62.9878947,95.6046417 62.5555987,96.0353929 62.0207895,96.0353929" id="Fill-2" sketch:type="MSShapeGroup"></path>
                <path d="M73.9178026,106.449357 C73.3839605,106.449357 72.9506974,106.01469 72.9506974,105.479119 L72.9506974,40.7157262 C72.9506974,40.1791845 73.3839605,39.7454881 73.9178026,39.7454881 C74.4526118,39.7454881 74.8849079,40.1791845 74.8849079,40.7157262 L74.8849079,105.479119 C74.8849079,106.01469 74.4526118,106.449357 73.9178026,106.449357" id="Fill-3" sketch:type="MSShapeGroup"></path>
                <path d="M73.9178026,51.0545833 C73.3839605,51.0545833 72.9506974,50.6208869 72.9506974,50.0843452 L72.9506974,34.9272857 C72.9506974,29.9916845 68.9488158,25.975869 64.0301184,25.975869 L53.8668092,25.975869 C53.3329671,25.975869 52.8997039,25.5421726 52.8997039,25.005631 C52.8997039,24.4700595 53.3329671,24.0353929 53.8668092,24.0353929 L64.0301184,24.0353929 C70.0155329,24.0353929 74.8849079,28.9215119 74.8849079,34.9272857 L74.8849079,50.0843452 C74.8849079,50.6208869 74.4526118,51.0545833 73.9178026,51.0545833" id="Fill-4" sketch:type="MSShapeGroup"></path>
                <path d="M73.9178026,105 C73.3839605,105 72.9506974,104.596925 72.9506974,104.100278 C72.9506974,99.5233928 68.9488158,95.7994438 64.0301184,95.7994438 L53.8668092,95.7994438 C53.3329671,95.7994438 52.8997039,95.3972681 52.8997039,94.8997219 C52.8997039,94.4021757 53.3329671,94 53.8668092,94 L64.0301184,94 C70.0155329,94 74.8849079,98.5309995 74.8849079,104.100278 C74.8849079,104.596925 74.4526118,105 73.9178026,105" id="Fill-5" sketch:type="MSShapeGroup"></path>
                <path d="M122.022724,96.0353929 L85.9671053,96.0353929 C85.4332632,96.0353929 85,95.6046417 85,95.0717438 C85,94.5388459 85.4332632,94.1080948 85.9671053,94.1080948 L121.055618,94.1080948 L121.055618,25.9626909 L86.7214474,25.9626909 C86.1876053,25.9626909 85.7543421,25.5319398 85.7543421,24.9990419 C85.7543421,24.4671076 86.1876053,24.0353929 86.7214474,24.0353929 L122.022724,24.0353929 C122.556566,24.0353929 122.989829,24.4671076 122.989829,24.9990419 L122.989829,95.0717438 C122.989829,95.6046417 122.556566,96.0353929 122.022724,96.0353929" id="Fill-6" sketch:type="MSShapeGroup"></path>
                <path d="M73.9178026,106.449357 C73.3839605,106.449357 72.9506974,106.01469 72.9506974,105.479119 L72.9506974,40.7157262 C72.9506974,40.1791845 73.3839605,39.7454881 73.9178026,39.7454881 C74.4526118,39.7454881 74.8849079,40.1791845 74.8849079,40.7157262 L74.8849079,105.479119 C74.8849079,106.01469 74.4526118,106.449357 73.9178026,106.449357" id="Fill-7" sketch:type="MSShapeGroup"></path>
                <path d="M73.9178026,51.0545833 C73.3839605,51.0545833 72.9506974,50.6208869 72.9506974,50.0843452 L72.9506974,34.9272857 C72.9506974,28.9215119 77.8210395,24.0353929 83.8064539,24.0353929 L93.9697632,24.0353929 C94.5036053,24.0353929 94.9368684,24.4700595 94.9368684,25.005631 C94.9368684,25.5421726 94.5036053,25.975869 93.9697632,25.975869 L83.8064539,25.975869 C78.8877566,25.975869 74.8849079,29.9916845 74.8849079,34.9272857 L74.8849079,50.0843452 C74.8849079,50.6208869 74.4526118,51.0545833 73.9178026,51.0545833" id="Fill-8" sketch:type="MSShapeGroup"></path>
                <path d="M73.9178026,105 C73.3839605,105 72.9506974,104.596925 72.9506974,104.100278 C72.9506974,98.5309995 77.8210395,94 83.8064539,94 L93.9697632,94 C94.5036053,94 94.9368684,94.4021757 94.9368684,94.8997219 C94.9368684,95.3972681 94.5036053,95.7994438 93.9697632,95.7994438 L83.8064539,95.7994438 C78.8877566,95.7994438 74.8849079,99.5233928 74.8849079,104.100278 C74.8849079,104.596925 74.4526118,105 73.9178026,105" id="Fill-9" sketch:type="MSShapeGroup"></path>
                <path d="M35.9737776,41.9404762 C35.4352786,41.9404762 35,41.5067798 35,40.9702381 C35,40.4336964 35.4352786,40 35.9737776,40 L62.0262224,40 C62.5647214,40 63,40.4336964 63,40.9702381 C63,41.5067798 62.5647214,41.9404762 62.0262224,41.9404762 L35.9737776,41.9404762 Z" id="Fill-10" sketch:type="MSShapeGroup"></path>
                <path d="M62.0262224,53.9404762 L35.9737776,53.9404762 C35.4352786,53.9404762 35,53.5067798 35,52.9702381 C35,52.4336964 35.4352786,52 35.9737776,52 L62.0262224,52 C62.5647214,52 63,52.4336964 63,52.9702381 C63,53.5067798 62.5647214,53.9404762 62.0262224,53.9404762" id="Fill-11" sketch:type="MSShapeGroup"></path>
                <path d="M62.0262224,65.9404762 L35.9737776,65.9404762 C35.4352786,65.9404762 35,65.5067798 35,64.9702381 C35,64.4336964 35.4352786,64 35.9737776,64 L62.0262224,64 C62.5647214,64 63,64.4336964 63,64.9702381 C63,65.5067798 62.5647214,65.9404762 62.0262224,65.9404762" id="Fill-12" sketch:type="MSShapeGroup"></path>
                <path d="M62.0262224,77.9404762 L35.9737776,77.9404762 C35.4352786,77.9404762 35,77.5067798 35,76.9702381 C35,76.4336964 35.4352786,76 35.9737776,76 L62.0262224,76 C62.5647214,76 63,76.4336964 63,76.9702381 C63,77.5067798 62.5647214,77.9404762 62.0262224,77.9404762" id="Fill-13" sketch:type="MSShapeGroup"></path>
                <path d="M84.9671053,41.9404762 C84.4332632,41.9404762 84,41.5058095 84,40.9702381 C84,40.4336964 84.4332632,40 84.9671053,40 L110.764638,40 C111.299447,40 111.731743,40.4336964 111.731743,40.9702381 C111.731743,41.5058095 111.299447,41.9404762 110.764638,41.9404762 L84.9671053,41.9404762 Z" id="Fill-14" sketch:type="MSShapeGroup"></path>
                <path d="M110.764638,53.9404762 L84.9671053,53.9404762 C84.4332632,53.9404762 84,53.5058095 84,52.9702381 C84,52.4336964 84.4332632,52 84.9671053,52 L110.764638,52 C111.299447,52 111.731743,52.4336964 111.731743,52.9702381 C111.731743,53.5058095 111.299447,53.9404762 110.764638,53.9404762" id="Fill-15" sketch:type="MSShapeGroup"></path>
                <path d="M110.764638,65.9404762 L84.9671053,65.9404762 C84.4332632,65.9404762 84,65.5067798 84,64.9702381 C84,64.4346667 84.4332632,64 84.9671053,64 L110.764638,64 C111.299447,64 111.731743,64.4346667 111.731743,64.9702381 C111.731743,65.5067798 111.299447,65.9404762 110.764638,65.9404762" id="Fill-16" sketch:type="MSShapeGroup"></path>
                <path d="M84.9671053,77.9404762 C84.4332632,77.9404762 84,77.5067798 84,76.9702381 C84,76.4346667 84.4332632,76 84.9671053,76 L110.764638,76 C111.299447,76 111.731743,76.4346667 111.731743,76.9702381 C111.731743,77.5067798 111.299447,77.9404762 110.764638,77.9404762 L84.9671053,77.9404762 Z" id="Fill-17" sketch:type="MSShapeGroup"></path>
            </g>
        </g>
    </g>
</svg>