<?xml version="1.0" encoding="UTF-8" standalone="no"?>
<svg width="252px" height="82px" viewBox="0 0 252 82" version="1.1" xmlns="http://www.w3.org/2000/svg" xmlns:xlink="http://www.w3.org/1999/xlink" xmlns:sketch="http://www.bohemiancoding.com/sketch/ns">
    <!-- Generator: Sketch 3.0.3 (7891) - http://www.bohemiancoding.com/sketch -->
    <title>simple-key</title>
    <desc>Created with Sketch.</desc>
    <defs></defs>
    <g id="Page-1" stroke="none" stroke-width="1" fill="none" fill-rule="evenodd" sketch:type="MSPage">
        <g id="Portrait" sketch:type="MSArtboardGroup" transform="translate(-16.000000, -390.000000)" fill="#FFFFFF">
            <g id="simple-key" sketch:type="MSLayerGroup" transform="translate(17.000000, 390.000000)">
                <path d="M237.113,70.512 L228.821,70.512 C228.269,70.512 227.821,70.065 227.821,69.512 L227.821,57.348 C227.821,55.942 226.678,54.799 225.272,54.799 L225.014,54.799 C223.608,54.799 222.465,55.942 222.465,57.348 L222.465,69.512 C222.465,70.065 222.018,70.512 221.465,70.512 L210.114,70.512 C209.561,70.512 209.114,70.065 209.114,69.512 L209.114,57.348 C209.114,55.942 207.971,54.799 206.565,54.799 L206.307,54.799 C204.9,54.799 203.757,55.942 203.757,57.348 L203.757,69.512 C203.757,70.065 203.31,70.512 202.757,70.512 L194.006,70.512 C191.497,70.512 189.456,68.471 189.456,65.962 L189.456,46.111 L191.456,46.111 L191.456,65.962 C191.456,67.368 192.6,68.512 194.006,68.512 L201.757,68.512 L201.757,57.348 C201.757,54.84 203.798,52.799 206.307,52.799 L206.565,52.799 C209.073,52.799 211.114,54.84 211.114,57.348 L211.114,68.512 L220.465,68.512 L220.465,57.348 C220.465,54.84 222.506,52.799 225.014,52.799 L225.272,52.799 C227.78,52.799 229.821,54.84 229.821,57.348 L229.821,68.512 L237.113,68.512 C238.52,68.512 239.663,67.368 239.663,65.962 L239.663,46.111 L241.663,46.111 L241.663,65.962 C241.663,68.471 239.622,70.512 237.113,70.512" id="Fill-1" sketch:type="MSShapeGroup"></path>
                <path d="M78.937,45.866 C76.616,65.004 60.282,79.884 40.528,79.884 C19.188,79.884 1.828,62.523 1.828,41.184 C1.828,19.844 19.188,2.483 40.528,2.483 C60.286,2.483 76.623,17.369 78.937,36.513 L80.953,36.513 C78.628,16.264 61.391,0.483 40.528,0.483 C18.086,0.483 -0.172,18.741 -0.172,41.184 C-0.172,63.626 18.086,81.884 40.528,81.884 C61.387,81.884 78.621,66.109 80.952,45.866 L78.937,45.866" id="Fill-2" sketch:type="MSShapeGroup"></path>
                <path d="M80.471,45.852 L191.5,45.852 L191.5,47.852 L80.471,47.852 L80.471,45.852 Z" id="Fill-3" sketch:type="MSShapeGroup"></path>
                <path d="M247.392,34.516 L80.471,34.516 L80.471,36.516 L247.392,36.516 C248.239,36.516 248.929,37.205 248.929,38.053 L248.929,44.315 C248.929,45.162 248.239,45.852 247.392,45.852 L239.663,45.852 L239.663,47.852 L247.392,47.852 C249.342,47.852 250.929,46.265 250.929,44.315 L250.929,38.053 C250.929,36.103 249.342,34.516 247.392,34.516" id="Fill-4" sketch:type="MSShapeGroup"></path>
            </g>
        </g>
    </g>
</svg>