<?xml version="1.0" encoding="UTF-8" standalone="no"?>
<svg width="50px" height="47px" viewBox="0 0 50 47" version="1.1" xmlns="http://www.w3.org/2000/svg" xmlns:xlink="http://www.w3.org/1999/xlink" xmlns:sketch="http://www.bohemiancoding.com/sketch/ns">
    <!-- Generator: Sketch 3.0.2 (7799) - http://www.bohemiancoding.com/sketch -->
    <title>star</title>
    <description>Created with Sketch.</description>
    <defs></defs>
    <g id="Page-1" stroke="none" stroke-width="1" fill="none" fill-rule="evenodd" sketch:type="MSPage">
        <g id="Portrait" sketch:type="MSArtboardGroup" transform="translate(-387.000000, -468.000000)" fill="#E86035">
            <path d="M436.163239,485.54 C435.796239,484.43 434.822239,483.62 433.648239,483.451 L420.383239,481.552 L414.451239,469.712 C413.926239,468.663 412.843239,468 411.658239,468 C410.473239,468 409.390239,468.663 408.865239,469.712 L402.932239,481.552 L389.667239,483.451 C388.494239,483.62 387.519239,484.43 387.152239,485.54 C386.786239,486.649 387.092239,487.868 387.940239,488.684 L397.539239,497.901 L395.273239,510.916 C395.072239,512.066 395.553239,513.231 396.512239,513.916 C397.054239,514.305 397.697239,514.502 398.343239,514.502 C398.838239,514.502 399.338239,514.386 399.792239,514.15 L411.658239,508.006 L423.523239,514.15 C423.978239,514.386 424.477239,514.502 424.972239,514.502 C425.619239,514.502 426.261239,514.305 426.804239,513.916 C427.762239,513.231 428.244239,512.066 428.042239,510.916 L425.776239,497.901 L435.376239,488.684 C436.223239,487.868 436.529239,486.649 436.163239,485.54" id="star" sketch:type="MSShapeGroup"></path>
        </g>
    </g>
</svg>