<?xml version="1.0" encoding="UTF-8" standalone="no"?>
<svg width="55px" height="60px" viewBox="0 0 55 60" version="1.1" xmlns="http://www.w3.org/2000/svg" xmlns:xlink="http://www.w3.org/1999/xlink" xmlns:sketch="http://www.bohemiancoding.com/sketch/ns">
    <!-- Generator: Sketch 3.0.3 (7891) - http://www.bohemiancoding.com/sketch -->
    <title>support</title>
    <desc>Created with Sketch.</desc>
    <defs></defs>
    <g id="Page-1" stroke="none" stroke-width="1" fill="none" fill-rule="evenodd" sketch:type="MSPage">
        <g id="Portrait" sketch:type="MSArtboardGroup" transform="translate(-9.000000, -584.000000)">
            <g id="support" sketch:type="MSLayerGroup" transform="translate(9.000000, 584.000000)">
                <path d="M10.576,3.784 C12.353,4.079 15.294,4.349 16.86,4.449 C17.483,4.488 17.724,3.658 17.228,3.332 C15.165,1.974 17.682,-1.078 19.387,0.735 L19.386,0.737 C19.957,1.345 20.082,2.247 19.673,2.862 C19.528,3.076 19.312,3.243 19.05,3.394 C18.514,3.703 18.759,4.527 19.352,4.527 C20.917,4.527 23.86,4.457 25.653,4.279 C25.798,5.668 25.863,7.615 25.893,9.054 C24.009,8.035 21.569,9.486 21.502,11.565 C21.432,13.704 23.824,15.232 25.726,14.352 C25.607,15.772 25.425,17.674 25.19,19.041 C23.345,18.718 20.5,18.479 18.815,18.376 C18.185,18.337 17.949,19.192 18.467,19.503 C18.738,19.668 18.965,19.854 19.102,20.088 C19.75,21.163 18.79,22.747 17.522,22.708 C16.053,22.661 15.005,20.37 16.785,19.448 C17.362,19.153 17.1,18.292 16.487,18.304 C14.792,18.329 11.96,18.356 10.098,18.56 C9.946,17.176 9.884,15.269 9.858,13.84 C11.698,14.846 14.19,13.481 14.26,11.334 C14.328,9.19 11.934,7.665 10.028,8.553 C10.147,7.108 10.335,5.17 10.576,3.784 L10.576,3.784 Z M41.922,3.46 C41.752,5.253 41.69,8.207 41.702,9.778 C41.705,10.394 42.543,10.585 42.836,10.073 L42.838,10.073 C43.18,9.469 43.53,9.229 44.273,9.199 C45.459,9.154 46.78,10.739 45.583,12.033 C45.015,12.646 44.124,12.835 43.481,12.471 C43.257,12.342 43.076,12.139 42.907,11.886 C42.562,11.373 41.757,11.677 41.798,12.267 C41.908,13.826 42.184,16.761 42.493,18.535 C41.114,18.777 39.176,18.98 37.741,19.111 C38.62,17.173 37.027,14.826 34.928,14.907 C32.788,14.99 31.436,17.479 32.447,19.317 C31.02,19.3 29.111,19.25 27.73,19.114 C27.928,17.195 27.967,14.514 27.946,12.707 C27.931,12.429 27.751,12.186 27.469,12.123 L27.278,12.111 C27.07,12.131 26.895,12.253 26.797,12.44 L26.795,12.44 L26.775,12.479 C26.477,13.039 26.061,13.35 25.325,13.381 C24.075,13.428 22.844,11.771 24.012,10.541 C24.601,9.926 25.48,9.736 26.143,10.132 C26.656,10.435 26.728,11.092 27.293,11.053 C27.644,11.025 27.883,10.711 27.855,10.379 C27.712,8.689 27.482,5.869 27.148,4.023 C28.519,3.775 30.415,3.58 31.84,3.452 C30.966,5.359 32.502,7.751 34.649,7.667 C36.793,7.584 38.147,5.084 37.125,3.249 C38.575,3.269 40.52,3.318 41.922,3.46 L41.922,3.46 Z" id="Fill-1" fill="#DE6341" sketch:type="MSShapeGroup"></path>
                <path d="M10.753,23.805 C12.859,23.691 14.658,25.25 14.769,27.283 C14.875,29.254 14.269,33.548 11.871,33.679 C9.474,33.81 7.244,29.669 7.138,27.7 C7.026,25.665 8.646,23.922 10.753,23.805 L10.753,23.805 Z M17.718,59.775 L6.041,59.775 C6.236,56.364 6.417,53.096 6.283,49.674 C6.222,48.081 6.102,46.419 5.949,44.751 C5.377,45.689 4.845,46.681 4.377,47.809 C4.317,51.721 4.075,53.013 4.575,56.785 C4.935,59.53 1.332,60.012 0.971,57.264 C0.699,55.212 -0.284,48.087 0.333,46.566 C1.656,43.309 3.354,40.085 5.233,37.072 C5.331,36.725 5.522,36.398 5.785,36.201 C6.319,35.8 8.973,35.093 9.833,34.87 C11.039,36.443 11.94,37.832 12.96,40.569 C12.836,39.005 12.546,37.602 11.973,35.976 L12.67,35.959 C13.222,36.922 14.007,38.766 14.349,39.853 C14.288,38.041 13.962,36.145 13.35,34.864 C14.87,35.145 15.485,35.63 16.17,36.938 C17.707,39.856 19.205,43.426 20.953,46.225 C23.917,48.126 25.453,48.9 28.496,50.473 C30.996,51.768 29.579,54.767 26.956,53.742 C23.493,52.386 21.522,51.623 18.592,49.602 C18.119,49.293 17.768,48.878 17.481,48.449 C17.256,48.115 17.072,47.769 16.902,47.463 C17.339,50.991 17.526,54.44 17.718,59.775 L17.718,59.775 Z M42.7,23.811 C40.594,23.697 38.795,25.256 38.684,27.291 C38.578,29.257 39.185,33.553 41.582,33.684 C43.979,33.811 46.209,29.674 46.317,27.706 C46.427,25.671 44.808,23.928 42.7,23.811 L42.7,23.811 Z M47.415,59.775 L35.422,59.775 C35.539,56.105 35.551,48.894 36.008,43.406 C34.786,44.573 33.482,45.706 32.107,46.807 C31.258,47.485 30.022,47.347 29.344,46.497 C27.731,44.479 28.046,36.654 27.878,33.846 C27.725,31.248 31.037,30.966 31.192,33.614 C31.347,36.176 31.798,38.996 32.214,41.555 C32.611,41.193 33.006,40.825 33.398,40.449 C34.493,39.397 35.671,38.339 36.71,37.203 C37.063,36.813 37.005,36.683 37.152,36.526 C37.807,35.839 38.837,35.499 40.037,35.018 C39.424,36.293 38.94,38.857 38.876,40.798 C39.221,39.709 40.176,37.089 40.727,36.126 L41.425,36.143 C40.851,37.763 40.407,39.987 40.379,41.78 C41.401,39.041 42.606,36.499 43.815,34.926 C44.673,35.145 47.134,35.806 47.665,36.203 C48.014,36.465 48.044,36.686 48.159,36.947 L48.187,36.961 C49.579,38.754 53.889,44.567 54.147,46.595 C54.359,48.248 51.149,55.949 50.366,57.859 C49.722,59.428 48.21,59.517 47.376,58.759 C47.387,59.018 47.4,59.441 47.415,59.775 L47.415,59.775 Z M47.329,55.66 C47.348,52.026 47.59,48.558 47.504,44.757 L47.588,43.925 L48.21,44.609 C48.784,45.364 49.331,46.16 49.844,47.054 C49.024,50.384 48.498,52.656 47.329,55.66 L47.329,55.66 Z" id="Fill-2" fill="#0E1729" sketch:type="MSShapeGroup"></path>
            </g>
        </g>
    </g>
</svg>