<?xml version="1.0" encoding="UTF-8" standalone="no"?>
<svg width="54px" height="52px" viewBox="0 0 54 52" version="1.1" xmlns="http://www.w3.org/2000/svg" xmlns:xlink="http://www.w3.org/1999/xlink" xmlns:sketch="http://www.bohemiancoding.com/sketch/ns">
    <!-- Generator: Sketch 3.0.3 (7891) - http://www.bohemiancoding.com/sketch -->
    <title>tools</title>
    <desc>Created with Sketch.</desc>
    <defs></defs>
    <g id="Page-1" stroke="none" stroke-width="1" fill="none" fill-rule="evenodd" sketch:type="MSPage">
        <g id="Portrait" sketch:type="MSArtboardGroup" transform="translate(-574.000000, -588.000000)" stroke="#FFFFFF">
            <g id="tools" sketch:type="MSLayerGroup" transform="translate(575.000000, 589.000000)">
                <path d="M46.687,1.098 C46.336,1.098 45.975,1.216 45.682,1.457 L45.684,1.456 L40.612,5.579 C40.26,5.857 40.019,6.283 39.993,6.752 L39.988,6.867 C39.985,7.295 40.159,7.713 40.47,8.016 L40.542,8.091 L29.648,18.985 L32.362,21.702 L43.257,10.806 L43.334,10.881 C43.631,11.186 44.045,11.359 44.468,11.359 L44.48,11.359 L44.575,11.357 L44.588,11.355 C45.061,11.333 45.49,11.092 45.771,10.736 L49.893,5.665 C50.132,5.371 50.25,5.012 50.248,4.66 C50.248,4.236 50.08,3.817 49.767,3.499 L49.412,3.853 L49.058,4.205 C49.185,4.333 49.25,4.499 49.25,4.66 C49.248,4.796 49.207,4.923 49.118,5.034 L44.993,10.106 C44.852,10.274 44.73,10.338 44.54,10.357 L44.48,10.358 C44.299,10.355 44.177,10.306 44.04,10.174 L43.61,9.745 L43.256,9.393 L32.362,20.287 L31.063,18.986 L41.957,8.091 L41.176,7.31 L41.174,7.306 C41.042,7.171 40.991,7.048 40.988,6.867 L40.99,6.827 L40.991,6.821 C41.007,6.62 41.072,6.5 41.241,6.355 L46.314,2.232 L46.317,2.229 C46.424,2.142 46.55,2.1 46.687,2.099 C46.849,2.099 47.014,2.162 47.143,2.289 L49.058,4.205 L49.412,3.853 L49.766,3.499 L47.849,1.581 C47.53,1.265 47.111,1.098 46.687,1.098" id="Fill-1" sketch:type="MSShapeGroup"></path>
                <path d="M12.022,32.422 C12.283,32.356 12.548,32.3 12.813,32.262 L13.44,32.17 L13.204,31.581 C13.127,31.387 13.081,31.187 13.068,30.992 L13.067,30.985 L13.064,30.863 C13.064,30.425 13.218,30.022 13.528,29.709 L15.939,27.298 C16.249,26.987 16.65,26.836 17.091,26.835 L17.219,26.84 C17.273,26.843 17.329,26.85 17.385,26.858 L24.49,33.962 C24.498,34.012 24.504,34.062 24.509,34.112 L24.513,34.251 C24.512,34.691 24.36,35.098 24.05,35.409 L21.638,37.821 C21.325,38.131 20.922,38.284 20.482,38.286 L20.356,38.281 C20.161,38.267 19.959,38.221 19.766,38.145 L19.175,37.91 L19.087,38.539 C19.048,38.802 18.994,39.066 18.926,39.323 C18.65,40.366 18.119,41.344 17.542,41.919 L11.621,47.84 C10.913,48.543 9.98,48.891 8.983,48.893 C8.883,48.893 8.783,48.889 8.683,48.883 C7.62,48.807 6.518,48.334 5.654,47.467 L3.881,45.695 C3.016,44.829 2.54,43.729 2.466,42.664 L2.466,42.659 C2.459,42.562 2.454,42.465 2.454,42.365 C2.456,41.366 2.805,40.433 3.509,39.728 L9.429,33.807 C10.004,33.229 10.982,32.699 12.025,32.422 L12.022,32.422 M17.084,25.835 C16.411,25.835 15.736,26.082 15.231,26.592 L12.819,29.002 C12.311,29.51 12.062,30.187 12.064,30.863 L12.071,31.058 L12.07,31.058 C12.077,31.164 12.09,31.269 12.11,31.374 C11.996,31.399 11.883,31.426 11.771,31.455 L11.767,31.455 C10.576,31.778 9.472,32.356 8.723,33.1 L2.8,39.021 C1.895,39.926 1.454,41.133 1.455,42.365 C1.455,42.486 1.459,42.609 1.468,42.737 L1.468,42.734 C1.56,44.045 2.14,45.366 3.175,46.403 L4.945,48.173 C5.982,49.21 7.306,49.786 8.615,49.88 C8.738,49.888 8.861,49.893 8.983,49.893 C10.214,49.895 11.421,49.453 12.327,48.546 L18.248,42.625 C18.993,41.876 19.57,40.773 19.893,39.582 C19.923,39.468 19.95,39.354 19.975,39.239 C20.078,39.257 20.182,39.271 20.285,39.279 L20.482,39.285 L20.489,39.285 C21.163,39.285 21.837,39.036 22.344,38.529 L24.758,36.115 C25.269,35.606 25.515,34.926 25.514,34.251 L25.509,34.074 L25.507,34.061 L25.507,34.056 C25.496,33.907 25.474,33.756 25.44,33.607 L25.409,33.466 L25.307,33.362 L24.953,33.717 L24.464,33.826 L24.953,33.717 L25.307,33.362 L17.881,25.939 L17.738,25.908 C17.594,25.876 17.443,25.852 17.288,25.842 L17.091,25.835 L17.084,25.835" id="Fill-2" sketch:type="MSShapeGroup"></path>
                <path d="M10.682,0.127 C7.994,0.131 5.898,1.181 5.858,1.198 L5.774,1.24 L5.713,1.308 C5.423,1.625 5.239,2.003 5.165,2.391 C5.137,2.521 5.124,2.656 5.124,2.792 C5.124,3.091 5.19,3.392 5.325,3.672 L5.323,3.669 C5.496,4.032 5.787,4.35 6.173,4.555 L11.46,7.372 C11.479,7.411 11.51,7.485 11.535,7.573 C11.59,7.765 11.619,7.997 11.619,8.212 C11.619,8.356 11.604,8.494 11.584,8.61 L11.584,8.605 C11.478,9.153 11.296,9.709 11.044,10.204 C10.825,10.634 10.558,11.008 10.255,11.289 C9.895,11.624 9.445,11.986 9.067,12.163 C8.932,12.232 8.813,12.262 8.768,12.267 L3.554,9.031 C3.255,8.845 2.924,8.753 2.597,8.753 L2.589,8.753 C2.415,8.753 2.24,8.777 2.071,8.824 L2.073,8.824 C1.792,8.904 1.532,9.044 1.306,9.228 L1.303,9.231 C1.111,9.391 0.939,9.587 0.799,9.811 C0.572,10.176 0.43,10.617 0.43,11.095 C0.43,11.298 0.455,11.511 0.516,11.725 L0.515,11.725 C1.124,13.923 2.359,16.336 4.403,18.064 C6.017,19.428 8.135,20.342 10.747,20.342 L10.754,20.342 L10.877,20.341 L11.044,20.341 L11.041,20.341 L11.062,20.341 C11.308,20.336 11.538,20.331 11.765,20.325 L11.76,20.325 C12.098,20.317 12.412,20.311 12.706,20.311 L12.746,20.311 C13.373,20.311 13.898,20.348 14.335,20.466 C14.783,20.589 15.146,20.781 15.504,21.138 L30.382,36.012 C31.068,36.701 31.456,37.325 31.682,37.921 C31.867,38.404 31.954,38.892 31.993,39.397 L31.992,39.536 L31.992,39.542 C31.992,39.796 32.006,40.042 32.038,40.276 C32.104,41.539 32.247,42.838 32.607,44.05 C33.045,45.526 33.813,46.882 35.139,47.816 C36.596,48.84 38.265,49.445 39.991,49.71 C40.698,49.818 41.414,49.869 42.13,49.869 C43.311,49.869 44.493,49.731 45.632,49.479 C46.179,49.358 46.624,49.083 46.938,48.737 C47.228,48.421 47.411,48.043 47.487,47.657 C47.513,47.521 47.526,47.386 47.526,47.252 C47.526,46.952 47.46,46.652 47.328,46.377 L47.327,46.374 C47.154,46.014 46.865,45.695 46.477,45.491 L41.191,42.676 C41.173,42.638 41.141,42.562 41.115,42.471 C41.06,42.281 41.029,42.049 41.029,41.836 C41.029,41.689 41.044,41.552 41.066,41.447 L41.066,41.442 C41.174,40.893 41.354,40.338 41.606,39.841 C41.825,39.412 42.093,39.039 42.395,38.759 C42.757,38.423 43.207,38.059 43.583,37.881 C43.718,37.813 43.838,37.783 43.882,37.778 L49.097,41.014 C49.397,41.201 49.733,41.293 50.061,41.293 C50.237,41.293 50.409,41.266 50.574,41.222 L51.842,40.879 L51.479,40.697 C51.621,40.561 51.745,40.406 51.851,40.236 L51.852,40.234 C52.078,39.871 52.219,39.428 52.219,38.951 C52.22,38.743 52.192,38.532 52.135,38.321 L52.135,38.319 L51.653,38.453 L51.17,38.583 C51.17,38.584 51.171,38.585 51.171,38.586 L51.17,38.583 C51.204,38.709 51.22,38.831 51.22,38.951 C51.22,39.226 51.136,39.493 51.002,39.709 L51.002,39.706 C50.918,39.841 50.817,39.957 50.709,40.045 C50.589,40.144 50.452,40.217 50.312,40.257 C50.221,40.282 50.139,40.293 50.061,40.293 C49.913,40.291 49.774,40.257 49.625,40.164 L44.375,36.909 C44.22,36.811 44.043,36.777 43.896,36.777 C43.613,36.782 43.38,36.873 43.151,36.979 C42.607,37.243 42.114,37.659 41.715,38.024 C41.304,38.407 40.977,38.877 40.716,39.386 C40.414,39.98 40.208,40.62 40.085,41.251 C40.046,41.437 40.031,41.634 40.031,41.836 C40.031,42.136 40.069,42.451 40.156,42.753 C40.198,42.89 40.244,43.021 40.31,43.148 C40.38,43.272 40.456,43.407 40.653,43.523 L40.658,43.526 L46.009,46.374 C46.205,46.48 46.335,46.624 46.425,46.807 C46.492,46.945 46.525,47.099 46.525,47.252 L46.506,47.465 C46.464,47.673 46.365,47.883 46.2,48.064 C46.019,48.261 45.764,48.424 45.415,48.504 C44.343,48.74 43.232,48.869 42.13,48.869 C41.46,48.869 40.794,48.821 40.142,48.723 C38.544,48.477 37.027,47.921 35.715,46.998 C34.621,46.225 33.966,45.104 33.565,43.766 C33.237,42.664 33.097,41.427 33.033,40.196 L33.033,40.172 L33.03,40.153 C33.005,39.966 32.991,39.764 32.991,39.547 L32.994,39.39 L32.994,39.366 L32.993,39.347 C32.949,38.767 32.848,38.17 32.618,37.565 C32.338,36.827 31.859,36.076 31.088,35.306 L16.213,20.43 C15.735,19.95 15.182,19.655 14.595,19.499 C14.003,19.342 13.384,19.31 12.706,19.31 C12.397,19.31 12.075,19.318 11.738,19.325 L11.733,19.325 C11.517,19.332 11.29,19.336 11.041,19.34 L11.038,19.34 L10.882,19.342 L10.754,19.342 C8.372,19.339 6.51,18.529 5.048,17.299 C3.205,15.749 2.043,13.505 1.481,11.46 L1.479,11.456 C1.444,11.335 1.43,11.216 1.43,11.095 C1.43,10.82 1.514,10.554 1.648,10.339 C1.729,10.209 1.833,10.09 1.944,9.999 L1.942,10.003 C2.067,9.899 2.205,9.826 2.344,9.787 L2.346,9.787 L2.589,9.752 C2.737,9.753 2.878,9.79 3.028,9.882 L8.275,13.137 L8.273,13.135 C8.432,13.235 8.603,13.267 8.754,13.267 C9.036,13.262 9.269,13.174 9.499,13.065 C10.043,12.804 10.537,12.389 10.936,12.021 C11.346,11.64 11.673,11.17 11.935,10.658 C12.236,10.066 12.443,9.426 12.565,8.798 L12.567,8.793 C12.6,8.613 12.618,8.416 12.618,8.212 C12.618,7.912 12.581,7.599 12.495,7.295 C12.454,7.157 12.408,7.027 12.341,6.9 C12.272,6.777 12.196,6.638 11.991,6.523 L11.992,6.522 L6.643,3.672 C6.444,3.566 6.314,3.421 6.227,3.239 L6.224,3.236 C6.158,3.097 6.125,2.95 6.125,2.792 L6.146,2.583 C6.18,2.401 6.263,2.215 6.392,2.052 C6.797,1.867 8.571,1.127 10.67,1.127 L10.682,1.127 C11.262,1.127 11.867,1.182 12.476,1.317 C14.097,1.678 15.642,2.135 16.936,3.048 C18.029,3.821 18.685,4.944 19.087,6.282 C19.415,7.383 19.555,8.62 19.617,9.852 L19.618,9.869 L19.621,9.893 C19.647,10.079 19.659,10.282 19.659,10.497 L19.658,10.655 L19.657,10.682 L19.658,10.7 C19.699,11.279 19.802,11.878 20.034,12.483 C20.315,13.218 20.793,13.971 21.565,14.741 L36.44,29.615 C36.915,30.095 37.465,30.388 38.052,30.544 C38.64,30.701 39.259,30.735 39.937,30.735 C40.247,30.735 40.571,30.728 40.912,30.72 C41.13,30.716 41.354,30.711 41.6,30.706 L41.606,30.706 L41.785,30.704 L41.797,30.704 L41.898,30.703 C44.281,30.706 46.139,31.517 47.602,32.746 C49.446,34.297 50.606,36.538 51.17,38.583 L51.653,38.453 L52.135,38.319 C51.526,36.124 50.293,33.708 48.246,31.983 C46.636,30.621 44.522,29.704 41.912,29.704 L41.898,29.704 L41.765,29.704 L41.595,29.707 L41.584,29.707 C41.334,29.71 41.108,29.715 40.89,29.72 C40.55,29.728 40.232,29.734 39.937,29.734 L39.898,29.734 C39.27,29.734 38.747,29.697 38.311,29.579 C37.865,29.456 37.505,29.264 37.147,28.909 L22.272,14.034 C21.582,13.344 21.196,12.721 20.968,12.125 C20.782,11.636 20.694,11.147 20.657,10.638 L20.66,10.514 L20.66,10.504 C20.66,10.251 20.645,10.006 20.614,9.772 C20.548,8.509 20.407,7.209 20.046,5.997 C19.605,4.522 18.837,3.166 17.513,2.232 C16.038,1.194 14.352,0.712 12.694,0.342 C12.003,0.189 11.327,0.127 10.682,0.127" id="Fill-3" sketch:type="MSShapeGroup"></path>
            </g>
        </g>
    </g>
</svg>