<?xml version="1.0" encoding="UTF-8" standalone="no"?>
<svg width="61px" height="61px" viewBox="0 0 61 61" version="1.1" xmlns="http://www.w3.org/2000/svg" xmlns:xlink="http://www.w3.org/1999/xlink" xmlns:sketch="http://www.bohemiancoding.com/sketch/ns">
    <!-- Generator: Sketch 3.0.2 (7799) - http://www.bohemiancoding.com/sketch -->
    <title>vk</title>
    <description>Created with Sketch.</description>
    <defs></defs>
    <g id="Page-1" stroke="none" stroke-width="1" fill="none" fill-rule="evenodd" sketch:type="MSPage">
        <g id="Portrait" sketch:type="MSArtboardGroup" transform="translate(-304.000000, -389.000000)" fill="#4D83B6">
            <g id="Imported-Layers" sketch:type="MSLayerGroup" transform="translate(228.000000, 389.000000)">
                <g id="vk" transform="translate(76.000000, 0.000000)" sketch:type="MSShapeGroup">
                    <path d="M32.887,32.59 C32.424,32.407 31.787,32.31 30.976,32.29 C30.168,32.269 29.081,32.261 27.724,32.261 L26.315,32.261 L26.315,39.873 L26.725,39.873 C28.713,39.873 30.085,39.859 30.847,39.83 C31.604,39.803 32.388,39.622 33.173,39.281 C33.869,38.979 34.37,38.541 34.693,37.963 C35.013,37.385 35.171,36.729 35.171,35.996 C35.171,35.057 34.984,34.324 34.603,33.794 C34.219,33.257 33.645,32.86 32.887,32.59" id="Fill-13"></path>
                    <path d="M30.023,27.014 C30.545,26.987 31.092,26.847 31.647,26.589 C32.251,26.303 32.679,25.906 32.905,25.405 C33.137,24.896 33.257,24.31 33.257,23.648 C33.257,23.154 33.132,22.651 32.879,22.136 C32.631,21.62 32.242,21.244 31.701,21.014 C31.201,20.79 30.609,20.671 29.918,20.651 C29.229,20.63 28.205,20.622 26.844,20.622 L26.315,20.622 L26.315,27.055 L27.274,27.055 C28.577,27.055 29.499,27.042 30.023,27.014" id="Fill-14"></path>
                    <path d="M57.385,17.603 C54.359,11.031 49.027,5.743 42.422,2.766 C38.656,1.068 34.481,0.116 30.081,0.116 C25.681,0.116 21.506,1.068 17.74,2.766 C11.257,5.687 5.997,10.832 2.943,17.234 C1.082,21.138 0.037,25.505 0.037,30.116 C0.037,34.727 1.082,39.095 2.943,42.998 C5.906,49.21 10.944,54.244 17.163,57.206 C21.077,59.07 25.456,60.116 30.081,60.116 C34.706,60.116 39.085,59.07 42.998,57.206 C49.34,54.187 54.447,49.01 57.385,42.629 C59.139,38.82 60.124,34.584 60.124,30.116 C60.124,25.648 59.139,21.413 57.385,17.603 L57.385,17.603 Z M42.176,40.125 C41.604,41.267 40.84,42.206 39.868,42.96 C38.729,43.857 37.474,44.492 36.099,44.875 C34.731,45.258 32.998,45.448 30.885,45.448 L18.719,45.448 L18.719,15.048 L29.459,15.048 C31.69,15.048 33.381,15.131 34.531,15.307 C35.682,15.472 36.763,15.828 37.765,16.372 C38.854,16.957 39.669,17.745 40.204,18.72 C40.74,19.702 41.014,20.831 41.014,22.115 C41.014,23.599 40.642,24.916 39.897,26.074 C39.159,27.231 38.136,28.081 36.834,28.63 L36.834,28.791 C38.707,29.188 40.211,29.99 41.337,31.209 C42.469,32.431 43.035,34.073 43.035,36.137 C43.035,37.65 42.748,38.979 42.176,40.125 L42.176,40.125 Z" id="Fill-15"></path>
                </g>
            </g>
        </g>
    </g>
</svg>