<?xml version="1.0" encoding="UTF-8" standalone="no"?>
<svg width="61px" height="61px" viewBox="0 0 61 61" version="1.1" xmlns="http://www.w3.org/2000/svg" xmlns:xlink="http://www.w3.org/1999/xlink" xmlns:sketch="http://www.bohemiancoding.com/sketch/ns">
    <!-- Generator: Sketch 3.0.2 (7799) - http://www.bohemiancoding.com/sketch -->
    <title>youtube</title>
    <description>Created with Sketch.</description>
    <defs></defs>
    <g id="Page-1" stroke="none" stroke-width="1" fill="none" fill-rule="evenodd" sketch:type="MSPage">
        <g id="Portrait" sketch:type="MSArtboardGroup" transform="translate(-456.000000, -389.000000)" fill="#CD3A28">
            <g id="Imported-Layers" sketch:type="MSLayerGroup" transform="translate(228.000000, 389.000000)">
                <g id="youtube" transform="translate(229.000000, 0.000000)" sketch:type="MSShapeGroup">
                    <path d="M27.732,42.867 C27.565,43.059 27.388,43.216 27.19,43.341 C26.993,43.466 26.829,43.528 26.701,43.528 C26.538,43.528 26.419,43.483 26.343,43.387 C26.271,43.294 26.234,43.143 26.234,42.932 L26.234,36.123 L24.487,36.123 L24.487,43.544 C24.487,44.075 24.591,44.468 24.793,44.734 C25.001,45.001 25.301,45.13 25.706,45.13 C26.036,45.13 26.374,45.038 26.723,44.847 C27.073,44.66 27.407,44.386 27.731,44.024 L27.731,45.001 L29.479,45.001 L29.479,36.123 L27.732,36.123 L27.732,42.867" id="Fill-2"></path>
                    <path d="M29.222,23.924 C29.489,23.924 29.698,23.849 29.858,23.7 C30.015,23.549 30.093,23.343 30.093,23.082 L30.093,17.755 C30.093,17.541 30.013,17.369 29.852,17.236 C29.69,17.106 29.481,17.041 29.222,17.041 C28.981,17.041 28.787,17.106 28.636,17.236 C28.487,17.369 28.411,17.541 28.411,17.755 L28.411,23.082 C28.411,23.35 28.483,23.556 28.622,23.704 C28.762,23.852 28.962,23.924 29.222,23.924" id="Fill-3"></path>
                    <path d="M34.115,36.015 C33.844,36.015 33.576,36.085 33.309,36.226 C33.047,36.365 32.797,36.573 32.561,36.842 L32.561,32.968 L30.793,32.968 L30.793,45.001 L32.561,45.001 L32.561,44.32 C32.787,44.592 33.041,44.792 33.307,44.921 C33.574,45.05 33.877,45.113 34.221,45.113 C34.738,45.113 35.137,44.948 35.408,44.611 C35.684,44.276 35.82,43.794 35.82,43.167 L35.82,38.24 C35.82,37.514 35.676,36.959 35.381,36.581 C35.092,36.204 34.67,36.015 34.115,36.015 L34.115,36.015 Z M34.02,42.921 C34.02,43.207 33.967,43.408 33.867,43.532 C33.768,43.66 33.611,43.723 33.397,43.723 C33.248,43.723 33.109,43.688 32.975,43.626 C32.84,43.565 32.701,43.456 32.561,43.312 L32.561,37.782 C32.68,37.659 32.799,37.568 32.92,37.511 C33.043,37.451 33.166,37.424 33.291,37.424 C33.525,37.424 33.709,37.502 33.836,37.655 C33.959,37.81 34.02,38.038 34.02,38.338 L34.02,42.921 L34.02,42.921 Z" id="Fill-4"></path>
                    <path d="M17.673,32.968 L17.673,34.715 L19.71,34.715 L19.71,45.001 L21.681,45.001 L21.681,34.715 L23.719,34.715 L23.718,32.968 L17.673,32.968" id="Fill-5"></path>
                    <path d="M29.777,0.116 C13.185,0.116 -0.267,13.548 -0.267,30.116 C-0.267,46.685 13.185,60.116 29.777,60.116 C46.369,60.116 59.82,46.685 59.82,30.116 C59.82,13.548 46.369,0.116 29.777,0.116 L29.777,0.116 Z M33.695,15.593 L35.66,15.593 L35.66,23.089 C35.66,23.321 35.705,23.488 35.787,23.592 C35.867,23.695 36.002,23.748 36.187,23.748 C36.33,23.748 36.514,23.678 36.736,23.542 C36.955,23.404 37.16,23.229 37.342,23.015 L37.342,15.593 L39.311,15.593 L39.311,25.371 L37.342,25.371 L37.342,24.291 C36.982,24.688 36.606,24.994 36.211,25.201 C35.818,25.409 35.437,25.513 35.068,25.513 C34.611,25.513 34.271,25.366 34.039,25.076 C33.81,24.784 33.695,24.348 33.695,23.765 L33.695,15.593 L33.695,15.593 Z M26.386,17.83 C26.386,17.07 26.649,16.467 27.181,16.019 C27.711,15.571 28.425,15.346 29.316,15.346 C30.13,15.346 30.799,15.583 31.32,16.056 C31.838,16.529 32.1,17.139 32.1,17.884 L32.1,22.936 C32.1,23.772 31.844,24.427 31.336,24.903 C30.822,25.379 30.122,25.618 29.227,25.618 C28.368,25.618 27.678,25.371 27.159,24.882 C26.646,24.39 26.386,23.728 26.386,22.898 L26.386,17.83 L26.386,17.83 Z M21.026,12.116 L22.466,17.415 L22.604,17.415 L23.974,12.116 L26.227,12.116 L23.648,19.872 L23.648,25.371 L21.433,25.371 L21.433,20.12 L18.795,12.116 L21.026,12.116 L21.026,12.116 Z M43.305,47.655 C41.869,49.085 29.772,49.116 29.772,49.116 C29.772,49.116 17.675,49.085 16.236,47.655 C14.798,46.221 14.794,39.153 14.794,39.099 C14.794,39.059 14.798,31.979 16.236,30.545 C17.676,29.113 29.772,29.094 29.772,29.095 C29.772,29.094 41.869,29.113 43.305,30.545 C44.746,31.979 44.762,39.058 44.762,39.099 C44.762,39.099 44.75,46.216 43.305,47.655 L43.305,47.655 Z" id="Fill-6"></path>
                    <path d="M39.393,35.903 C38.607,35.903 37.973,36.144 37.479,36.629 C36.984,37.113 36.736,37.744 36.736,38.511 L36.736,42.498 C36.736,43.353 36.963,44.024 37.412,44.511 C37.861,45.001 38.478,45.242 39.262,45.242 C40.133,45.242 40.787,45.015 41.223,44.557 C41.664,44.094 41.881,43.408 41.881,42.498 L41.881,42.042 L40.082,42.042 L40.082,42.447 C40.082,42.969 40.021,43.306 39.908,43.459 C39.793,43.612 39.59,43.689 39.301,43.689 C39.022,43.689 38.826,43.6 38.709,43.42 C38.596,43.238 38.537,42.915 38.537,42.447 L38.537,40.774 L41.881,40.774 L41.881,38.511 C41.881,37.669 41.668,37.024 41.238,36.576 C40.809,36.127 40.193,35.903 39.393,35.903 L39.393,35.903 Z M40.084,39.393 L38.539,39.393 L38.539,38.496 C38.539,38.125 38.598,37.856 38.719,37.701 C38.84,37.535 39.041,37.456 39.318,37.456 C39.584,37.456 39.781,37.535 39.898,37.701 C40.02,37.856 40.084,38.125 40.084,38.496 L40.084,39.393 L40.084,39.393 Z" id="Fill-7"></path>
                </g>
            </g>
        </g>
    </g>
</svg>